G04*
G04 #@! TF.GenerationSoftware,Altium Limited,Altium Designer,24.3.1 (35)*
G04*
G04 Layer_Physical_Order=1*
G04 Layer_Color=6063383*
%FSLAX44Y44*%
%MOMM*%
G71*
G04*
G04 #@! TF.SameCoordinates,F933E494-0B61-492B-8715-CC6E50B89988*
G04*
G04*
G04 #@! TF.FilePolarity,Positive*
G04*
G01*
G75*
%ADD17C,0.1524*%
%ADD18R,2.0000X1.0000*%
%ADD19R,0.5000X0.6000*%
%ADD20R,2.1500X3.5000*%
%ADD21R,2.1500X1.1000*%
%ADD22R,2.1500X1.1000*%
%ADD23R,1.5000X1.3000*%
%ADD24R,1.3000X1.5000*%
%ADD25R,0.6000X0.5000*%
%ADD26R,0.7620X0.7620*%
%ADD27R,0.8000X1.2000*%
%ADD28O,0.5500X2.5000*%
%ADD29R,0.6350X0.5080*%
G04:AMPARAMS|DCode=30|XSize=3mm|YSize=1.524mm|CornerRadius=0.381mm|HoleSize=0mm|Usage=FLASHONLY|Rotation=90.000|XOffset=0mm|YOffset=0mm|HoleType=Round|Shape=RoundedRectangle|*
%AMROUNDEDRECTD30*
21,1,3.0000,0.7620,0,0,90.0*
21,1,2.2380,1.5240,0,0,90.0*
1,1,0.7620,0.3810,1.1190*
1,1,0.7620,0.3810,-1.1190*
1,1,0.7620,-0.3810,-1.1190*
1,1,0.7620,-0.3810,1.1190*
%
%ADD30ROUNDEDRECTD30*%
%ADD31R,2.0320X1.2700*%
%ADD58C,0.5080*%
%ADD59C,0.2540*%
G04:AMPARAMS|DCode=60|XSize=2.032mm|YSize=2.032mm|CornerRadius=0mm|HoleSize=0mm|Usage=FLASHONLY|Rotation=180.000|XOffset=0mm|YOffset=0mm|HoleType=Round|Shape=Octagon|*
%AMOCTAGOND60*
4,1,8,-1.0160,0.5080,-1.0160,-0.5080,-0.5080,-1.0160,0.5080,-1.0160,1.0160,-0.5080,1.0160,0.5080,0.5080,1.0160,-0.5080,1.0160,-1.0160,0.5080,0.0*
%
%ADD60OCTAGOND60*%

%ADD61C,2.0320*%
%ADD62C,1.5748*%
%ADD63C,1.2700*%
G04:AMPARAMS|DCode=64|XSize=1.5748mm|YSize=1.5748mm|CornerRadius=0mm|HoleSize=0mm|Usage=FLASHONLY|Rotation=270.000|XOffset=0mm|YOffset=0mm|HoleType=Round|Shape=Octagon|*
%AMOCTAGOND64*
4,1,8,-0.3937,-0.7874,0.3937,-0.7874,0.7874,-0.3937,0.7874,0.3937,0.3937,0.7874,-0.3937,0.7874,-0.7874,0.3937,-0.7874,-0.3937,-0.3937,-0.7874,0.0*
%
%ADD64OCTAGOND64*%

%ADD65O,4.0000X3.0000*%
%ADD66C,2.0000*%
%ADD67C,4.0640*%
%ADD68C,1.7000*%
%ADD69R,1.7000X1.7000*%
%ADD70C,3.2000*%
%ADD71C,5.0000*%
%ADD72C,0.5080*%
%ADD73C,0.4572*%
G36*
X669733Y-25843D02*
X-25843D01*
Y458913D01*
X669733D01*
X669733Y-25843D01*
D02*
G37*
%LPC*%
G36*
X361790Y443880D02*
X335210D01*
Y429020D01*
X299790D01*
Y431880D01*
X273210D01*
Y430654D01*
X271660D01*
Y436150D01*
X251580D01*
Y432567D01*
X250150Y432340D01*
X250150Y432340D01*
X250150Y432340D01*
X240070D01*
Y427616D01*
X239930Y426915D01*
Y426800D01*
X240070Y426099D01*
Y421260D01*
X238873Y420470D01*
X211981D01*
X209999Y420075D01*
X208319Y418952D01*
X203486Y414119D01*
X185420D01*
Y415290D01*
X179070Y421640D01*
X166370D01*
X160020Y415290D01*
X158496Y414983D01*
X157483Y416738D01*
X155118Y419103D01*
X152222Y420774D01*
X148992Y421640D01*
X145648D01*
X142418Y420774D01*
X139522Y419103D01*
X137157Y416738D01*
X135485Y413842D01*
X135382Y413456D01*
X133858D01*
X133755Y413842D01*
X132083Y416738D01*
X129718Y419103D01*
X126822Y420774D01*
X123592Y421640D01*
X120248D01*
X117018Y420774D01*
X114122Y419103D01*
X111757Y416738D01*
X110085Y413842D01*
X109220Y410612D01*
Y407268D01*
X110085Y404038D01*
X111757Y401142D01*
X114122Y398778D01*
X117018Y397105D01*
X120248Y396240D01*
X123592D01*
X126822Y397105D01*
X128198Y397900D01*
X152559Y373539D01*
X153652Y372810D01*
X154940Y372553D01*
X204345D01*
X241300Y335599D01*
Y334269D01*
X242073Y332402D01*
X243502Y330973D01*
X245369Y330200D01*
X247390D01*
X249258Y330973D01*
X250687Y332402D01*
X251460Y334269D01*
Y336291D01*
X250687Y338158D01*
X249258Y339587D01*
X247390Y340360D01*
X246061D01*
X237085Y349336D01*
X237443Y351134D01*
X237828Y351293D01*
X239257Y352722D01*
X240030Y354590D01*
Y356610D01*
X239257Y358478D01*
X237828Y359907D01*
X235961Y360680D01*
X234631D01*
X210661Y384651D01*
X209568Y385380D01*
X208280Y385637D01*
X175385D01*
X166259Y394762D01*
X166936Y396240D01*
X179070D01*
X185420Y402590D01*
Y403760D01*
X205631D01*
X207613Y404155D01*
X209293Y405277D01*
X214126Y410111D01*
X253460D01*
Y391280D01*
X254542D01*
X256000Y391120D01*
Y381040D01*
X260839D01*
X261540Y380900D01*
X261960D01*
X262661Y381040D01*
X267080D01*
Y385620D01*
X267180Y386120D01*
Y391280D01*
X271540D01*
Y395900D01*
X273210D01*
Y392800D01*
X299790D01*
Y408880D01*
X273210D01*
Y406259D01*
X271540D01*
Y411360D01*
X264057D01*
Y412314D01*
X263663Y414296D01*
X262540Y415977D01*
X262540Y415977D01*
X261855Y416662D01*
X262438Y418070D01*
X271660D01*
Y420295D01*
X273210D01*
Y415800D01*
X299790D01*
Y418661D01*
X335210D01*
Y403800D01*
X344615D01*
Y398369D01*
X333546Y387300D01*
X332700Y387650D01*
Y387650D01*
X322620D01*
Y385995D01*
X307300D01*
Y387650D01*
X297220D01*
Y376570D01*
Y366570D01*
X297723D01*
X297923Y365046D01*
X297358Y364894D01*
X294462Y363223D01*
X292097Y360858D01*
X290425Y357962D01*
X290322Y357576D01*
X288798D01*
X288694Y357962D01*
X287022Y360858D01*
X284658Y363223D01*
X281762Y364894D01*
X278532Y365760D01*
X275188D01*
X271958Y364894D01*
X269062Y363223D01*
X266698Y360858D01*
X265026Y357962D01*
X264160Y354732D01*
Y351388D01*
X265026Y348158D01*
X266698Y345262D01*
X269062Y342897D01*
X271045Y341752D01*
Y332500D01*
X265550D01*
Y329134D01*
X265430Y327660D01*
X252730D01*
Y314960D01*
X265430D01*
X265550Y313486D01*
Y297420D01*
X265430Y297180D01*
X265430D01*
Y290060D01*
X265331Y289560D01*
Y259955D01*
X238908Y233533D01*
X237785Y231852D01*
X237390Y229870D01*
Y219315D01*
X212237Y194163D01*
X211115Y192482D01*
X210721Y190500D01*
Y176630D01*
X200006D01*
X198136Y176257D01*
X198120Y176271D01*
X197347Y178138D01*
X195918Y179567D01*
X194051Y180340D01*
X192721D01*
X189554Y183507D01*
X188462Y184237D01*
X187173Y184493D01*
X183453D01*
Y197351D01*
X184694Y197715D01*
X184977Y197729D01*
X186352Y196353D01*
X188220Y195580D01*
X190240D01*
X192108Y196353D01*
X193537Y197782D01*
X194310Y199650D01*
Y201670D01*
X193537Y203538D01*
X192108Y204967D01*
X190240Y205740D01*
X188220D01*
X186352Y204967D01*
X184977Y203591D01*
X184694Y203605D01*
X183453Y203969D01*
Y212383D01*
X183196Y213672D01*
X182467Y214764D01*
X179897Y217334D01*
Y233963D01*
X179640Y235251D01*
X178911Y236343D01*
X177067Y238187D01*
X176902Y239016D01*
X176172Y240108D01*
X170369Y245911D01*
X169277Y246641D01*
X168448Y246806D01*
X110613Y304641D01*
X109521Y305370D01*
X108233Y305627D01*
X104148D01*
X103208Y306567D01*
X101341Y307340D01*
X99319D01*
X97452Y306567D01*
X96023Y305138D01*
X95250Y303270D01*
Y301250D01*
X96023Y299382D01*
X97452Y297953D01*
X99319Y297180D01*
X101341D01*
X103208Y297953D01*
X104148Y298893D01*
X106838D01*
X153053Y252679D01*
X152470Y251271D01*
X151000D01*
X149701Y252571D01*
X148608Y253300D01*
X147320Y253557D01*
X136367D01*
X93157Y296767D01*
X92065Y297496D01*
X90776Y297753D01*
X85081D01*
X84672Y299277D01*
X86404Y300277D01*
X88343Y302216D01*
X89714Y304590D01*
X90424Y307239D01*
Y309981D01*
X89714Y312630D01*
X88343Y315004D01*
X86404Y316943D01*
X84030Y318314D01*
X81381Y319024D01*
X78639D01*
X75990Y318314D01*
X73616Y316943D01*
X71677Y315004D01*
X70306Y312630D01*
X69748Y310548D01*
X68178Y309963D01*
X67151Y310991D01*
X66058Y311720D01*
X65024Y311926D01*
Y313817D01*
X59817Y319024D01*
X49403D01*
X44196Y313817D01*
Y303403D01*
X49403Y298196D01*
X59817D01*
X64194Y302572D01*
X64573Y302602D01*
X66022Y302246D01*
X66453Y301600D01*
X74566Y293488D01*
X74367Y291977D01*
X73616Y291543D01*
X71677Y289604D01*
X70306Y287230D01*
X69596Y284581D01*
Y281839D01*
X70306Y279190D01*
X70644Y278605D01*
X67095Y275056D01*
X63175D01*
X62592Y276464D01*
X62943Y276816D01*
X64314Y279190D01*
X65024Y281839D01*
Y284581D01*
X64314Y287230D01*
X62943Y289604D01*
X61004Y291543D01*
X58630Y292914D01*
X55981Y293624D01*
X53239D01*
X50590Y292914D01*
X48216Y291543D01*
X46277Y289604D01*
X44906Y287230D01*
X44196Y284581D01*
Y281839D01*
X44906Y279190D01*
X45244Y278605D01*
X21749Y255111D01*
X21020Y254018D01*
X20763Y252730D01*
Y246380D01*
X21020Y245092D01*
X21749Y243999D01*
X24319Y241430D01*
Y162814D01*
X24576Y161526D01*
X25305Y160433D01*
X40799Y144939D01*
X41892Y144210D01*
X43180Y143953D01*
X46300D01*
X47600Y142653D01*
X48692Y141924D01*
X49653Y141733D01*
X49970Y140823D01*
X49962Y140151D01*
X48216Y139143D01*
X46277Y137204D01*
X45575Y135990D01*
X33020D01*
X31038Y135595D01*
X29358Y134473D01*
X17928Y123042D01*
X16805Y121362D01*
X16410Y119380D01*
Y35266D01*
X16805Y33284D01*
X17928Y31603D01*
X20903Y28628D01*
X20903Y28628D01*
X22584Y27505D01*
X24566Y27111D01*
X25520D01*
Y19290D01*
X45600D01*
Y22320D01*
X52070D01*
Y17780D01*
Y0D01*
X77470D01*
Y17780D01*
Y35560D01*
X52070D01*
Y32680D01*
X45600D01*
Y37370D01*
X32100D01*
X31600Y37469D01*
X26769D01*
Y117235D01*
X35165Y125631D01*
X45575D01*
X46277Y124416D01*
X48216Y122477D01*
X50590Y121106D01*
X53239Y120396D01*
X55981D01*
X57336Y120759D01*
X62378Y115717D01*
X64058Y114595D01*
X66040Y114200D01*
X99060D01*
X101042Y114595D01*
X102723Y115717D01*
X140575Y153570D01*
X187306D01*
X189288Y153965D01*
X190969Y155087D01*
X202152Y166271D01*
X212924D01*
X214906Y166665D01*
X215830Y167282D01*
X217354Y166519D01*
X218127Y164652D01*
X219557Y163223D01*
X221424Y162449D01*
X223444D01*
X225312Y163223D01*
X226362Y164273D01*
X276860D01*
X278148Y164530D01*
X279241Y165259D01*
X336313Y222332D01*
X337694Y221610D01*
X337720Y221584D01*
Y185025D01*
X293765Y141069D01*
X238030D01*
Y159900D01*
X219950D01*
Y155040D01*
X209550D01*
X209050Y154940D01*
X208540D01*
X208068Y154745D01*
X207568Y154645D01*
X207144Y154362D01*
X206672Y154167D01*
X206312Y153806D01*
X205888Y153523D01*
X205604Y153098D01*
X205243Y152738D01*
X205048Y152266D01*
X204765Y151842D01*
X204665Y151342D01*
X204470Y150871D01*
Y150360D01*
X204370Y149860D01*
X204470Y149360D01*
Y148849D01*
X204665Y148378D01*
X204765Y147878D01*
X205048Y147454D01*
X205243Y146982D01*
X205604Y146622D01*
X205888Y146198D01*
X206312Y145914D01*
X206672Y145553D01*
X207144Y145358D01*
X207568Y145075D01*
X208068Y144975D01*
X208540Y144780D01*
X209050D01*
X209550Y144681D01*
X219950D01*
Y139820D01*
X223421D01*
Y135890D01*
X223520Y135390D01*
Y134880D01*
X223715Y134408D01*
X223815Y133908D01*
X224098Y133484D01*
X224293Y133012D01*
X224654Y132652D01*
X224937Y132227D01*
X225362Y131944D01*
X225722Y131583D01*
X226194Y131388D01*
X226618Y131105D01*
X227118Y131005D01*
X227589Y130810D01*
X228100D01*
X228600Y130710D01*
X295910D01*
X297892Y131105D01*
X299573Y132227D01*
X346562Y179217D01*
X347685Y180898D01*
X348079Y182880D01*
Y219451D01*
X354049Y225420D01*
X355560D01*
X356060Y225520D01*
X360640D01*
Y228775D01*
X361635Y229771D01*
X367733D01*
X368172Y228634D01*
X368251Y228246D01*
X367127Y226564D01*
X366716Y224500D01*
Y205000D01*
X367127Y202936D01*
X368225Y201292D01*
Y198120D01*
X368521Y196633D01*
X369363Y195373D01*
X375713Y189023D01*
X376973Y188181D01*
X378460Y187885D01*
X423841D01*
X444425Y167301D01*
Y167262D01*
X443327Y165618D01*
X442916Y163554D01*
Y144054D01*
X443327Y141990D01*
X444425Y140346D01*
Y134037D01*
X444721Y132551D01*
X445563Y131291D01*
X445770Y131084D01*
Y129799D01*
X446543Y127932D01*
X447972Y126503D01*
X449840Y125730D01*
X450619D01*
X451433Y124260D01*
X451049Y123419D01*
X450930Y123265D01*
X434880D01*
Y130810D01*
X436620D01*
X438488Y131583D01*
X439917Y133012D01*
X440690Y134880D01*
Y136901D01*
X439917Y138768D01*
X439424Y140240D01*
X440593Y141990D01*
X441004Y144054D01*
Y163554D01*
X440593Y165618D01*
X439424Y167368D01*
X437674Y168537D01*
X435610Y168948D01*
X433546Y168537D01*
X431796Y167368D01*
X430627Y165618D01*
X430216Y163554D01*
Y144054D01*
X430627Y141990D01*
X431796Y140240D01*
X431303Y138768D01*
X431292Y138740D01*
X429768D01*
X429757Y138768D01*
X428328Y140197D01*
X428158Y140267D01*
X427716Y141725D01*
X427893Y141990D01*
X428304Y144054D01*
Y163554D01*
X427893Y165618D01*
X426724Y167368D01*
X424974Y168537D01*
X422910Y168948D01*
X420846Y168537D01*
X419096Y167368D01*
X417927Y165618D01*
X417516Y163554D01*
Y144054D01*
X417927Y141990D01*
X419096Y140240D01*
X419084Y140152D01*
X418978Y139851D01*
X417220Y139453D01*
X414989Y141685D01*
X415193Y141990D01*
X415604Y144054D01*
Y163554D01*
X415193Y165618D01*
X414024Y167368D01*
X412274Y168537D01*
X410210Y168948D01*
X408146Y168537D01*
X406396Y167368D01*
X405227Y165618D01*
X404816Y163554D01*
Y144054D01*
X405227Y141990D01*
X406396Y140240D01*
X406996Y139839D01*
X407178Y138927D01*
X408020Y137667D01*
X420163Y125523D01*
X421423Y124681D01*
X422910Y124385D01*
X423800D01*
Y123230D01*
X425455D01*
Y121840D01*
X425751Y120353D01*
X426593Y119093D01*
X429053Y116633D01*
X430313Y115791D01*
X431800Y115495D01*
X451820D01*
Y114340D01*
X472900D01*
X473710Y113152D01*
Y113030D01*
X486410D01*
Y120650D01*
X487786Y121175D01*
X488950Y120276D01*
Y113030D01*
X500203D01*
X501272Y113030D01*
X501287Y113029D01*
X501483Y112868D01*
X502281Y111778D01*
X502194Y111545D01*
X501650Y110231D01*
Y108209D01*
X502423Y106342D01*
X503363Y105402D01*
Y80010D01*
X503620Y78722D01*
X504349Y77629D01*
X508443Y73535D01*
Y70310D01*
X506770D01*
Y59230D01*
X516850D01*
X516930Y57739D01*
Y49230D01*
X518085D01*
Y46059D01*
X482261Y10235D01*
X404711D01*
X404674Y10370D01*
X403303Y12744D01*
X401364Y14683D01*
X398990Y16054D01*
X396341Y16764D01*
X393599D01*
X390950Y16054D01*
X388576Y14683D01*
X386637Y12744D01*
X385266Y10370D01*
X384556Y7721D01*
Y4979D01*
X385266Y2330D01*
X386637Y-44D01*
X388576Y-1983D01*
X390950Y-3354D01*
X393599Y-4064D01*
X396341D01*
X398990Y-3354D01*
X401364Y-1983D01*
X403303Y-44D01*
X404674Y2330D01*
X404711Y2465D01*
X483870D01*
X485357Y2761D01*
X486617Y3603D01*
X524363Y41349D01*
X526564D01*
X528051Y41645D01*
X528335Y41835D01*
X547370D01*
X548857Y42131D01*
X550117Y42973D01*
X561765Y54621D01*
X562607Y55881D01*
X562903Y57368D01*
Y117892D01*
X562607Y119379D01*
X561765Y120639D01*
X520775Y161629D01*
Y165025D01*
X534670D01*
X536157Y165321D01*
X537417Y166163D01*
X575649Y204395D01*
X632500D01*
Y202820D01*
X636427D01*
X636531Y202295D01*
X637373Y201035D01*
X639605Y198803D01*
X640865Y197961D01*
X642352Y197665D01*
X655030D01*
X656517Y197961D01*
X657777Y198803D01*
X665687Y206713D01*
X666529Y207973D01*
X666825Y209460D01*
Y236220D01*
X666529Y237707D01*
X665687Y238967D01*
X664275Y240379D01*
Y269250D01*
X663979Y270737D01*
X663137Y271997D01*
X638805Y296329D01*
Y317540D01*
X640460D01*
Y327620D01*
X631951D01*
X630460Y327700D01*
Y337780D01*
X619600D01*
Y340280D01*
X594520D01*
Y336107D01*
X559600D01*
Y340280D01*
X534520D01*
Y325947D01*
X495300D01*
X494012Y325690D01*
X492919Y324961D01*
X447199Y279241D01*
X446470Y278148D01*
X446213Y276860D01*
Y275740D01*
X441223Y270749D01*
X440493Y269657D01*
X440237Y268369D01*
Y267517D01*
X439380Y266660D01*
X439117Y266267D01*
X438796Y266235D01*
X436929Y267009D01*
X434908D01*
X433041Y266235D01*
X431612Y264806D01*
X430839Y262939D01*
Y260918D01*
X431612Y259051D01*
X432552Y258111D01*
Y252757D01*
X432808Y251468D01*
X433538Y250376D01*
X435299Y248615D01*
X434716Y247207D01*
X430530D01*
X429242Y246950D01*
X428485Y246445D01*
X421885D01*
X419957Y248373D01*
X418864Y249103D01*
X417576Y249359D01*
X416955D01*
X415628Y250687D01*
X413760Y251460D01*
X412341D01*
X411688Y252963D01*
X416644Y257919D01*
X417870Y258620D01*
Y258620D01*
X417870Y258620D01*
X427950D01*
Y269280D01*
X438450D01*
Y279360D01*
X438350D01*
X438150Y279660D01*
Y281681D01*
X437377Y283548D01*
X436955Y283970D01*
Y365760D01*
X436659Y367247D01*
X435817Y368507D01*
X388827Y415497D01*
X387567Y416339D01*
X386080Y416635D01*
X369529D01*
X368400Y417830D01*
X368300Y418330D01*
Y418840D01*
X368105Y419312D01*
X368005Y419812D01*
X367722Y420236D01*
X367527Y420708D01*
X367166Y421068D01*
X366883Y421493D01*
X366458Y421776D01*
X366098Y422137D01*
X365626Y422332D01*
X365202Y422615D01*
X364702Y422715D01*
X364230Y422910D01*
X363720D01*
X363220Y423009D01*
X361790D01*
Y443880D01*
D02*
G37*
G36*
X195320Y336550D02*
X193300D01*
X191432Y335777D01*
X190492Y334837D01*
X187960D01*
X186672Y334580D01*
X185579Y333851D01*
X157639Y305911D01*
X156910Y304818D01*
X156653Y303530D01*
Y275590D01*
X156910Y274302D01*
X157639Y273209D01*
X166661Y264188D01*
X166070Y262624D01*
X164578Y262006D01*
X163149Y260577D01*
X162376Y258710D01*
Y256689D01*
X163149Y254822D01*
X164578Y253393D01*
X166445Y252619D01*
X168466D01*
X168872Y252787D01*
X169051Y252668D01*
X170340Y252411D01*
X176410D01*
X177698Y252668D01*
X178790Y253397D01*
X182213Y256820D01*
X182942Y257912D01*
X183199Y259200D01*
Y264040D01*
X182942Y265328D01*
X182213Y266420D01*
X178379Y270254D01*
X179586Y271462D01*
X180360Y273329D01*
Y275350D01*
X179586Y277217D01*
X178157Y278646D01*
X176290Y279420D01*
X175204D01*
X174817Y279807D01*
Y293246D01*
X180464Y298893D01*
X190492D01*
X191432Y297953D01*
X193300Y297180D01*
X195320D01*
X197188Y297953D01*
X198617Y299382D01*
X199390Y301250D01*
Y303270D01*
X198617Y305138D01*
X197188Y306567D01*
X195320Y307340D01*
X193300D01*
X191432Y306567D01*
X190492Y305627D01*
X179070D01*
X177782Y305370D01*
X177436Y305139D01*
X176464Y306323D01*
X188085Y317943D01*
X190492D01*
X191432Y317003D01*
X193300Y316230D01*
X195320D01*
X197188Y317003D01*
X198617Y318432D01*
X199390Y320299D01*
Y322321D01*
X198617Y324188D01*
X197188Y325617D01*
X197160Y325628D01*
Y327152D01*
X197188Y327163D01*
X198617Y328592D01*
X199390Y330460D01*
Y332481D01*
X198617Y334348D01*
X197188Y335777D01*
X195320Y336550D01*
D02*
G37*
G36*
X191511Y256540D02*
X189489D01*
X187622Y255767D01*
X186193Y254338D01*
X185420Y252470D01*
Y250450D01*
X186193Y248582D01*
X187622Y247153D01*
X189489Y246380D01*
X191511D01*
X193378Y247153D01*
X194807Y248582D01*
X195580Y250450D01*
Y252470D01*
X194807Y254338D01*
X193378Y255767D01*
X191511Y256540D01*
D02*
G37*
G36*
X190240Y231140D02*
X188220D01*
X186352Y230367D01*
X184923Y228938D01*
X184150Y227071D01*
Y225049D01*
X184923Y223182D01*
X186352Y221753D01*
X188220Y220980D01*
X190240D01*
X192108Y221753D01*
X193537Y223182D01*
X194310Y225049D01*
Y227071D01*
X193537Y228938D01*
X192108Y230367D01*
X190240Y231140D01*
D02*
G37*
G36*
X397510Y168948D02*
X395446Y168537D01*
X393696Y167368D01*
X392527Y165618D01*
X392116Y163554D01*
Y144221D01*
X391710Y143815D01*
X391689Y143803D01*
X391474Y143840D01*
X390204Y144698D01*
Y163554D01*
X389793Y165618D01*
X388624Y167368D01*
X386874Y168537D01*
X384810Y168948D01*
X382746Y168537D01*
X380996Y167368D01*
X379827Y165618D01*
X379416Y163554D01*
Y144054D01*
X379827Y141990D01*
X380996Y140240D01*
X381443Y139941D01*
Y137284D01*
X372269Y128111D01*
X371540Y127018D01*
X371283Y125730D01*
Y77470D01*
X371540Y76182D01*
X372269Y75089D01*
X385604Y61755D01*
X385266Y61170D01*
X384556Y58521D01*
Y55779D01*
X385266Y53130D01*
X386637Y50756D01*
X388576Y48817D01*
X390950Y47446D01*
X393599Y46736D01*
X396341D01*
X398990Y47446D01*
X401364Y48817D01*
X403303Y50756D01*
X404674Y53130D01*
X405384Y55779D01*
Y58521D01*
X404674Y61170D01*
X403303Y63544D01*
X401364Y65483D01*
X398990Y66854D01*
X396341Y67564D01*
X393599D01*
X390950Y66854D01*
X390365Y66516D01*
X386649Y70232D01*
X387621Y71416D01*
X387967Y71185D01*
X389255Y70928D01*
X399291D01*
X408113Y62105D01*
Y49654D01*
X399575Y41116D01*
X398990Y41454D01*
X396341Y42164D01*
X393599D01*
X390950Y41454D01*
X388576Y40083D01*
X386637Y38144D01*
X385266Y35770D01*
X384556Y33121D01*
Y30379D01*
X385266Y27730D01*
X386637Y25356D01*
X388576Y23417D01*
X390950Y22046D01*
X393599Y21336D01*
X396341D01*
X398990Y22046D01*
X401364Y23417D01*
X403303Y25356D01*
X404674Y27730D01*
X405384Y30379D01*
Y33121D01*
X404674Y35770D01*
X404336Y36355D01*
X413861Y45879D01*
X414590Y46972D01*
X414847Y48260D01*
Y63500D01*
X414590Y64788D01*
X413861Y65881D01*
X403066Y76676D01*
X401973Y77405D01*
X400685Y77662D01*
X390649D01*
X383097Y85215D01*
Y121796D01*
X393795Y132494D01*
X394525Y133586D01*
X394781Y134875D01*
Y136564D01*
X396982Y138765D01*
X397510Y138660D01*
X399574Y139071D01*
X401324Y140240D01*
X402493Y141990D01*
X402904Y144054D01*
Y163554D01*
X402493Y165618D01*
X401324Y167368D01*
X399574Y168537D01*
X397510Y168948D01*
D02*
G37*
G36*
X581580Y172715D02*
X571580D01*
X568142Y172376D01*
X564835Y171373D01*
X561788Y169744D01*
X559117Y167553D01*
X556926Y164882D01*
X555297Y161835D01*
X554294Y158528D01*
X553955Y155090D01*
X554294Y151652D01*
X555297Y148345D01*
X556926Y145298D01*
X559117Y142627D01*
X561788Y140435D01*
X564835Y138807D01*
X568142Y137804D01*
X571580Y137465D01*
X581580D01*
X585018Y137804D01*
X588325Y138807D01*
X591372Y140435D01*
X594043Y142627D01*
X596235Y145298D01*
X597863Y148345D01*
X598866Y151652D01*
X599205Y155090D01*
X598866Y158528D01*
X597863Y161835D01*
X596235Y164882D01*
X594043Y167553D01*
X591372Y169744D01*
X588325Y171373D01*
X585018Y172376D01*
X581580Y172715D01*
D02*
G37*
G36*
X619467Y110940D02*
X618173D01*
X617182Y110743D01*
X615988Y110248D01*
X615148Y109686D01*
X614234Y108772D01*
X613672Y107932D01*
X613672Y107932D01*
X613177Y106737D01*
X612980Y105746D01*
Y104453D01*
X613177Y103462D01*
X613672Y102268D01*
X614234Y101428D01*
X615148Y100513D01*
X615988Y99952D01*
X615988Y99952D01*
X617183Y99457D01*
X618173Y99260D01*
X619467D01*
X620457Y99457D01*
X621652Y99952D01*
X622492Y100513D01*
X623406Y101428D01*
X623406Y101428D01*
X623968Y102268D01*
X624463Y103462D01*
X624660Y104453D01*
Y105746D01*
X624463Y106737D01*
X623968Y107932D01*
X623406Y108772D01*
X622492Y109686D01*
X622492Y109686D01*
X621652Y110248D01*
X620457Y110743D01*
X619467Y110940D01*
D02*
G37*
G36*
X617072Y94484D02*
X615051D01*
X613184Y93711D01*
X611755Y92282D01*
X610981Y90415D01*
Y88394D01*
X611755Y86526D01*
X613184Y85098D01*
X615051Y84324D01*
X617072D01*
X618939Y85098D01*
X619879Y86037D01*
X624205D01*
Y83820D01*
X635635D01*
Y93980D01*
X624205D01*
Y92771D01*
X619879D01*
X618939Y93711D01*
X617072Y94484D01*
D02*
G37*
G36*
X81381Y90424D02*
X78639D01*
X75990Y89714D01*
X73616Y88343D01*
X71677Y86404D01*
X70306Y84030D01*
X69596Y81381D01*
Y78639D01*
X70306Y75990D01*
X71677Y73616D01*
X73616Y71677D01*
X75990Y70306D01*
X78639Y69596D01*
X81381D01*
X84030Y70306D01*
X86404Y71677D01*
X88343Y73616D01*
X89714Y75990D01*
X90424Y78639D01*
Y81381D01*
X89714Y84030D01*
X88343Y86404D01*
X86404Y88343D01*
X84030Y89714D01*
X81381Y90424D01*
D02*
G37*
G36*
X55981D02*
X53239D01*
X50590Y89714D01*
X48216Y88343D01*
X46277Y86404D01*
X44906Y84030D01*
X44196Y81381D01*
Y78639D01*
X44906Y75990D01*
X46277Y73616D01*
X48216Y71677D01*
X50590Y70306D01*
X53239Y69596D01*
X55981D01*
X58630Y70306D01*
X61004Y71677D01*
X62943Y73616D01*
X64314Y75990D01*
X65024Y78639D01*
Y81381D01*
X64314Y84030D01*
X62943Y86404D01*
X61004Y88343D01*
X58630Y89714D01*
X55981Y90424D01*
D02*
G37*
G36*
X612290Y72310D02*
X587210D01*
Y69407D01*
X585477D01*
X584538Y70347D01*
X582671Y71120D01*
X580649D01*
X578782Y70347D01*
X577353Y68918D01*
X576580Y67050D01*
Y65030D01*
X577353Y63162D01*
X578782Y61733D01*
X580649Y60960D01*
X582671D01*
X584538Y61733D01*
X585477Y62673D01*
X587210D01*
Y57230D01*
X612290D01*
X612290Y57230D01*
Y57230D01*
X613727Y57019D01*
X614342Y56403D01*
X616209Y55630D01*
X618231D01*
X618523Y55751D01*
X619184Y55310D01*
X620472Y55053D01*
X624205D01*
Y53340D01*
X635635D01*
Y63500D01*
X624205D01*
Y61787D01*
X622273D01*
X621527Y63588D01*
X620098Y65017D01*
X618231Y65790D01*
X616209D01*
X614342Y65017D01*
X613814Y64488D01*
X612290Y65120D01*
Y72310D01*
D02*
G37*
G36*
X374777Y67564D02*
X364363D01*
X359156Y62357D01*
Y51943D01*
X364363Y46736D01*
X374777D01*
X379984Y51943D01*
Y62357D01*
X374777Y67564D01*
D02*
G37*
G36*
X619467Y53140D02*
X618173D01*
X617182Y52943D01*
X615988Y52448D01*
X615148Y51887D01*
X614234Y50972D01*
X613672Y50132D01*
X613672Y50132D01*
X613177Y48938D01*
X612980Y47947D01*
Y46653D01*
X613177Y45662D01*
X613672Y44468D01*
X614234Y43628D01*
X615148Y42713D01*
X615988Y42152D01*
X615988Y42152D01*
X617183Y41657D01*
X618173Y41460D01*
X619467D01*
X620457Y41657D01*
X621652Y42152D01*
X622492Y42713D01*
X623406Y43628D01*
X623406Y43628D01*
X623968Y44468D01*
X624463Y45662D01*
X624660Y46653D01*
Y47947D01*
X624463Y48938D01*
X623968Y50132D01*
X623406Y50972D01*
X622492Y51886D01*
X622492Y51887D01*
X621652Y52448D01*
X620457Y52943D01*
X619467Y53140D01*
D02*
G37*
G36*
X265430Y57034D02*
X257810D01*
X255332Y56542D01*
X253232Y55138D01*
X251828Y53038D01*
X251336Y50560D01*
Y34069D01*
X246260D01*
Y36100D01*
X226180D01*
Y32044D01*
X222250D01*
Y35560D01*
X196850D01*
Y17780D01*
Y0D01*
X222250D01*
Y17780D01*
Y21686D01*
X226180D01*
Y18020D01*
X246260D01*
Y23710D01*
X253159D01*
X253232Y23602D01*
X255332Y22198D01*
X256441Y21978D01*
Y18660D01*
X250580D01*
Y-3420D01*
X272660D01*
Y18660D01*
X266800D01*
Y21978D01*
X267908Y22198D01*
X270008Y23602D01*
X271412Y25702D01*
X271904Y28180D01*
Y50560D01*
X271412Y53038D01*
X270008Y55138D01*
X267908Y56542D01*
X265430Y57034D01*
D02*
G37*
G36*
X370941Y42164D02*
X368199D01*
X365550Y41454D01*
X363176Y40083D01*
X361237Y38144D01*
X359866Y35770D01*
X359156Y33121D01*
Y30379D01*
X359866Y27730D01*
X361237Y25356D01*
X363176Y23417D01*
X365550Y22046D01*
X368199Y21336D01*
X370941D01*
X373590Y22046D01*
X375964Y23417D01*
X377903Y25356D01*
X379274Y27730D01*
X379984Y30379D01*
Y33121D01*
X379274Y35770D01*
X377903Y38144D01*
X375964Y40083D01*
X373590Y41454D01*
X370941Y42164D01*
D02*
G37*
G36*
X305680Y85970D02*
X283600D01*
Y63890D01*
X298355D01*
X302160Y60085D01*
Y30085D01*
X290257Y18182D01*
X288473Y18660D01*
X285567D01*
X282759Y17908D01*
X280241Y16454D01*
X278186Y14399D01*
X276732Y11881D01*
X275980Y9073D01*
Y6167D01*
X276732Y3359D01*
X278186Y841D01*
X280241Y-1214D01*
X282759Y-2668D01*
X285567Y-3420D01*
X288473D01*
X291281Y-2668D01*
X293799Y-1214D01*
X295854Y841D01*
X297308Y3359D01*
X298060Y6167D01*
Y9073D01*
X297582Y10857D01*
X311003Y24278D01*
X312125Y25958D01*
X312519Y27940D01*
Y62230D01*
X312125Y64212D01*
X311003Y65893D01*
X305680Y71215D01*
Y85970D01*
D02*
G37*
%LPD*%
G36*
X135485Y404038D02*
X137157Y401142D01*
X139522Y398778D01*
X142418Y397105D01*
X145648Y396240D01*
X148992D01*
X152222Y397105D01*
X153598Y397900D01*
X170688Y380811D01*
X170057Y379287D01*
X156334D01*
X132960Y402662D01*
X133755Y404038D01*
X133858Y404424D01*
X135382D01*
X135485Y404038D01*
D02*
G37*
G36*
X322620Y366570D02*
X321432Y365760D01*
X321310D01*
X314960Y359410D01*
X313436Y359103D01*
X312423Y360858D01*
X310058Y363223D01*
X307162Y364894D01*
X306597Y365046D01*
X306797Y366570D01*
X307300D01*
Y378225D01*
X322620D01*
Y366570D01*
D02*
G37*
G36*
X429185Y364151D02*
Y300877D01*
X427950Y300180D01*
X417870D01*
Y298007D01*
X405520D01*
Y303784D01*
X392440D01*
Y286704D01*
X400050D01*
X400353Y285180D01*
X399563Y284853D01*
X398623Y283913D01*
X371399D01*
X370433Y285435D01*
X370433Y285437D01*
X370836Y285856D01*
X372448Y286523D01*
X373877Y287952D01*
X374650Y289820D01*
Y291840D01*
X373877Y293708D01*
X372448Y295137D01*
X370580Y295910D01*
X368559D01*
X367964Y295663D01*
X366440Y296682D01*
Y303784D01*
X364450D01*
Y315243D01*
X370876D01*
X374650Y311469D01*
Y310140D01*
X375423Y308272D01*
X376852Y306843D01*
X378719Y306070D01*
X380741D01*
X382608Y306843D01*
X384037Y308272D01*
X384810Y310140D01*
Y312160D01*
X384037Y314028D01*
X382608Y315457D01*
X380741Y316230D01*
X379411D01*
X374651Y320991D01*
X373558Y321720D01*
X372270Y321977D01*
X364450D01*
Y324150D01*
X354370D01*
Y313070D01*
Y303784D01*
X353360D01*
Y291414D01*
X351952Y290830D01*
X349572Y293211D01*
X348479Y293940D01*
X347191Y294197D01*
X339098D01*
X338158Y295137D01*
X336291Y295910D01*
X334961D01*
X331027Y299844D01*
Y340360D01*
X334010D01*
X340360Y346710D01*
Y359410D01*
X334010Y365760D01*
X333889D01*
X332700Y366570D01*
Y378305D01*
X333930D01*
X335417Y378601D01*
X336677Y379443D01*
X351247Y394013D01*
X352089Y395273D01*
X352385Y396760D01*
Y403800D01*
X361790D01*
Y408865D01*
X384471D01*
X429185Y364151D01*
D02*
G37*
G36*
X314960Y346710D02*
X321310Y340360D01*
X324293D01*
Y298573D01*
X324010Y298332D01*
X322858Y297853D01*
X305627Y315084D01*
Y340814D01*
X307162Y341226D01*
X310058Y342897D01*
X312423Y345262D01*
X313436Y347017D01*
X314960Y346710D01*
D02*
G37*
G36*
X90221Y290180D02*
X131671Y248731D01*
X131039Y247207D01*
X85521D01*
X85112Y248731D01*
X86404Y249477D01*
X88343Y251416D01*
X89714Y253790D01*
X90424Y256439D01*
Y259181D01*
X89714Y261830D01*
X88343Y264204D01*
X86404Y266143D01*
X84030Y267514D01*
X81381Y268224D01*
X78639D01*
X75990Y267514D01*
X73616Y266143D01*
X71677Y264204D01*
X70306Y261830D01*
X69787Y259894D01*
X68562Y259650D01*
X67469Y258921D01*
X66432Y257883D01*
X65024Y258466D01*
Y259181D01*
X64314Y261830D01*
X62943Y264204D01*
X61004Y266143D01*
X59869Y266798D01*
X60278Y268323D01*
X68489D01*
X69778Y268579D01*
X70870Y269309D01*
X75405Y273844D01*
X75990Y273506D01*
X78639Y272796D01*
X81381D01*
X84030Y273506D01*
X86404Y274877D01*
X88343Y276816D01*
X89714Y279190D01*
X90424Y281839D01*
Y284581D01*
X89714Y287230D01*
X89062Y288359D01*
X89594Y290070D01*
X89752Y290213D01*
X90221Y290180D01*
D02*
G37*
G36*
X417870Y279360D02*
X417370D01*
Y269280D01*
X417870D01*
Y267679D01*
X416974Y267298D01*
X416836Y267270D01*
X416707Y267184D01*
X416503Y267098D01*
X415020Y267890D01*
Y279784D01*
X407850D01*
X407623Y280125D01*
X407520Y280227D01*
Y281556D01*
X406747Y283424D01*
X405318Y284853D01*
X404528Y285180D01*
X404831Y286704D01*
X405520D01*
Y291273D01*
X417870D01*
Y279360D01*
D02*
G37*
G36*
X487140Y269200D02*
Y259120D01*
X487300D01*
Y250230D01*
X489473D01*
Y245830D01*
X489730Y244542D01*
X490459Y243449D01*
X490657Y243251D01*
X489895Y241930D01*
X489040Y238741D01*
Y235439D01*
X489895Y232250D01*
X491545Y229390D01*
X493880Y227055D01*
X496740Y225405D01*
X499929Y224550D01*
X503231D01*
X506420Y225405D01*
X509280Y227055D01*
X511481Y229257D01*
X512650Y229113D01*
X513005Y229018D01*
Y195162D01*
X512650Y195067D01*
X511481Y194923D01*
X509280Y197125D01*
X506420Y198775D01*
X503231Y199630D01*
X499929D01*
X496740Y198775D01*
X495419Y198013D01*
X475807Y217624D01*
Y226060D01*
X475550Y227348D01*
X474821Y228441D01*
X469741Y233521D01*
X468648Y234250D01*
X467360Y234507D01*
X461494D01*
X460752Y236031D01*
X461331Y237429D01*
Y239450D01*
X460558Y241317D01*
X459304Y242570D01*
X460237Y243502D01*
X461010Y245369D01*
Y247390D01*
X460237Y249258D01*
X458808Y250687D01*
X456940Y251460D01*
X455611D01*
X452042Y255030D01*
X450949Y255760D01*
X450398Y255869D01*
X450242Y257454D01*
X450480Y257553D01*
X451909Y258982D01*
X452682Y260849D01*
Y262870D01*
X451909Y264737D01*
X451891Y264755D01*
X452166Y265271D01*
X452541Y265406D01*
X453973Y265417D01*
X455031Y264359D01*
X456898Y263585D01*
X458919D01*
X460786Y264359D01*
X462215Y265788D01*
X462989Y267655D01*
Y268984D01*
X463434Y269429D01*
X485711D01*
X487140Y269200D01*
D02*
G37*
G36*
X619380Y317540D02*
X631035D01*
Y294720D01*
X631331Y293233D01*
X632173Y291973D01*
X656505Y267641D01*
Y246890D01*
X655097Y246307D01*
X654280Y247125D01*
X651420Y248775D01*
X648231Y249630D01*
X644929D01*
X641740Y248775D01*
X638880Y247125D01*
X636545Y244790D01*
X634895Y241930D01*
X634500Y240457D01*
X540275D01*
X501491Y279241D01*
X500398Y279970D01*
X499110Y280227D01*
X459863D01*
X459232Y281751D01*
X496694Y319213D01*
X619380D01*
Y317540D01*
D02*
G37*
G36*
X155448Y237301D02*
X154817Y235777D01*
X89889D01*
X89714Y236430D01*
X88343Y238804D01*
X88082Y239065D01*
X88666Y240473D01*
X152275D01*
X155448Y237301D01*
D02*
G37*
G36*
X158624Y225863D02*
Y224171D01*
X157428Y223077D01*
X87560D01*
X86928Y224601D01*
X88343Y226016D01*
X89714Y228390D01*
X89889Y229043D01*
X155444D01*
X158624Y225863D01*
D02*
G37*
G36*
X659055Y230570D02*
Y211069D01*
X653421Y205435D01*
X643974D01*
X643709Y206767D01*
X642867Y208027D01*
X642580Y208314D01*
Y212820D01*
X651470D01*
Y223900D01*
X651470D01*
X651420Y225405D01*
X654280Y227055D01*
X656615Y229390D01*
X657531Y230978D01*
X659055Y230570D01*
D02*
G37*
G36*
X407670Y246789D02*
Y245369D01*
X408443Y243502D01*
X409872Y242073D01*
X411740Y241300D01*
X413760D01*
X415628Y242073D01*
X416180Y242626D01*
X416181D01*
X418110Y240697D01*
X419202Y239968D01*
X420490Y239711D01*
X429382D01*
X430291Y238755D01*
X430530Y238309D01*
Y236479D01*
X431303Y234612D01*
X432243Y233673D01*
Y228613D01*
X431796Y228314D01*
X430627Y226564D01*
X430216Y224500D01*
Y205000D01*
X430627Y202936D01*
X431796Y201186D01*
X433546Y200017D01*
X435610Y199606D01*
X437674Y200017D01*
X439424Y201186D01*
X440593Y202936D01*
X441004Y205000D01*
Y224500D01*
X440593Y226564D01*
X439424Y228314D01*
X438977Y228613D01*
Y233673D01*
X439917Y234612D01*
X440076Y234997D01*
X441874Y235355D01*
X446300Y230929D01*
X445853Y229221D01*
X444496Y228314D01*
X443327Y226564D01*
X442916Y224500D01*
Y205000D01*
X443327Y202936D01*
X444496Y201186D01*
X444003Y199728D01*
X443230Y197861D01*
Y195840D01*
X444003Y193972D01*
X445432Y192543D01*
X447299Y191770D01*
X449320D01*
X451188Y192543D01*
X452617Y193972D01*
X453390Y195840D01*
Y197861D01*
X452617Y199728D01*
X452124Y201186D01*
X453293Y202936D01*
X453704Y205000D01*
Y224500D01*
X453469Y225682D01*
X454501Y227069D01*
X454819D01*
X455852Y225682D01*
X455616Y224500D01*
Y205000D01*
X456027Y202936D01*
X457196Y201186D01*
X458946Y200017D01*
X461010Y199606D01*
X463074Y200017D01*
X464824Y201186D01*
X465993Y202936D01*
X466404Y205000D01*
Y224500D01*
X466235Y225349D01*
X467639Y226099D01*
X469073Y224666D01*
Y216230D01*
X469330Y214942D01*
X470059Y213849D01*
X490657Y193251D01*
X489895Y191930D01*
X489040Y188741D01*
Y185439D01*
X489895Y182250D01*
X491545Y179390D01*
X493880Y177055D01*
X493899Y177045D01*
X494149Y175140D01*
X492959Y173950D01*
X488570D01*
Y165060D01*
X487140D01*
Y154980D01*
X498220D01*
Y163870D01*
X509650D01*
Y165025D01*
X513005D01*
Y160020D01*
X513301Y158533D01*
X514143Y157273D01*
X555133Y116283D01*
Y58977D01*
X553814Y57658D01*
X552290Y58289D01*
Y72310D01*
X527210D01*
Y71751D01*
X527010Y70310D01*
X516930D01*
Y70310D01*
X516850D01*
Y70310D01*
X515177D01*
Y74930D01*
X514920Y76218D01*
X514191Y77311D01*
X510097Y81404D01*
Y105402D01*
X511037Y106342D01*
X511596Y107693D01*
X513120Y107390D01*
Y102410D01*
X513120D01*
X513369Y102038D01*
X513080Y101341D01*
Y99319D01*
X513853Y97452D01*
X515282Y96023D01*
X517150Y95250D01*
X519170D01*
X521038Y96023D01*
X522467Y97452D01*
X523240Y99319D01*
Y101341D01*
X522951Y102038D01*
X523200Y102410D01*
X523200D01*
Y113490D01*
X513120D01*
Y111050D01*
X511596Y110747D01*
X511037Y112098D01*
X509608Y113527D01*
X507741Y114300D01*
X505719D01*
X503852Y113527D01*
X503297Y112971D01*
X502975Y112936D01*
X502946Y112935D01*
X501650Y113936D01*
X501650Y114391D01*
X501650Y114391D01*
X501650Y114403D01*
Y125730D01*
X493711D01*
X493363Y126079D01*
X492270Y126808D01*
X491849Y126892D01*
X491047Y127695D01*
Y140970D01*
X490790Y142258D01*
X490061Y143351D01*
X486215Y147197D01*
X485122Y147926D01*
X483834Y148183D01*
X466404D01*
Y163554D01*
X465993Y165618D01*
X464824Y167368D01*
X463074Y168537D01*
X461010Y168948D01*
X458946Y168537D01*
X457196Y167368D01*
X456027Y165618D01*
X455616Y163554D01*
Y144054D01*
X456027Y141990D01*
X457196Y140240D01*
X458946Y139071D01*
X461010Y138660D01*
X463074Y139071D01*
X464824Y140240D01*
X465632Y141449D01*
X482439D01*
X484313Y139576D01*
Y137160D01*
X473870D01*
Y136972D01*
X472900Y135850D01*
X452195D01*
Y140346D01*
X453293Y141990D01*
X453704Y144054D01*
Y163554D01*
X453293Y165618D01*
X452195Y167262D01*
Y168910D01*
X451899Y170397D01*
X451057Y171657D01*
X428197Y194517D01*
X426937Y195359D01*
X425450Y195655D01*
X380069D01*
X375995Y199729D01*
Y201292D01*
X377093Y202936D01*
X377504Y205000D01*
Y224500D01*
X377093Y226564D01*
X376280Y227781D01*
X376898Y229319D01*
X377903Y229452D01*
X379631Y227725D01*
Y225576D01*
X379416Y224500D01*
Y205000D01*
X379827Y202936D01*
X380996Y201186D01*
X382746Y200017D01*
X384810Y199606D01*
X386874Y200017D01*
X388624Y201186D01*
X389793Y202936D01*
X390204Y205000D01*
Y224500D01*
X389990Y225576D01*
Y229870D01*
X389595Y231852D01*
X388473Y233533D01*
X383392Y238612D01*
X382888Y238949D01*
X383351Y240473D01*
X397804D01*
X399092Y240730D01*
X400185Y241459D01*
X406167Y247442D01*
X407670Y246789D01*
D02*
G37*
G36*
X165100Y208599D02*
Y207269D01*
X165873Y205402D01*
X167302Y203973D01*
X169170Y203200D01*
X171190D01*
X171388Y203282D01*
X172655Y202435D01*
Y192535D01*
X171388Y191688D01*
X171190Y191770D01*
X169170D01*
X167302Y190997D01*
X165873Y189568D01*
X165100Y187701D01*
Y186371D01*
X162435Y183707D01*
X109220D01*
X107932Y183450D01*
X106839Y182721D01*
X95757Y171638D01*
X86614D01*
X86206Y173162D01*
X86404Y173277D01*
X88343Y175216D01*
X89714Y177590D01*
X90424Y180239D01*
Y182981D01*
X89714Y185630D01*
X88343Y188004D01*
X86404Y189943D01*
X85112Y190689D01*
X85521Y192213D01*
X148582D01*
X149522Y191273D01*
X151390Y190500D01*
X153411D01*
X155278Y191273D01*
X156707Y192702D01*
X157480Y194569D01*
Y196590D01*
X156707Y198458D01*
X155278Y199887D01*
X153411Y200660D01*
X151390D01*
X149522Y199887D01*
X148582Y198947D01*
X88666D01*
X88082Y200355D01*
X88343Y200616D01*
X89714Y202990D01*
X90424Y205639D01*
Y208381D01*
X89714Y211030D01*
X88343Y213404D01*
X86928Y214819D01*
X87560Y216343D01*
X157355D01*
X165100Y208599D01*
D02*
G37*
G36*
X515508Y255700D02*
X536499Y234709D01*
X537592Y233980D01*
X538880Y233723D01*
X634500D01*
X634895Y232250D01*
X636545Y229390D01*
X638880Y227055D01*
X641740Y225405D01*
X641467Y223900D01*
X641390D01*
Y223900D01*
X632500D01*
Y212165D01*
X574040D01*
X572553Y211869D01*
X571293Y211027D01*
X533061Y172795D01*
X520775D01*
Y246380D01*
X520479Y247867D01*
X519637Y249127D01*
X514005Y254758D01*
X513996Y255057D01*
X515493Y255703D01*
X515508Y255700D01*
D02*
G37*
G36*
X74908Y190689D02*
X73616Y189943D01*
X71677Y188004D01*
X70306Y185630D01*
X69596Y182981D01*
Y180239D01*
X70306Y177590D01*
X71677Y175216D01*
X73616Y173277D01*
X73815Y173162D01*
X73406Y171638D01*
X61214D01*
X60806Y173162D01*
X61004Y173277D01*
X62943Y175216D01*
X64314Y177590D01*
X65024Y180239D01*
Y182981D01*
X64314Y185630D01*
X62943Y188004D01*
X61004Y189943D01*
X59712Y190689D01*
X60121Y192213D01*
X74499D01*
X74908Y190689D01*
D02*
G37*
G36*
X290425Y348158D02*
X292097Y345262D01*
X294462Y342897D01*
X297358Y341226D01*
X298893Y340814D01*
Y313690D01*
X299150Y312402D01*
X299879Y311309D01*
X335723Y275466D01*
Y269247D01*
X334783Y268308D01*
X334010Y266441D01*
Y264419D01*
X334783Y262552D01*
X336212Y261123D01*
X338079Y260350D01*
X340101D01*
X341298Y260846D01*
X342600Y259765D01*
Y250230D01*
X363680D01*
Y250230D01*
X364488Y250592D01*
X367423D01*
X367451Y250450D01*
X368181Y249358D01*
X368808Y248731D01*
X368177Y247207D01*
X353060D01*
X351772Y246950D01*
X350679Y246221D01*
X275466Y171007D01*
X226141D01*
X225312Y171836D01*
X223444Y172610D01*
X222272D01*
X221033Y173902D01*
X220998Y174018D01*
X221080Y174426D01*
Y188355D01*
X246232Y213507D01*
X247355Y215188D01*
X247750Y217170D01*
Y227725D01*
X274172Y254147D01*
X275295Y255828D01*
X275690Y257810D01*
Y284480D01*
X278130D01*
Y289855D01*
X279252Y290977D01*
X280375Y292658D01*
X280770Y294640D01*
Y297420D01*
X285630D01*
Y314420D01*
Y332500D01*
X281404D01*
Y341130D01*
X281762Y341226D01*
X284658Y342897D01*
X287022Y345262D01*
X288694Y348158D01*
X288798Y348544D01*
X290322D01*
X290425Y348158D01*
D02*
G37*
G36*
X170742Y181309D02*
X171382Y179836D01*
X170953Y179408D01*
X170180Y177540D01*
Y175520D01*
X170953Y173652D01*
X172382Y172223D01*
X174249Y171450D01*
X176271D01*
X178138Y172223D01*
X179567Y173652D01*
X180340Y175520D01*
Y176480D01*
X181710Y177754D01*
X181748Y177760D01*
X185779D01*
X187960Y175579D01*
Y174249D01*
X188733Y172382D01*
X190162Y170953D01*
X190325Y170886D01*
X190623Y169391D01*
X185161Y163930D01*
X138430D01*
X136448Y163535D01*
X134768Y162412D01*
X96915Y124559D01*
X88405D01*
X87547Y126083D01*
X88294Y127379D01*
X88900Y129640D01*
Y131980D01*
X88294Y134241D01*
X87124Y136269D01*
X85469Y137924D01*
X83441Y139094D01*
X81180Y139700D01*
X78840D01*
X76579Y139094D01*
X74551Y137924D01*
X72896Y136269D01*
X71726Y134241D01*
X71120Y131980D01*
Y129640D01*
X71726Y127379D01*
X72474Y126083D01*
X71615Y124559D01*
X68185D01*
X64661Y128084D01*
X65024Y129439D01*
Y132181D01*
X64314Y134830D01*
X62943Y137204D01*
X61004Y139143D01*
X59272Y140143D01*
X59681Y141667D01*
X92964D01*
X94252Y141924D01*
X95345Y142653D01*
X123315Y170623D01*
X137153D01*
X138092Y169683D01*
X139959Y168910D01*
X141980D01*
X143848Y169683D01*
X145277Y171112D01*
X146050Y172980D01*
Y175000D01*
X145864Y175449D01*
X146882Y176973D01*
X163830D01*
X165118Y177230D01*
X166211Y177959D01*
X169609Y181358D01*
X170742Y181309D01*
D02*
G37*
G36*
X118618Y175449D02*
X91569Y148401D01*
X88919D01*
X88619Y149127D01*
X88406Y149925D01*
X89714Y152190D01*
X90424Y154839D01*
Y157581D01*
X89714Y160230D01*
X88343Y162604D01*
X87567Y163381D01*
X88198Y164904D01*
X97151D01*
X98440Y165161D01*
X99532Y165891D01*
X110615Y176973D01*
X117987D01*
X118618Y175449D01*
D02*
G37*
%LPC*%
G36*
X581580Y286715D02*
X571580D01*
X568142Y286376D01*
X564835Y285373D01*
X561788Y283745D01*
X559117Y281553D01*
X556926Y278882D01*
X555297Y275835D01*
X554294Y272528D01*
X553955Y269090D01*
X554294Y265651D01*
X555297Y262345D01*
X556926Y259298D01*
X559117Y256627D01*
X561788Y254436D01*
X564835Y252807D01*
X568142Y251804D01*
X571580Y251465D01*
X581580D01*
X585018Y251804D01*
X588325Y252807D01*
X591372Y254436D01*
X594043Y256627D01*
X596235Y259298D01*
X597863Y262345D01*
X598866Y265651D01*
X599205Y269090D01*
X598866Y272528D01*
X597863Y275835D01*
X596235Y278882D01*
X594043Y281553D01*
X591372Y283745D01*
X588325Y285373D01*
X585018Y286376D01*
X581580Y286715D01*
D02*
G37*
G36*
X422910Y229894D02*
X420846Y229483D01*
X419096Y228314D01*
X417927Y226564D01*
X417516Y224500D01*
Y205000D01*
X417927Y202936D01*
X419096Y201186D01*
X420846Y200017D01*
X422910Y199606D01*
X424974Y200017D01*
X426724Y201186D01*
X427893Y202936D01*
X428304Y205000D01*
Y224500D01*
X427893Y226564D01*
X426724Y228314D01*
X424974Y229483D01*
X422910Y229894D01*
D02*
G37*
G36*
X410210D02*
X408146Y229483D01*
X406396Y228314D01*
X405227Y226564D01*
X404816Y224500D01*
Y205000D01*
X405227Y202936D01*
X406396Y201186D01*
X408146Y200017D01*
X410210Y199606D01*
X412274Y200017D01*
X414024Y201186D01*
X415193Y202936D01*
X415604Y205000D01*
Y224500D01*
X415193Y226564D01*
X414024Y228314D01*
X412274Y229483D01*
X410210Y229894D01*
D02*
G37*
G36*
X397510D02*
X395446Y229483D01*
X393696Y228314D01*
X392527Y226564D01*
X392116Y224500D01*
Y205000D01*
X392527Y202936D01*
X393696Y201186D01*
X395446Y200017D01*
X397510Y199606D01*
X399574Y200017D01*
X401324Y201186D01*
X402493Y202936D01*
X402904Y205000D01*
Y224500D01*
X402493Y226564D01*
X401324Y228314D01*
X399574Y229483D01*
X397510Y229894D01*
D02*
G37*
%LPD*%
D17*
X175260Y176530D02*
X176022Y177292D01*
Y210700D01*
X169727Y216994D02*
X176022Y210700D01*
X169727Y216994D02*
Y236044D01*
X165279Y239467D02*
X166305D01*
X169727Y236044D01*
X147320Y250190D02*
X149606Y247904D01*
X156841D01*
X165279Y239467D01*
X173791Y236701D02*
Y237728D01*
X166962Y243531D02*
X167989D01*
X176530Y215939D02*
X180086Y212383D01*
Y182757D02*
Y212383D01*
X108233Y302260D02*
X166962Y243531D01*
X173791Y236701D02*
X176530Y233963D01*
X180086Y182757D02*
X181716Y181127D01*
X176530Y215939D02*
Y233963D01*
X167989Y243531D02*
X173791Y237728D01*
X163830Y180340D02*
X170180Y186690D01*
X158750Y219710D02*
X170180Y208280D01*
X66040Y243840D02*
X153670D01*
X163885Y233625D01*
X43180Y195580D02*
X152400D01*
X163885Y233625D02*
Y233625D01*
X163704Y225181D02*
Y225544D01*
X156838Y232410D02*
X163704Y225544D01*
X46990Y219710D02*
X158750D01*
X109220Y180340D02*
X163830D01*
X187173Y181127D02*
X193040Y175260D01*
X181716Y181127D02*
X187173D01*
X100330Y302260D02*
X108233D01*
X222544Y167640D02*
X276860D01*
X222434Y167530D02*
X222544Y167640D01*
X134972Y250190D02*
X147320D01*
X90776Y294386D02*
X134972Y250190D01*
X78429Y294386D02*
X90776D01*
X68834Y303981D02*
Y304546D01*
Y303981D02*
X78429Y294386D01*
X64770Y308610D02*
X68834Y304546D01*
X54610Y308610D02*
X64770D01*
X80010Y232410D02*
X156838D01*
X54610D02*
X66040Y243840D01*
X121920Y173990D02*
X140970D01*
X92964Y145034D02*
X121920Y173990D01*
X49981Y145034D02*
X92964D01*
X47695Y147320D02*
X49981Y145034D01*
X43180Y147320D02*
X47695D01*
X27686Y162814D02*
Y242824D01*
Y162814D02*
X43180Y147320D01*
X24130Y246380D02*
X27686Y242824D01*
X31750Y220980D02*
X35052Y217678D01*
X31750Y220980D02*
Y254603D01*
X48836Y271689D01*
X68489D01*
X24130Y252730D02*
X54610Y283210D01*
X24130Y246380D02*
Y252730D01*
X97151Y168271D02*
X109220Y180340D01*
X40009Y168271D02*
X97151D01*
X35052Y173228D02*
X40009Y168271D01*
X38119Y220359D02*
X40649Y217828D01*
Y198111D02*
X43180Y195580D01*
X35052Y173228D02*
Y217678D01*
X40649Y198111D02*
Y217828D01*
X38119Y220359D02*
Y237471D01*
X68489Y271689D02*
X80010Y283210D01*
X38119Y237471D02*
X54610Y253963D01*
X43434Y237039D02*
X49981Y243586D01*
X43434Y223266D02*
X46990Y219710D01*
X43434Y223266D02*
Y237039D01*
X54610Y253963D02*
Y257810D01*
X49981Y243586D02*
X56896D01*
X69850Y256540D01*
X78740D02*
X80010Y257810D01*
X69850Y256540D02*
X78740D01*
X175280Y274340D02*
Y274583D01*
X179832Y259200D02*
Y264040D01*
X176410Y255778D02*
X179832Y259200D01*
X171450Y278413D02*
X175280Y274583D01*
X167640Y259200D02*
X168148D01*
X167640Y257884D02*
Y259200D01*
X167386Y273971D02*
Y302006D01*
X172860Y268498D02*
X175374D01*
X170340Y255778D02*
X176410D01*
X167386Y302006D02*
X186690Y321310D01*
X168148Y257970D02*
Y259200D01*
X175374Y268498D02*
X179832Y264040D01*
X171450Y278413D02*
Y294640D01*
X167386Y273971D02*
X172860Y268498D01*
X168148Y257970D02*
X170340Y255778D01*
X160020Y275590D02*
X173990Y261620D01*
X160020Y275590D02*
Y303530D01*
X167456Y257700D02*
X167640Y257884D01*
X187960Y331470D02*
X194310D01*
X160020Y303530D02*
X187960Y331470D01*
X186690Y321310D02*
X194310D01*
X171450Y294640D02*
X179070Y302260D01*
X194310D01*
X449580Y276860D02*
X495300Y322580D01*
X443603Y268369D02*
X449580Y274345D01*
X443603Y266122D02*
Y268369D01*
X441760Y264279D02*
X443603Y266122D01*
X449580Y274345D02*
Y276860D01*
X435919Y252757D02*
X450236Y238439D01*
X435919Y252757D02*
Y261929D01*
X441760Y254130D02*
X443241Y252649D01*
X441760Y254130D02*
Y264279D01*
X443241Y252649D02*
X449661D01*
X447603Y261859D02*
X447667Y261924D01*
Y266686D01*
X457842Y276860D01*
X598480Y66040D02*
X599750Y64770D01*
X581660Y66040D02*
X598480D01*
X539750Y64770D02*
X541020Y63500D01*
Y57150D02*
Y63500D01*
X511810Y64770D02*
Y74930D01*
X506730Y80010D02*
X511810Y74930D01*
X506730Y80010D02*
Y109220D01*
X435610Y214750D02*
Y237490D01*
X450850Y231140D02*
X467360D01*
X438150Y243840D02*
X450850Y231140D01*
X430530Y243840D02*
X438150D01*
X413138Y245992D02*
X417576D01*
X420490Y243078D01*
X429768D02*
X430530Y243840D01*
X412750Y246380D02*
X413138Y245992D01*
X420490Y243078D02*
X429768D01*
X448310Y196850D02*
Y214750D01*
X450236Y238439D02*
X456251D01*
X467360Y231140D02*
X472440Y226060D01*
Y216230D02*
X501580Y187090D01*
X472440Y216230D02*
Y226060D01*
X449661Y252649D02*
X455930Y246380D01*
X370028Y255632D02*
X370561Y255099D01*
Y251739D02*
Y255099D01*
X372470Y249830D02*
X395072D01*
X370561Y251739D02*
X372470Y249830D01*
X370028Y255632D02*
Y270616D01*
X395072Y249830D02*
X403860Y258618D01*
X302260Y313690D02*
X339090Y276860D01*
Y265430D02*
Y276860D01*
X361950Y266700D02*
Y274320D01*
X362098Y274468D01*
Y278612D01*
X364032Y280546D01*
X402440D01*
X347191Y290830D02*
X352079Y285942D01*
X365268D01*
X367202Y287876D02*
Y288159D01*
X369570Y290527D02*
Y290830D01*
X367202Y288159D02*
X369570Y290527D01*
X365268Y285942D02*
X367202Y287876D01*
X358140Y255270D02*
Y262890D01*
X361950Y266700D01*
X335280Y290830D02*
X347191D01*
X405242Y274482D02*
X408480Y271244D01*
X405242Y274482D02*
Y277745D01*
X402440Y280546D02*
X405242Y277745D01*
X492840Y245830D02*
X501580Y237090D01*
X492840Y245830D02*
Y255270D01*
X637540Y218360D02*
X646430D01*
X616062Y89404D02*
X629416D01*
X629920Y88900D01*
X618182Y60710D02*
X620472Y58420D01*
X629920D01*
X617220Y60710D02*
X618182D01*
X450850Y130810D02*
X457360D01*
X467360D02*
X480220D01*
X490282Y123698D02*
X490982D01*
X487680Y126300D02*
X490282Y123698D01*
X490982D02*
X495300Y119380D01*
X487680Y126300D02*
Y140970D01*
X483834Y144816D02*
X487680Y140970D01*
X461010Y146653D02*
Y153804D01*
Y146653D02*
X462847Y144816D01*
X483834D01*
X467360Y119380D02*
X480060D01*
X521970Y64770D02*
X539750D01*
X511810D02*
X521970D01*
X400685Y74295D02*
X411480Y63500D01*
X394970Y31750D02*
X411480Y48260D01*
Y63500D01*
X389255Y74295D02*
X400685D01*
X379730Y83820D02*
X389255Y74295D01*
X379730Y83820D02*
Y123190D01*
X391415Y134875D01*
X397510Y144054D02*
Y153804D01*
X391415Y137959D02*
X397510Y144054D01*
X391415Y134875D02*
Y137959D01*
X374650Y125730D02*
X384810Y135890D01*
Y153804D01*
X374650Y77470D02*
Y125730D01*
Y77470D02*
X394970Y57150D01*
X425450Y135890D02*
Y136478D01*
X422910Y139018D02*
Y153804D01*
Y139018D02*
X425450Y136478D01*
X435610Y135890D02*
Y153804D01*
X494918Y170648D02*
Y171148D01*
X498574Y174804D01*
Y184084D02*
X501580Y187090D01*
X492680Y168910D02*
X493180D01*
X494918Y170648D01*
X498574Y174804D02*
Y184084D01*
X492680Y160020D02*
Y168910D01*
X492680Y168910D02*
X492680Y168910D01*
X457909Y268665D02*
X462040Y272796D01*
X490474D01*
X457842Y276860D02*
X499110D01*
X490474Y272796D02*
X492680Y270590D01*
Y264160D02*
Y270590D01*
Y255270D02*
Y264160D01*
X499110Y276860D02*
X538880Y237090D01*
X646580D01*
Y218510D02*
Y237090D01*
X495300Y322580D02*
X624920D01*
X547060Y332740D02*
X607060D01*
X624920D02*
X624920Y332740D01*
Y322580D02*
Y332740D01*
X607060Y332740D02*
X624920D01*
X386442Y255632D02*
X389480Y258670D01*
Y271244D01*
X380028Y255632D02*
X386442D01*
X350400Y262770D02*
Y271244D01*
X348140Y260510D02*
X350400Y262770D01*
X348140Y255270D02*
Y260510D01*
X276860Y167640D02*
X353060Y243840D01*
X397804D01*
X418124Y264160D01*
X422910D01*
X398980Y295244D02*
X399584Y294640D01*
X422910D01*
Y274320D02*
Y284640D01*
Y264160D02*
Y274320D01*
X369400Y271244D02*
X370028Y270616D01*
X372270Y318610D02*
X379730Y311150D01*
X359410Y318610D02*
X372270D01*
X359410Y295734D02*
Y308610D01*
Y295734D02*
X359900Y295244D01*
X327660Y298450D02*
X335280Y290830D01*
X327660Y298450D02*
Y353060D01*
X302260Y313690D02*
Y353060D01*
X208280Y382270D02*
X234950Y355600D01*
X173990Y382270D02*
X208280D01*
X147320Y408940D02*
X173990Y382270D01*
X205740Y375920D02*
X246380Y335280D01*
X154940Y375920D02*
X205740D01*
X121920Y408940D02*
X154940Y375920D01*
D18*
X607060Y332740D02*
D03*
Y369740D02*
D03*
X547060D02*
D03*
Y332740D02*
D03*
X599750Y64770D02*
D03*
Y101770D02*
D03*
X539750D02*
D03*
Y64770D02*
D03*
D19*
X327660Y372110D02*
D03*
Y382110D02*
D03*
X302260Y372110D02*
D03*
Y382110D02*
D03*
X245110Y436800D02*
D03*
Y426800D02*
D03*
X646430Y208360D02*
D03*
Y218360D02*
D03*
X637540Y218360D02*
D03*
Y208360D02*
D03*
X359410Y308610D02*
D03*
Y318610D02*
D03*
X355600Y231060D02*
D03*
Y221060D02*
D03*
X422910Y294640D02*
D03*
Y284640D02*
D03*
Y254160D02*
D03*
Y264160D02*
D03*
X521970Y64770D02*
D03*
Y54770D02*
D03*
X511810D02*
D03*
Y64770D02*
D03*
X518160Y117950D02*
D03*
Y107950D02*
D03*
D20*
X348500Y423840D02*
D03*
D21*
X286500Y400840D02*
D03*
Y446840D02*
D03*
D22*
Y423840D02*
D03*
D23*
X261620Y444110D02*
D03*
Y427110D02*
D03*
X275590Y323460D02*
D03*
Y306460D02*
D03*
X236220Y27060D02*
D03*
Y44060D02*
D03*
X35560Y45330D02*
D03*
Y28330D02*
D03*
D24*
X245500Y401320D02*
D03*
X262500D02*
D03*
X245990Y149860D02*
D03*
X228990D02*
D03*
D25*
X251540Y386080D02*
D03*
X261540D02*
D03*
X634920Y332740D02*
D03*
X624920D02*
D03*
X624920Y322580D02*
D03*
X634920D02*
D03*
X370028Y255632D02*
D03*
X380028D02*
D03*
X358140Y255270D02*
D03*
X348140D02*
D03*
X422910Y274320D02*
D03*
X432910D02*
D03*
X482680Y264160D02*
D03*
X492680D02*
D03*
X492840Y255270D02*
D03*
X502840D02*
D03*
X494110Y168910D02*
D03*
X504110D02*
D03*
X482680Y160020D02*
D03*
X492680D02*
D03*
X457360Y130810D02*
D03*
X467360D02*
D03*
X457360Y119380D02*
D03*
X467360D02*
D03*
X429340Y128270D02*
D03*
X439340D02*
D03*
D26*
X259080Y321310D02*
D03*
X243840D02*
D03*
X271780Y290830D02*
D03*
X256540D02*
D03*
X495460Y130810D02*
D03*
X480220D02*
D03*
X495300Y119380D02*
D03*
X480060D02*
D03*
D27*
X350400Y271244D02*
D03*
X369400D02*
D03*
X359900Y295244D02*
D03*
X389480Y271244D02*
D03*
X408480D02*
D03*
X398980Y295244D02*
D03*
D28*
X461010Y214750D02*
D03*
X448310D02*
D03*
X435610D02*
D03*
X422910D02*
D03*
X410210D02*
D03*
X397510D02*
D03*
X384810D02*
D03*
X372110D02*
D03*
X461010Y153804D02*
D03*
X448310D02*
D03*
X435610D02*
D03*
X422910D02*
D03*
X410210D02*
D03*
X397510D02*
D03*
X384810D02*
D03*
X372110D02*
D03*
D29*
X629920Y88900D02*
D03*
X641920D02*
D03*
X629920Y58420D02*
D03*
X641920D02*
D03*
D30*
X287020Y39370D02*
D03*
X261620D02*
D03*
D31*
X209550Y8890D02*
D03*
Y-8890D02*
D03*
Y26670D02*
D03*
Y44450D02*
D03*
X64770Y8890D02*
D03*
Y44450D02*
D03*
Y26670D02*
D03*
Y-8890D02*
D03*
D58*
X270510Y257810D02*
Y289560D01*
X271780Y290830D01*
X242570Y229870D02*
X270510Y257810D01*
X242570Y217170D02*
Y229870D01*
X212924Y171450D02*
X215900Y174426D01*
Y190500D02*
X242570Y217170D01*
X200006Y171450D02*
X212924D01*
X215900Y174426D02*
Y190500D01*
X138430Y158750D02*
X187306D01*
X200006Y171450D01*
X99060Y119380D02*
X138430Y158750D01*
X54610Y130810D02*
X66040Y119380D01*
X99060D01*
X33020Y130810D02*
X54610D01*
X21590Y119380D02*
X33020Y130810D01*
X21590Y35266D02*
Y119380D01*
X209550Y8890D02*
Y26670D01*
X354510Y417830D02*
X363220D01*
X646430Y208320D02*
Y208360D01*
Y208320D02*
X646470Y208280D01*
X652780D01*
X355600Y213360D02*
Y221060D01*
X355560Y230600D02*
X355600Y230640D01*
X351904Y230600D02*
X355560D01*
X342900Y221596D02*
X351904Y230600D01*
X355600Y230640D02*
Y231060D01*
Y231480D01*
X384810Y214750D02*
Y229870D01*
X379730Y234950D02*
X384810Y229870D01*
X359490Y234950D02*
X379730D01*
X355640Y231520D02*
X356060D01*
X359490Y234950D01*
X355600Y231480D02*
X355640Y231520D01*
X295910Y135890D02*
X342900Y182880D01*
Y221596D01*
X228600Y135890D02*
X295910D01*
X245990Y149860D02*
X259080D01*
X209550D02*
X228990D01*
X228600Y149470D02*
X228990Y149860D01*
X228600Y135890D02*
Y149470D01*
X641920Y58420D02*
X648970D01*
X641920Y88900D02*
X650240D01*
X599750Y101770D02*
Y116530D01*
X599440Y116840D02*
X599750Y116530D01*
X539750Y101770D02*
Y109220D01*
X518160Y117950D02*
Y123190D01*
X495460Y130810D02*
X504190D01*
X634920Y332740D02*
X641350D01*
X50800Y-8890D02*
X64770D01*
X80010D01*
X64770Y44450D02*
X78740D01*
X35560Y45330D02*
Y55880D01*
X36000Y44890D02*
X64330D01*
X64770Y44450D01*
X35560Y45330D02*
X36000Y44890D01*
X24566Y32290D02*
X31600D01*
X21590Y35266D02*
X24566Y32290D01*
X31600D02*
X35560Y28330D01*
X64770Y8890D02*
Y26670D01*
X36390Y27500D02*
X63940D01*
X64770Y26670D01*
X35560Y28330D02*
X36390Y27500D01*
X287020Y7620D02*
X307340Y27940D01*
Y62230D01*
X294640Y74930D02*
X307340Y62230D01*
X287020Y39370D02*
Y49530D01*
X209550Y-8890D02*
X223520D01*
X209550Y44450D02*
Y54610D01*
X236220Y44060D02*
Y54610D01*
X261620Y33873D02*
Y39370D01*
Y7620D02*
Y33873D01*
X256637Y28890D02*
X261620Y33873D01*
X236220Y27060D02*
X238050Y28890D01*
X256637D01*
X209550Y26670D02*
X209745Y26865D01*
X236025D01*
X236220Y27060D01*
X422910Y248920D02*
Y254160D01*
X234950Y401320D02*
X245500D01*
X245110Y386080D02*
X251540D01*
X262500Y401320D02*
X262740Y401080D01*
X258878Y404942D02*
X262500Y401320D01*
X261540Y386080D02*
X261960D01*
X262000Y386120D01*
Y400820D01*
X262500Y401320D01*
X211981Y415290D02*
X255902D01*
X258878Y412314D01*
Y404942D02*
Y412314D01*
X172720Y408940D02*
X205631D01*
X211981Y415290D01*
X262740Y401080D02*
X286260D01*
X286500Y400840D01*
X264350Y446840D02*
X265715Y445475D01*
X261620Y444110D02*
X264350Y446840D01*
X265715Y445475D02*
X285135D01*
X286500Y446840D01*
X251850Y444110D02*
X261620D01*
X245110Y436800D02*
Y441960D01*
X245150Y426955D02*
X261465D01*
X261620Y427110D01*
X245110Y426800D02*
Y426915D01*
X245150Y426955D01*
X284865Y425475D02*
X286500Y423840D01*
X263255Y425475D02*
X284865D01*
X261620Y427110D02*
X263255Y425475D01*
X348500Y423840D02*
X348500Y423840D01*
X286500Y423840D02*
X348500D01*
X250190Y290830D02*
X256540D01*
X243760Y302495D02*
X243840Y302575D01*
Y321310D01*
X275590Y294640D02*
Y306460D01*
X271780Y290830D02*
X275590Y294640D01*
Y323460D02*
X276225Y324095D01*
Y352425D01*
X276860Y353060D01*
X259080Y321310D02*
X260155Y322385D01*
X274515D01*
X275590Y323460D01*
D59*
X348500Y423840D02*
X354510Y417830D01*
X348500Y396760D02*
Y422230D01*
X433070Y280670D02*
Y365760D01*
X357980Y412750D02*
X386080D01*
X433070Y365760D01*
X348500Y422230D02*
X357980Y412750D01*
X348500Y422230D02*
Y423840D01*
X333930Y382190D02*
X348500Y396760D01*
X327660Y382110D02*
X327740Y382190D01*
X333930D01*
X302260Y382110D02*
X327660D01*
X508000Y255270D02*
X516890Y246380D01*
Y168910D02*
Y246380D01*
X432990Y280590D02*
X433070Y280670D01*
X432910Y274320D02*
X432990Y274400D01*
Y280590D01*
X634920Y294720D02*
X660390Y269250D01*
X634920Y294720D02*
Y322580D01*
X660390Y238770D02*
X662940Y236220D01*
X660390Y238770D02*
Y269250D01*
X662940Y209460D02*
Y236220D01*
X642352Y201550D02*
X655030D01*
X662940Y209460D01*
X640120Y203782D02*
X642352Y201550D01*
X640120Y203782D02*
Y205280D01*
X637540Y207860D02*
X640120Y205280D01*
X637540Y207860D02*
Y208360D01*
X574040Y208280D02*
X637460D01*
X516890Y160020D02*
Y168910D01*
X534670D01*
X504110D02*
X516890D01*
X534670D02*
X574040Y208280D01*
X516890Y160020D02*
X559018Y117892D01*
Y57368D02*
Y117892D01*
X547370Y45720D02*
X559018Y57368D01*
X527050Y45720D02*
X547370D01*
X526564Y45234D02*
X527050Y45720D01*
X522754Y45234D02*
X526564D01*
X521970Y44450D02*
X522754Y45234D01*
X521970Y44450D02*
Y54770D01*
X483870Y6350D02*
X521970Y44450D01*
X394970Y6350D02*
X483870D01*
X448310Y153804D02*
Y168910D01*
X378460Y191770D02*
X425450D01*
X448310Y168910D01*
X372110Y198120D02*
Y214750D01*
Y198120D02*
X378460Y191770D01*
X518160Y100330D02*
Y107950D01*
X450850Y130810D02*
Y131497D01*
X448310Y134037D02*
Y153804D01*
Y134037D02*
X450850Y131497D01*
X429340Y121840D02*
X431800Y119380D01*
X429340Y121840D02*
Y128270D01*
X431800Y119380D02*
X457360D01*
X410210Y153804D02*
X410767Y153247D01*
Y140413D02*
X422910Y128270D01*
X410767Y140413D02*
Y153247D01*
X422910Y128270D02*
X429340D01*
X327660Y353060D02*
Y372110D01*
X302260Y353060D02*
Y372110D01*
D60*
X172720Y408940D02*
D03*
X327660Y353060D02*
D03*
D61*
X147320Y408940D02*
D03*
X121920D02*
D03*
X96520D02*
D03*
X302260Y353060D02*
D03*
X276860D02*
D03*
X251460D02*
D03*
D62*
X80010Y80010D02*
D03*
X54610D02*
D03*
X80010Y105410D02*
D03*
X54610D02*
D03*
Y130810D02*
D03*
X80010Y156210D02*
D03*
X54610D02*
D03*
X80010Y181610D02*
D03*
X54610D02*
D03*
X80010Y207010D02*
D03*
X54610D02*
D03*
X80010Y232410D02*
D03*
X54610D02*
D03*
X80010Y257810D02*
D03*
X54610D02*
D03*
X80010Y283210D02*
D03*
X54610D02*
D03*
X80010Y308610D02*
D03*
X394970Y57150D02*
D03*
X369570Y31750D02*
D03*
X394970D02*
D03*
X369570Y6350D02*
D03*
X394970D02*
D03*
D63*
X80010Y130810D02*
D03*
D64*
X54610Y308610D02*
D03*
X369570Y57150D02*
D03*
D65*
X576580Y155090D02*
D03*
Y269090D02*
D03*
D66*
X501580Y187090D02*
D03*
X646580D02*
D03*
Y237090D02*
D03*
X501580Y212090D02*
D03*
Y237090D02*
D03*
D67*
X278130Y214630D02*
D03*
D68*
X320040Y74930D02*
D03*
X287020Y7620D02*
D03*
D69*
X294640Y74930D02*
D03*
X261620Y7620D02*
D03*
D70*
X405130Y115570D02*
D03*
X173990D02*
D03*
X405130Y351790D02*
D03*
X173990D02*
D03*
D71*
X0Y0D02*
D03*
Y433070D02*
D03*
X543560D02*
D03*
Y0D02*
D03*
D72*
X175260Y176530D02*
D03*
X170180Y186690D02*
D03*
Y208280D02*
D03*
X152400Y195580D02*
D03*
X190500Y251460D02*
D03*
X163885Y233625D02*
D03*
X163704Y225181D02*
D03*
X222434Y167530D02*
D03*
X140970Y173990D02*
D03*
X175280Y274340D02*
D03*
X173990Y261620D02*
D03*
X167456Y257700D02*
D03*
X194310Y331470D02*
D03*
Y321310D02*
D03*
X100330Y302260D02*
D03*
X435919Y261929D02*
D03*
X447603Y261859D02*
D03*
X581660Y66040D02*
D03*
X541020Y57150D02*
D03*
X506730Y109220D02*
D03*
X435610Y237490D02*
D03*
X402440Y280546D02*
D03*
X448310Y196850D02*
D03*
X456251Y238439D02*
D03*
X455930Y246380D02*
D03*
X403860Y258618D02*
D03*
X339090Y265430D02*
D03*
X369570Y290830D02*
D03*
X363220Y417830D02*
D03*
X508000Y255270D02*
D03*
X433070Y280670D02*
D03*
X652780Y208280D02*
D03*
X355600Y213360D02*
D03*
X259080Y149860D02*
D03*
X209550D02*
D03*
X228600Y135890D02*
D03*
X593090Y44450D02*
D03*
X648970Y58420D02*
D03*
X650240Y88900D02*
D03*
X599440Y116840D02*
D03*
X539750Y109220D02*
D03*
X518160Y123190D02*
D03*
Y100330D02*
D03*
X617220Y60710D02*
D03*
X616062Y89404D02*
D03*
X450850Y130810D02*
D03*
X504190D02*
D03*
X435610Y135890D02*
D03*
X425450D02*
D03*
X412750Y246380D02*
D03*
X457909Y268665D02*
D03*
X641350Y332740D02*
D03*
X50800Y-8890D02*
D03*
X80010D02*
D03*
X78740Y44450D02*
D03*
X35560Y55880D02*
D03*
X287020Y30480D02*
D03*
Y39370D02*
D03*
Y49530D02*
D03*
X223520Y-8890D02*
D03*
X209550Y54610D02*
D03*
X236220D02*
D03*
X422910Y248920D02*
D03*
X379730Y311150D02*
D03*
X335280Y290830D02*
D03*
X234950Y401320D02*
D03*
X245110Y386080D02*
D03*
X264350Y446840D02*
D03*
X251850Y444110D02*
D03*
X245110Y441960D02*
D03*
X250190Y290830D02*
D03*
X243760Y302495D02*
D03*
X234950Y355600D02*
D03*
X246380Y335280D02*
D03*
X193040Y175260D02*
D03*
X189230Y200660D02*
D03*
Y226060D02*
D03*
X194310Y302260D02*
D03*
D73*
X238760Y246380D02*
D03*
X156210Y147320D02*
D03*
X57150Y345440D02*
D03*
X40640Y312420D02*
D03*
Y180340D02*
D03*
X39882Y247138D02*
D03*
X651510Y411480D02*
D03*
X635000Y378460D02*
D03*
X651510Y345440D02*
D03*
Y147320D02*
D03*
X635000Y114300D02*
D03*
X651510Y81280D02*
D03*
X635000Y48260D02*
D03*
Y-17780D02*
D03*
X618490Y411480D02*
D03*
X601980Y378460D02*
D03*
X618490Y345440D02*
D03*
X601980Y312420D02*
D03*
X618490Y279400D02*
D03*
X601980Y246380D02*
D03*
Y180340D02*
D03*
X618490Y147320D02*
D03*
X601980Y-17780D02*
D03*
X585470Y411480D02*
D03*
X568960Y378460D02*
D03*
X585470Y345440D02*
D03*
X568960Y312420D02*
D03*
Y246380D02*
D03*
Y180340D02*
D03*
Y114300D02*
D03*
Y48260D02*
D03*
X585470Y15240D02*
D03*
X568960Y-17780D02*
D03*
X535940Y378460D02*
D03*
X552450Y345440D02*
D03*
X535940Y312420D02*
D03*
X552450Y279400D02*
D03*
Y213360D02*
D03*
X535940Y180340D02*
D03*
X552450Y147320D02*
D03*
X535940Y114300D02*
D03*
X519430Y411480D02*
D03*
X502920Y378460D02*
D03*
X519430Y345440D02*
D03*
X502920Y312420D02*
D03*
X519430Y279400D02*
D03*
Y147320D02*
D03*
X502920Y48260D02*
D03*
Y-17780D02*
D03*
X486410Y411480D02*
D03*
X469900Y378460D02*
D03*
X486410Y345440D02*
D03*
X469900Y312420D02*
D03*
Y246380D02*
D03*
X486410Y213360D02*
D03*
X469900Y180340D02*
D03*
Y48260D02*
D03*
Y-17780D02*
D03*
X453390Y411480D02*
D03*
X436880Y378460D02*
D03*
X453390Y345440D02*
D03*
Y81280D02*
D03*
X436880Y48260D02*
D03*
X453390Y15240D02*
D03*
X436880Y-17780D02*
D03*
X420370Y411480D02*
D03*
X403860Y378460D02*
D03*
Y312420D02*
D03*
Y180340D02*
D03*
X420370Y81280D02*
D03*
Y15240D02*
D03*
X403860Y-17780D02*
D03*
X370840Y378460D02*
D03*
Y-17780D02*
D03*
X354330Y345440D02*
D03*
X337820Y246380D02*
D03*
Y114300D02*
D03*
Y48260D02*
D03*
X354330Y15240D02*
D03*
X337820Y-17780D02*
D03*
X321310Y411480D02*
D03*
Y279400D02*
D03*
X304800Y246380D02*
D03*
X321310Y147320D02*
D03*
X304800Y114300D02*
D03*
X321310Y15240D02*
D03*
X304800Y-17780D02*
D03*
X288290Y411480D02*
D03*
X271780Y378460D02*
D03*
X288290Y279400D02*
D03*
X271780Y246380D02*
D03*
X288290Y147320D02*
D03*
X271780Y114300D02*
D03*
Y-17780D02*
D03*
X238760Y378460D02*
D03*
X255270Y279400D02*
D03*
X238760Y180340D02*
D03*
Y114300D02*
D03*
X255270Y81280D02*
D03*
X238760Y-17780D02*
D03*
X222250Y345440D02*
D03*
Y279400D02*
D03*
Y213360D02*
D03*
X205740Y114300D02*
D03*
X222250Y81280D02*
D03*
X189230Y147320D02*
D03*
X172720Y48260D02*
D03*
X189230Y15240D02*
D03*
X172720Y-17780D02*
D03*
X139700Y378460D02*
D03*
Y312420D02*
D03*
X156210Y81280D02*
D03*
X139700Y48260D02*
D03*
X156210Y15240D02*
D03*
X139700Y-17780D02*
D03*
X106680Y378460D02*
D03*
X123190Y345440D02*
D03*
X106680Y312420D02*
D03*
X123190Y279400D02*
D03*
Y81280D02*
D03*
X106680Y48260D02*
D03*
X123190Y15240D02*
D03*
X106680Y-17780D02*
D03*
X73660Y378460D02*
D03*
X90170Y345440D02*
D03*
Y15240D02*
D03*
X57150Y411480D02*
D03*
X40640Y378460D02*
D03*
Y114300D02*
D03*
Y-17780D02*
D03*
X24130Y411480D02*
D03*
X7620Y378460D02*
D03*
X24130Y345440D02*
D03*
X7620Y312420D02*
D03*
Y246380D02*
D03*
Y180340D02*
D03*
Y114300D02*
D03*
Y48260D02*
D03*
M02*
