M48
;Layer_Color=9474304
;FILE_FORMAT=4:4
METRIC,LZ
;TYPE=PLATED
T01F00S00C0.3048
T02F00S00C0.8890
T03F00S00C0.9000
T04F00S00C0.9144
T05F00S00C1.0000
T06F00S00C1.0160
T08F00S00C2.1000
T09F00S00C3.2000
;TYPE=NON_PLATED
T10F00S00C2.5400
%
T01
X0056896Y-0001778
X0060198
X00635
X0058547Y0001524
X0050292Y-0001778
X004699
X0043688
X0040386
X0037084
X0033782
X003048
X0027178
X0023876
X0022352Y-0000889
X0018923Y0001524
X0015621
X0012319
X001397Y-0001778
X0017272
X0032131Y0001524
X0035433
X0042037
X0045339
X0009017
X0008001Y-0000889
X000508
X0004064Y-0001778
X0010668
Y0004826
X0007874Y0004445
X0003556Y0005588
X0000762Y0004826
Y001143
X0004064
Y0018034
X0000762
Y0024638
X00039882Y00247138
X0004064Y0031242
X0000762
X0002413Y0034544
X0005715
X0009017
X0010668Y0037846
X0007366
X0004064
X0000762
X0002413Y0041148
X0005715
X0010668Y0031242
X0010033Y0030226
X0012319Y002794
X001397Y0031242
X0012319Y0034544
X001397Y0037846
X0023876
X0024511Y0038608
X0023495Y0040132
Y003556
X0022225Y0034544
X0024638Y0033528
X0024376Y00302495
X0025019Y0029083
X0025527Y002794
X0028829
X0032131
X0033528Y0029083
X0033909Y0026543
X0033782Y0024638
X003048
X0027178
X0023876
X0022225Y002794
X0019431Y0030226
Y0032131
Y0033147
X0017528Y0027434
X0017399Y0026162
X00167456Y002577
X00163885Y00233625
X00163704Y00225181
X0017018Y0020828
Y0018669
X0017526Y0017653
X0019304Y0017526
X0018923Y0020066
Y0022606
X001905Y0025146
X0022225Y0021336
X00222434Y0016753
X0023876Y0018034
X0025908Y0014986
X0028829Y0014732
X0032131
X0033782Y001143
X003048
X0027178
X0023876
X002286Y0013589
X0020955Y0014986
X0018923Y0014732
X0015621
X0014097Y0017399
X001524Y0019558
X0015621Y0008128
X0012319
X001397Y0004826
X0017272
X0020955Y0005461
X0023622
X0022225Y0008128
X0025527
X0028702Y0004953
Y0003937
Y0003048
X0033782Y0004826
X0043688
X004699
X0050292
X0045339Y0008128
X0042037
X0042545Y0013589
X0043561
X0045085Y0013081
X0050419
X004699Y0018034
X0044831Y0019685
X00456251Y00238439
X0045593Y0024638
X004699
X00457909Y00268665
X00447603Y00261859
X00435919Y00261929
X0043307Y0028067
X0040244Y00280546
X0040386Y00258618
X0041275Y0024638
X0042291Y0024892
X0043561Y0023749
X0048641Y0021336
X0050292Y0031242
X004699
X0048641Y0034544
X0045339
X004699Y0037846
X0050292
X0048641Y0041148
X0045339
X0042037
X0043688Y0037846
X0040386
X0037084
X0035433Y0034544
X0037973Y0031115
X0040386Y0031242
X0036957Y0029083
X003556Y0021336
X0040386Y0018034
X0020574Y001143
X0027178Y0037846
X0028829Y0041148
X0032131
X0051943
X0053594Y0037846
X0056896
X0060198
X00635
X0065151Y0041148
X0061849
X0058547
Y0034544
X0061849
X0065151
X0064135Y0033274
X0060198Y0031242
X0056896
X0053594
X0055245Y0034544
X0051943
Y002794
X0055245
X0056896Y0024638
X0060198
X0061849Y002794
X0065278Y0020828
X0065151Y0014732
X0061849
X00635Y001143
X0059944Y0011684
X0056896Y001143
X0053594
X0053975Y0010922
X0051816Y0010033
X0050673Y0010922
X0051816Y0012319
X0051943Y0014732
X0055245
X0056896Y0018034
X0060198
X0053594
X0055245Y0021336
X00508Y0025527
X0054102Y0005715
X0056896Y0004826
X0059309Y0004445
X0058166Y0006604
X0061722Y0006071
X00616062Y00089404
X0065024Y000889
X0065151Y0008128
X0064897Y0005842
X00635Y0004826
X0036322Y0041783
X0026435Y0044684
X0025185Y0044411
X0024511Y0044196
T02
X0036957Y0000635
X0039497
Y0003175
Y0005715
X0036957
Y0003175
T03
X0026162Y0000762
X0028702
X0029464Y0007493
X0032004
T04
X0009652Y0040894
X0012192
X0014732
X0017272
X0025146Y0035306
X0027686
X0030226
X0032766
T05
X0050158Y0018709
Y0021209
Y0023709
X0064658
Y0018709
T06
X0005461Y0008001
X0008001
Y0010541
X0005461
Y0013081
X0008001
Y0015621
X0005461
Y0018161
X0008001
Y0020701
X0005461
Y0023241
X0008001
Y0025781
X0005461
Y0028321
X0008001
Y0030861
X0005461
T08
X0017399Y0011557
X0040513
Y0035179
X0017399
T09
X0054356Y0
X0
X0054356Y0043307
X0
T10
X0027813Y0021463
M30
