G04*
G04 #@! TF.GenerationSoftware,Altium Limited,Altium Designer,24.3.1 (35)*
G04*
G04 Layer_Color=8421504*
%FSLAX44Y44*%
%MOMM*%
G71*
G04*
G04 #@! TF.SameCoordinates,F933E494-0B61-492B-8715-CC6E50B89988*
G04*
G04*
G04 #@! TF.FilePolarity,Positive*
G04*
G01*
G75*
%ADD18R,2.0000X1.0000*%
%ADD19R,0.5000X0.6000*%
%ADD20R,2.1500X3.5000*%
%ADD21R,2.1500X1.1000*%
%ADD22R,2.1500X1.1000*%
%ADD23R,1.5000X1.3000*%
%ADD24R,1.3000X1.5000*%
%ADD25R,0.6000X0.5000*%
%ADD26R,0.7620X0.7620*%
%ADD27R,0.8000X1.2000*%
%ADD28O,0.5500X2.5000*%
%ADD29R,0.6350X0.5080*%
G04:AMPARAMS|DCode=30|XSize=3mm|YSize=1.524mm|CornerRadius=0.381mm|HoleSize=0mm|Usage=FLASHONLY|Rotation=90.000|XOffset=0mm|YOffset=0mm|HoleType=Round|Shape=RoundedRectangle|*
%AMROUNDEDRECTD30*
21,1,3.0000,0.7620,0,0,90.0*
21,1,2.2380,1.5240,0,0,90.0*
1,1,0.7620,0.3810,1.1190*
1,1,0.7620,0.3810,-1.1190*
1,1,0.7620,-0.3810,-1.1190*
1,1,0.7620,-0.3810,1.1190*
%
%ADD30ROUNDEDRECTD30*%
%ADD31R,2.0320X1.2700*%
D18*
X607060Y332740D02*
D03*
Y369740D02*
D03*
X547060D02*
D03*
Y332740D02*
D03*
X599750Y64770D02*
D03*
Y101770D02*
D03*
X539750D02*
D03*
Y64770D02*
D03*
D19*
X327660Y372110D02*
D03*
Y382110D02*
D03*
X302260Y372110D02*
D03*
Y382110D02*
D03*
X245110Y436800D02*
D03*
Y426800D02*
D03*
X646430Y208360D02*
D03*
Y218360D02*
D03*
X637540Y218360D02*
D03*
Y208360D02*
D03*
X359410Y308610D02*
D03*
Y318610D02*
D03*
X355600Y231060D02*
D03*
Y221060D02*
D03*
X422910Y294640D02*
D03*
Y284640D02*
D03*
Y254160D02*
D03*
Y264160D02*
D03*
X521970Y64770D02*
D03*
Y54770D02*
D03*
X511810D02*
D03*
Y64770D02*
D03*
X518160Y117950D02*
D03*
Y107950D02*
D03*
D20*
X348500Y423840D02*
D03*
D21*
X286500Y400840D02*
D03*
Y446840D02*
D03*
D22*
Y423840D02*
D03*
D23*
X261620Y444110D02*
D03*
Y427110D02*
D03*
X275590Y323460D02*
D03*
Y306460D02*
D03*
X236220Y27060D02*
D03*
Y44060D02*
D03*
X35560Y45330D02*
D03*
Y28330D02*
D03*
D24*
X245500Y401320D02*
D03*
X262500D02*
D03*
X245990Y149860D02*
D03*
X228990D02*
D03*
D25*
X251540Y386080D02*
D03*
X261540D02*
D03*
X634920Y332740D02*
D03*
X624920D02*
D03*
X624920Y322580D02*
D03*
X634920D02*
D03*
X370028Y255632D02*
D03*
X380028D02*
D03*
X358140Y255270D02*
D03*
X348140D02*
D03*
X422910Y274320D02*
D03*
X432910D02*
D03*
X482680Y264160D02*
D03*
X492680D02*
D03*
X492840Y255270D02*
D03*
X502840D02*
D03*
X494110Y168910D02*
D03*
X504110D02*
D03*
X482680Y160020D02*
D03*
X492680D02*
D03*
X457360Y130810D02*
D03*
X467360D02*
D03*
X457360Y119380D02*
D03*
X467360D02*
D03*
X429340Y128270D02*
D03*
X439340D02*
D03*
D26*
X259080Y321310D02*
D03*
X243840D02*
D03*
X271780Y290830D02*
D03*
X256540D02*
D03*
X495460Y130810D02*
D03*
X480220D02*
D03*
X495300Y119380D02*
D03*
X480060D02*
D03*
D27*
X350400Y271244D02*
D03*
X369400D02*
D03*
X359900Y295244D02*
D03*
X389480Y271244D02*
D03*
X408480D02*
D03*
X398980Y295244D02*
D03*
D28*
X461010Y214750D02*
D03*
X448310D02*
D03*
X435610D02*
D03*
X422910D02*
D03*
X410210D02*
D03*
X397510D02*
D03*
X384810D02*
D03*
X372110D02*
D03*
X461010Y153804D02*
D03*
X448310D02*
D03*
X435610D02*
D03*
X422910D02*
D03*
X410210D02*
D03*
X397510D02*
D03*
X384810D02*
D03*
X372110D02*
D03*
D29*
X629920Y88900D02*
D03*
X641920D02*
D03*
X629920Y58420D02*
D03*
X641920D02*
D03*
D30*
X287020Y39370D02*
D03*
X261620D02*
D03*
D31*
X209550Y8890D02*
D03*
Y-8890D02*
D03*
Y26670D02*
D03*
Y44450D02*
D03*
X64770Y8890D02*
D03*
Y44450D02*
D03*
Y26670D02*
D03*
Y-8890D02*
D03*
M02*
