G04*
G04 #@! TF.GenerationSoftware,Altium Limited,Altium Designer,24.3.1 (35)*
G04*
G04 Layer_Color=128*
%FSLAX44Y44*%
%MOMM*%
G71*
G04*
G04 #@! TF.SameCoordinates,F933E494-0B61-492B-8715-CC6E50B89988*
G04*
G04*
G04 #@! TF.FilePolarity,Positive*
G04*
G01*
G75*
%ADD89C,0.1270*%
D89*
X168148Y408940D02*
X177292D01*
X172720Y404368D02*
Y413512D01*
X142748Y408940D02*
X151892D01*
X147320Y404368D02*
Y413512D01*
X117348Y408940D02*
X126492D01*
X121920Y404368D02*
Y413512D01*
X91948Y408940D02*
X101092D01*
X96520Y404368D02*
Y413512D01*
X74930Y80010D02*
X85090D01*
X80010Y74930D02*
Y85090D01*
X49530Y80010D02*
X59690D01*
X54610Y74930D02*
Y85090D01*
X74930Y105410D02*
X85090D01*
X80010Y100330D02*
Y110490D01*
X49530Y105410D02*
X59690D01*
X54610Y100330D02*
Y110490D01*
X74930Y130810D02*
X85090D01*
X80010Y125730D02*
Y135890D01*
X49530Y130810D02*
X59690D01*
X54610Y125730D02*
Y135890D01*
X74930Y156210D02*
X85090D01*
X80010Y151130D02*
Y161290D01*
X49530Y156210D02*
X59690D01*
X54610Y151130D02*
Y161290D01*
X74930Y181610D02*
X85090D01*
X80010Y176530D02*
Y186690D01*
X49530Y181610D02*
X59690D01*
X54610Y176530D02*
Y186690D01*
X74930Y207010D02*
X85090D01*
X80010Y201930D02*
Y212090D01*
X49530Y207010D02*
X59690D01*
X54610Y201930D02*
Y212090D01*
X74930Y232410D02*
X85090D01*
X80010Y227330D02*
Y237490D01*
X49530Y232410D02*
X59690D01*
X54610Y227330D02*
Y237490D01*
X74930Y257810D02*
X85090D01*
X80010Y252730D02*
Y262890D01*
X49530Y257810D02*
X59690D01*
X54610Y252730D02*
Y262890D01*
X74930Y283210D02*
X85090D01*
X80010Y278130D02*
Y288290D01*
X49530Y283210D02*
X59690D01*
X54610Y278130D02*
Y288290D01*
X74930Y308610D02*
X85090D01*
X80010Y303530D02*
Y313690D01*
X49530Y308610D02*
X59690D01*
X54610Y303530D02*
Y313690D01*
X323088Y353060D02*
X332232D01*
X327660Y348488D02*
Y357632D01*
X297688Y353060D02*
X306832D01*
X302260Y348488D02*
Y357632D01*
X272288Y353060D02*
X281432D01*
X276860Y348488D02*
Y357632D01*
X246888Y353060D02*
X256032D01*
X251460Y348488D02*
Y357632D01*
X567580Y155090D02*
X585580D01*
X576580Y146090D02*
Y164090D01*
X567580Y269090D02*
X585580D01*
X576580Y260090D02*
Y278090D01*
X496580Y187090D02*
X506580D01*
X501580Y182090D02*
Y192090D01*
X641580Y187090D02*
X651580D01*
X646580Y182090D02*
Y192090D01*
X641580Y237090D02*
X651580D01*
X646580Y232090D02*
Y242090D01*
X496580Y212090D02*
X506580D01*
X501580Y207090D02*
Y217090D01*
X496580Y237090D02*
X506580D01*
X501580Y232090D02*
Y242090D01*
X365125Y57150D02*
X374015D01*
X369570Y52705D02*
Y61595D01*
X390525Y57150D02*
X399415D01*
X394970Y52705D02*
Y61595D01*
X365125Y31750D02*
X374015D01*
X369570Y27305D02*
Y36195D01*
X390525Y31750D02*
X399415D01*
X394970Y27305D02*
Y36195D01*
X365125Y6350D02*
X374015D01*
X369570Y1905D02*
Y10795D01*
X390525Y6350D02*
X399415D01*
X394970Y1905D02*
Y10795D01*
X265430Y214630D02*
X290830D01*
X278130Y201930D02*
Y227330D01*
X315540Y74930D02*
X324540D01*
X320040Y70430D02*
Y79430D01*
X290140Y74930D02*
X299140D01*
X294640Y70430D02*
Y79430D01*
X282520Y7620D02*
X291520D01*
X287020Y3120D02*
Y12120D01*
X257120Y7620D02*
X266120D01*
X261620Y3120D02*
Y12120D01*
X394630Y115570D02*
X415630D01*
X405130Y105070D02*
Y126070D01*
X163490Y115570D02*
X184490D01*
X173990Y105070D02*
Y126070D01*
X394630Y351790D02*
X415630D01*
X405130Y341290D02*
Y362290D01*
X163490Y351790D02*
X184490D01*
X173990Y341290D02*
Y362290D01*
X-16000Y0D02*
X16000D01*
X0Y-16000D02*
Y16000D01*
X-16000Y433070D02*
X16000D01*
X0Y417070D02*
Y449070D01*
X527560Y433070D02*
X559560D01*
X543560Y417070D02*
Y449070D01*
X527560Y0D02*
X559560D01*
X543560Y-16000D02*
Y16000D01*
X173736Y176530D02*
X176784D01*
X175260Y175006D02*
Y178054D01*
X168656Y186690D02*
X171704D01*
X170180Y185166D02*
Y188214D01*
X168656Y208280D02*
X171704D01*
X170180Y206756D02*
Y209804D01*
X150876Y195580D02*
X153924D01*
X152400Y194056D02*
Y197104D01*
X188976Y251460D02*
X192024D01*
X190500Y249936D02*
Y252984D01*
X162361Y233625D02*
X165409D01*
X163885Y232101D02*
Y235149D01*
X162180Y225181D02*
X165228D01*
X163704Y223657D02*
Y226705D01*
X237236Y246380D02*
X240284D01*
X238760Y244856D02*
Y247904D01*
X220910Y167530D02*
X223958D01*
X222434Y166005D02*
Y169053D01*
X154686Y147320D02*
X157734D01*
X156210Y145796D02*
Y148844D01*
X55626Y345440D02*
X58674D01*
X57150Y343916D02*
Y346964D01*
X39116Y312420D02*
X42164D01*
X40640Y310896D02*
Y313944D01*
X139446Y173990D02*
X142494D01*
X140970Y172466D02*
Y175514D01*
X39116Y180340D02*
X42164D01*
X40640Y178816D02*
Y181864D01*
X38358Y247138D02*
X41406D01*
X39882Y245614D02*
Y248662D01*
X173756Y274340D02*
X176804D01*
X175280Y272816D02*
Y275864D01*
X172466Y261620D02*
X175514D01*
X173990Y260096D02*
Y263144D01*
X165932Y257700D02*
X168980D01*
X167456Y256175D02*
Y259223D01*
X192786Y331470D02*
X195834D01*
X194310Y329946D02*
Y332994D01*
X192786Y321310D02*
X195834D01*
X194310Y319786D02*
Y322834D01*
X98806Y302260D02*
X101854D01*
X100330Y300736D02*
Y303784D01*
X649986Y411480D02*
X653034D01*
X651510Y409956D02*
Y413004D01*
X633476Y378460D02*
X636524D01*
X635000Y376936D02*
Y379984D01*
X649986Y345440D02*
X653034D01*
X651510Y343916D02*
Y346964D01*
X649986Y147320D02*
X653034D01*
X651510Y145796D02*
Y148844D01*
X633476Y114300D02*
X636524D01*
X635000Y112776D02*
Y115824D01*
X649986Y81280D02*
X653034D01*
X651510Y79756D02*
Y82804D01*
X633476Y48260D02*
X636524D01*
X635000Y46736D02*
Y49784D01*
X633476Y-17780D02*
X636524D01*
X635000Y-19304D02*
Y-16256D01*
X616966Y411480D02*
X620014D01*
X618490Y409956D02*
Y413004D01*
X600456Y378460D02*
X603504D01*
X601980Y376936D02*
Y379984D01*
X616966Y345440D02*
X620014D01*
X618490Y343916D02*
Y346964D01*
X600456Y312420D02*
X603504D01*
X601980Y310896D02*
Y313944D01*
X616966Y279400D02*
X620014D01*
X618490Y277876D02*
Y280924D01*
X600456Y246380D02*
X603504D01*
X601980Y244856D02*
Y247904D01*
X600456Y180340D02*
X603504D01*
X601980Y178816D02*
Y181864D01*
X616966Y147320D02*
X620014D01*
X618490Y145796D02*
Y148844D01*
X600456Y-17780D02*
X603504D01*
X601980Y-19304D02*
Y-16256D01*
X583946Y411480D02*
X586994D01*
X585470Y409956D02*
Y413004D01*
X567436Y378460D02*
X570484D01*
X568960Y376936D02*
Y379984D01*
X583946Y345440D02*
X586994D01*
X585470Y343916D02*
Y346964D01*
X567436Y312420D02*
X570484D01*
X568960Y310896D02*
Y313944D01*
X567436Y246380D02*
X570484D01*
X568960Y244856D02*
Y247904D01*
X567436Y180340D02*
X570484D01*
X568960Y178816D02*
Y181864D01*
X567436Y114300D02*
X570484D01*
X568960Y112776D02*
Y115824D01*
X567436Y48260D02*
X570484D01*
X568960Y46736D02*
Y49784D01*
X583946Y15240D02*
X586994D01*
X585470Y13716D02*
Y16764D01*
X567436Y-17780D02*
X570484D01*
X568960Y-19304D02*
Y-16256D01*
X534416Y378460D02*
X537464D01*
X535940Y376936D02*
Y379984D01*
X550926Y345440D02*
X553974D01*
X552450Y343916D02*
Y346964D01*
X534416Y312420D02*
X537464D01*
X535940Y310896D02*
Y313944D01*
X550926Y279400D02*
X553974D01*
X552450Y277876D02*
Y280924D01*
X550926Y213360D02*
X553974D01*
X552450Y211836D02*
Y214884D01*
X534416Y180340D02*
X537464D01*
X535940Y178816D02*
Y181864D01*
X550926Y147320D02*
X553974D01*
X552450Y145796D02*
Y148844D01*
X534416Y114300D02*
X537464D01*
X535940Y112776D02*
Y115824D01*
X517906Y411480D02*
X520954D01*
X519430Y409956D02*
Y413004D01*
X501396Y378460D02*
X504444D01*
X502920Y376936D02*
Y379984D01*
X517906Y345440D02*
X520954D01*
X519430Y343916D02*
Y346964D01*
X501396Y312420D02*
X504444D01*
X502920Y310896D02*
Y313944D01*
X517906Y279400D02*
X520954D01*
X519430Y277876D02*
Y280924D01*
X517906Y147320D02*
X520954D01*
X519430Y145796D02*
Y148844D01*
X501396Y48260D02*
X504444D01*
X502920Y46736D02*
Y49784D01*
X501396Y-17780D02*
X504444D01*
X502920Y-19304D02*
Y-16256D01*
X484886Y411480D02*
X487934D01*
X486410Y409956D02*
Y413004D01*
X468376Y378460D02*
X471424D01*
X469900Y376936D02*
Y379984D01*
X484886Y345440D02*
X487934D01*
X486410Y343916D02*
Y346964D01*
X468376Y312420D02*
X471424D01*
X469900Y310896D02*
Y313944D01*
X468376Y246380D02*
X471424D01*
X469900Y244856D02*
Y247904D01*
X484886Y213360D02*
X487934D01*
X486410Y211836D02*
Y214884D01*
X468376Y180340D02*
X471424D01*
X469900Y178816D02*
Y181864D01*
X468376Y48260D02*
X471424D01*
X469900Y46736D02*
Y49784D01*
X468376Y-17780D02*
X471424D01*
X469900Y-19304D02*
Y-16256D01*
X451866Y411480D02*
X454914D01*
X453390Y409956D02*
Y413004D01*
X435356Y378460D02*
X438404D01*
X436880Y376936D02*
Y379984D01*
X451866Y345440D02*
X454914D01*
X453390Y343916D02*
Y346964D01*
X451866Y81280D02*
X454914D01*
X453390Y79756D02*
Y82804D01*
X435356Y48260D02*
X438404D01*
X436880Y46736D02*
Y49784D01*
X451866Y15240D02*
X454914D01*
X453390Y13716D02*
Y16764D01*
X435356Y-17780D02*
X438404D01*
X436880Y-19304D02*
Y-16256D01*
X418846Y411480D02*
X421894D01*
X420370Y409956D02*
Y413004D01*
X402336Y378460D02*
X405384D01*
X403860Y376936D02*
Y379984D01*
X402336Y312420D02*
X405384D01*
X403860Y310896D02*
Y313944D01*
X402336Y180340D02*
X405384D01*
X403860Y178816D02*
Y181864D01*
X418846Y81280D02*
X421894D01*
X420370Y79756D02*
Y82804D01*
X418846Y15240D02*
X421894D01*
X420370Y13716D02*
Y16764D01*
X402336Y-17780D02*
X405384D01*
X403860Y-19304D02*
Y-16256D01*
X369316Y378460D02*
X372364D01*
X370840Y376936D02*
Y379984D01*
X369316Y-17780D02*
X372364D01*
X370840Y-19304D02*
Y-16256D01*
X352806Y345440D02*
X355854D01*
X354330Y343916D02*
Y346964D01*
X336296Y246380D02*
X339344D01*
X337820Y244856D02*
Y247904D01*
X336296Y114300D02*
X339344D01*
X337820Y112776D02*
Y115824D01*
X336296Y48260D02*
X339344D01*
X337820Y46736D02*
Y49784D01*
X352806Y15240D02*
X355854D01*
X354330Y13716D02*
Y16764D01*
X336296Y-17780D02*
X339344D01*
X337820Y-19304D02*
Y-16256D01*
X319786Y411480D02*
X322834D01*
X321310Y409956D02*
Y413004D01*
X319786Y279400D02*
X322834D01*
X321310Y277876D02*
Y280924D01*
X303276Y246380D02*
X306324D01*
X304800Y244856D02*
Y247904D01*
X319786Y147320D02*
X322834D01*
X321310Y145796D02*
Y148844D01*
X303276Y114300D02*
X306324D01*
X304800Y112776D02*
Y115824D01*
X319786Y15240D02*
X322834D01*
X321310Y13716D02*
Y16764D01*
X303276Y-17780D02*
X306324D01*
X304800Y-19304D02*
Y-16256D01*
X286766Y411480D02*
X289814D01*
X288290Y409956D02*
Y413004D01*
X270256Y378460D02*
X273304D01*
X271780Y376936D02*
Y379984D01*
X286766Y279400D02*
X289814D01*
X288290Y277876D02*
Y280924D01*
X270256Y246380D02*
X273304D01*
X271780Y244856D02*
Y247904D01*
X286766Y147320D02*
X289814D01*
X288290Y145796D02*
Y148844D01*
X270256Y114300D02*
X273304D01*
X271780Y112776D02*
Y115824D01*
X270256Y-17780D02*
X273304D01*
X271780Y-19304D02*
Y-16256D01*
X237236Y378460D02*
X240284D01*
X238760Y376936D02*
Y379984D01*
X253746Y279400D02*
X256794D01*
X255270Y277876D02*
Y280924D01*
X237236Y180340D02*
X240284D01*
X238760Y178816D02*
Y181864D01*
X237236Y114300D02*
X240284D01*
X238760Y112776D02*
Y115824D01*
X253746Y81280D02*
X256794D01*
X255270Y79756D02*
Y82804D01*
X237236Y-17780D02*
X240284D01*
X238760Y-19304D02*
Y-16256D01*
X220726Y345440D02*
X223774D01*
X222250Y343916D02*
Y346964D01*
X220726Y279400D02*
X223774D01*
X222250Y277876D02*
Y280924D01*
X220726Y213360D02*
X223774D01*
X222250Y211836D02*
Y214884D01*
X204216Y114300D02*
X207264D01*
X205740Y112776D02*
Y115824D01*
X220726Y81280D02*
X223774D01*
X222250Y79756D02*
Y82804D01*
X187706Y147320D02*
X190754D01*
X189230Y145796D02*
Y148844D01*
X171196Y48260D02*
X174244D01*
X172720Y46736D02*
Y49784D01*
X187706Y15240D02*
X190754D01*
X189230Y13716D02*
Y16764D01*
X171196Y-17780D02*
X174244D01*
X172720Y-19304D02*
Y-16256D01*
X138176Y378460D02*
X141224D01*
X139700Y376936D02*
Y379984D01*
X138176Y312420D02*
X141224D01*
X139700Y310896D02*
Y313944D01*
X154686Y81280D02*
X157734D01*
X156210Y79756D02*
Y82804D01*
X138176Y48260D02*
X141224D01*
X139700Y46736D02*
Y49784D01*
X154686Y15240D02*
X157734D01*
X156210Y13716D02*
Y16764D01*
X138176Y-17780D02*
X141224D01*
X139700Y-19304D02*
Y-16256D01*
X105156Y378460D02*
X108204D01*
X106680Y376936D02*
Y379984D01*
X121666Y345440D02*
X124714D01*
X123190Y343916D02*
Y346964D01*
X105156Y312420D02*
X108204D01*
X106680Y310896D02*
Y313944D01*
X121666Y279400D02*
X124714D01*
X123190Y277876D02*
Y280924D01*
X121666Y81280D02*
X124714D01*
X123190Y79756D02*
Y82804D01*
X105156Y48260D02*
X108204D01*
X106680Y46736D02*
Y49784D01*
X121666Y15240D02*
X124714D01*
X123190Y13716D02*
Y16764D01*
X105156Y-17780D02*
X108204D01*
X106680Y-19304D02*
Y-16256D01*
X72136Y378460D02*
X75184D01*
X73660Y376936D02*
Y379984D01*
X88646Y345440D02*
X91694D01*
X90170Y343916D02*
Y346964D01*
X88646Y15240D02*
X91694D01*
X90170Y13716D02*
Y16764D01*
X55626Y411480D02*
X58674D01*
X57150Y409956D02*
Y413004D01*
X39116Y378460D02*
X42164D01*
X40640Y376936D02*
Y379984D01*
X39116Y114300D02*
X42164D01*
X40640Y112776D02*
Y115824D01*
X39116Y-17780D02*
X42164D01*
X40640Y-19304D02*
Y-16256D01*
X22606Y411480D02*
X25654D01*
X24130Y409956D02*
Y413004D01*
X6096Y378460D02*
X9144D01*
X7620Y376936D02*
Y379984D01*
X22606Y345440D02*
X25654D01*
X24130Y343916D02*
Y346964D01*
X6096Y312420D02*
X9144D01*
X7620Y310896D02*
Y313944D01*
X6096Y246380D02*
X9144D01*
X7620Y244856D02*
Y247904D01*
X6096Y180340D02*
X9144D01*
X7620Y178816D02*
Y181864D01*
X6096Y114300D02*
X9144D01*
X7620Y112776D02*
Y115824D01*
X6096Y48260D02*
X9144D01*
X7620Y46736D02*
Y49784D01*
X434394Y261929D02*
X437443D01*
X435919Y260405D02*
Y263453D01*
X446078Y261859D02*
X449127D01*
X447603Y260336D02*
Y263384D01*
X580136Y66040D02*
X583184D01*
X581660Y64516D02*
Y67564D01*
X539496Y57150D02*
X542544D01*
X541020Y55626D02*
Y58674D01*
X505206Y109220D02*
X508254D01*
X506730Y107696D02*
Y110744D01*
X434086Y237490D02*
X437134D01*
X435610Y235966D02*
Y239014D01*
X400916Y280546D02*
X403964D01*
X402440Y279022D02*
Y282070D01*
X446786Y196850D02*
X449834D01*
X448310Y195326D02*
Y198374D01*
X454727Y238439D02*
X457775D01*
X456251Y236915D02*
Y239963D01*
X454406Y246380D02*
X457454D01*
X455930Y244856D02*
Y247904D01*
X402336Y258618D02*
X405384D01*
X403860Y257094D02*
Y260142D01*
X337566Y265430D02*
X340614D01*
X339090Y263906D02*
Y266954D01*
X368046Y290830D02*
X371094D01*
X369570Y289306D02*
Y292354D01*
X361696Y417830D02*
X364744D01*
X363220Y416306D02*
Y419354D01*
X506476Y255270D02*
X509524D01*
X508000Y253746D02*
Y256794D01*
X431546Y280670D02*
X434594D01*
X433070Y279146D02*
Y282194D01*
X651256Y208280D02*
X654304D01*
X652780Y206756D02*
Y209804D01*
X354076Y213360D02*
X357124D01*
X355600Y211836D02*
Y214884D01*
X257556Y149860D02*
X260604D01*
X259080Y148336D02*
Y151384D01*
X208026Y149860D02*
X211074D01*
X209550Y148336D02*
Y151384D01*
X227076Y135890D02*
X230124D01*
X228600Y134366D02*
Y137414D01*
X591566Y44450D02*
X594614D01*
X593090Y42926D02*
Y45974D01*
X647446Y58420D02*
X650494D01*
X648970Y56896D02*
Y59944D01*
X648716Y88900D02*
X651764D01*
X650240Y87376D02*
Y90424D01*
X597916Y116840D02*
X600964D01*
X599440Y115316D02*
Y118364D01*
X538226Y109220D02*
X541274D01*
X539750Y107696D02*
Y110744D01*
X516636Y123190D02*
X519684D01*
X518160Y121666D02*
Y124714D01*
X516636Y100330D02*
X519684D01*
X518160Y98806D02*
Y101854D01*
X615696Y60710D02*
X618744D01*
X617220Y59186D02*
Y62234D01*
X614538Y89404D02*
X617585D01*
X616062Y87880D02*
Y90928D01*
X449326Y130810D02*
X452374D01*
X450850Y129286D02*
Y132334D01*
X502666Y130810D02*
X505714D01*
X504190Y129286D02*
Y132334D01*
X434086Y135890D02*
X437134D01*
X435610Y134366D02*
Y137414D01*
X423926Y135890D02*
X426974D01*
X425450Y134366D02*
Y137414D01*
X411226Y246380D02*
X414274D01*
X412750Y244856D02*
Y247904D01*
X456385Y268665D02*
X459433D01*
X457909Y267141D02*
Y270189D01*
X639826Y332740D02*
X642874D01*
X641350Y331216D02*
Y334264D01*
X49276Y-8890D02*
X52324D01*
X50800Y-10414D02*
Y-7366D01*
X78486Y-8890D02*
X81534D01*
X80010Y-10414D02*
Y-7366D01*
X77216Y44450D02*
X80264D01*
X78740Y42926D02*
Y45974D01*
X34036Y55880D02*
X37084D01*
X35560Y54356D02*
Y57404D01*
X285496Y30480D02*
X288544D01*
X287020Y28956D02*
Y32004D01*
X285496Y39370D02*
X288544D01*
X287020Y37846D02*
Y40894D01*
X285496Y49530D02*
X288544D01*
X287020Y48006D02*
Y51054D01*
X221996Y-8890D02*
X225044D01*
X223520Y-10414D02*
Y-7366D01*
X208026Y54610D02*
X211074D01*
X209550Y53086D02*
Y56134D01*
X234696Y54610D02*
X237744D01*
X236220Y53086D02*
Y56134D01*
X421386Y248920D02*
X424434D01*
X422910Y247396D02*
Y250444D01*
X378206Y311150D02*
X381254D01*
X379730Y309626D02*
Y312674D01*
X333756Y290830D02*
X336804D01*
X335280Y289306D02*
Y292354D01*
X233426Y401320D02*
X236474D01*
X234950Y399796D02*
Y402844D01*
X243586Y386080D02*
X246634D01*
X245110Y384556D02*
Y387604D01*
X262826Y446840D02*
X265874D01*
X264350Y445316D02*
Y448364D01*
X250326Y444110D02*
X253374D01*
X251850Y442586D02*
Y445634D01*
X243586Y441960D02*
X246634D01*
X245110Y440436D02*
Y443484D01*
X248666Y290830D02*
X251714D01*
X250190Y289306D02*
Y292354D01*
X242236Y302495D02*
X245284D01*
X243760Y300971D02*
Y304019D01*
X233426Y355600D02*
X236474D01*
X234950Y354076D02*
Y357124D01*
X244856Y335280D02*
X247904D01*
X246380Y333756D02*
Y336804D01*
X191516Y175260D02*
X194564D01*
X193040Y173736D02*
Y176784D01*
X187706Y200660D02*
X190754D01*
X189230Y199136D02*
Y202184D01*
X187706Y226060D02*
X190754D01*
X189230Y224536D02*
Y227584D01*
X192786Y302260D02*
X195834D01*
X194310Y300736D02*
Y303784D01*
M02*
