G04*
G04 #@! TF.GenerationSoftware,Altium Limited,Altium Designer,24.3.1 (35)*
G04*
G04 Layer_Color=255*
%FSLAX44Y44*%
%MOMM*%
G71*
G04*
G04 #@! TF.SameCoordinates,F933E494-0B61-492B-8715-CC6E50B89988*
G04*
G04*
G04 #@! TF.FilePolarity,Positive*
G04*
G01*
G75*
G04:AMPARAMS|DCode=60|XSize=2.032mm|YSize=2.032mm|CornerRadius=0mm|HoleSize=0mm|Usage=FLASHONLY|Rotation=180.000|XOffset=0mm|YOffset=0mm|HoleType=Round|Shape=Octagon|*
%AMOCTAGOND60*
4,1,8,-1.0160,0.5080,-1.0160,-0.5080,-0.5080,-1.0160,0.5080,-1.0160,1.0160,-0.5080,1.0160,0.5080,0.5080,1.0160,-0.5080,1.0160,-1.0160,0.5080,0.0*
%
%ADD60OCTAGOND60*%

%ADD61C,2.0320*%
%ADD62C,1.5748*%
%ADD63C,1.2700*%
G04:AMPARAMS|DCode=64|XSize=1.5748mm|YSize=1.5748mm|CornerRadius=0mm|HoleSize=0mm|Usage=FLASHONLY|Rotation=270.000|XOffset=0mm|YOffset=0mm|HoleType=Round|Shape=Octagon|*
%AMOCTAGOND64*
4,1,8,-0.3937,-0.7874,0.3937,-0.7874,0.7874,-0.3937,0.7874,0.3937,0.3937,0.7874,-0.3937,0.7874,-0.7874,0.3937,-0.7874,-0.3937,-0.3937,-0.7874,0.0*
%
%ADD64OCTAGOND64*%

%ADD65O,4.0000X3.0000*%
%ADD66C,2.0000*%
%ADD67C,4.0640*%
%ADD68C,1.7000*%
%ADD69R,1.7000X1.7000*%
%ADD70C,3.2000*%
%ADD71C,5.0000*%
%ADD74R,1.4500X0.6000*%
%ADD75R,1.4500X0.3000*%
%ADD76R,1.4500X1.8000*%
%ADD77R,1.2000X1.8000*%
%ADD78R,0.9000X0.9000*%
%ADD79R,1.5000X0.9000*%
%ADD80R,0.9000X1.5000*%
D60*
X172720Y408940D02*
D03*
X327660Y353060D02*
D03*
D61*
X147320Y408940D02*
D03*
X121920D02*
D03*
X96520D02*
D03*
X302260Y353060D02*
D03*
X276860D02*
D03*
X251460D02*
D03*
D62*
X80010Y80010D02*
D03*
X54610D02*
D03*
X80010Y105410D02*
D03*
X54610D02*
D03*
Y130810D02*
D03*
X80010Y156210D02*
D03*
X54610D02*
D03*
X80010Y181610D02*
D03*
X54610D02*
D03*
X80010Y207010D02*
D03*
X54610D02*
D03*
X80010Y232410D02*
D03*
X54610D02*
D03*
X80010Y257810D02*
D03*
X54610D02*
D03*
X80010Y283210D02*
D03*
X54610D02*
D03*
X80010Y308610D02*
D03*
X394970Y57150D02*
D03*
X369570Y31750D02*
D03*
X394970D02*
D03*
X369570Y6350D02*
D03*
X394970D02*
D03*
D63*
X80010Y130810D02*
D03*
D64*
X54610Y308610D02*
D03*
X369570Y57150D02*
D03*
D65*
X576580Y155090D02*
D03*
Y269090D02*
D03*
D66*
X501580Y187090D02*
D03*
X646580D02*
D03*
Y237090D02*
D03*
X501580Y212090D02*
D03*
Y237090D02*
D03*
D67*
X278130Y214630D02*
D03*
D68*
X320040Y74930D02*
D03*
X287020Y7620D02*
D03*
D69*
X294640Y74930D02*
D03*
X261620Y7620D02*
D03*
D70*
X405130Y115570D02*
D03*
X173990D02*
D03*
X405130Y351790D02*
D03*
X173990D02*
D03*
D71*
X0Y0D02*
D03*
Y433070D02*
D03*
X543560D02*
D03*
Y0D02*
D03*
D74*
X604370Y43700D02*
D03*
Y51700D02*
D03*
Y100700D02*
D03*
Y108700D02*
D03*
D75*
Y58700D02*
D03*
Y63700D02*
D03*
Y68700D02*
D03*
Y73700D02*
D03*
Y78700D02*
D03*
Y83700D02*
D03*
Y88700D02*
D03*
Y93700D02*
D03*
D76*
X613520Y126900D02*
D03*
Y25500D02*
D03*
D77*
X655320Y126900D02*
D03*
Y25500D02*
D03*
D78*
X292100Y200660D02*
D03*
Y214660D02*
D03*
Y228660D02*
D03*
X278100D02*
D03*
X264100D02*
D03*
Y214660D02*
D03*
Y200660D02*
D03*
X278100D02*
D03*
Y214660D02*
D03*
D79*
X380600Y137460D02*
D03*
Y150160D02*
D03*
Y162860D02*
D03*
Y175560D02*
D03*
Y188260D02*
D03*
Y200960D02*
D03*
Y213660D02*
D03*
Y226360D02*
D03*
Y239060D02*
D03*
Y251760D02*
D03*
Y264460D02*
D03*
Y277160D02*
D03*
Y289860D02*
D03*
Y302560D02*
D03*
X205600D02*
D03*
Y289860D02*
D03*
Y277160D02*
D03*
Y264460D02*
D03*
Y251760D02*
D03*
Y239060D02*
D03*
Y226360D02*
D03*
Y213660D02*
D03*
Y200960D02*
D03*
Y188260D02*
D03*
Y175560D02*
D03*
Y162860D02*
D03*
Y150160D02*
D03*
Y137460D02*
D03*
D80*
X350250Y315060D02*
D03*
X337550D02*
D03*
X324850D02*
D03*
X312150D02*
D03*
X299450D02*
D03*
X286750D02*
D03*
X274050D02*
D03*
X261350D02*
D03*
X248650D02*
D03*
X235950D02*
D03*
X223250D02*
D03*
M02*
