G04*
G04 #@! TF.GenerationSoftware,Altium Limited,Altium Designer,24.3.1 (35)*
G04*
G04 Layer_Color=128*
%FSLAX44Y44*%
%MOMM*%
G71*
G04*
G04 #@! TF.SameCoordinates,F933E494-0B61-492B-8715-CC6E50B89988*
G04*
G04*
G04 #@! TF.FilePolarity,Positive*
G04*
G01*
G75*
%ADD74R,1.4500X0.6000*%
%ADD75R,1.4500X0.3000*%
%ADD76R,1.4500X1.8000*%
%ADD77R,1.2000X1.8000*%
%ADD78R,0.9000X0.9000*%
%ADD79R,1.5000X0.9000*%
%ADD80R,0.9000X1.5000*%
D74*
X604370Y43700D02*
D03*
Y51700D02*
D03*
Y100700D02*
D03*
Y108700D02*
D03*
D75*
Y58700D02*
D03*
Y63700D02*
D03*
Y68700D02*
D03*
Y73700D02*
D03*
Y78700D02*
D03*
Y83700D02*
D03*
Y88700D02*
D03*
Y93700D02*
D03*
D76*
X613520Y126900D02*
D03*
Y25500D02*
D03*
D77*
X655320Y126900D02*
D03*
Y25500D02*
D03*
D78*
X292100Y200660D02*
D03*
Y214660D02*
D03*
Y228660D02*
D03*
X278100D02*
D03*
X264100D02*
D03*
Y214660D02*
D03*
Y200660D02*
D03*
X278100D02*
D03*
Y214660D02*
D03*
D79*
X380600Y137460D02*
D03*
Y150160D02*
D03*
Y162860D02*
D03*
Y175560D02*
D03*
Y188260D02*
D03*
Y200960D02*
D03*
Y213660D02*
D03*
Y226360D02*
D03*
Y239060D02*
D03*
Y251760D02*
D03*
Y264460D02*
D03*
Y277160D02*
D03*
Y289860D02*
D03*
Y302560D02*
D03*
X205600D02*
D03*
Y289860D02*
D03*
Y277160D02*
D03*
Y264460D02*
D03*
Y251760D02*
D03*
Y239060D02*
D03*
Y226360D02*
D03*
Y213660D02*
D03*
Y200960D02*
D03*
Y188260D02*
D03*
Y175560D02*
D03*
Y162860D02*
D03*
Y150160D02*
D03*
Y137460D02*
D03*
D80*
X350250Y315060D02*
D03*
X337550D02*
D03*
X324850D02*
D03*
X312150D02*
D03*
X299450D02*
D03*
X286750D02*
D03*
X274050D02*
D03*
X261350D02*
D03*
X248650D02*
D03*
X235950D02*
D03*
X223250D02*
D03*
M02*
