G04*
G04 #@! TF.GenerationSoftware,Altium Limited,Altium Designer,24.3.1 (35)*
G04*
G04 Layer_Color=8388736*
%FSLAX44Y44*%
%MOMM*%
G71*
G04*
G04 #@! TF.SameCoordinates,F933E494-0B61-492B-8715-CC6E50B89988*
G04*
G04*
G04 #@! TF.FilePolarity,Negative*
G04*
G01*
G75*
%ADD32R,2.2032X1.2032*%
%ADD33R,0.7032X0.8032*%
%ADD34R,2.3532X3.7032*%
%ADD35R,2.3532X1.3032*%
%ADD36R,2.3532X1.3032*%
%ADD37R,1.7032X1.5032*%
%ADD38R,1.5032X1.7032*%
%ADD39R,0.8032X0.7032*%
%ADD40R,0.9652X0.9652*%
%ADD41R,1.0032X1.4032*%
%ADD42O,0.7532X2.7032*%
%ADD43R,0.8382X0.7112*%
G04:AMPARAMS|DCode=44|XSize=3.2032mm|YSize=1.7272mm|CornerRadius=0.4826mm|HoleSize=0mm|Usage=FLASHONLY|Rotation=90.000|XOffset=0mm|YOffset=0mm|HoleType=Round|Shape=RoundedRectangle|*
%AMROUNDEDRECTD44*
21,1,3.2032,0.7620,0,0,90.0*
21,1,2.2380,1.7272,0,0,90.0*
1,1,0.9652,0.3810,1.1190*
1,1,0.9652,0.3810,-1.1190*
1,1,0.9652,-0.3810,-1.1190*
1,1,0.9652,-0.3810,1.1190*
%
%ADD44ROUNDEDRECTD44*%
%ADD45R,2.2352X1.4732*%
G04:AMPARAMS|DCode=46|XSize=2.2352mm|YSize=2.2352mm|CornerRadius=0mm|HoleSize=0mm|Usage=FLASHONLY|Rotation=180.000|XOffset=0mm|YOffset=0mm|HoleType=Round|Shape=Octagon|*
%AMOCTAGOND46*
4,1,8,-1.1176,0.5588,-1.1176,-0.5588,-0.5588,-1.1176,0.5588,-1.1176,1.1176,-0.5588,1.1176,0.5588,0.5588,1.1176,-0.5588,1.1176,-1.1176,0.5588,0.0*
%
%ADD46OCTAGOND46*%

%ADD47C,2.2352*%
%ADD48C,1.7780*%
%ADD49C,1.4732*%
G04:AMPARAMS|DCode=50|XSize=1.778mm|YSize=1.778mm|CornerRadius=0mm|HoleSize=0mm|Usage=FLASHONLY|Rotation=270.000|XOffset=0mm|YOffset=0mm|HoleType=Round|Shape=Octagon|*
%AMOCTAGOND50*
4,1,8,-0.4445,-0.8890,0.4445,-0.8890,0.8890,-0.4445,0.8890,0.4445,0.4445,0.8890,-0.4445,0.8890,-0.8890,0.4445,-0.8890,-0.4445,-0.4445,-0.8890,0.0*
%
%ADD50OCTAGOND50*%

%ADD51O,4.2032X3.2032*%
%ADD52C,2.2032*%
%ADD53C,4.2672*%
%ADD54C,1.9032*%
%ADD55R,1.9032X1.9032*%
%ADD56C,3.4032*%
%ADD57C,5.2032*%
D32*
X607060Y332740D02*
D03*
Y369740D02*
D03*
X547060D02*
D03*
Y332740D02*
D03*
X599750Y64770D02*
D03*
Y101770D02*
D03*
X539750D02*
D03*
Y64770D02*
D03*
D33*
X327660Y372110D02*
D03*
Y382110D02*
D03*
X302260Y372110D02*
D03*
Y382110D02*
D03*
X245110Y436800D02*
D03*
Y426800D02*
D03*
X646430Y208360D02*
D03*
Y218360D02*
D03*
X637540Y218360D02*
D03*
Y208360D02*
D03*
X359410Y308610D02*
D03*
Y318610D02*
D03*
X355600Y231060D02*
D03*
Y221060D02*
D03*
X422910Y294640D02*
D03*
Y284640D02*
D03*
Y254160D02*
D03*
Y264160D02*
D03*
X521970Y64770D02*
D03*
Y54770D02*
D03*
X511810D02*
D03*
Y64770D02*
D03*
X518160Y117950D02*
D03*
Y107950D02*
D03*
D34*
X348500Y423840D02*
D03*
D35*
X286500Y400840D02*
D03*
Y446840D02*
D03*
D36*
Y423840D02*
D03*
D37*
X261620Y444110D02*
D03*
Y427110D02*
D03*
X275590Y323460D02*
D03*
Y306460D02*
D03*
X236220Y27060D02*
D03*
Y44060D02*
D03*
X35560Y45330D02*
D03*
Y28330D02*
D03*
D38*
X245500Y401320D02*
D03*
X262500D02*
D03*
X245990Y149860D02*
D03*
X228990D02*
D03*
D39*
X251540Y386080D02*
D03*
X261540D02*
D03*
X634920Y332740D02*
D03*
X624920D02*
D03*
X624920Y322580D02*
D03*
X634920D02*
D03*
X370028Y255632D02*
D03*
X380028D02*
D03*
X358140Y255270D02*
D03*
X348140D02*
D03*
X422910Y274320D02*
D03*
X432910D02*
D03*
X482680Y264160D02*
D03*
X492680D02*
D03*
X492840Y255270D02*
D03*
X502840D02*
D03*
X494110Y168910D02*
D03*
X504110D02*
D03*
X482680Y160020D02*
D03*
X492680D02*
D03*
X457360Y130810D02*
D03*
X467360D02*
D03*
X457360Y119380D02*
D03*
X467360D02*
D03*
X429340Y128270D02*
D03*
X439340D02*
D03*
D40*
X259080Y321310D02*
D03*
X243840D02*
D03*
X271780Y290830D02*
D03*
X256540D02*
D03*
X495460Y130810D02*
D03*
X480220D02*
D03*
X495300Y119380D02*
D03*
X480060D02*
D03*
D41*
X350400Y271244D02*
D03*
X369400D02*
D03*
X359900Y295244D02*
D03*
X389480Y271244D02*
D03*
X408480D02*
D03*
X398980Y295244D02*
D03*
D42*
X461010Y214750D02*
D03*
X448310D02*
D03*
X435610D02*
D03*
X422910D02*
D03*
X410210D02*
D03*
X397510D02*
D03*
X384810D02*
D03*
X372110D02*
D03*
X461010Y153804D02*
D03*
X448310D02*
D03*
X435610D02*
D03*
X422910D02*
D03*
X410210D02*
D03*
X397510D02*
D03*
X384810D02*
D03*
X372110D02*
D03*
D43*
X629920Y88900D02*
D03*
X641920D02*
D03*
X629920Y58420D02*
D03*
X641920D02*
D03*
D44*
X287020Y39370D02*
D03*
X261620D02*
D03*
D45*
X209550Y8890D02*
D03*
Y-8890D02*
D03*
Y26670D02*
D03*
Y44450D02*
D03*
X64770Y8890D02*
D03*
Y44450D02*
D03*
Y26670D02*
D03*
Y-8890D02*
D03*
D46*
X172720Y408940D02*
D03*
X327660Y353060D02*
D03*
D47*
X147320Y408940D02*
D03*
X121920D02*
D03*
X96520D02*
D03*
X302260Y353060D02*
D03*
X276860D02*
D03*
X251460D02*
D03*
D48*
X80010Y80010D02*
D03*
X54610D02*
D03*
X80010Y105410D02*
D03*
X54610D02*
D03*
Y130810D02*
D03*
X80010Y156210D02*
D03*
X54610D02*
D03*
X80010Y181610D02*
D03*
X54610D02*
D03*
X80010Y207010D02*
D03*
X54610D02*
D03*
X80010Y232410D02*
D03*
X54610D02*
D03*
X80010Y257810D02*
D03*
X54610D02*
D03*
X80010Y283210D02*
D03*
X54610D02*
D03*
X80010Y308610D02*
D03*
X394970Y57150D02*
D03*
X369570Y31750D02*
D03*
X394970D02*
D03*
X369570Y6350D02*
D03*
X394970D02*
D03*
D49*
X80010Y130810D02*
D03*
D50*
X54610Y308610D02*
D03*
X369570Y57150D02*
D03*
D51*
X576580Y155090D02*
D03*
Y269090D02*
D03*
D52*
X501580Y187090D02*
D03*
X646580D02*
D03*
Y237090D02*
D03*
X501580Y212090D02*
D03*
Y237090D02*
D03*
D53*
X278130Y214630D02*
D03*
D54*
X320040Y74930D02*
D03*
X287020Y7620D02*
D03*
D55*
X294640Y74930D02*
D03*
X261620Y7620D02*
D03*
D56*
X405130Y115570D02*
D03*
X173990D02*
D03*
X405130Y351790D02*
D03*
X173990D02*
D03*
D57*
X0Y0D02*
D03*
Y433070D02*
D03*
X543560D02*
D03*
Y0D02*
D03*
M02*
