G04*
G04 #@! TF.GenerationSoftware,Altium Limited,Altium Designer,24.3.1 (35)*
G04*
G04 Layer_Color=16711935*
%FSLAX44Y44*%
%MOMM*%
G71*
G04*
G04 #@! TF.SameCoordinates,F933E494-0B61-492B-8715-CC6E50B89988*
G04*
G04*
G04 #@! TF.FilePolarity,Negative*
G04*
G01*
G75*
G04:AMPARAMS|DCode=46|XSize=2.2352mm|YSize=2.2352mm|CornerRadius=0mm|HoleSize=0mm|Usage=FLASHONLY|Rotation=180.000|XOffset=0mm|YOffset=0mm|HoleType=Round|Shape=Octagon|*
%AMOCTAGOND46*
4,1,8,-1.1176,0.5588,-1.1176,-0.5588,-0.5588,-1.1176,0.5588,-1.1176,1.1176,-0.5588,1.1176,0.5588,0.5588,1.1176,-0.5588,1.1176,-1.1176,0.5588,0.0*
%
%ADD46OCTAGOND46*%

%ADD47C,2.2352*%
%ADD48C,1.7780*%
%ADD49C,1.4732*%
G04:AMPARAMS|DCode=50|XSize=1.778mm|YSize=1.778mm|CornerRadius=0mm|HoleSize=0mm|Usage=FLASHONLY|Rotation=270.000|XOffset=0mm|YOffset=0mm|HoleType=Round|Shape=Octagon|*
%AMOCTAGOND50*
4,1,8,-0.4445,-0.8890,0.4445,-0.8890,0.8890,-0.4445,0.8890,0.4445,0.4445,0.8890,-0.4445,0.8890,-0.8890,0.4445,-0.8890,-0.4445,-0.4445,-0.8890,0.0*
%
%ADD50OCTAGOND50*%

%ADD51O,4.2032X3.2032*%
%ADD52C,2.2032*%
%ADD53C,4.2672*%
%ADD54C,1.9032*%
%ADD55R,1.9032X1.9032*%
%ADD56C,3.4032*%
%ADD57C,5.2032*%
%ADD81R,1.6532X0.8032*%
%ADD82R,1.6532X0.5032*%
%ADD83R,1.6532X2.0032*%
%ADD84R,1.4032X2.0032*%
%ADD85R,1.1032X1.1032*%
%ADD86R,1.7032X1.1032*%
%ADD87R,1.1032X1.7032*%
D46*
X172720Y408940D02*
D03*
X327660Y353060D02*
D03*
D47*
X147320Y408940D02*
D03*
X121920D02*
D03*
X96520D02*
D03*
X302260Y353060D02*
D03*
X276860D02*
D03*
X251460D02*
D03*
D48*
X80010Y80010D02*
D03*
X54610D02*
D03*
X80010Y105410D02*
D03*
X54610D02*
D03*
Y130810D02*
D03*
X80010Y156210D02*
D03*
X54610D02*
D03*
X80010Y181610D02*
D03*
X54610D02*
D03*
X80010Y207010D02*
D03*
X54610D02*
D03*
X80010Y232410D02*
D03*
X54610D02*
D03*
X80010Y257810D02*
D03*
X54610D02*
D03*
X80010Y283210D02*
D03*
X54610D02*
D03*
X80010Y308610D02*
D03*
X394970Y57150D02*
D03*
X369570Y31750D02*
D03*
X394970D02*
D03*
X369570Y6350D02*
D03*
X394970D02*
D03*
D49*
X80010Y130810D02*
D03*
D50*
X54610Y308610D02*
D03*
X369570Y57150D02*
D03*
D51*
X576580Y155090D02*
D03*
Y269090D02*
D03*
D52*
X501580Y187090D02*
D03*
X646580D02*
D03*
Y237090D02*
D03*
X501580Y212090D02*
D03*
Y237090D02*
D03*
D53*
X278130Y214630D02*
D03*
D54*
X320040Y74930D02*
D03*
X287020Y7620D02*
D03*
D55*
X294640Y74930D02*
D03*
X261620Y7620D02*
D03*
D56*
X405130Y115570D02*
D03*
X173990D02*
D03*
X405130Y351790D02*
D03*
X173990D02*
D03*
D57*
X0Y0D02*
D03*
Y433070D02*
D03*
X543560D02*
D03*
Y0D02*
D03*
D81*
X604370Y43700D02*
D03*
Y51700D02*
D03*
Y100700D02*
D03*
Y108700D02*
D03*
D82*
Y58700D02*
D03*
Y63700D02*
D03*
Y68700D02*
D03*
Y73700D02*
D03*
Y78700D02*
D03*
Y83700D02*
D03*
Y88700D02*
D03*
Y93700D02*
D03*
D83*
X613520Y126900D02*
D03*
Y25500D02*
D03*
D84*
X655320Y126900D02*
D03*
Y25500D02*
D03*
D85*
X292100Y200660D02*
D03*
Y214660D02*
D03*
Y228660D02*
D03*
X278100D02*
D03*
X264100D02*
D03*
Y214660D02*
D03*
Y200660D02*
D03*
X278100D02*
D03*
Y214660D02*
D03*
D86*
X380600Y137460D02*
D03*
Y150160D02*
D03*
Y162860D02*
D03*
Y175560D02*
D03*
Y188260D02*
D03*
Y200960D02*
D03*
Y213660D02*
D03*
Y226360D02*
D03*
Y239060D02*
D03*
Y251760D02*
D03*
Y264460D02*
D03*
Y277160D02*
D03*
Y289860D02*
D03*
Y302560D02*
D03*
X205600D02*
D03*
Y289860D02*
D03*
Y277160D02*
D03*
Y264460D02*
D03*
Y251760D02*
D03*
Y239060D02*
D03*
Y226360D02*
D03*
Y213660D02*
D03*
Y200960D02*
D03*
Y188260D02*
D03*
Y175560D02*
D03*
Y162860D02*
D03*
Y150160D02*
D03*
Y137460D02*
D03*
D87*
X350250Y315060D02*
D03*
X337550D02*
D03*
X324850D02*
D03*
X312150D02*
D03*
X299450D02*
D03*
X286750D02*
D03*
X274050D02*
D03*
X261350D02*
D03*
X248650D02*
D03*
X235950D02*
D03*
X223250D02*
D03*
M02*
