G04*
G04 #@! TF.GenerationSoftware,Altium Limited,Altium Designer,24.3.1 (35)*
G04*
G04 Layer_Color=8388736*
%FSLAX44Y44*%
%MOMM*%
G71*
G04*
G04 #@! TF.SameCoordinates,E54A5323-C3A8-4295-A2F1-912E9A9C0EE7*
G04*
G04*
G04 #@! TF.FilePolarity,Negative*
G04*
G01*
G75*
%ADD21R,1.0250X0.2800*%
%ADD39R,2.0574X0.5080*%
G04:AMPARAMS|DCode=53|XSize=0.5021mm|YSize=0.2425mm|CornerRadius=0.1212mm|HoleSize=0mm|Usage=FLASHONLY|Rotation=0.000|XOffset=0mm|YOffset=0mm|HoleType=Round|Shape=RoundedRectangle|*
%AMROUNDEDRECTD53*
21,1,0.5021,0.0000,0,0,0.0*
21,1,0.2596,0.2425,0,0,0.0*
1,1,0.2425,0.1298,0.0000*
1,1,0.2425,-0.1298,0.0000*
1,1,0.2425,-0.1298,0.0000*
1,1,0.2425,0.1298,0.0000*
%
%ADD53ROUNDEDRECTD53*%
%ADD54O,0.5021X0.2425*%
%ADD58R,3.8100X1.7780*%
%ADD59R,1.9532X1.7032*%
%ADD60R,0.5532X1.0532*%
%ADD61R,0.9652X0.9652*%
%ADD62R,0.8032X0.7032*%
%ADD63R,0.7032X0.8032*%
%ADD64R,1.0032X1.1032*%
%ADD65R,1.1032X1.0032*%
%ADD66R,1.1532X1.2032*%
%ADD67R,1.2032X1.1532*%
%ADD68R,1.5032X1.2032*%
G04:AMPARAMS|DCode=69|XSize=1.0032mm|YSize=0.7832mm|CornerRadius=0.1741mm|HoleSize=0mm|Usage=FLASHONLY|Rotation=270.000|XOffset=0mm|YOffset=0mm|HoleType=Round|Shape=RoundedRectangle|*
%AMROUNDEDRECTD69*
21,1,1.0032,0.4350,0,0,270.0*
21,1,0.6550,0.7832,0,0,270.0*
1,1,0.3482,-0.2175,-0.3275*
1,1,0.3482,-0.2175,0.3275*
1,1,0.3482,0.2175,0.3275*
1,1,0.3482,0.2175,-0.3275*
%
%ADD69ROUNDEDRECTD69*%
%ADD70R,0.8032X1.0032*%
%ADD71R,1.8532X0.9632*%
%ADD72R,1.4032X1.7032*%
%ADD73R,0.9652X0.9652*%
%ADD74R,1.0032X0.8032*%
%ADD75R,5.1054X1.8034*%
%ADD76R,1.3032X0.8032*%
%ADD77O,1.2032X1.0032*%
%ADD78R,2.1032X1.2032*%
%ADD79R,1.7032X1.0032*%
%ADD80O,1.0032X1.2032*%
%ADD81R,1.2032X2.1032*%
%ADD82R,1.0032X1.7032*%
%ADD83R,1.2282X0.4832*%
%ADD84R,1.0532X0.5032*%
%ADD85R,1.7532X2.0432*%
%ADD86R,1.4032X0.7532*%
%ADD87R,0.9032X0.4032*%
%ADD88R,0.4032X1.2532*%
%ADD89R,0.4532X0.7032*%
%ADD90R,1.1000X2.7500*%
%ADD91R,6.3032X6.3032*%
G04:AMPARAMS|DCode=92|XSize=0.4532mm|YSize=1.0032mm|CornerRadius=0.1641mm|HoleSize=0mm|Usage=FLASHONLY|Rotation=90.000|XOffset=0mm|YOffset=0mm|HoleType=Round|Shape=RoundedRectangle|*
%AMROUNDEDRECTD92*
21,1,0.4532,0.6750,0,0,90.0*
21,1,0.1250,1.0032,0,0,90.0*
1,1,0.3282,0.3375,0.0625*
1,1,0.3282,0.3375,-0.0625*
1,1,0.3282,-0.3375,-0.0625*
1,1,0.3282,-0.3375,0.0625*
%
%ADD92ROUNDEDRECTD92*%
G04:AMPARAMS|DCode=93|XSize=0.4532mm|YSize=1.0032mm|CornerRadius=0.1641mm|HoleSize=0mm|Usage=FLASHONLY|Rotation=180.000|XOffset=0mm|YOffset=0mm|HoleType=Round|Shape=RoundedRectangle|*
%AMROUNDEDRECTD93*
21,1,0.4532,0.6750,0,0,180.0*
21,1,0.1250,1.0032,0,0,180.0*
1,1,0.3282,-0.0625,0.3375*
1,1,0.3282,0.0625,0.3375*
1,1,0.3282,0.0625,-0.3375*
1,1,0.3282,-0.0625,-0.3375*
%
%ADD93ROUNDEDRECTD93*%
G04:AMPARAMS|DCode=94|XSize=1.7032mm|YSize=1.7032mm|CornerRadius=0.4766mm|HoleSize=0mm|Usage=FLASHONLY|Rotation=270.000|XOffset=0mm|YOffset=0mm|HoleType=Round|Shape=RoundedRectangle|*
%AMROUNDEDRECTD94*
21,1,1.7032,0.7500,0,0,270.0*
21,1,0.7500,1.7032,0,0,270.0*
1,1,0.9532,-0.3750,-0.3750*
1,1,0.9532,-0.3750,0.3750*
1,1,0.9532,0.3750,0.3750*
1,1,0.9532,0.3750,-0.3750*
%
%ADD94ROUNDEDRECTD94*%
G04:AMPARAMS|DCode=95|XSize=1.778mm|YSize=1.778mm|CornerRadius=0mm|HoleSize=0mm|Usage=FLASHONLY|Rotation=0.000|XOffset=0mm|YOffset=0mm|HoleType=Round|Shape=Octagon|*
%AMOCTAGOND95*
4,1,8,0.8890,-0.4445,0.8890,0.4445,0.4445,0.8890,-0.4445,0.8890,-0.8890,0.4445,-0.8890,-0.4445,-0.4445,-0.8890,0.4445,-0.8890,0.8890,-0.4445,0.0*
%
%ADD95OCTAGOND95*%

%ADD96C,1.7780*%
%ADD97C,3.2032*%
%ADD98C,2.7032*%
%ADD99C,5.2032*%
G36*
X701040Y19050D02*
X656590D01*
X645160Y7620D01*
X566420D01*
X554990Y19050D01*
X494030D01*
X483870Y8890D01*
X462280D01*
X454660Y16510D01*
X411480D01*
X400050Y5080D01*
X373380D01*
X350520Y27940D01*
X320040D01*
X294640Y2540D01*
Y-27940D01*
X295910Y-29210D01*
X702310D01*
Y17780D01*
X701040Y19050D01*
D02*
G37*
G36*
X367030Y115570D02*
X359410Y107950D01*
Y82550D01*
X367030Y74930D01*
X457200D01*
X462280Y80010D01*
X482600D01*
X490220Y72390D01*
X584200D01*
X601980Y90170D01*
X618490D01*
X638810Y69850D01*
X701040D01*
Y146050D01*
X680720Y146050D01*
X651510Y116840D01*
X600710D01*
X590550Y127000D01*
X495300D01*
X486410Y118110D01*
X464820D01*
X461010Y121920D01*
X407670D01*
X401320Y115570D01*
X367030D01*
D02*
G37*
G36*
X407670Y228600D02*
X401320Y222250D01*
Y209550D01*
X397510Y205740D01*
X367030D01*
X363220Y201930D01*
Y186690D01*
X365760Y184150D01*
X400050D01*
X408940Y175260D01*
X435610D01*
X449580Y189230D01*
X488950D01*
X497840Y180340D01*
X581660D01*
X600710Y199390D01*
X619760D01*
X640080Y179070D01*
X701040D01*
Y255270D01*
X681990Y255270D01*
X654050Y227330D01*
X594360D01*
X581660Y240030D01*
X496570D01*
X485140Y228600D01*
X474980D01*
X407670D01*
D02*
G37*
G36*
X703580Y397510D02*
X655320D01*
X637540Y415290D01*
X618490D01*
X615950Y417830D01*
X605790D01*
X603250Y415290D01*
X590550Y402590D01*
X516890D01*
X509270Y410210D01*
X463550Y410210D01*
X461010Y407670D01*
X458470Y405130D01*
X356870D01*
Y415290D01*
Y463550D01*
X702310D01*
X703580Y397510D01*
D02*
G37*
G36*
X601980Y335280D02*
X701040D01*
Y288290D01*
X642620D01*
X622300Y308610D01*
X598170D01*
X584200Y294640D01*
X487680D01*
X482600Y299720D01*
X462280D01*
X457200Y294640D01*
X345440D01*
X334010Y306070D01*
Y316230D01*
X349250Y331470D01*
X440690D01*
X447040Y325120D01*
X466090D01*
X474980Y334010D01*
X486410Y345440D01*
X591820D01*
X601980Y335280D01*
D02*
G37*
D21*
X168910Y394970D02*
D03*
Y388470D02*
D03*
X141170D02*
D03*
Y394970D02*
D03*
D39*
X689610Y271780D02*
D03*
Y162560D02*
D03*
Y53340D02*
D03*
Y381000D02*
D03*
D53*
X304404Y396040D02*
D03*
Y391040D02*
D03*
Y386040D02*
D03*
Y381040D02*
D03*
Y376040D02*
D03*
Y371040D02*
D03*
D54*
X284876D02*
D03*
Y376040D02*
D03*
Y381040D02*
D03*
Y386040D02*
D03*
Y391040D02*
D03*
Y396040D02*
D03*
D58*
X681990Y78740D02*
D03*
Y27940D02*
D03*
Y187960D02*
D03*
Y137160D02*
D03*
Y297180D02*
D03*
Y246380D02*
D03*
Y355600D02*
D03*
Y406400D02*
D03*
D59*
X155040Y391720D02*
D03*
X208840Y391650D02*
D03*
D60*
X145290Y406470D02*
D03*
X151790D02*
D03*
X158290D02*
D03*
X164790D02*
D03*
Y376970D02*
D03*
X158290D02*
D03*
X151790D02*
D03*
X145290D02*
D03*
X199090Y376900D02*
D03*
X205590D02*
D03*
X212090D02*
D03*
X218590D02*
D03*
Y406400D02*
D03*
X212090D02*
D03*
X205590D02*
D03*
X199090D02*
D03*
D61*
X119380Y354330D02*
D03*
X104140D02*
D03*
X148590Y344170D02*
D03*
X163830D02*
D03*
X199390Y421640D02*
D03*
X184150D02*
D03*
Y448310D02*
D03*
X199390D02*
D03*
X154940Y422910D02*
D03*
X139700D02*
D03*
X154940Y447040D02*
D03*
X139700D02*
D03*
X213360Y434340D02*
D03*
X228600D02*
D03*
X195580Y153670D02*
D03*
X180340D02*
D03*
X214630Y340360D02*
D03*
X199390D02*
D03*
D62*
X464820Y179070D02*
D03*
X454820D02*
D03*
X619680Y125730D02*
D03*
X609680D02*
D03*
X619680Y234950D02*
D03*
X609680D02*
D03*
X464820Y285750D02*
D03*
X454820D02*
D03*
X619680Y344170D02*
D03*
X609680D02*
D03*
X464820Y394970D02*
D03*
X454820D02*
D03*
X198120Y101600D02*
D03*
X188120Y101600D02*
D03*
X222170Y420370D02*
D03*
X212170D02*
D03*
X378540Y222250D02*
D03*
X388540D02*
D03*
X401320Y35560D02*
D03*
X411320D02*
D03*
X464820Y133350D02*
D03*
X454820D02*
D03*
X464820Y24130D02*
D03*
X454820D02*
D03*
X467360Y347980D02*
D03*
X457360D02*
D03*
X378540Y394970D02*
D03*
X388540D02*
D03*
X378540Y341630D02*
D03*
X388540D02*
D03*
X378540Y285750D02*
D03*
X388540D02*
D03*
X378540Y232410D02*
D03*
X388540D02*
D03*
X378540Y176530D02*
D03*
X388540D02*
D03*
X378540Y123190D02*
D03*
X388540D02*
D03*
X378540Y67310D02*
D03*
X388540D02*
D03*
X378540Y13970D02*
D03*
X388540D02*
D03*
X144700Y182880D02*
D03*
X134700D02*
D03*
X144700Y208280D02*
D03*
X134700D02*
D03*
X144700Y233680D02*
D03*
X134700D02*
D03*
X144700Y259080D02*
D03*
X134700D02*
D03*
X144700Y284480D02*
D03*
X134700D02*
D03*
X144700Y309880D02*
D03*
X134700D02*
D03*
X295830Y358140D02*
D03*
X285830D02*
D03*
X318690D02*
D03*
X308690D02*
D03*
X88820Y392430D02*
D03*
X78820D02*
D03*
X398780Y373380D02*
D03*
X408780D02*
D03*
X398780Y363220D02*
D03*
X408780D02*
D03*
X577770Y151130D02*
D03*
X567770D02*
D03*
X544750D02*
D03*
X534750D02*
D03*
X511730D02*
D03*
X501730D02*
D03*
X577770Y41910D02*
D03*
X567770D02*
D03*
X544750D02*
D03*
X534750D02*
D03*
X511730D02*
D03*
X501730D02*
D03*
X577770Y369570D02*
D03*
X567770D02*
D03*
X544750D02*
D03*
X534750D02*
D03*
X511730D02*
D03*
X501730D02*
D03*
X577770Y260350D02*
D03*
X567770D02*
D03*
X544750D02*
D03*
X534750D02*
D03*
X511730D02*
D03*
X501730D02*
D03*
X464820Y242570D02*
D03*
X454820D02*
D03*
X610950Y392430D02*
D03*
X620950D02*
D03*
X619680Y16510D02*
D03*
X609680D02*
D03*
X464820Y68580D02*
D03*
X454820D02*
D03*
X295830Y24130D02*
D03*
X285830D02*
D03*
X295830Y33020D02*
D03*
X285830D02*
D03*
X202010Y351790D02*
D03*
X212010D02*
D03*
X148670Y355600D02*
D03*
X158670D02*
D03*
X388540Y213360D02*
D03*
X378540D02*
D03*
X222170Y360680D02*
D03*
X212170D02*
D03*
X168750Y363220D02*
D03*
X158750D02*
D03*
X620950Y76200D02*
D03*
X610950D02*
D03*
X620950Y185420D02*
D03*
X610950D02*
D03*
X620950Y403860D02*
D03*
X610950D02*
D03*
X620950Y294640D02*
D03*
X610950D02*
D03*
X398700Y166370D02*
D03*
X388700D02*
D03*
X398700Y133350D02*
D03*
X388700D02*
D03*
X398700Y24130D02*
D03*
X388700D02*
D03*
X398700Y57150D02*
D03*
X388700D02*
D03*
X398700Y242570D02*
D03*
X388700D02*
D03*
X398700Y275590D02*
D03*
X388700D02*
D03*
X398700Y351790D02*
D03*
X388700D02*
D03*
X398700Y384810D02*
D03*
X388700D02*
D03*
X411400Y254000D02*
D03*
X401400D02*
D03*
X577770Y53340D02*
D03*
X567770D02*
D03*
X544750D02*
D03*
X534750D02*
D03*
X511730D02*
D03*
X501730D02*
D03*
X577770Y271780D02*
D03*
X567770D02*
D03*
X544750D02*
D03*
X534750D02*
D03*
X511730D02*
D03*
X501730D02*
D03*
X411400Y45720D02*
D03*
X401400D02*
D03*
X411400Y264160D02*
D03*
X401400D02*
D03*
X411400Y144780D02*
D03*
X401400D02*
D03*
X577770Y381000D02*
D03*
X567770D02*
D03*
X577770Y162560D02*
D03*
X567770D02*
D03*
X544750D02*
D03*
X534750D02*
D03*
X511730D02*
D03*
X501730D02*
D03*
X544750Y381000D02*
D03*
X534750D02*
D03*
X511730D02*
D03*
X501730D02*
D03*
X411400Y154940D02*
D03*
X401400D02*
D03*
X620950Y64770D02*
D03*
X610950D02*
D03*
X620950Y173990D02*
D03*
X610950D02*
D03*
X620950Y283210D02*
D03*
X610950D02*
D03*
X144700Y297180D02*
D03*
X134700D02*
D03*
X144700Y271780D02*
D03*
X134700D02*
D03*
X144700Y246380D02*
D03*
X134700D02*
D03*
X144700Y220980D02*
D03*
X134700D02*
D03*
X144700Y195580D02*
D03*
X134700D02*
D03*
X144700Y170180D02*
D03*
X134700D02*
D03*
D63*
X389890Y154860D02*
D03*
Y144860D02*
D03*
X589280Y141050D02*
D03*
Y151050D02*
D03*
X556260Y162640D02*
D03*
Y172640D02*
D03*
X523240Y151050D02*
D03*
Y141050D02*
D03*
X490220Y151050D02*
D03*
Y141050D02*
D03*
X589280Y162640D02*
D03*
Y172640D02*
D03*
X556260Y141050D02*
D03*
Y151050D02*
D03*
X523240Y172640D02*
D03*
Y162640D02*
D03*
X490220Y172640D02*
D03*
Y162640D02*
D03*
X389890Y45640D02*
D03*
Y35640D02*
D03*
X589280Y31830D02*
D03*
Y41830D02*
D03*
X556260Y41830D02*
D03*
Y31830D02*
D03*
X523240Y41830D02*
D03*
Y31830D02*
D03*
X490220Y41830D02*
D03*
Y31830D02*
D03*
X589280Y53420D02*
D03*
Y63420D02*
D03*
X556260Y63420D02*
D03*
Y53420D02*
D03*
X523240Y63420D02*
D03*
Y53420D02*
D03*
X318770Y388540D02*
D03*
Y378540D02*
D03*
X113030Y405210D02*
D03*
Y415210D02*
D03*
X600710Y292020D02*
D03*
Y282020D02*
D03*
X477520Y257890D02*
D03*
Y267890D02*
D03*
X600710Y401240D02*
D03*
Y391240D02*
D03*
X477520Y367110D02*
D03*
Y377110D02*
D03*
X600710Y73500D02*
D03*
Y63500D02*
D03*
X477520Y39450D02*
D03*
Y49450D02*
D03*
X600710Y182720D02*
D03*
Y172720D02*
D03*
X477520Y149940D02*
D03*
Y159940D02*
D03*
X181610Y400130D02*
D03*
Y410130D02*
D03*
X421640Y144700D02*
D03*
Y134700D02*
D03*
X419100Y363140D02*
D03*
Y353140D02*
D03*
X420370Y35560D02*
D03*
Y25560D02*
D03*
Y254000D02*
D03*
Y244000D02*
D03*
X421640Y155020D02*
D03*
Y165020D02*
D03*
X378460Y156290D02*
D03*
Y166290D02*
D03*
Y133430D02*
D03*
Y143430D02*
D03*
X420370Y45720D02*
D03*
Y55720D02*
D03*
X378460Y47150D02*
D03*
Y57150D02*
D03*
X490220Y63420D02*
D03*
Y53420D02*
D03*
X388620Y373300D02*
D03*
Y363300D02*
D03*
X589280Y391080D02*
D03*
Y381080D02*
D03*
X556260Y369490D02*
D03*
Y359490D02*
D03*
X523240Y369490D02*
D03*
Y359490D02*
D03*
X490220Y369490D02*
D03*
Y359490D02*
D03*
X589280Y369490D02*
D03*
Y359490D02*
D03*
X477520Y247650D02*
D03*
Y237650D02*
D03*
X632460Y125810D02*
D03*
Y135810D02*
D03*
X477520Y170180D02*
D03*
Y180180D02*
D03*
Y387350D02*
D03*
Y397350D02*
D03*
X632460Y344250D02*
D03*
Y354250D02*
D03*
Y16590D02*
D03*
Y26590D02*
D03*
X477520Y60960D02*
D03*
Y70960D02*
D03*
Y278130D02*
D03*
Y288130D02*
D03*
X632460Y235030D02*
D03*
Y245030D02*
D03*
X556260Y391080D02*
D03*
Y381080D02*
D03*
X523240Y391080D02*
D03*
Y381080D02*
D03*
X490220Y391080D02*
D03*
Y381080D02*
D03*
X389890Y264080D02*
D03*
Y254080D02*
D03*
X589280Y250270D02*
D03*
Y260270D02*
D03*
X556260Y260270D02*
D03*
Y250270D02*
D03*
X523240Y271860D02*
D03*
Y281860D02*
D03*
X490220Y271860D02*
D03*
Y281860D02*
D03*
X589280Y271860D02*
D03*
Y281860D02*
D03*
X556260Y281860D02*
D03*
Y271860D02*
D03*
X523240Y250270D02*
D03*
Y260270D02*
D03*
X490220Y250270D02*
D03*
Y260270D02*
D03*
X66040Y392350D02*
D03*
Y382350D02*
D03*
X332740Y358220D02*
D03*
Y368220D02*
D03*
X332740Y392350D02*
D03*
Y382350D02*
D03*
X304800Y419020D02*
D03*
Y409020D02*
D03*
X284480Y409020D02*
D03*
Y419020D02*
D03*
X78740Y370920D02*
D03*
Y380920D02*
D03*
X278130Y22940D02*
D03*
Y32940D02*
D03*
Y13890D02*
D03*
Y3890D02*
D03*
Y40720D02*
D03*
Y50720D02*
D03*
X378460Y24290D02*
D03*
Y34290D02*
D03*
X419100Y373460D02*
D03*
Y383460D02*
D03*
X378460Y384730D02*
D03*
Y374730D02*
D03*
Y351870D02*
D03*
Y361870D02*
D03*
X420370Y264160D02*
D03*
Y274160D02*
D03*
X378460Y265510D02*
D03*
Y275510D02*
D03*
Y242650D02*
D03*
Y252650D02*
D03*
X477520Y29130D02*
D03*
Y19130D02*
D03*
Y139620D02*
D03*
Y129620D02*
D03*
X477520Y358140D02*
D03*
Y348140D02*
D03*
D64*
X105380Y449580D02*
D03*
X119380D02*
D03*
X67930Y420370D02*
D03*
X81930D02*
D03*
X252080Y408940D02*
D03*
X266080D02*
D03*
X252080Y374650D02*
D03*
X266080D02*
D03*
X266080Y388620D02*
D03*
X252080D02*
D03*
X67930Y405130D02*
D03*
X81930D02*
D03*
X105380Y436880D02*
D03*
X119380D02*
D03*
X252080Y360680D02*
D03*
X266080D02*
D03*
D65*
X97790Y419750D02*
D03*
Y405750D02*
D03*
X127000Y405750D02*
D03*
Y419750D02*
D03*
X80010Y339710D02*
D03*
Y353710D02*
D03*
X320040Y415940D02*
D03*
Y401940D02*
D03*
X66040Y339710D02*
D03*
Y353710D02*
D03*
D66*
X345440Y394590D02*
D03*
Y410590D02*
D03*
X266700Y345820D02*
D03*
Y329820D02*
D03*
D67*
X103380Y341630D02*
D03*
X119380D02*
D03*
X658240Y271780D02*
D03*
X642240D02*
D03*
X165860Y153670D02*
D03*
X149860D02*
D03*
X200150Y434340D02*
D03*
X184150D02*
D03*
X154940Y435610D02*
D03*
X138940D02*
D03*
X658240Y53340D02*
D03*
X642240D02*
D03*
Y162560D02*
D03*
X658240D02*
D03*
X642240Y381000D02*
D03*
X658240D02*
D03*
D68*
X48260Y352170D02*
D03*
Y336170D02*
D03*
X12700Y352170D02*
D03*
Y336170D02*
D03*
X30480Y352170D02*
D03*
Y336170D02*
D03*
D69*
X620370Y161860D02*
D03*
X610870D02*
D03*
X601370D02*
D03*
X620370Y137860D02*
D03*
X610870D02*
D03*
X601370D02*
D03*
X620370Y52640D02*
D03*
X610870D02*
D03*
X601370D02*
D03*
X620370Y28640D02*
D03*
X610870D02*
D03*
X601370D02*
D03*
X620370Y271080D02*
D03*
X610870D02*
D03*
X601370D02*
D03*
X620370Y247080D02*
D03*
X610870D02*
D03*
X601370D02*
D03*
X601370Y356300D02*
D03*
X610870D02*
D03*
X620370D02*
D03*
X601370Y380300D02*
D03*
X610870D02*
D03*
X620370D02*
D03*
D70*
X210120Y40640D02*
D03*
Y28640D02*
D03*
D71*
X259130Y40640D02*
D03*
Y27940D02*
D03*
Y15240D02*
D03*
X227330D02*
D03*
Y40640D02*
D03*
D72*
X198120Y85090D02*
D03*
Y57150D02*
D03*
X177800D02*
D03*
Y85090D02*
D03*
D73*
X168910Y431800D02*
D03*
Y447040D02*
D03*
X345440Y424180D02*
D03*
Y439420D02*
D03*
X280670Y330200D02*
D03*
Y314960D02*
D03*
X149860Y120650D02*
D03*
Y135890D02*
D03*
X137160Y120650D02*
D03*
Y135890D02*
D03*
X208280Y151130D02*
D03*
Y135890D02*
D03*
D74*
X210120Y40640D02*
D03*
X198120D02*
D03*
D75*
X675640Y228600D02*
D03*
Y314960D02*
D03*
Y205740D02*
D03*
Y119380D02*
D03*
Y96520D02*
D03*
Y10160D02*
D03*
Y424180D02*
D03*
Y337820D02*
D03*
D76*
X165100Y135890D02*
D03*
Y126390D02*
D03*
Y116890D02*
D03*
X189100D02*
D03*
Y135890D02*
D03*
D77*
X236220Y134620D02*
D03*
D78*
Y121620D02*
D03*
Y147620D02*
D03*
D79*
X243840Y134620D02*
D03*
D80*
X279400Y118110D02*
D03*
D81*
X292400D02*
D03*
X266400D02*
D03*
D82*
X279400Y125730D02*
D03*
D83*
X194970Y394900D02*
D03*
Y388400D02*
D03*
X222710D02*
D03*
Y394900D02*
D03*
D84*
X433070Y162400D02*
D03*
Y157400D02*
D03*
Y152400D02*
D03*
Y147400D02*
D03*
X464610D02*
D03*
Y152400D02*
D03*
Y157400D02*
D03*
Y162400D02*
D03*
X433070Y53180D02*
D03*
Y48180D02*
D03*
Y43180D02*
D03*
Y38180D02*
D03*
X464610D02*
D03*
Y43180D02*
D03*
Y48180D02*
D03*
Y53180D02*
D03*
X433070Y380840D02*
D03*
Y375840D02*
D03*
Y370840D02*
D03*
Y365840D02*
D03*
X464610D02*
D03*
Y370840D02*
D03*
Y375840D02*
D03*
Y380840D02*
D03*
X433070Y271700D02*
D03*
Y266700D02*
D03*
Y261700D02*
D03*
Y256700D02*
D03*
X464610D02*
D03*
Y261700D02*
D03*
Y266700D02*
D03*
Y271700D02*
D03*
D85*
X448840Y154900D02*
D03*
Y45680D02*
D03*
Y373340D02*
D03*
X448840Y264200D02*
D03*
D86*
X122320Y388750D02*
D03*
Y373250D02*
D03*
D87*
X101070Y375000D02*
D03*
Y379000D02*
D03*
Y383000D02*
D03*
Y387000D02*
D03*
D88*
X108570Y391250D02*
D03*
X112570D02*
D03*
Y370750D02*
D03*
X108570D02*
D03*
D89*
X119070Y394000D02*
D03*
X125570D02*
D03*
Y368000D02*
D03*
X119070D02*
D03*
D90*
X294640Y383540D02*
D03*
D91*
X306070Y217170D02*
D03*
D92*
X267070Y184670D02*
D03*
Y189670D02*
D03*
Y194670D02*
D03*
Y199670D02*
D03*
Y204670D02*
D03*
Y209670D02*
D03*
Y214670D02*
D03*
Y219670D02*
D03*
Y224670D02*
D03*
Y229670D02*
D03*
Y234670D02*
D03*
Y239670D02*
D03*
Y244670D02*
D03*
Y249670D02*
D03*
X345070D02*
D03*
Y244670D02*
D03*
Y239670D02*
D03*
Y234670D02*
D03*
Y229670D02*
D03*
Y224670D02*
D03*
Y219670D02*
D03*
Y214670D02*
D03*
Y209670D02*
D03*
Y204670D02*
D03*
Y199670D02*
D03*
Y194670D02*
D03*
Y189670D02*
D03*
Y184670D02*
D03*
D93*
X273570Y256170D02*
D03*
X278570D02*
D03*
X283570D02*
D03*
X288570D02*
D03*
X293570D02*
D03*
X298570D02*
D03*
X303570D02*
D03*
X308570D02*
D03*
X313570D02*
D03*
X318570D02*
D03*
X323570D02*
D03*
X328570D02*
D03*
X333570D02*
D03*
X338570D02*
D03*
Y178170D02*
D03*
X333570D02*
D03*
X328570D02*
D03*
X323570D02*
D03*
X318570D02*
D03*
X313570D02*
D03*
X308570D02*
D03*
X303570D02*
D03*
X298570D02*
D03*
X293570D02*
D03*
X288570D02*
D03*
X283570D02*
D03*
X278570D02*
D03*
X273570D02*
D03*
D94*
X109220Y81280D02*
D03*
X83820D02*
D03*
X109220Y132080D02*
D03*
X83820D02*
D03*
X109220Y233680D02*
D03*
Y284480D02*
D03*
Y309880D02*
D03*
Y259080D02*
D03*
X83820D02*
D03*
Y309880D02*
D03*
Y284480D02*
D03*
Y233680D02*
D03*
Y208280D02*
D03*
X109220D02*
D03*
Y182880D02*
D03*
X83820D02*
D03*
Y157480D02*
D03*
X109220D02*
D03*
X83820Y106680D02*
D03*
X109220D02*
D03*
D95*
X17780Y393700D02*
D03*
D96*
X43180D02*
D03*
D97*
X486410Y440690D02*
D03*
X387350D02*
D03*
X361950Y-8890D02*
D03*
X461010D02*
D03*
X402590Y311150D02*
D03*
X410210Y200660D02*
D03*
X405130Y93980D02*
D03*
X527050Y318770D02*
D03*
Y208280D02*
D03*
Y99060D02*
D03*
X577850D02*
D03*
Y208280D02*
D03*
Y318770D02*
D03*
D98*
X123190Y16510D02*
D03*
X98190Y-8490D02*
D03*
X148190D02*
D03*
Y41510D02*
D03*
X98190D02*
D03*
D99*
X572770Y1270D02*
D03*
Y434340D02*
D03*
X29210D02*
D03*
Y1270D02*
D03*
M02*
