G04*
G04 #@! TF.GenerationSoftware,Altium Limited,Altium Designer,24.3.1 (35)*
G04*
G04 Layer_Physical_Order=1*
G04 Layer_Color=6063383*
%FSLAX44Y44*%
%MOMM*%
G71*
G04*
G04 #@! TF.SameCoordinates,E54A5323-C3A8-4295-A2F1-912E9A9C0EE7*
G04*
G04*
G04 #@! TF.FilePolarity,Positive*
G04*
G01*
G75*
%ADD12C,0.2540*%
%ADD14C,0.2032*%
%ADD15C,0.1524*%
%ADD21R,1.0250X0.2800*%
%ADD22R,1.7500X1.5000*%
%ADD23R,0.3500X0.8500*%
%ADD24R,0.7620X0.7620*%
%ADD25R,0.6000X0.5000*%
%ADD26R,0.5000X0.6000*%
%ADD27R,0.8000X0.9000*%
%ADD28R,0.9000X0.8000*%
%ADD29R,0.9500X1.0000*%
%ADD30R,1.0000X0.9500*%
%ADD31R,1.3000X1.0000*%
G04:AMPARAMS|DCode=32|XSize=0.8mm|YSize=0.58mm|CornerRadius=0.0725mm|HoleSize=0mm|Usage=FLASHONLY|Rotation=270.000|XOffset=0mm|YOffset=0mm|HoleType=Round|Shape=RoundedRectangle|*
%AMROUNDEDRECTD32*
21,1,0.8000,0.4350,0,0,270.0*
21,1,0.6550,0.5800,0,0,270.0*
1,1,0.1450,-0.2175,-0.3275*
1,1,0.1450,-0.2175,0.3275*
1,1,0.1450,0.2175,0.3275*
1,1,0.1450,0.2175,-0.3275*
%
%ADD32ROUNDEDRECTD32*%
%ADD33R,0.6000X0.8000*%
%ADD34R,1.6500X0.7600*%
%ADD35R,1.2000X1.5000*%
%ADD36R,0.7620X0.7620*%
%ADD37R,0.8000X0.6000*%
%ADD38R,4.9022X1.6002*%
%ADD39R,2.0574X0.5080*%
%ADD40R,1.1000X0.6000*%
%ADD41O,1.0000X0.8000*%
%ADD42R,1.9000X1.0000*%
%ADD43R,1.5000X0.8000*%
%ADD44O,0.8000X1.0000*%
%ADD45R,1.0000X1.9000*%
%ADD46R,0.8000X1.5000*%
%ADD47R,0.8500X0.3000*%
%ADD48R,1.5500X1.8400*%
%ADD49R,1.2000X0.5500*%
%ADD50R,0.7000X0.2000*%
%ADD51R,0.2000X1.0500*%
%ADD52R,0.2500X0.5000*%
G04:AMPARAMS|DCode=53|XSize=0.5021mm|YSize=0.2425mm|CornerRadius=0.1212mm|HoleSize=0mm|Usage=FLASHONLY|Rotation=0.000|XOffset=0mm|YOffset=0mm|HoleType=Round|Shape=RoundedRectangle|*
%AMROUNDEDRECTD53*
21,1,0.5021,0.0000,0,0,0.0*
21,1,0.2596,0.2425,0,0,0.0*
1,1,0.2425,0.1298,0.0000*
1,1,0.2425,-0.1298,0.0000*
1,1,0.2425,-0.1298,0.0000*
1,1,0.2425,0.1298,0.0000*
%
%ADD53ROUNDEDRECTD53*%
%ADD54O,0.5021X0.2425*%
%ADD55R,6.1000X6.1000*%
G04:AMPARAMS|DCode=56|XSize=0.25mm|YSize=0.8mm|CornerRadius=0.0625mm|HoleSize=0mm|Usage=FLASHONLY|Rotation=90.000|XOffset=0mm|YOffset=0mm|HoleType=Round|Shape=RoundedRectangle|*
%AMROUNDEDRECTD56*
21,1,0.2500,0.6750,0,0,90.0*
21,1,0.1250,0.8000,0,0,90.0*
1,1,0.1250,0.3375,0.0625*
1,1,0.1250,0.3375,-0.0625*
1,1,0.1250,-0.3375,-0.0625*
1,1,0.1250,-0.3375,0.0625*
%
%ADD56ROUNDEDRECTD56*%
G04:AMPARAMS|DCode=57|XSize=0.25mm|YSize=0.8mm|CornerRadius=0.0625mm|HoleSize=0mm|Usage=FLASHONLY|Rotation=180.000|XOffset=0mm|YOffset=0mm|HoleType=Round|Shape=RoundedRectangle|*
%AMROUNDEDRECTD57*
21,1,0.2500,0.6750,0,0,180.0*
21,1,0.1250,0.8000,0,0,180.0*
1,1,0.1250,-0.0625,0.3375*
1,1,0.1250,0.0625,0.3375*
1,1,0.1250,0.0625,-0.3375*
1,1,0.1250,-0.0625,-0.3375*
%
%ADD57ROUNDEDRECTD57*%
%ADD90R,1.1000X2.7500*%
%ADD100C,0.5080*%
%ADD101C,0.2286*%
%ADD102C,0.7620*%
%ADD103C,0.4064*%
%ADD104C,0.3048*%
%ADD105C,0.3302*%
%ADD106C,0.3139*%
G04:AMPARAMS|DCode=107|XSize=1.5mm|YSize=1.5mm|CornerRadius=0.375mm|HoleSize=0mm|Usage=FLASHONLY|Rotation=270.000|XOffset=0mm|YOffset=0mm|HoleType=Round|Shape=RoundedRectangle|*
%AMROUNDEDRECTD107*
21,1,1.5000,0.7500,0,0,270.0*
21,1,0.7500,1.5000,0,0,270.0*
1,1,0.7500,-0.3750,-0.3750*
1,1,0.7500,-0.3750,0.3750*
1,1,0.7500,0.3750,0.3750*
1,1,0.7500,0.3750,-0.3750*
%
%ADD107ROUNDEDRECTD107*%
G04:AMPARAMS|DCode=108|XSize=1.5748mm|YSize=1.5748mm|CornerRadius=0mm|HoleSize=0mm|Usage=FLASHONLY|Rotation=0.000|XOffset=0mm|YOffset=0mm|HoleType=Round|Shape=Octagon|*
%AMOCTAGOND108*
4,1,8,0.7874,-0.3937,0.7874,0.3937,0.3937,0.7874,-0.3937,0.7874,-0.7874,0.3937,-0.7874,-0.3937,-0.3937,-0.7874,0.3937,-0.7874,0.7874,-0.3937,0.0*
%
%ADD108OCTAGOND108*%

%ADD109C,1.5748*%
%ADD110C,3.0000*%
%ADD111C,2.5000*%
%ADD112C,5.0000*%
%ADD113C,0.5000*%
%ADD114C,0.5080*%
%ADD115C,0.4572*%
G36*
X149860Y452120D02*
Y446217D01*
X148883Y442450D01*
X145335Y441658D01*
X144917Y441630D01*
X143590Y441630D01*
X137105D01*
X136730Y441705D01*
X132855D01*
X132155Y442405D01*
Y446604D01*
X131859Y448091D01*
X131762Y448235D01*
X133002Y451796D01*
X134237Y453315D01*
X145275D01*
X149860Y452120D01*
D02*
G37*
G36*
X85768Y415900D02*
X85899D01*
X85869Y415824D01*
X85842Y415596D01*
X85818Y415215D01*
X85806Y414091D01*
X85899Y409599D01*
X85755D01*
X85754Y409561D01*
X85899Y409564D01*
Y409599D01*
X85976Y409592D01*
X86204Y409585D01*
X86809Y409583D01*
X93321Y409720D01*
Y409561D01*
X93519Y409560D01*
Y401940D01*
X93321Y401938D01*
Y401781D01*
X93244Y401811D01*
X93016Y401838D01*
X92635Y401862D01*
X91363Y401876D01*
X87804Y401620D01*
X87119Y401479D01*
X86585Y401313D01*
X86204Y401121D01*
X85976Y400904D01*
X85899Y400661D01*
Y401938D01*
X85701Y401940D01*
Y408280D01*
X78120D01*
X78092Y409599D01*
X77961D01*
X77991Y409676D01*
X78018Y409904D01*
X78042Y410285D01*
X78054Y411409D01*
X77961Y415900D01*
X78105D01*
X78120Y417220D01*
X85740D01*
X85768Y415900D01*
D02*
G37*
G36*
X700238Y384810D02*
X689985D01*
X689610Y384885D01*
X664510D01*
Y387020D01*
X653590D01*
X651970Y387020D01*
X648510D01*
X646890Y387020D01*
X635970D01*
Y383978D01*
X626110D01*
Y386405D01*
X619366D01*
X615220Y388660D01*
Y396200D01*
X615220D01*
X615220Y400090D01*
X615220D01*
Y407630D01*
X614755D01*
Y412750D01*
X614640Y413326D01*
Y413500D01*
X614574Y413660D01*
X614459Y414237D01*
X614459Y414237D01*
X614132Y414725D01*
X614066Y414885D01*
X613943Y415008D01*
X613617Y415497D01*
X613128Y415823D01*
X613005Y415946D01*
X612845Y416012D01*
X612357Y416339D01*
X611780Y416454D01*
X611620Y416520D01*
X611446Y416520D01*
X610870Y416635D01*
X610294Y416520D01*
X610120D01*
X609960Y416454D01*
X609383Y416339D01*
X608895Y416012D01*
X608735Y415946D01*
X608612Y415823D01*
X608123Y415497D01*
X607797Y415008D01*
X607674Y414885D01*
X607607Y414725D01*
X607281Y414237D01*
X607281Y414237D01*
X607166Y413660D01*
X607100Y413500D01*
Y413326D01*
X606985Y412750D01*
Y407630D01*
X606680D01*
Y400090D01*
X606680D01*
Y399679D01*
X603601Y396179D01*
X598798Y395510D01*
X597304Y395510D01*
X596940Y395510D01*
X596825Y391240D01*
X596825Y391239D01*
Y391079D01*
X596779Y390648D01*
X595918Y387468D01*
X593909Y385984D01*
X591741Y385455D01*
X576656D01*
X570769Y385455D01*
X568885Y385455D01*
X543636D01*
X537749Y385455D01*
X535864Y385455D01*
X510616D01*
X504729Y385455D01*
X502845Y385455D01*
X487720D01*
X486450Y385350D01*
D01*
X486370Y385331D01*
X481290Y389326D01*
Y391620D01*
X477412D01*
X473461Y395571D01*
X472621Y396133D01*
X471630Y396330D01*
X471132D01*
X469646Y398308D01*
X468930Y399815D01*
X468630Y401832D01*
Y403348D01*
X468050Y404748D01*
X466978Y405820D01*
X465578Y406400D01*
X464062D01*
X462662Y405820D01*
X461590Y404748D01*
X461110Y403588D01*
X461010Y403348D01*
X460550Y398740D01*
X460550D01*
Y391200D01*
X465724D01*
X465845Y391191D01*
X466050Y391150D01*
X470695Y386127D01*
X470683Y384148D01*
X470130Y383610D01*
X464969D01*
X464820Y383640D01*
X464671Y383610D01*
X459090D01*
Y373070D01*
Y363070D01*
X464118D01*
X464634Y362967D01*
X464971D01*
X466501Y361864D01*
X467291Y355753D01*
X467279Y355737D01*
X465346Y353804D01*
X464728Y352880D01*
X464628Y352375D01*
X464159Y351780D01*
X463090Y351750D01*
Y344210D01*
X463181D01*
X463550Y343658D01*
Y342142D01*
X464130Y340742D01*
X465202Y339670D01*
X466602Y339090D01*
X468118D01*
X469518Y339670D01*
X470590Y340742D01*
X471170Y342142D01*
Y343658D01*
X471539Y344210D01*
X471630D01*
Y349668D01*
X473039Y352461D01*
X475832Y353870D01*
X481290D01*
Y362410D01*
X482210Y363192D01*
X486450Y365220D01*
X487468D01*
X487720Y365116D01*
X501776D01*
X503870Y365116D01*
X503870Y365116D01*
X503871Y365116D01*
X508730D01*
X510694Y365116D01*
X534795D01*
X536890Y365116D01*
X536890Y365116D01*
X536891Y365116D01*
X541750D01*
X543714Y365116D01*
X567816D01*
X569910Y365116D01*
X569910Y365116D01*
X569911Y365116D01*
X574770D01*
X576734Y365116D01*
X588788D01*
X590881Y365116D01*
X594847Y362426D01*
X595630Y361209D01*
Y350780D01*
X611506D01*
X615410Y347940D01*
Y342876D01*
X615410Y342876D01*
X615410Y340400D01*
X619680Y340285D01*
X619881Y340325D01*
X620459Y340325D01*
X622220D01*
X622421Y340365D01*
X628690D01*
Y339980D01*
X636230D01*
Y340285D01*
X641350D01*
X641926Y340400D01*
X642100Y340400D01*
X642100Y340400D01*
X642260Y340466D01*
X642837Y340581D01*
X642837Y340581D01*
X643325Y340908D01*
X643486Y340974D01*
X643486Y340974D01*
X643608Y341097D01*
X644097Y341423D01*
X644423Y341912D01*
X644546Y342034D01*
X644613Y342195D01*
X644939Y342683D01*
X645054Y343260D01*
X645120Y343420D01*
X645120Y343420D01*
X645120Y343594D01*
X645235Y344170D01*
X645120Y344746D01*
X645120Y344920D01*
X645120Y344920D01*
X645054Y345080D01*
X644939Y345657D01*
X644613Y346145D01*
X644546Y346306D01*
X644423Y346428D01*
X644097Y346917D01*
X643608Y347243D01*
X643486Y347366D01*
X643486Y347366D01*
X643486Y347366D01*
X643325Y347433D01*
X642837Y347759D01*
X642837Y347759D01*
X642260Y347874D01*
X642100Y347940D01*
X642100Y347940D01*
X641926Y347940D01*
X641350Y348055D01*
X636230D01*
Y348520D01*
X630254D01*
X627845Y349834D01*
X626110Y352531D01*
Y378022D01*
X635970D01*
Y374980D01*
X646890D01*
X648510Y374980D01*
X651970D01*
X653590Y374980D01*
X664510D01*
Y377115D01*
X689610D01*
X689985Y377190D01*
X700238D01*
Y275590D01*
X682238D01*
X681863Y275665D01*
X664510D01*
Y277800D01*
X653590D01*
X651970Y277800D01*
X648510D01*
X646890Y277800D01*
X635970D01*
Y274408D01*
X626110D01*
Y277185D01*
X619366D01*
X615220Y279440D01*
Y286980D01*
X615220D01*
Y290870D01*
X615220D01*
Y298410D01*
X614755D01*
Y303530D01*
X614640Y304106D01*
Y304280D01*
X614574Y304440D01*
X614459Y305017D01*
X614459Y305017D01*
X614132Y305505D01*
X614066Y305665D01*
X613943Y305788D01*
X613617Y306277D01*
X613128Y306603D01*
X613005Y306726D01*
X612845Y306793D01*
X612357Y307119D01*
X611780Y307234D01*
X611620Y307300D01*
X611446Y307300D01*
X610870Y307415D01*
X610294Y307300D01*
X610120D01*
X609960Y307234D01*
X609383Y307119D01*
X608895Y306793D01*
X608735Y306726D01*
X608612Y306603D01*
X608123Y306277D01*
X607797Y305788D01*
X607674Y305665D01*
X607607Y305505D01*
X607281Y305017D01*
X607281Y305017D01*
X607166Y304440D01*
X607100Y304280D01*
Y304106D01*
X606985Y303530D01*
Y298410D01*
X606680D01*
Y290870D01*
X606680D01*
Y290459D01*
X603013Y286290D01*
X596940D01*
Y282596D01*
X596825Y282020D01*
Y279280D01*
X593770Y276730D01*
X591741Y276235D01*
X576836D01*
X574987Y276235D01*
X568885Y276235D01*
X543816D01*
X537749Y276235D01*
X535864Y276235D01*
X510616D01*
X504729Y276235D01*
X502845Y276235D01*
X487720D01*
X486450Y276130D01*
D01*
X486370Y276111D01*
X481290Y280106D01*
Y282400D01*
X477412D01*
X473461Y286351D01*
X472621Y286913D01*
X472463Y286944D01*
X468630Y290072D01*
Y291588D01*
X468050Y292988D01*
X466978Y294060D01*
X465578Y294640D01*
X464062D01*
X462662Y294060D01*
X461590Y292988D01*
X461010Y291588D01*
Y290072D01*
X460641Y289520D01*
X460550D01*
Y281980D01*
X465643D01*
X465967Y281947D01*
X466050Y281930D01*
X470637Y276883D01*
X470625Y274952D01*
X470130Y274470D01*
X459090D01*
Y263930D01*
Y253930D01*
X464118D01*
X464634Y253827D01*
X467645D01*
X469987Y250173D01*
X467430Y246340D01*
X460550D01*
Y238800D01*
X460550D01*
X461010Y235462D01*
X461590Y234062D01*
X462662Y232990D01*
X464062Y232410D01*
X465578D01*
X466978Y232990D01*
X468050Y234062D01*
X468630Y235462D01*
Y236978D01*
X472940Y239721D01*
X472940Y239721D01*
X474030Y239938D01*
X474954Y240556D01*
X477779Y243380D01*
X481290D01*
Y251920D01*
X481290Y251920D01*
X482078Y254291D01*
X486450Y256000D01*
X487720Y255896D01*
X491487Y255896D01*
X501775D01*
X503870Y255896D01*
X503870Y255896D01*
X503871Y255896D01*
X508730D01*
X510695Y255896D01*
X534795D01*
X536890Y255896D01*
X536890Y255896D01*
X536891Y255896D01*
X541750Y255896D01*
X543715Y255896D01*
X567816D01*
X569910Y255896D01*
X569910Y255896D01*
X569911Y255896D01*
X576734Y255896D01*
X588788D01*
X590881Y255896D01*
X594847Y253206D01*
X595630Y251989D01*
Y241560D01*
X611506D01*
X615410Y238720D01*
Y233021D01*
X615410D01*
Y231544D01*
X615410Y231544D01*
X615410Y231180D01*
X619680Y231065D01*
X620097Y231065D01*
X620100Y231065D01*
X620502Y231145D01*
X628690D01*
Y230760D01*
X636230D01*
Y231065D01*
X641350D01*
X641926Y231180D01*
X642100Y231180D01*
X642100Y231180D01*
X642260Y231246D01*
X642837Y231361D01*
X642837Y231361D01*
X643325Y231688D01*
X643486Y231754D01*
X643486Y231754D01*
X643608Y231877D01*
X644097Y232203D01*
X644423Y232692D01*
X644546Y232815D01*
X644613Y232975D01*
X644939Y233463D01*
X645054Y234040D01*
X645120Y234200D01*
X645120Y234200D01*
X645120Y234374D01*
X645235Y234950D01*
X645120Y235526D01*
X645120Y235700D01*
X645120Y235700D01*
X645054Y235860D01*
X644939Y236437D01*
X644613Y236925D01*
X644546Y237085D01*
X644423Y237208D01*
X644097Y237697D01*
X643608Y238023D01*
X643486Y238146D01*
X643486Y238146D01*
X643486Y238146D01*
X643325Y238213D01*
X642837Y238539D01*
X642837Y238539D01*
X642260Y238654D01*
X642100Y238720D01*
X642100Y238720D01*
X641926Y238720D01*
X641350Y238835D01*
X636230D01*
Y239300D01*
X630254D01*
X627845Y240614D01*
X626110Y243311D01*
Y268452D01*
X635970D01*
Y265760D01*
X646890D01*
X648510Y265760D01*
X651970D01*
X653590Y265760D01*
X664510D01*
Y267895D01*
X681863D01*
X682238Y267970D01*
X700238D01*
X700238Y166370D01*
X689985D01*
X689610Y166445D01*
X681863D01*
X681863Y166445D01*
X664510D01*
Y168580D01*
X653590D01*
X651970Y168580D01*
X648510D01*
X646890Y168580D01*
X635970D01*
Y165188D01*
X626110D01*
Y167965D01*
X619366D01*
X615220Y170220D01*
Y177760D01*
X615220D01*
Y181650D01*
X615220D01*
Y189190D01*
X614755D01*
Y194310D01*
X614640Y194886D01*
Y195060D01*
X614574Y195220D01*
X614459Y195797D01*
X614459Y195797D01*
X614132Y196285D01*
X614066Y196446D01*
X613943Y196568D01*
X613617Y197057D01*
X613128Y197383D01*
X613005Y197506D01*
X612845Y197572D01*
X612357Y197899D01*
X611780Y198014D01*
X611620Y198080D01*
X611446Y198080D01*
X610870Y198195D01*
X610294Y198080D01*
X610120D01*
X609960Y198014D01*
X609383Y197899D01*
X608895Y197572D01*
X608735Y197506D01*
X608612Y197383D01*
X608123Y197057D01*
X607797Y196568D01*
X607674Y196446D01*
X607607Y196285D01*
X607281Y195797D01*
X607281Y195797D01*
X607166Y195220D01*
X607100Y195060D01*
Y194886D01*
X606985Y194310D01*
Y189190D01*
X606680D01*
Y181650D01*
X606680D01*
Y181159D01*
X603601Y177659D01*
X598798Y176990D01*
X597304Y176990D01*
X596940Y176990D01*
X596825Y172720D01*
X596825Y172719D01*
Y172566D01*
X596778Y172128D01*
X595924Y169033D01*
X593909Y167544D01*
X591741Y167015D01*
X576656D01*
X570769Y167015D01*
X568885Y167015D01*
X543816D01*
X541967Y167015D01*
X535864Y167015D01*
X510616D01*
X504729Y167015D01*
X502845Y167015D01*
X487720D01*
X487467Y166910D01*
X486450D01*
Y166910D01*
X482013Y168463D01*
X481290Y169290D01*
Y174450D01*
X476540D01*
X476290Y174500D01*
X473553D01*
X469090Y178962D01*
Y182840D01*
X468999D01*
X468630Y183392D01*
Y184908D01*
X468050Y186308D01*
X466978Y187380D01*
X465578Y187960D01*
X464062D01*
X462662Y187380D01*
X461590Y186308D01*
X461010Y184908D01*
Y183392D01*
X460641Y182840D01*
X460550D01*
Y175300D01*
X465428D01*
X470649Y170079D01*
X469397Y165220D01*
X464840D01*
X464590Y165170D01*
X459090D01*
Y154630D01*
Y144630D01*
X462499D01*
X464875Y140955D01*
X464976Y139447D01*
X463341Y137120D01*
X460550D01*
Y129580D01*
X460641D01*
X461010Y129028D01*
Y127512D01*
X461590Y126112D01*
X462662Y125040D01*
X464062Y124460D01*
X465578D01*
X466978Y125040D01*
X468050Y126112D01*
X468630Y127512D01*
Y129028D01*
X468999Y129580D01*
X469090D01*
Y133091D01*
X469455Y133456D01*
X473750Y135350D01*
X481290D01*
Y143890D01*
X482226Y144713D01*
X486450Y146780D01*
X487468D01*
X487720Y146676D01*
X501776D01*
X503870Y146676D01*
X503870Y146676D01*
X503871Y146676D01*
X508730D01*
X510694Y146676D01*
X534795D01*
X536890Y146676D01*
X536890Y146676D01*
X536891Y146676D01*
X543714Y146676D01*
X567815D01*
X569910Y146676D01*
X569910Y146676D01*
X569911Y146676D01*
X574770D01*
X576735Y146676D01*
X588788D01*
X590881Y146676D01*
X594847Y143986D01*
X595630Y142769D01*
Y132340D01*
X611506D01*
X615410Y129500D01*
Y124436D01*
X615410Y124436D01*
X615410Y121960D01*
X619680Y121845D01*
X620256Y121960D01*
X620490Y121960D01*
X621782D01*
X621956Y121925D01*
X628690D01*
Y121540D01*
X636230D01*
Y121845D01*
X641350D01*
X641926Y121960D01*
X642100Y121960D01*
X642100Y121960D01*
X642260Y122026D01*
X642837Y122141D01*
X642837Y122141D01*
X643325Y122467D01*
X643486Y122534D01*
X643486Y122534D01*
X643608Y122657D01*
X644097Y122983D01*
X644423Y123472D01*
X644546Y123595D01*
X644613Y123755D01*
X644939Y124243D01*
X645054Y124820D01*
X645120Y124980D01*
X645120Y124980D01*
X645120Y125154D01*
X645235Y125730D01*
X645120Y126306D01*
X645120Y126480D01*
X645120Y126480D01*
X645054Y126640D01*
X644939Y127217D01*
X644613Y127705D01*
X644546Y127865D01*
X644423Y127988D01*
X644097Y128477D01*
X643608Y128803D01*
X643486Y128926D01*
X643486Y128926D01*
X643486Y128926D01*
X643325Y128993D01*
X642837Y129319D01*
X642837Y129319D01*
X642260Y129434D01*
X642100Y129500D01*
X642100Y129500D01*
X641926Y129500D01*
X641350Y129615D01*
X636230D01*
Y130080D01*
X630254D01*
X627845Y131394D01*
X626110Y134091D01*
Y159232D01*
X635970D01*
Y156540D01*
X646890D01*
X648510Y156540D01*
X651970D01*
X653590Y156540D01*
X664510D01*
Y158675D01*
X681863D01*
X681863Y158675D01*
X689610D01*
X689985Y158750D01*
X700238D01*
Y57150D01*
X689985D01*
X689610Y57225D01*
X664510D01*
Y59360D01*
X653590D01*
X651970Y59360D01*
X648510D01*
X646890Y59360D01*
X635970D01*
Y55968D01*
X626110D01*
Y59120D01*
X619521D01*
X615220Y61000D01*
Y68540D01*
X615220D01*
Y72430D01*
X615220D01*
Y79970D01*
X614835D01*
Y85010D01*
X614539Y86497D01*
X614539Y86497D01*
X614089Y87170D01*
X614066Y87226D01*
X614023Y87268D01*
X613697Y87757D01*
X613697Y87757D01*
X613617Y87837D01*
X613128Y88163D01*
X613005Y88286D01*
X612845Y88352D01*
X612357Y88679D01*
X611780Y88794D01*
X611620Y88860D01*
X611446Y88860D01*
X610870Y88975D01*
X610294Y88860D01*
X610120Y88860D01*
X610120Y88860D01*
X609960Y88794D01*
X609384Y88679D01*
X609383D01*
X608895Y88352D01*
X608735Y88286D01*
X608612Y88163D01*
X608123Y87837D01*
X607797Y87348D01*
X607674Y87226D01*
X607607Y87065D01*
X607281Y86577D01*
X607281Y86577D01*
X607281Y86577D01*
X607166Y86000D01*
X607100Y85840D01*
X607100Y85840D01*
X607100Y85666D01*
X606985Y85090D01*
X606985Y85090D01*
X606993Y85050D01*
X606972Y84648D01*
X606726Y79970D01*
X606680D01*
Y72430D01*
X606680D01*
Y71939D01*
X603601Y68439D01*
X598798Y67770D01*
X597304Y67770D01*
X596940Y67770D01*
X596825Y63500D01*
X596825Y63499D01*
Y63381D01*
X596774Y62910D01*
X595815Y59732D01*
X594435Y58713D01*
X591741Y57795D01*
X576836D01*
X574987Y57795D01*
X568885Y57795D01*
X543636D01*
X537749Y57795D01*
X535864Y57795D01*
X510616D01*
X504729Y57795D01*
X502845Y57795D01*
X487720D01*
X487467Y57690D01*
X486450D01*
X486450Y57690D01*
X481641Y58344D01*
X481290Y58800D01*
Y65230D01*
X477412D01*
X473461Y69181D01*
X472621Y69743D01*
X472463Y69774D01*
X468630Y72902D01*
Y74418D01*
X468050Y75818D01*
X466978Y76890D01*
X465578Y77470D01*
X464062D01*
X462662Y76890D01*
X461590Y75818D01*
X461010Y74418D01*
Y72902D01*
X460641Y72350D01*
X460550D01*
Y64810D01*
X465800D01*
X466050Y64760D01*
X470557D01*
X473750Y61568D01*
Y60353D01*
X469397Y56000D01*
X464840D01*
X464590Y55950D01*
X459090D01*
Y45410D01*
Y35410D01*
X464214D01*
X464610Y35331D01*
X466152D01*
X468071Y32792D01*
X465510Y27900D01*
X460550D01*
Y20360D01*
X460641D01*
X461010Y19808D01*
Y18292D01*
X461590Y16892D01*
X462662Y15820D01*
X464062Y15240D01*
X465578D01*
X466978Y15820D01*
X468050Y16892D01*
X468630Y18292D01*
Y19334D01*
X472705Y21138D01*
X473323Y21340D01*
X474118Y21498D01*
X475042Y22116D01*
X477787Y24860D01*
X481290D01*
Y33400D01*
X481290Y33400D01*
X482023Y35983D01*
X486450Y37560D01*
X487720Y37456D01*
X491487Y37456D01*
X501776D01*
X503870Y37456D01*
X503870Y37456D01*
X503871Y37456D01*
X508730D01*
X510694Y37456D01*
X534795D01*
X536890Y37456D01*
X536890Y37456D01*
X536891Y37456D01*
X541750D01*
X543714Y37456D01*
X567816D01*
X569910Y37456D01*
X569910Y37456D01*
X569911Y37456D01*
X576734Y37456D01*
X588788D01*
X590881Y37456D01*
X594847Y34766D01*
X595630Y33549D01*
Y23495D01*
X607903D01*
X607917Y23486D01*
X608695Y23331D01*
X611594D01*
X614126Y21307D01*
X615410Y18901D01*
Y14581D01*
X615410D01*
Y13104D01*
X615410Y13104D01*
X615410Y12740D01*
X619680Y12625D01*
X620097Y12625D01*
X620100Y12625D01*
X620502Y12705D01*
X628690D01*
Y12320D01*
X636230D01*
Y12625D01*
X641350D01*
X641926Y12740D01*
X642100Y12740D01*
X642100Y12740D01*
X642260Y12806D01*
X642837Y12921D01*
X642837Y12921D01*
X643325Y13247D01*
X643486Y13314D01*
X643486Y13314D01*
X643608Y13437D01*
X644097Y13763D01*
X644423Y14252D01*
X644546Y14375D01*
X644613Y14535D01*
X644939Y15023D01*
X645054Y15600D01*
X645120Y15760D01*
X645120Y15760D01*
X645120Y15934D01*
X645235Y16510D01*
X645120Y17086D01*
X645120Y17260D01*
X645120Y17260D01*
X645054Y17420D01*
X644939Y17997D01*
X644613Y18485D01*
X644546Y18645D01*
X644423Y18768D01*
X644097Y19257D01*
X643608Y19583D01*
X643486Y19706D01*
X643486Y19706D01*
X643486Y19706D01*
X643325Y19772D01*
X642837Y20099D01*
X642837Y20099D01*
X642260Y20214D01*
X642100Y20280D01*
X642100Y20280D01*
X641926Y20280D01*
X641350Y20395D01*
X636230D01*
Y20860D01*
X630099D01*
X627649Y22478D01*
X626110Y24871D01*
Y50012D01*
X635970D01*
Y47320D01*
X646890D01*
X648510Y47320D01*
X651970D01*
X653590Y47320D01*
X664510D01*
Y49455D01*
X689610D01*
X689985Y49530D01*
X700238D01*
Y-25868D01*
X2072D01*
Y342004D01*
X4930Y345900D01*
X7152Y345900D01*
X20470D01*
Y345900D01*
X22710D01*
Y345900D01*
X38250D01*
Y345900D01*
X40490D01*
Y345900D01*
X56030D01*
Y346412D01*
X60270Y348440D01*
X61110Y348440D01*
X70593Y348440D01*
X73397Y345780D01*
X74240Y344367D01*
X74240Y343360D01*
Y334440D01*
X85780D01*
X85780Y334440D01*
X89650Y335320D01*
X91035Y335894D01*
X91035D01*
X92030Y336888D01*
X92409Y336881D01*
X97110Y335784D01*
Y335610D01*
X108030D01*
X109650Y335610D01*
Y335610D01*
X113110D01*
Y335610D01*
X125650D01*
X125650Y335610D01*
X130019Y337421D01*
X134623Y335020D01*
X134918Y334308D01*
X134918Y334308D01*
X136188Y333038D01*
X137160Y332635D01*
X137160Y332635D01*
X137160Y332635D01*
X138500Y332635D01*
X147320D01*
X148292Y333038D01*
X148292Y333038D01*
X154642Y339388D01*
X155045Y340360D01*
X155045Y340360D01*
Y351830D01*
X162940D01*
Y359370D01*
X163020Y359450D01*
X163020D01*
Y366990D01*
X162807D01*
X161310Y371450D01*
X161310Y371450D01*
X161310D01*
X161310Y371450D01*
Y382490D01*
X155270D01*
X155270Y382490D01*
X154810D01*
Y382490D01*
X151790Y382490D01*
X148770Y382490D01*
Y382490D01*
X148310D01*
Y382490D01*
X142315D01*
X142270Y382490D01*
X137235Y382598D01*
Y384377D01*
X136939Y385863D01*
X136097Y387124D01*
X135128Y388093D01*
X134982Y388311D01*
X132006Y391287D01*
X130746Y392129D01*
X129590Y392359D01*
Y392770D01*
X128090D01*
Y397770D01*
X132048Y400480D01*
X132770D01*
Y411020D01*
X121242D01*
X121230Y411020D01*
X116788Y409480D01*
X110740Y409480D01*
X110561Y409554D01*
X109260Y409480D01*
X107609Y409419D01*
X103560Y411020D01*
Y411020D01*
X93499D01*
X93321Y411094D01*
X93306Y411088D01*
X93292Y411094D01*
X90980Y411045D01*
X90112Y411858D01*
X87428Y415017D01*
X87256Y415589D01*
X87274Y415900D01*
X87200Y416079D01*
Y426140D01*
X76660D01*
Y416079D01*
X76586Y415900D01*
X76592Y415886D01*
X76586Y415872D01*
X76606Y414560D01*
X71775Y410900D01*
X62660D01*
Y410309D01*
X54610D01*
X54610Y410310D01*
X52628Y409915D01*
X50947Y408792D01*
X50947Y408792D01*
X44869Y402714D01*
X44384Y402844D01*
X41976D01*
X39650Y402221D01*
X37566Y401017D01*
X35863Y399314D01*
X34659Y397229D01*
X34036Y394904D01*
Y392496D01*
X34659Y390171D01*
X35863Y388086D01*
X37566Y386383D01*
X39650Y385179D01*
X41976Y384556D01*
X43081D01*
Y359042D01*
X38250Y358440D01*
Y358440D01*
X22710D01*
Y358440D01*
X20470D01*
Y358440D01*
X7152D01*
X4930Y358440D01*
X2072Y362336D01*
Y461478D01*
X109908D01*
X114256Y456645D01*
X114110Y455350D01*
X114110D01*
Y443810D01*
X114110D01*
Y442650D01*
X114110D01*
Y431110D01*
X114110Y431110D01*
X115570Y428502D01*
Y428502D01*
X115570Y428502D01*
X115716Y428149D01*
X115791Y427773D01*
X115791Y427773D01*
X116004Y427455D01*
X116150Y427102D01*
X116420Y426831D01*
X116633Y426513D01*
X116633Y426513D01*
X116951Y426301D01*
X117222Y426030D01*
X117575Y425884D01*
X117893Y425671D01*
X117894Y425671D01*
X118269Y425596D01*
X118622Y425450D01*
X118622Y425450D01*
X119005D01*
X119380Y425375D01*
X119755Y425450D01*
X120138Y425450D01*
X120138Y425450D01*
X120491Y425596D01*
X120866Y425671D01*
X120867Y425671D01*
X121185Y425884D01*
X121538Y426030D01*
X121809Y426301D01*
X122127Y426513D01*
X122127Y426513D01*
X122339Y426831D01*
X122610Y427102D01*
X122756Y427455D01*
X122969Y427773D01*
X122969Y427773D01*
X122969Y427773D01*
X123044Y428149D01*
X123190Y428502D01*
X123190Y428502D01*
Y428502D01*
X124650Y431110D01*
X129453Y432406D01*
X132670Y430578D01*
Y429590D01*
X143590D01*
X145443Y429590D01*
X149860Y425003D01*
Y421493D01*
X143459Y415091D01*
X142897Y414251D01*
X142700Y413260D01*
Y411990D01*
X142270D01*
Y400950D01*
X148310D01*
Y400950D01*
X148770D01*
Y400950D01*
X154810D01*
Y400950D01*
X155270D01*
Y400950D01*
X161310Y400950D01*
Y400950D01*
X161770D01*
Y400950D01*
X167810D01*
Y403094D01*
X167998Y403216D01*
X172890Y404652D01*
X172908Y404634D01*
X174308Y404054D01*
X175824D01*
X177224Y404634D01*
X178296Y405706D01*
X178360Y405860D01*
X185380D01*
Y414400D01*
X181003D01*
X174471Y420931D01*
X173631Y421493D01*
X172640Y421690D01*
X169793D01*
X165100Y422152D01*
X165100Y423668D01*
X164520Y425068D01*
X164520Y425068D01*
X163945Y425643D01*
X161210Y429590D01*
Y437965D01*
X163724Y441798D01*
X166153Y441960D01*
X173463D01*
X174497Y441585D01*
X177880Y439087D01*
Y428320D01*
X189893Y428320D01*
X190927Y427945D01*
X194310Y425447D01*
Y416560D01*
X195008D01*
X196070Y411920D01*
X196070D01*
Y400880D01*
X202110D01*
Y400880D01*
X202570D01*
Y400880D01*
X208610Y400880D01*
X215110D01*
X221610Y400880D01*
Y407185D01*
X222649Y408237D01*
X226572Y410210D01*
X228088D01*
X229488Y410790D01*
X230560Y411862D01*
X231140Y413262D01*
Y414778D01*
X230560Y416178D01*
X229488Y417250D01*
X228088Y417830D01*
X226572D01*
X225172Y417250D01*
X224822Y416900D01*
X219599Y416966D01*
X216933Y419855D01*
X216440Y420701D01*
Y424140D01*
X214886D01*
X214173Y424515D01*
X211630Y429220D01*
X211657Y429260D01*
X218440D01*
Y439420D01*
X208280D01*
X206420Y440360D01*
Y440360D01*
X195500D01*
X193121Y440360D01*
X189230Y444947D01*
Y453390D01*
X179070D01*
Y451560D01*
X173990D01*
Y452120D01*
X163830D01*
X163830Y452120D01*
X159925Y452261D01*
X157616Y456858D01*
X159530Y461478D01*
X700238D01*
Y384810D01*
D02*
G37*
G36*
X82864Y400665D02*
X82648Y400588D01*
X82457Y400460D01*
X82292Y400280D01*
X82153Y400048D01*
X82038Y399766D01*
X81949Y399431D01*
X81886Y399046D01*
X81848Y398609D01*
X81835Y398120D01*
X79295D01*
X79282Y398609D01*
X79244Y399046D01*
X79181Y399431D01*
X79092Y399766D01*
X78977Y400048D01*
X78838Y400280D01*
X78673Y400460D01*
X78482Y400588D01*
X78266Y400665D01*
X78025Y400691D01*
X83105D01*
X82864Y400665D01*
D02*
G37*
G36*
X68339Y400664D02*
X68123Y400586D01*
X67932Y400456D01*
X67767Y400276D01*
X67628Y400044D01*
X67513Y399762D01*
X67424Y399428D01*
X67361Y399043D01*
X67323Y398607D01*
X67310Y398120D01*
X64770D01*
X64762Y398603D01*
X64697Y399416D01*
X64640Y399746D01*
X64568Y400025D01*
X64479Y400254D01*
X64373Y400432D01*
X64252Y400559D01*
X64114Y400635D01*
X63960Y400661D01*
X68580Y400691D01*
X68339Y400664D01*
D02*
G37*
G36*
X67322Y397377D02*
X67358Y396945D01*
X67418Y396564D01*
X67502Y396234D01*
X67610Y395955D01*
X67742Y395726D01*
X67898Y395548D01*
X68078Y395421D01*
X68282Y395345D01*
X68509Y395320D01*
X63570D01*
X63798Y395345D01*
X64002Y395421D01*
X64182Y395548D01*
X64338Y395726D01*
X64470Y395955D01*
X64578Y396234D01*
X64662Y396564D01*
X64722Y396945D01*
X64758Y397377D01*
X64770Y397859D01*
X67310D01*
X67322Y397377D01*
D02*
G37*
G36*
X102265Y396581D02*
X102425Y396456D01*
X102597Y396346D01*
X102781Y396250D01*
X102975Y396170D01*
X103180Y396103D01*
X103397Y396052D01*
X103625Y396015D01*
X103864Y395993D01*
X104114Y395986D01*
Y393954D01*
X103864Y393947D01*
X103625Y393925D01*
X103397Y393888D01*
X103180Y393837D01*
X102975Y393770D01*
X102781Y393690D01*
X102597Y393594D01*
X102425Y393484D01*
X102265Y393359D01*
X102115Y393220D01*
Y396720D01*
X102265Y396581D01*
D02*
G37*
G36*
X107631Y392938D02*
X107609Y393131D01*
X107546Y393304D01*
X107442Y393456D01*
X107297Y393588D01*
X107111Y393700D01*
X106884Y393791D01*
X106617Y393863D01*
X106308Y393913D01*
X105959Y393944D01*
X105569Y393954D01*
Y395986D01*
X105955Y395991D01*
X106869Y396063D01*
X107093Y396107D01*
X107275Y396160D01*
X107418Y396223D01*
X107519Y396295D01*
X107580Y396378D01*
X107600Y396469D01*
X107631Y392938D01*
D02*
G37*
G36*
X126596Y393115D02*
X126627Y392770D01*
X126677Y392465D01*
X126749Y392201D01*
X126840Y391978D01*
X126952Y391795D01*
X127084Y391652D01*
X127236Y391551D01*
X127409Y391490D01*
X127602Y391469D01*
X123538D01*
X123731Y391490D01*
X123904Y391551D01*
X124056Y391652D01*
X124188Y391795D01*
X124300Y391978D01*
X124391Y392201D01*
X124463Y392465D01*
X124513Y392770D01*
X124544Y393115D01*
X124554Y393502D01*
X126586D01*
X126596Y393115D01*
D02*
G37*
G36*
X120096D02*
X120127Y392770D01*
X120177Y392465D01*
X120249Y392201D01*
X120340Y391978D01*
X120452Y391795D01*
X120584Y391652D01*
X120736Y391551D01*
X120909Y391490D01*
X121102Y391469D01*
X120101D01*
X120101Y391464D01*
X120089Y391033D01*
X120086Y390484D01*
X118054D01*
X118026Y391469D01*
X117038D01*
X117231Y391490D01*
X117404Y391551D01*
X117556Y391652D01*
X117688Y391795D01*
X117800Y391978D01*
X117891Y392201D01*
X117963Y392465D01*
X118013Y392770D01*
X118044Y393115D01*
X118054Y393502D01*
X120086D01*
X120096Y393115D01*
D02*
G37*
G36*
X91647Y392679D02*
X91593Y392494D01*
X91596Y392280D01*
X91656Y392037D01*
X91774Y391764D01*
X91950Y391462D01*
X92183Y391131D01*
X92473Y390770D01*
X93226Y389961D01*
X91790Y388524D01*
X91370Y388929D01*
X90619Y389567D01*
X90288Y389800D01*
X89986Y389976D01*
X89713Y390094D01*
X89470Y390154D01*
X89256Y390157D01*
X89071Y390103D01*
X88916Y389991D01*
X91759Y392834D01*
X91647Y392679D01*
D02*
G37*
G36*
X81039Y389965D02*
X80823Y389888D01*
X80632Y389760D01*
X80467Y389580D01*
X80328Y389348D01*
X80213Y389066D01*
X80124Y388731D01*
X80061Y388346D01*
X80023Y387909D01*
X80010Y387421D01*
X77470D01*
X77457Y387909D01*
X77419Y388346D01*
X77356Y388731D01*
X77267Y389066D01*
X77153Y389348D01*
X77013Y389580D01*
X76848Y389760D01*
X76657Y389888D01*
X76441Y389965D01*
X76200Y389991D01*
X81280D01*
X81039Y389965D01*
D02*
G37*
G36*
X80022Y385947D02*
X80058Y385515D01*
X80118Y385134D01*
X80202Y384804D01*
X80310Y384524D01*
X80442Y384296D01*
X80598Y384118D01*
X80778Y383991D01*
X80982Y383915D01*
X81209Y383890D01*
X76270D01*
X76498Y383915D01*
X76702Y383991D01*
X76882Y384118D01*
X77038Y384296D01*
X77170Y384524D01*
X77278Y384804D01*
X77362Y385134D01*
X77422Y385515D01*
X77458Y385947D01*
X77470Y386429D01*
X80010D01*
X80022Y385947D01*
D02*
G37*
G36*
X89857Y384716D02*
X89987Y384573D01*
X90133Y384446D01*
X90293Y384336D01*
X90470Y384243D01*
X90661Y384167D01*
X90868Y384108D01*
X91090Y384066D01*
X91328Y384040D01*
X91581Y384032D01*
X91099Y382000D01*
X90851Y381995D01*
X90380Y381951D01*
X90157Y381913D01*
X89944Y381864D01*
X89739Y381804D01*
X89543Y381733D01*
X89356Y381651D01*
X89178Y381558D01*
X89009Y381455D01*
X89742Y384877D01*
X89857Y384716D01*
D02*
G37*
G36*
X96300Y377270D02*
Y372730D01*
X96560Y369050D01*
Y367550D01*
X97134Y366165D01*
X98195Y365104D01*
X99580Y364530D01*
X99580Y364530D01*
X101080D01*
X102465Y365104D01*
X103526Y366164D01*
X103526Y366164D01*
X104100Y367550D01*
X104490Y367779D01*
X109570Y364872D01*
Y364490D01*
X111570D01*
X114183Y361440D01*
X114300Y359410D01*
X114300D01*
Y354011D01*
X113337Y353049D01*
X111782D01*
X110493Y352792D01*
X109401Y352063D01*
X107138Y349799D01*
X106837Y349599D01*
X104889Y347650D01*
X97110D01*
Y342396D01*
X92409Y341299D01*
X92030Y341292D01*
X91035Y342286D01*
X89650Y342860D01*
X88150D01*
X85780Y344980D01*
Y348440D01*
X85780Y350060D01*
Y358980D01*
X81532D01*
X81520Y359010D01*
X81470Y359198D01*
X81426Y359466D01*
X81396Y359808D01*
X81384Y360255D01*
X81330Y360378D01*
Y365254D01*
X81384Y365376D01*
X81395Y365819D01*
X81424Y366161D01*
X81466Y366429D01*
X81514Y366618D01*
X81526Y366650D01*
X82510D01*
X82584Y367951D01*
X82570Y367984D01*
X82576Y368103D01*
X82510Y368222D01*
X82510Y376650D01*
X82587Y376745D01*
X86058Y379191D01*
X87925Y379770D01*
X88380D01*
X90560Y380587D01*
X90561Y380587D01*
X92635Y380685D01*
X96300Y377270D01*
D02*
G37*
G36*
X68282Y379355D02*
X68078Y379279D01*
X67898Y379152D01*
X67742Y378974D01*
X67610Y378745D01*
X67502Y378466D01*
X67418Y378136D01*
X67358Y377755D01*
X67322Y377323D01*
X67310Y376841D01*
X64770D01*
X64758Y377323D01*
X64722Y377755D01*
X64662Y378136D01*
X64578Y378466D01*
X64470Y378745D01*
X64338Y378974D01*
X64182Y379152D01*
X64002Y379279D01*
X63798Y379355D01*
X63570Y379380D01*
X68509D01*
X68282Y379355D01*
D02*
G37*
G36*
X591778Y367389D02*
X590881Y366490D01*
X574770D01*
Y384080D01*
X591741D01*
X591778Y367389D01*
D02*
G37*
G36*
X570805D02*
X569908Y366490D01*
X541750D01*
Y384080D01*
X570769D01*
X570805Y367389D01*
D02*
G37*
G36*
X537785D02*
X536888Y366490D01*
X508730D01*
Y384080D01*
X537749D01*
X537785Y367389D01*
D02*
G37*
G36*
X504765D02*
X503868Y366490D01*
X487720D01*
Y384080D01*
X504729D01*
X504765Y367389D01*
D02*
G37*
G36*
X80982Y367925D02*
X80778Y367849D01*
X80598Y367722D01*
X80442Y367544D01*
X80310Y367315D01*
X80202Y367036D01*
X80118Y366706D01*
X80058Y366325D01*
X80022Y365893D01*
X80010Y365410D01*
X77470D01*
X77458Y365893D01*
X77422Y366325D01*
X77362Y366706D01*
X77278Y367036D01*
X77170Y367315D01*
X77038Y367544D01*
X76882Y367722D01*
X76702Y367849D01*
X76498Y367925D01*
X76270Y367951D01*
X81209D01*
X80982Y367925D01*
D02*
G37*
G36*
X80023Y359731D02*
X80061Y359294D01*
X80124Y358909D01*
X80213Y358574D01*
X80328Y358292D01*
X80467Y358060D01*
X80632Y357880D01*
X80823Y357752D01*
X81039Y357675D01*
X81280Y357649D01*
X76200D01*
X76441Y357675D01*
X76657Y357752D01*
X76848Y357880D01*
X77013Y358060D01*
X77153Y358292D01*
X77267Y358574D01*
X77356Y358909D01*
X77419Y359294D01*
X77457Y359731D01*
X77470Y360219D01*
X80010D01*
X80023Y359731D01*
D02*
G37*
G36*
X67323D02*
X67361Y359294D01*
X67424Y358909D01*
X67513Y358574D01*
X67628Y358292D01*
X67767Y358060D01*
X67932Y357880D01*
X68123Y357752D01*
X68339Y357675D01*
X68580Y357649D01*
X63500D01*
X63741Y357675D01*
X63957Y357752D01*
X64148Y357880D01*
X64313Y358060D01*
X64453Y358292D01*
X64567Y358574D01*
X64656Y358909D01*
X64719Y359294D01*
X64757Y359731D01*
X64770Y360219D01*
X67310D01*
X67323Y359731D01*
D02*
G37*
G36*
X84475Y341389D02*
X84552Y341173D01*
X84680Y340982D01*
X84860Y340817D01*
X85092Y340677D01*
X85374Y340563D01*
X85709Y340474D01*
X86073Y340414D01*
X86216Y340437D01*
X86412Y340480D01*
X86590Y340533D01*
X86749Y340595D01*
X86889Y340667D01*
X87011Y340749D01*
X87115Y340840D01*
Y337340D01*
X87011Y337431D01*
X86889Y337513D01*
X86749Y337585D01*
X86590Y337647D01*
X86412Y337700D01*
X86216Y337743D01*
X86073Y337766D01*
X85709Y337706D01*
X85374Y337617D01*
X85092Y337503D01*
X84860Y337363D01*
X84680Y337198D01*
X84552Y337007D01*
X84475Y336791D01*
X84449Y336550D01*
Y341630D01*
X84475Y341389D01*
D02*
G37*
G36*
X153670Y340360D02*
X147320Y334010D01*
X137160D01*
X135890Y335280D01*
Y356870D01*
X143510Y364490D01*
Y381000D01*
X153670D01*
Y340360D01*
D02*
G37*
G36*
X591778Y258169D02*
X590881Y257270D01*
X574770D01*
Y274860D01*
X591741D01*
X591778Y258169D01*
D02*
G37*
G36*
X537785D02*
X536888Y257270D01*
X508730D01*
Y274860D01*
X537749D01*
X537785Y258169D01*
D02*
G37*
G36*
X504765D02*
X503868Y257270D01*
X487720D01*
Y274860D01*
X504729D01*
X504765Y258169D01*
D02*
G37*
G36*
X570805Y258169D02*
X569908Y257270D01*
X541750D01*
Y274860D01*
X570769D01*
X570805Y258169D01*
D02*
G37*
G36*
X591778Y148949D02*
X590881Y148050D01*
X574770D01*
Y165640D01*
X591741D01*
X591778Y148949D01*
D02*
G37*
G36*
X570805D02*
X569908Y148050D01*
X541750D01*
Y165640D01*
X570769D01*
X570805Y148949D01*
D02*
G37*
G36*
X537785Y148949D02*
X536888Y148050D01*
X508730D01*
Y165640D01*
X537749D01*
X537785Y148949D01*
D02*
G37*
G36*
X504765D02*
X503868Y148050D01*
X487720D01*
Y165640D01*
X504729D01*
X504765Y148949D01*
D02*
G37*
G36*
X591778Y39729D02*
X590881Y38830D01*
X574770D01*
Y56420D01*
X591741D01*
X591778Y39729D01*
D02*
G37*
G36*
X570805Y39729D02*
X569908Y38830D01*
X541750D01*
Y56420D01*
X570769D01*
X570805Y39729D01*
D02*
G37*
G36*
X537785D02*
X536888Y38830D01*
X508730D01*
Y56420D01*
X537749D01*
X537785Y39729D01*
D02*
G37*
G36*
X504765D02*
X503868Y38830D01*
X487720D01*
Y56420D01*
X504729D01*
X504765Y39729D01*
D02*
G37*
%LPC*%
G36*
X507488Y408940D02*
X505972D01*
X504572Y408360D01*
X503500Y407288D01*
X502920Y405888D01*
Y404372D01*
X503500Y402972D01*
X504572Y401900D01*
X505972Y401320D01*
X507488D01*
X508888Y401900D01*
X509960Y402972D01*
X510540Y404372D01*
Y405888D01*
X509960Y407288D01*
X508888Y408360D01*
X507488Y408940D01*
D02*
G37*
G36*
X637028Y405130D02*
X635512D01*
X634112Y404550D01*
X633040Y403478D01*
X632460Y402078D01*
Y400562D01*
X633040Y399162D01*
X634112Y398090D01*
X635512Y397510D01*
X637028D01*
X638428Y398090D01*
X639500Y399162D01*
X640080Y400562D01*
Y402078D01*
X639500Y403478D01*
X638428Y404550D01*
X637028Y405130D01*
D02*
G37*
G36*
X340360Y429260D02*
X337062Y427990D01*
X337062D01*
X337062Y427990D01*
X336709Y427844D01*
X336333Y427769D01*
X336333Y427769D01*
X336015Y427556D01*
X335662Y427410D01*
X335662Y427410D01*
X335391Y427140D01*
X335073Y426927D01*
X335073Y426927D01*
X334861Y426609D01*
X334590Y426338D01*
X334444Y425985D01*
X334231Y425667D01*
X334231Y425666D01*
X334156Y425291D01*
X334010Y424938D01*
X334010Y424938D01*
X334010Y424555D01*
X333935Y424180D01*
X333935Y424180D01*
X334010Y423805D01*
Y423422D01*
X334010Y423422D01*
X334156Y423069D01*
X334231Y422694D01*
X334231Y422693D01*
X334444Y422375D01*
X334590Y422022D01*
X334861Y421751D01*
X335073Y421433D01*
X335073Y421433D01*
X335391Y421221D01*
X335662Y420950D01*
X335662Y420950D01*
X335662Y420950D01*
X336015Y420804D01*
X336333Y420591D01*
X339420Y416860D01*
Y405940D01*
X339420Y404320D01*
Y400495D01*
X336510Y396620D01*
X331760D01*
X331510Y396670D01*
X329473D01*
X325810Y400332D01*
Y407210D01*
X314270D01*
Y404314D01*
X314263Y404299D01*
X313650Y403954D01*
X312639Y404112D01*
X308570Y406922D01*
X308570Y413290D01*
X308570Y418370D01*
Y423290D01*
X301030D01*
X301030Y423290D01*
X295950Y422638D01*
X295390Y422870D01*
X293890D01*
X293330Y422638D01*
X288250Y423290D01*
Y423290D01*
X280710D01*
X280710Y416329D01*
X280709Y416307D01*
X280702Y416195D01*
X280685Y416062D01*
X280427Y414872D01*
X280305Y414383D01*
X277350Y411702D01*
X276008Y411636D01*
X271350Y414710D01*
Y414710D01*
X260810D01*
Y403170D01*
X260810D01*
X262620Y399196D01*
X262582Y398929D01*
X260810Y394390D01*
X260736Y393089D01*
X260753Y393048D01*
X260747Y392912D01*
X260810Y392803D01*
Y385500D01*
X260810Y380420D01*
X260810Y377770D01*
Y368880D01*
X260810D01*
X260810Y366450D01*
X260810D01*
Y354910D01*
X260810D01*
X260680Y352090D01*
X260680D01*
Y341170D01*
X260680Y339550D01*
Y336090D01*
X260680Y334470D01*
Y323550D01*
X272720D01*
Y323550D01*
X275590Y325120D01*
X285750D01*
Y325120D01*
X287778Y326390D01*
X287778D01*
X287778Y326390D01*
X288131Y326536D01*
X288507Y326611D01*
X288507Y326611D01*
X288825Y326824D01*
X289178Y326970D01*
X289178Y326970D01*
X289449Y327240D01*
X289767Y327453D01*
X289767Y327453D01*
X289979Y327771D01*
X290250Y328042D01*
X290396Y328395D01*
X290609Y328713D01*
X290609Y328714D01*
X290684Y329089D01*
X290830Y329442D01*
X290830Y329442D01*
X290830Y329825D01*
X290905Y330200D01*
X290830Y330575D01*
X290830Y330958D01*
X290830Y330958D01*
X290684Y331311D01*
X290609Y331686D01*
X290609Y331687D01*
X290396Y332005D01*
X290250Y332358D01*
X289979Y332629D01*
X289767Y332947D01*
X289767Y332947D01*
X289449Y333159D01*
X289178Y333430D01*
X289178Y333430D01*
X289178Y333430D01*
X288825Y333576D01*
X288507Y333789D01*
X288507Y333789D01*
X288131Y333864D01*
X287778Y334010D01*
X287778Y334010D01*
X287778D01*
X285750Y335280D01*
Y335280D01*
X277465D01*
X272720Y339171D01*
X272720Y341170D01*
Y352090D01*
X276903Y354255D01*
X285710D01*
X286286Y354370D01*
X290100Y354370D01*
X295180Y354370D01*
X300100D01*
X300100Y354370D01*
X304420Y354370D01*
Y354370D01*
X312960D01*
Y360606D01*
X312960Y361910D01*
X316320Y365598D01*
X316657Y365935D01*
X319405Y366055D01*
X322153Y365935D01*
X322985Y365104D01*
X324165Y364615D01*
X324370Y364530D01*
X328970Y363950D01*
Y363950D01*
X336510D01*
Y372490D01*
X336510D01*
X335785Y375285D01*
X336510Y378080D01*
X336510D01*
X336510Y384445D01*
X338816Y387516D01*
X340886Y388320D01*
X351460D01*
Y399240D01*
X351460Y400860D01*
Y404320D01*
X351460Y405940D01*
Y414409D01*
X351460Y416860D01*
X351460D01*
X350520Y419100D01*
X350520Y419100D01*
Y429260D01*
X340360D01*
X340360Y429260D01*
D02*
G37*
G36*
X381539Y398845D02*
X375540D01*
X375287Y398740D01*
X374270D01*
Y397724D01*
X374165Y397470D01*
Y393615D01*
X368047Y387497D01*
X368046Y387496D01*
Y387496D01*
X367368Y386818D01*
Y386818D01*
X366965Y385846D01*
X366965Y385846D01*
Y383775D01*
X367368Y382803D01*
Y382803D01*
X367368Y382803D01*
X369412Y380759D01*
Y380759D01*
X370384Y380356D01*
X371043Y375062D01*
X369513Y373430D01*
X360680D01*
X359689Y373233D01*
X358849Y372671D01*
X301739Y315561D01*
X301177Y314721D01*
X300980Y313730D01*
Y273893D01*
X299200Y269200D01*
X297700D01*
X296315Y268626D01*
X294005Y267938D01*
X291695Y268626D01*
X290310Y269200D01*
X290310Y269200D01*
X288810D01*
X286964Y268812D01*
X285401Y269441D01*
X283502Y271341D01*
X243131Y311711D01*
X242291Y312273D01*
X241300Y312470D01*
X150366D01*
X150244Y312524D01*
X149801Y312535D01*
X149459Y312564D01*
X149191Y312606D01*
X149002Y312654D01*
X148970Y312666D01*
Y313650D01*
X147669Y313724D01*
X147636Y313710D01*
X147517Y313716D01*
X147398Y313650D01*
X140430Y313650D01*
X135510Y313650D01*
X135350Y313650D01*
X132002D01*
X131883Y313716D01*
X131764Y313710D01*
X131730Y313724D01*
X130430Y313650D01*
X125431Y312470D01*
X119420D01*
X119297Y312524D01*
X118851Y312536D01*
X118508Y312566D01*
X118240Y312610D01*
X118088Y312650D01*
Y313630D01*
X117699Y315589D01*
X116589Y317249D01*
X114929Y318359D01*
X112970Y318748D01*
X105470D01*
X103511Y318359D01*
X101851Y317249D01*
X100741Y315589D01*
X100352Y313630D01*
Y306130D01*
X97283Y303441D01*
X95526Y303574D01*
X92688Y306731D01*
Y313630D01*
X92299Y315589D01*
X91189Y317249D01*
X89529Y318359D01*
X87570Y318748D01*
X80070D01*
X78111Y318359D01*
X76451Y317249D01*
X75341Y315589D01*
X74952Y313630D01*
Y306130D01*
X75341Y304171D01*
X76451Y302511D01*
X78111Y301401D01*
X80070Y301012D01*
X87570D01*
X88491Y301195D01*
X88594Y301141D01*
X88844Y300975D01*
X89572Y300373D01*
X89990Y299970D01*
X90117Y299920D01*
X90662Y299375D01*
X90573Y295506D01*
X89386Y293488D01*
X89158Y293459D01*
X87570Y293348D01*
X87532Y293348D01*
X86719Y293348D01*
X80070D01*
X78111Y292959D01*
X76451Y291849D01*
X75341Y290189D01*
X74952Y288230D01*
Y280730D01*
X75341Y278771D01*
X76451Y277111D01*
X78111Y276001D01*
X80070Y275612D01*
X87570D01*
X88491Y275795D01*
X88594Y275741D01*
X88844Y275575D01*
X89572Y274972D01*
X89990Y274570D01*
X90117Y274520D01*
X90662Y273975D01*
X90573Y270106D01*
X89386Y268088D01*
X89158Y268059D01*
X87570Y267948D01*
X87532Y267948D01*
X86719Y267948D01*
X80070D01*
X78111Y267559D01*
X76451Y266449D01*
X75341Y264789D01*
X74952Y262830D01*
Y255330D01*
X75341Y253371D01*
X76451Y251711D01*
X78111Y250601D01*
X80070Y250212D01*
X87570D01*
X88491Y250395D01*
X88594Y250341D01*
X88844Y250175D01*
X89572Y249573D01*
X89990Y249170D01*
X90117Y249120D01*
X90662Y248575D01*
X90573Y244706D01*
X89386Y242688D01*
X89158Y242659D01*
X87570Y242548D01*
X87532Y242548D01*
X86719Y242548D01*
X80070D01*
X78111Y242159D01*
X76451Y241049D01*
X75341Y239389D01*
X74952Y237430D01*
Y229930D01*
X75341Y227971D01*
X76451Y226311D01*
X78111Y225201D01*
X80070Y224812D01*
X87570D01*
X88491Y224995D01*
X88594Y224941D01*
X88844Y224775D01*
X89572Y224172D01*
X89990Y223770D01*
X90117Y223720D01*
X90662Y223175D01*
X90573Y219306D01*
X89386Y217288D01*
X89158Y217259D01*
X87570Y217148D01*
X87532Y217148D01*
X86719Y217148D01*
X80070D01*
X78111Y216759D01*
X76451Y215649D01*
X75341Y213989D01*
X74952Y212030D01*
Y204530D01*
X75341Y202571D01*
X76451Y200911D01*
X78111Y199801D01*
X80070Y199412D01*
X87570D01*
X88491Y199595D01*
X88594Y199541D01*
X88844Y199375D01*
X89572Y198773D01*
X89990Y198370D01*
X90117Y198320D01*
X90662Y197775D01*
X90573Y193906D01*
X89386Y191888D01*
X89158Y191859D01*
X87570Y191748D01*
X87532Y191748D01*
X86719Y191748D01*
X80070D01*
X78111Y191359D01*
X76451Y190249D01*
X75341Y188589D01*
X74952Y186630D01*
Y179130D01*
X75341Y177171D01*
X76451Y175511D01*
X78111Y174401D01*
X80070Y174012D01*
X87570D01*
X88491Y174195D01*
X88594Y174141D01*
X88844Y173975D01*
X89572Y173372D01*
X89990Y172970D01*
X90117Y172920D01*
X90662Y172375D01*
X90573Y168506D01*
X89386Y166488D01*
X89158Y166459D01*
X87570Y166348D01*
X87532Y166348D01*
X86719Y166348D01*
X80070D01*
X78111Y165959D01*
X76451Y164849D01*
X75341Y163189D01*
X74952Y161230D01*
Y153730D01*
X75341Y151771D01*
X76451Y150111D01*
X78111Y149001D01*
X80070Y148612D01*
X87570D01*
X89529Y149001D01*
X91189Y150111D01*
X92299Y151771D01*
X92688Y153730D01*
Y161000D01*
X92688Y161230D01*
X92688Y161230D01*
X92444Y162460D01*
X93494Y163969D01*
X97524Y166599D01*
X97681Y166580D01*
X100552Y162234D01*
X100352Y161230D01*
Y153730D01*
X100741Y151771D01*
X101851Y150111D01*
X103511Y149001D01*
X105470Y148612D01*
X112970D01*
X114929Y149001D01*
X116589Y150111D01*
X117699Y151771D01*
X118088Y153730D01*
Y161230D01*
X117834Y162510D01*
X118434Y164210D01*
X120867Y167590D01*
X129034D01*
X129156Y167536D01*
X129599Y167525D01*
X129941Y167496D01*
X130209Y167454D01*
X130398Y167406D01*
X130430Y167394D01*
Y166410D01*
X131730Y166336D01*
X131764Y166350D01*
X131883Y166344D01*
X132002Y166410D01*
X138970Y166410D01*
X143890Y166410D01*
X144050Y166410D01*
X147398D01*
X147517Y166344D01*
X147636Y166350D01*
X147669Y166336D01*
X148970Y166410D01*
X153969Y167590D01*
X229870D01*
X230861Y167787D01*
X231701Y168349D01*
X249505Y186153D01*
X254614Y187094D01*
X255674Y186034D01*
X255674Y186034D01*
X257060Y185460D01*
X258560D01*
X259080Y185675D01*
X262327Y184356D01*
X263834Y183294D01*
X263987Y183029D01*
X264160Y182692D01*
Y175260D01*
X270980D01*
Y148913D01*
X259277Y137210D01*
X252610D01*
Y139890D01*
X237739D01*
X237220Y139993D01*
X235220D01*
X233164Y139584D01*
X231420Y138420D01*
X230256Y136676D01*
X229847Y134620D01*
X230256Y132564D01*
X231420Y130821D01*
X233164Y129656D01*
X235220Y129247D01*
X237220D01*
X237739Y129350D01*
X252610D01*
Y132030D01*
X260350D01*
X261341Y132227D01*
X262181Y132789D01*
X270900Y141508D01*
X275980Y139404D01*
Y134500D01*
X274130D01*
Y119629D01*
X274027Y119110D01*
Y117110D01*
X274436Y115054D01*
X275600Y113310D01*
X277344Y112146D01*
X279400Y111737D01*
X281456Y112146D01*
X283200Y113310D01*
X284364Y115054D01*
X284773Y117110D01*
Y119110D01*
X284670Y119629D01*
Y134500D01*
X281160D01*
Y155626D01*
X282367Y157708D01*
X285924Y157827D01*
X288081Y157437D01*
X288694Y156824D01*
X290080Y156250D01*
X291580D01*
X291580Y156250D01*
X291580Y156250D01*
X292966Y156824D01*
X294026Y157884D01*
X294026Y157884D01*
X294600Y159270D01*
X294600Y159270D01*
X294600Y159867D01*
Y160770D01*
X295049Y163255D01*
X297509Y164862D01*
X300124Y165714D01*
X300763Y165450D01*
X301510Y165140D01*
X301510Y165140D01*
X303010D01*
X305980Y160872D01*
Y114340D01*
X306177Y113349D01*
X306739Y112509D01*
X337770Y81477D01*
Y54610D01*
X337967Y53619D01*
X338529Y52779D01*
X355039Y36269D01*
X355879Y35707D01*
X356870Y35510D01*
X369631D01*
X371007Y34047D01*
X370425Y28942D01*
X370243Y28525D01*
X370099Y28466D01*
X370099Y28466D01*
X369412Y28181D01*
X369412Y28181D01*
X368185Y26953D01*
X368100Y26869D01*
Y26869D01*
X368046Y26815D01*
Y26815D01*
X367368Y26137D01*
Y26137D01*
X366965Y25165D01*
X366965Y25164D01*
X366965Y24920D01*
Y23094D01*
X367368Y22122D01*
X367368Y22122D01*
X367368D01*
X368046Y21444D01*
Y21444D01*
X368121Y21369D01*
X374165Y15325D01*
Y11470D01*
X374270Y11217D01*
Y10200D01*
X375287D01*
X375540Y10095D01*
X381539D01*
X381792Y10200D01*
X382810D01*
Y11219D01*
X382914Y11470D01*
Y16480D01*
X386689Y20255D01*
X391699D01*
X391952Y20360D01*
X392970D01*
Y21379D01*
X393074Y21630D01*
Y26533D01*
X393660Y31370D01*
X397050Y31790D01*
Y31790D01*
X405590Y31790D01*
X410744Y31790D01*
X411320Y31675D01*
X416600D01*
Y31290D01*
X424140D01*
Y34984D01*
X424209Y35331D01*
X433070D01*
X433466Y35410D01*
X438590D01*
Y45410D01*
Y55950D01*
X427550D01*
X424140Y59618D01*
Y59990D01*
X416600D01*
Y51450D01*
X412284Y49605D01*
X411400D01*
X410824Y49490D01*
X407130Y49490D01*
X402210Y49490D01*
X397130Y49490D01*
X393335Y52593D01*
X393074Y54747D01*
Y59650D01*
X392970Y59901D01*
Y60920D01*
X391952D01*
X391699Y61025D01*
X386689D01*
X382914Y64800D01*
Y69810D01*
X382810Y70061D01*
Y71080D01*
X381792D01*
X381539Y71185D01*
X375540D01*
X375287Y71080D01*
X374270D01*
Y70064D01*
X374165Y69810D01*
Y65955D01*
X368047Y59837D01*
X368046Y59836D01*
Y59836D01*
X367368Y59158D01*
Y59158D01*
X366965Y58186D01*
X366965Y58186D01*
Y56115D01*
X367368Y55143D01*
Y55143D01*
X367368Y55143D01*
X369412Y53099D01*
Y53099D01*
X369969Y52868D01*
X370451Y51837D01*
X370856Y46664D01*
X369930Y45770D01*
X359521D01*
X348030Y57261D01*
Y85090D01*
X347833Y86081D01*
X347271Y86921D01*
X316160Y118033D01*
Y162814D01*
X318124Y164144D01*
X321240Y165385D01*
X321830Y165140D01*
X321830Y165140D01*
X323330D01*
X324715Y165714D01*
X324716Y165714D01*
X324716Y165714D01*
X325776Y166774D01*
X325776Y166774D01*
X325900Y167074D01*
X330980Y166064D01*
Y165540D01*
X331177Y164549D01*
X331739Y163709D01*
X349959Y145489D01*
X350799Y144927D01*
X351790Y144730D01*
X369514D01*
X371043Y143098D01*
X370384Y137803D01*
X370238Y137743D01*
X370099Y137686D01*
X370099Y137686D01*
X369412Y137401D01*
X369412Y137401D01*
X368185Y136173D01*
X368100Y136089D01*
Y136089D01*
X368046Y136035D01*
Y136035D01*
X367368Y135357D01*
Y135357D01*
X366965Y134385D01*
X366965Y134384D01*
X366965Y134139D01*
Y132314D01*
X367368Y131342D01*
X367368Y131342D01*
X367368D01*
X368046Y130664D01*
Y130664D01*
X368121Y130589D01*
X374165Y124545D01*
Y120690D01*
X374270Y120437D01*
Y119420D01*
X375287D01*
X375540Y119315D01*
X381539D01*
X381792Y119420D01*
X382810D01*
Y120439D01*
X382914Y120690D01*
Y125700D01*
X386689Y129475D01*
X391699D01*
X391952Y129580D01*
X392970D01*
Y130599D01*
X393074Y130850D01*
Y135753D01*
X393660Y140590D01*
X397130Y141010D01*
Y141010D01*
X405670Y141010D01*
X410590Y141010D01*
X415670Y141010D01*
X417870Y140430D01*
Y140430D01*
X420510Y140430D01*
X425410D01*
Y140436D01*
X427550Y144630D01*
X438590D01*
Y154630D01*
Y165170D01*
X427550D01*
X425410Y169290D01*
X417870D01*
Y162879D01*
X416364Y160024D01*
X413635Y158710D01*
X407130Y158710D01*
X402210Y158710D01*
X397130Y158710D01*
X393335Y161812D01*
X393074Y163967D01*
Y168870D01*
X392970Y169121D01*
Y170140D01*
X391952D01*
X391699Y170245D01*
X386689D01*
X382914Y174020D01*
Y179030D01*
X382810Y179281D01*
Y180300D01*
X381792D01*
X381539Y180405D01*
X375540D01*
X375287Y180300D01*
X374270D01*
Y179284D01*
X374165Y179030D01*
Y175175D01*
X368047Y169057D01*
X368046Y169056D01*
Y169056D01*
X367368Y168378D01*
Y168378D01*
X366965Y167406D01*
X366965Y167406D01*
Y165335D01*
X367368Y164363D01*
Y164363D01*
X367368Y164363D01*
X369412Y162319D01*
Y162319D01*
X370384Y161917D01*
X371043Y156622D01*
X369514Y154990D01*
X355403D01*
X341160Y169233D01*
Y175260D01*
X347980D01*
Y178361D01*
X350462Y180707D01*
X351614Y181547D01*
X352316Y181876D01*
X352607Y181926D01*
X352854Y181951D01*
X353580Y181650D01*
X353580Y181650D01*
X355080D01*
X356465Y182224D01*
X357526Y183284D01*
X357526Y183284D01*
X358100Y184670D01*
Y186170D01*
X357526Y187556D01*
X356838Y189865D01*
X357526Y192174D01*
X358100Y193560D01*
Y195060D01*
X357526Y196446D01*
X356838Y198755D01*
X357526Y201064D01*
X358100Y202450D01*
Y203950D01*
X357526Y205336D01*
X356879Y208280D01*
X357526Y211224D01*
X357736Y211731D01*
X361430Y214670D01*
X361430Y214670D01*
X362816Y215244D01*
X363876Y216304D01*
X363876Y216304D01*
Y216304D01*
X364450Y217690D01*
X364450Y217690D01*
X364450Y218265D01*
X364450Y218265D01*
X364450Y218291D01*
Y219190D01*
X363876Y220576D01*
Y223925D01*
X364450Y225310D01*
Y226079D01*
X367183Y227629D01*
X369143Y228217D01*
X372938Y224421D01*
X374147Y220312D01*
X374270Y218480D01*
X374270Y217130D01*
X374270D01*
Y209590D01*
X382810D01*
Y214005D01*
X383940Y217467D01*
X387331Y218480D01*
X392810D01*
Y226020D01*
X388594D01*
X388163Y226020D01*
X387767Y226613D01*
X384142Y230239D01*
X384073Y234699D01*
X387703Y238695D01*
X391699D01*
X391952Y238800D01*
X392970D01*
Y239819D01*
X393074Y240070D01*
Y245649D01*
X393660Y249810D01*
X397130Y250230D01*
Y250230D01*
X405670Y250230D01*
X410824Y250230D01*
X411400Y250115D01*
X416600D01*
Y249730D01*
X424140D01*
Y253424D01*
X424217Y253811D01*
X431270D01*
X431867Y253930D01*
X438590D01*
Y263930D01*
Y274470D01*
X427550D01*
X424140Y278138D01*
Y278430D01*
X416600D01*
Y269890D01*
X412284Y268045D01*
X411400D01*
X411400Y268045D01*
X407130Y267930D01*
X402210Y267930D01*
X397130Y267930D01*
X393335Y271033D01*
X393074Y273187D01*
Y278090D01*
X392970Y278341D01*
Y279360D01*
X391952D01*
X391699Y279465D01*
X386689D01*
X382914Y283240D01*
Y288250D01*
X382810Y288501D01*
Y289520D01*
X381792D01*
X381539Y289625D01*
X375540D01*
X375287Y289520D01*
X374270D01*
Y288504D01*
X374165Y288250D01*
Y284395D01*
X368046Y278276D01*
X367368Y277598D01*
Y277598D01*
X366965Y276626D01*
X366965Y276626D01*
Y275215D01*
X364898Y273222D01*
X362626Y271757D01*
X362258Y271830D01*
X337820D01*
X336829Y271633D01*
X335989Y271071D01*
X334988Y270071D01*
X330905Y267595D01*
X329795Y268626D01*
X328410Y269200D01*
X326910D01*
X326910Y269200D01*
X325524Y268626D01*
X322580Y267979D01*
X319636Y268626D01*
X318250Y269200D01*
X316750D01*
X316240Y268989D01*
X312976Y270319D01*
X311160Y271606D01*
Y311307D01*
X363023Y363170D01*
X369514D01*
X371043Y361538D01*
X370384Y356244D01*
X370238Y356183D01*
X370099Y356126D01*
X370099Y356126D01*
X369412Y355841D01*
X369412Y355841D01*
X368185Y354613D01*
X368100Y354529D01*
Y354529D01*
X368046Y354475D01*
Y354475D01*
X367368Y353797D01*
Y353797D01*
X366965Y352825D01*
X366965Y352824D01*
X366965Y352579D01*
Y350754D01*
X367368Y349782D01*
X367368Y349782D01*
X367368D01*
X368046Y349104D01*
Y349104D01*
X368121Y349029D01*
X374165Y342985D01*
Y339130D01*
X374270Y338877D01*
Y337860D01*
X375287D01*
X375540Y337755D01*
X381539D01*
X381792Y337860D01*
X382810D01*
Y338879D01*
X382914Y339130D01*
Y344140D01*
X386689Y347915D01*
X391699D01*
X391952Y348020D01*
X392970D01*
Y349039D01*
X393074Y349290D01*
Y354233D01*
X393074Y354869D01*
X393051Y355033D01*
X394061Y357037D01*
X395843Y359450D01*
X403050Y359450D01*
X408381Y359450D01*
X409360Y359255D01*
X415330D01*
Y358870D01*
X422870D01*
Y362564D01*
X422934Y362883D01*
X423041Y362991D01*
X433070D01*
X433466Y363070D01*
X438590D01*
Y373070D01*
Y383610D01*
X427550D01*
X427550Y383610D01*
X422870Y384575D01*
Y387730D01*
X415330D01*
Y379190D01*
X411048Y377265D01*
X408780D01*
X408204Y377150D01*
X404510Y377150D01*
X399430Y377150D01*
X395843D01*
X394061Y379563D01*
X393051Y381567D01*
X393074Y381731D01*
X393074Y382367D01*
Y387310D01*
X392970Y387561D01*
Y388580D01*
X391952D01*
X391699Y388685D01*
X386689D01*
X382914Y392460D01*
Y397470D01*
X382810Y397721D01*
Y398740D01*
X381792D01*
X381539Y398845D01*
D02*
G37*
G36*
X202570Y382420D02*
X202110D01*
Y382420D01*
X196070Y382420D01*
Y382052D01*
X195878Y381972D01*
X195475Y381000D01*
Y370139D01*
X183178Y357842D01*
X182775Y356870D01*
X182775Y356870D01*
Y335280D01*
X183124Y334437D01*
X183178Y334308D01*
X183179Y334307D01*
X185718Y331768D01*
X186690Y331365D01*
X186690Y331365D01*
X186690Y331365D01*
X200660D01*
X201503Y331714D01*
X201632Y331768D01*
X201633Y331769D01*
X204172Y334308D01*
X204575Y335280D01*
X204575Y335280D01*
X204575Y335280D01*
Y344251D01*
X207740Y348020D01*
X216280D01*
Y355560D01*
X216280D01*
X216440Y356910D01*
X216440D01*
X216440Y360574D01*
Y364450D01*
X214760D01*
Y371380D01*
X215110D01*
Y382420D01*
X209070D01*
Y382420D01*
X205590Y382420D01*
X202570Y382420D01*
X202570Y382420D01*
D02*
G37*
G36*
X456688Y334010D02*
X455172D01*
X453772Y333430D01*
X452700Y332358D01*
X452120Y330958D01*
Y329442D01*
X452700Y328042D01*
X453772Y326970D01*
X455172Y326390D01*
X456688D01*
X458088Y326970D01*
X459160Y328042D01*
X459740Y329442D01*
Y330958D01*
X459160Y332358D01*
X458088Y333430D01*
X456688Y334010D01*
D02*
G37*
G36*
X112970Y140948D02*
X105470D01*
X103511Y140559D01*
X101851Y139449D01*
X100741Y137789D01*
X100352Y135830D01*
Y128330D01*
X100741Y126371D01*
X101851Y124711D01*
X103511Y123601D01*
X105470Y123212D01*
X112970D01*
X114929Y123601D01*
X116589Y124711D01*
X117699Y126371D01*
X118088Y128330D01*
Y135830D01*
X117699Y137789D01*
X116589Y139449D01*
X114929Y140559D01*
X112970Y140948D01*
D02*
G37*
G36*
X87570D02*
X80070D01*
X78111Y140559D01*
X76451Y139449D01*
X75341Y137789D01*
X74952Y135830D01*
Y128330D01*
X75341Y126371D01*
X76451Y124711D01*
X78111Y123601D01*
X80070Y123212D01*
X87570D01*
X89529Y123601D01*
X91189Y124711D01*
X92299Y126371D01*
X92688Y128330D01*
Y135830D01*
X92299Y137789D01*
X91189Y139449D01*
X89529Y140559D01*
X87570Y140948D01*
D02*
G37*
G36*
X195870Y121160D02*
X182330D01*
Y112620D01*
X195870D01*
Y121160D01*
D02*
G37*
G36*
X159590Y159690D02*
X156130D01*
X154510Y159690D01*
X143590D01*
Y147650D01*
X143590D01*
X143807Y145401D01*
X139616Y140970D01*
X132080D01*
Y130810D01*
X142240D01*
Y130810D01*
X144780D01*
Y130810D01*
X153586D01*
X154940Y130810D01*
X154940Y130810D01*
X158330Y131620D01*
X158330Y131620D01*
X168207D01*
X169295Y130533D01*
X169572Y130347D01*
X170550Y129369D01*
Y123411D01*
X168349Y121210D01*
X166830D01*
X166580Y121160D01*
X158330D01*
Y112620D01*
X171870D01*
Y117405D01*
X174971Y120507D01*
X175533Y121347D01*
X175730Y122338D01*
Y130442D01*
X175533Y131433D01*
X174971Y132273D01*
X173049Y134195D01*
X172772Y134381D01*
X171870Y135282D01*
Y140160D01*
X158330D01*
X158330Y140160D01*
X155478Y140903D01*
X154706Y146226D01*
X156130Y147650D01*
X159590D01*
X161210Y147650D01*
X172130D01*
X175985Y144693D01*
X176677Y143658D01*
X178261Y142600D01*
X178358Y142535D01*
X181005Y140542D01*
X182330Y137357D01*
Y131620D01*
X195870D01*
Y132005D01*
X203200D01*
Y130810D01*
X204395D01*
Y113369D01*
X196396Y105370D01*
X193850D01*
Y97830D01*
X191170Y93860D01*
X190850D01*
Y76320D01*
X205390D01*
Y93860D01*
X205070D01*
X202390Y97830D01*
Y100376D01*
X211027Y109013D01*
X211869Y110273D01*
X212165Y111760D01*
Y130810D01*
X213360D01*
Y140970D01*
X203200D01*
Y139775D01*
X195870D01*
Y140160D01*
X187310D01*
X187139Y140341D01*
X185060Y145240D01*
X185125Y145338D01*
X185520Y147320D01*
Y153670D01*
X185420Y154170D01*
Y158750D01*
X180840D01*
X180340Y158849D01*
X172130D01*
Y159690D01*
X161210D01*
X159590Y159690D01*
D02*
G37*
G36*
X185070Y93860D02*
X170530D01*
Y76320D01*
X185070D01*
Y93860D01*
D02*
G37*
G36*
X112970Y90148D02*
X105470D01*
X103511Y89759D01*
X101851Y88649D01*
X100741Y86989D01*
X100352Y85030D01*
Y77530D01*
X100741Y75571D01*
X101851Y73911D01*
X103511Y72801D01*
X105470Y72412D01*
X112970D01*
X114929Y72801D01*
X116589Y73911D01*
X117699Y75571D01*
X118088Y77530D01*
Y85030D01*
X117699Y86989D01*
X116589Y88649D01*
X114929Y89759D01*
X112970Y90148D01*
D02*
G37*
G36*
X87570D02*
X80070D01*
X78111Y89759D01*
X76451Y88649D01*
X75341Y86989D01*
X74952Y85030D01*
Y77530D01*
X75341Y75571D01*
X76451Y73911D01*
X78111Y72801D01*
X80070Y72412D01*
X87570D01*
X89529Y72801D01*
X91189Y73911D01*
X92299Y75571D01*
X92688Y77530D01*
Y85030D01*
X92299Y86989D01*
X91189Y88649D01*
X89529Y89759D01*
X87570Y90148D01*
D02*
G37*
G36*
X268650Y45710D02*
X249610D01*
X249610Y34290D01*
X249610Y30490D01*
X249610Y21590D01*
X249610Y17790D01*
Y10170D01*
X268650D01*
Y12345D01*
X274360D01*
Y9620D01*
X281900D01*
Y18160D01*
X286069Y20360D01*
X290100Y20360D01*
X295020Y20360D01*
X300100Y20360D01*
X301502Y20320D01*
X303016Y20320D01*
X303018Y20320D01*
X303018Y20320D01*
X304418Y20900D01*
X304418Y20900D01*
X304418Y20900D01*
X305490Y21972D01*
X306070Y23372D01*
X306070Y23372D01*
X306070Y24888D01*
X306070Y24888D01*
X305891Y25320D01*
Y25320D01*
X305876Y25367D01*
X305490Y26537D01*
Y30613D01*
X305876Y31783D01*
X305891Y31830D01*
Y31830D01*
X306070Y32262D01*
X306070Y32262D01*
X306070Y33778D01*
X306070Y33778D01*
X305490Y35178D01*
X304799Y35869D01*
X304418Y36250D01*
X304418Y36250D01*
X303018Y36830D01*
X303018Y36830D01*
X303016Y36830D01*
X301502Y36830D01*
X300100Y36790D01*
X300100Y36790D01*
X300100Y36790D01*
X291560Y36790D01*
X286980Y36790D01*
X281900Y37997D01*
Y44990D01*
X274360D01*
Y43575D01*
X268650D01*
Y45710D01*
D02*
G37*
G36*
X205390Y65920D02*
X190850D01*
Y48380D01*
X190850D01*
X192850Y44910D01*
Y36370D01*
X201184Y36370D01*
X202120Y36169D01*
X204318Y34838D01*
X205649Y32640D01*
X205850Y31704D01*
X205850Y27465D01*
X197791Y19405D01*
X136670D01*
X136022Y21825D01*
X134209Y24965D01*
X131645Y27529D01*
X128505Y29342D01*
X125003Y30280D01*
X121377D01*
X117875Y29342D01*
X114735Y27529D01*
X112171Y24965D01*
X110358Y21825D01*
X109420Y18323D01*
Y14697D01*
X110358Y11195D01*
X112171Y8055D01*
X114735Y5491D01*
X117875Y3678D01*
X121377Y2740D01*
X125003D01*
X128505Y3678D01*
X131645Y5491D01*
X134209Y8055D01*
X136022Y11195D01*
X136670Y13615D01*
X198990D01*
X200098Y13835D01*
X201037Y14463D01*
X209945Y23370D01*
X214390D01*
X214390Y31704D01*
X214446Y31967D01*
X217280Y35002D01*
X218782Y35570D01*
X236850D01*
Y45710D01*
X217810D01*
X217810Y45710D01*
X214390Y45910D01*
Y45910D01*
X209447D01*
X205632Y48233D01*
X205390Y50799D01*
Y65920D01*
D02*
G37*
%LPD*%
G36*
X296600Y420680D02*
X296759Y420553D01*
X296929Y420441D01*
X297111Y420344D01*
X297304Y420262D01*
X297509Y420195D01*
X297725Y420143D01*
X297952Y420106D01*
X298191Y420083D01*
X298442Y420076D01*
X298406Y418044D01*
X298156Y418037D01*
X297917Y418015D01*
X297689Y417979D01*
X297471Y417928D01*
X297265Y417863D01*
X297069Y417784D01*
X296885Y417690D01*
X296711Y417582D01*
X296549Y417459D01*
X296397Y417322D01*
X296453Y420821D01*
X296600Y420680D01*
D02*
G37*
G36*
X292883Y417322D02*
X292731Y417459D01*
X292569Y417582D01*
X292395Y417690D01*
X292211Y417784D01*
X292015Y417863D01*
X291809Y417928D01*
X291591Y417979D01*
X291363Y418015D01*
X291124Y418037D01*
X290874Y418044D01*
X290838Y420076D01*
X291089Y420083D01*
X291328Y420106D01*
X291555Y420143D01*
X291772Y420195D01*
X291976Y420262D01*
X292169Y420344D01*
X292351Y420441D01*
X292521Y420553D01*
X292680Y420680D01*
X292827Y420821D01*
X292883Y417322D01*
D02*
G37*
G36*
X302361Y417028D02*
X302340Y417221D01*
X302278Y417394D01*
X302175Y417546D01*
X302031Y417678D01*
X301845Y417790D01*
X301618Y417881D01*
X301350Y417953D01*
X301041Y418003D01*
X300690Y418034D01*
X300299Y418044D01*
Y420076D01*
X300690Y420086D01*
X301041Y420117D01*
X301350Y420167D01*
X301618Y420239D01*
X301845Y420330D01*
X302031Y420442D01*
X302175Y420574D01*
X302278Y420726D01*
X302340Y420899D01*
X302361Y421092D01*
Y417028D01*
D02*
G37*
G36*
X286940Y420899D02*
X287001Y420726D01*
X287105Y420574D01*
X287249Y420442D01*
X287435Y420330D01*
X287661Y420239D01*
X287930Y420167D01*
X288239Y420117D01*
X288590Y420086D01*
X288981Y420076D01*
Y418044D01*
X288590Y418034D01*
X288239Y418003D01*
X287930Y417953D01*
X287661Y417881D01*
X287435Y417790D01*
X287249Y417678D01*
X287105Y417546D01*
X287001Y417394D01*
X286940Y417221D01*
X286919Y417028D01*
Y421092D01*
X286940Y420899D01*
D02*
G37*
G36*
X282041Y406654D02*
X282018Y406871D01*
X281948Y407066D01*
X281833Y407237D01*
X281670Y407385D01*
X281462Y407511D01*
X281207Y407614D01*
X280906Y407694D01*
X280558Y407751D01*
X280165Y407785D01*
X279725Y407797D01*
Y410083D01*
X280165Y410094D01*
X280558Y410129D01*
X280906Y410186D01*
X281207Y410266D01*
X281462Y410369D01*
X281670Y410494D01*
X281833Y410643D01*
X281948Y410815D01*
X282018Y411009D01*
X282041Y411226D01*
Y406654D01*
D02*
G37*
G36*
X270042Y411009D02*
X270112Y410815D01*
X270228Y410643D01*
X270390Y410494D01*
X270598Y410369D01*
X270853Y410266D01*
X271154Y410186D01*
X271502Y410129D01*
X271895Y410094D01*
X272335Y410083D01*
Y407797D01*
X271895Y407785D01*
X271502Y407751D01*
X271154Y407694D01*
X270853Y407614D01*
X270598Y407511D01*
X270390Y407385D01*
X270228Y407237D01*
X270112Y407066D01*
X270042Y406871D01*
X270019Y406654D01*
Y411226D01*
X270042Y411009D01*
D02*
G37*
G36*
X286950Y406050D02*
X286735Y406028D01*
X286543Y405959D01*
X286374Y405845D01*
X286227Y405685D01*
X286103Y405479D01*
X286001Y405228D01*
X285922Y404930D01*
X285866Y404588D01*
X285832Y404199D01*
X285821Y403764D01*
X283535D01*
X283523Y404203D01*
X283489Y404596D01*
X283432Y404943D01*
X283352Y405243D01*
X283249Y405498D01*
X283123Y405707D01*
X282975Y405869D01*
X282803Y405986D01*
X282609Y406056D01*
X282392Y406081D01*
X286950Y406050D01*
D02*
G37*
G36*
X306671Y406028D02*
X306477Y405959D01*
X306305Y405845D01*
X306157Y405685D01*
X306031Y405479D01*
X305928Y405228D01*
X305848Y404930D01*
X305791Y404587D01*
X305786Y404529D01*
X305804Y404398D01*
X305850Y404185D01*
X305910Y403987D01*
X305982Y403806D01*
X306068Y403640D01*
X306166Y403490D01*
X306278Y403356D01*
X306403Y403238D01*
X304523Y401320D01*
X302914Y402961D01*
X303018Y403094D01*
X303110Y403240D01*
X303192Y403401D01*
X303263Y403577D01*
X303323Y403767D01*
X303372Y403971D01*
X303410Y404189D01*
X303432Y404378D01*
X303414Y404587D01*
X303358Y404930D01*
X303279Y405228D01*
X303177Y405479D01*
X303053Y405685D01*
X302906Y405845D01*
X302737Y405959D01*
X302545Y406028D01*
X302330Y406050D01*
X306888D01*
X306671Y406028D01*
D02*
G37*
G36*
X306403Y399402D02*
X306278Y399284D01*
X306166Y399150D01*
X306068Y399000D01*
X305982Y398834D01*
X305910Y398653D01*
X305850Y398455D01*
X305828Y398352D01*
X305875Y398099D01*
X305947Y397820D01*
X306036Y397573D01*
X306142Y397356D01*
X306263Y397170D01*
X306401Y397016D01*
X306554Y396892D01*
X302333Y396908D01*
X302547Y396934D01*
X302738Y397012D01*
X302907Y397142D01*
X303054Y397326D01*
X303178Y397562D01*
X303279Y397850D01*
X303358Y398192D01*
X303402Y398499D01*
X303372Y398669D01*
X303323Y398873D01*
X303263Y399063D01*
X303192Y399239D01*
X303110Y399400D01*
X303018Y399546D01*
X302914Y399679D01*
X304523Y401320D01*
X306403Y399402D01*
D02*
G37*
G36*
X285832Y399032D02*
X285866Y398585D01*
X285922Y398192D01*
X286001Y397850D01*
X286102Y397562D01*
X286226Y397326D01*
X286373Y397142D01*
X286542Y397012D01*
X286733Y396934D01*
X286947Y396908D01*
X282726Y396892D01*
X282880Y397016D01*
X283017Y397170D01*
X283138Y397356D01*
X283244Y397573D01*
X283333Y397820D01*
X283405Y398099D01*
X283462Y398408D01*
X283503Y398749D01*
X283527Y399120D01*
X283535Y399523D01*
X285821Y399531D01*
X285832Y399032D01*
D02*
G37*
G36*
X269248Y397204D02*
X269442Y394360D01*
X269531Y393902D01*
X269637Y393547D01*
X269758Y393293D01*
X269896Y393140D01*
X270049Y393089D01*
X262111D01*
X262500Y393140D01*
X262848Y393293D01*
X263156Y393547D01*
X263422Y393902D01*
X263648Y394360D01*
X263832Y394918D01*
X263976Y395579D01*
X264078Y396341D01*
X264139Y397204D01*
X264160Y398170D01*
X269240D01*
X269248Y397204D01*
D02*
G37*
G36*
X280102Y392722D02*
X280240Y392614D01*
X280394Y392519D01*
X280563Y392437D01*
X280747Y392368D01*
X280947Y392311D01*
X281162Y392267D01*
X281392Y392235D01*
X281638Y392216D01*
X281899Y392210D01*
X281803Y389924D01*
X281542Y389918D01*
X281063Y389871D01*
X280846Y389831D01*
X280643Y389779D01*
X280455Y389715D01*
X280282Y389640D01*
X280123Y389553D01*
X279978Y389454D01*
X279849Y389344D01*
X279979Y392842D01*
X280102Y392722D01*
D02*
G37*
G36*
X316331Y386334D02*
X316308Y386551D01*
X316238Y386745D01*
X316122Y386917D01*
X315960Y387066D01*
X315752Y387191D01*
X315497Y387294D01*
X315196Y387374D01*
X314848Y387431D01*
X314455Y387466D01*
X314014Y387477D01*
Y389763D01*
X314455Y389774D01*
X314848Y389809D01*
X315196Y389866D01*
X315497Y389946D01*
X315752Y390049D01*
X315960Y390174D01*
X316122Y390323D01*
X316238Y390494D01*
X316308Y390689D01*
X316331Y390906D01*
Y386334D01*
D02*
G37*
G36*
X268645Y388641D02*
X268828Y387820D01*
X268903Y387589D01*
X268984Y387380D01*
X269073Y387192D01*
X269168Y387026D01*
X269270Y386881D01*
X269379Y386758D01*
X267942Y385322D01*
X267819Y385430D01*
X267674Y385532D01*
X267508Y385627D01*
X267320Y385716D01*
X267111Y385797D01*
X266880Y385872D01*
X266354Y386001D01*
X266059Y386055D01*
X265742Y386103D01*
X268597Y388958D01*
X268645Y388641D01*
D02*
G37*
G36*
X283117Y384927D02*
X283069Y384945D01*
X282983Y384962D01*
X282859Y384976D01*
X282499Y385000D01*
X280939Y385024D01*
Y387056D01*
X283117Y387153D01*
Y384927D01*
D02*
G37*
G36*
X270070Y387879D02*
X270131Y387706D01*
X270232Y387554D01*
X270375Y387422D01*
X270557Y387310D01*
X270781Y387219D01*
X271045Y387147D01*
X271350Y387097D01*
X271695Y387066D01*
X272082Y387056D01*
Y385024D01*
X271695Y385015D01*
X271350Y384989D01*
X271045Y384945D01*
X270781Y384884D01*
X270557Y384806D01*
X270375Y384710D01*
X270232Y384596D01*
X270131Y384465D01*
X270070Y384316D01*
X270049Y384151D01*
Y388072D01*
X270070Y387879D01*
D02*
G37*
G36*
X334809Y379358D02*
X334614Y379289D01*
X334443Y379175D01*
X334295Y379015D01*
X334169Y378809D01*
X334066Y378558D01*
X333986Y378260D01*
X333929Y377917D01*
X333894Y377529D01*
X333883Y377094D01*
X331597D01*
X331586Y377529D01*
X331551Y377917D01*
X331494Y378260D01*
X331414Y378558D01*
X331311Y378809D01*
X331185Y379015D01*
X331037Y379175D01*
X330866Y379289D01*
X330671Y379358D01*
X330454Y379380D01*
X335026D01*
X334809Y379358D01*
D02*
G37*
G36*
X316331Y376254D02*
X316308Y376471D01*
X316238Y376665D01*
X316122Y376837D01*
X315960Y376986D01*
X315752Y377111D01*
X315497Y377214D01*
X315196Y377294D01*
X314848Y377351D01*
X314455Y377386D01*
X314014Y377397D01*
Y379683D01*
X314455Y379694D01*
X314848Y379729D01*
X315196Y379786D01*
X315497Y379866D01*
X315752Y379969D01*
X315960Y380094D01*
X316122Y380243D01*
X316238Y380415D01*
X316308Y380609D01*
X316331Y380826D01*
Y376254D01*
D02*
G37*
G36*
X270042Y378109D02*
X270112Y377915D01*
X270228Y377743D01*
X270390Y377594D01*
X270598Y377469D01*
X270853Y377366D01*
X271154Y377286D01*
X271502Y377229D01*
X271895Y377194D01*
X272335Y377183D01*
Y374897D01*
X271895Y374886D01*
X271502Y374851D01*
X271154Y374794D01*
X270853Y374714D01*
X270598Y374611D01*
X270390Y374486D01*
X270228Y374337D01*
X270112Y374165D01*
X270042Y373971D01*
X270019Y373754D01*
Y378326D01*
X270042Y378109D01*
D02*
G37*
G36*
X333894Y373041D02*
X333929Y372653D01*
X333986Y372310D01*
X334066Y372012D01*
X334169Y371761D01*
X334295Y371555D01*
X334443Y371395D01*
X334614Y371281D01*
X334809Y371212D01*
X335026Y371189D01*
X330454D01*
X330671Y371212D01*
X330866Y371281D01*
X331037Y371395D01*
X331185Y371555D01*
X331311Y371761D01*
X331414Y372012D01*
X331494Y372310D01*
X331551Y372653D01*
X331586Y373041D01*
X331597Y373475D01*
X333883D01*
X333894Y373041D01*
D02*
G37*
G36*
X330301Y365974D02*
X330278Y366191D01*
X330208Y366385D01*
X330093Y366557D01*
X329930Y366706D01*
X329722Y366831D01*
X329467Y366934D01*
X329166Y367014D01*
X328818Y367071D01*
X328468Y367102D01*
X328083Y367063D01*
X327867Y367022D01*
X327665Y366968D01*
X327478Y366903D01*
X327305Y366825D01*
X327148Y366736D01*
X327005Y366635D01*
X326877Y366522D01*
X326933Y370021D01*
X327058Y369904D01*
X327198Y369799D01*
X327353Y369706D01*
X327524Y369626D01*
X327709Y369558D01*
X327910Y369502D01*
X328125Y369459D01*
X328356Y369428D01*
X328475Y369419D01*
X328818Y369449D01*
X329166Y369506D01*
X329467Y369586D01*
X329722Y369689D01*
X329930Y369814D01*
X330093Y369963D01*
X330208Y370135D01*
X330278Y370329D01*
X330301Y370546D01*
Y365974D01*
D02*
G37*
G36*
X308423Y369898D02*
X306870Y368218D01*
X306444Y368628D01*
X305661Y369285D01*
X305303Y369531D01*
X304969Y369723D01*
X304657Y369861D01*
X304368Y369944D01*
X304101Y369972D01*
X303858Y369946D01*
X303637Y369865D01*
X306815Y371501D01*
X308423Y369898D01*
D02*
G37*
G36*
X293890Y415330D02*
X295390D01*
X295950Y415562D01*
X298655Y415130D01*
X300279Y413705D01*
X300900Y412699D01*
X300957Y412405D01*
X301001Y412135D01*
X301029Y411810D01*
X301030Y411768D01*
X301030Y409670D01*
Y406318D01*
X300964Y406196D01*
X300969Y406082D01*
X300956Y406050D01*
X301030Y404750D01*
Y400570D01*
X301338Y398102D01*
X301253Y397758D01*
X301241Y397717D01*
X300768Y397009D01*
X300768Y397009D01*
X300575Y396040D01*
X300768Y395071D01*
X300768Y395071D01*
X301317Y394250D01*
X301317Y392830D01*
X300768Y392009D01*
Y392009D01*
X300575Y391040D01*
X300575Y391040D01*
X300768Y390071D01*
X300768Y390071D01*
X301317Y389250D01*
X301317Y387830D01*
X300768Y387009D01*
X300768Y387009D01*
X300575Y386040D01*
X300575Y386040D01*
X300768Y385071D01*
Y385071D01*
X301317Y384250D01*
Y382830D01*
X300768Y382009D01*
Y382009D01*
X300575Y381040D01*
X300575Y381040D01*
X300768Y380071D01*
X300768Y380071D01*
X301317Y379250D01*
X301317Y377830D01*
X300768Y377009D01*
X300768Y377009D01*
X300575Y376040D01*
X300575Y376040D01*
X300768Y375071D01*
Y375071D01*
X301317Y374250D01*
Y372848D01*
X301317Y372830D01*
X300768Y372009D01*
X300575Y371040D01*
X300575Y371040D01*
X300768Y370071D01*
X300768Y370071D01*
X300768Y370071D01*
X301317Y369250D01*
X301317Y369250D01*
X301317Y369250D01*
X301529Y369108D01*
X302757Y366175D01*
X303052Y364968D01*
X303030Y363530D01*
X302926Y363359D01*
X301468Y361926D01*
X301341Y361910D01*
X300100D01*
Y361910D01*
X291560Y361910D01*
X289684Y362505D01*
X288470Y364239D01*
X287963Y369250D01*
X288512Y370071D01*
X288512Y370071D01*
X288705Y371040D01*
X288512Y372009D01*
X287963Y372830D01*
Y374250D01*
X288512Y375071D01*
X288512Y375071D01*
X288705Y376040D01*
X288705Y376040D01*
X288512Y377009D01*
X288512Y377009D01*
X288512Y377009D01*
X287963Y377830D01*
Y377830D01*
X287142Y378378D01*
X287142Y378378D01*
X286174Y378571D01*
Y383509D01*
X287142Y383702D01*
X287142Y383702D01*
X287963Y384250D01*
Y384250D01*
X288512Y385071D01*
X288512Y385071D01*
X288512Y385071D01*
X288705Y386040D01*
X288705Y386040D01*
X288512Y387009D01*
X288512Y387009D01*
X287963Y387830D01*
X287963Y389250D01*
X288512Y390071D01*
X288512Y390071D01*
X288705Y391040D01*
X288705Y391040D01*
X288512Y392009D01*
Y392009D01*
X287963Y392830D01*
Y394250D01*
X288512Y395071D01*
X288512Y395071D01*
X288705Y396040D01*
X288705Y396040D01*
X288512Y397009D01*
X288512Y397009D01*
X287227Y399500D01*
X287211Y401676D01*
X287226Y403793D01*
X287462Y404276D01*
X288250Y404750D01*
X288324Y406041D01*
X288311Y406074D01*
X288316Y406196D01*
X288250Y406318D01*
X288250Y411768D01*
X288251Y411810D01*
X288279Y412135D01*
X288323Y412405D01*
X288379Y412699D01*
X289001Y413704D01*
X290625Y415130D01*
X293330Y415562D01*
X293890Y415330D01*
D02*
G37*
G36*
X309844Y362455D02*
X309879Y362062D01*
X309936Y361714D01*
X310016Y361413D01*
X310119Y361158D01*
X310245Y360950D01*
X310393Y360788D01*
X310564Y360672D01*
X310759Y360602D01*
X310976Y360579D01*
X306404D01*
X306621Y360602D01*
X306815Y360672D01*
X306987Y360788D01*
X307136Y360950D01*
X307261Y361158D01*
X307364Y361413D01*
X307444Y361714D01*
X307501Y362062D01*
X307536Y362455D01*
X307547Y362896D01*
X309833D01*
X309844Y362455D01*
D02*
G37*
G36*
X305721Y355854D02*
X305698Y356071D01*
X305629Y356265D01*
X305515Y356437D01*
X305355Y356586D01*
X305149Y356711D01*
X304897Y356814D01*
X304600Y356894D01*
X304257Y356951D01*
X303869Y356986D01*
X303435Y356997D01*
Y359283D01*
X303869Y359294D01*
X304257Y359329D01*
X304600Y359386D01*
X304897Y359466D01*
X305149Y359569D01*
X305355Y359695D01*
X305515Y359843D01*
X305629Y360014D01*
X305698Y360209D01*
X305721Y360426D01*
Y355854D01*
D02*
G37*
G36*
X298792Y360209D02*
X298862Y360014D01*
X298978Y359843D01*
X299140Y359695D01*
X299348Y359569D01*
X299603Y359466D01*
X299904Y359386D01*
X300252Y359329D01*
X300645Y359294D01*
X301085Y359283D01*
Y356997D01*
X300645Y356986D01*
X300252Y356951D01*
X299904Y356894D01*
X299603Y356814D01*
X299348Y356711D01*
X299140Y356586D01*
X298978Y356437D01*
X298862Y356265D01*
X298792Y356071D01*
X298769Y355854D01*
Y360426D01*
X298792Y360209D01*
D02*
G37*
G36*
X381539Y391891D02*
X386120Y387310D01*
X391699D01*
Y381731D01*
X370384D01*
X368340Y383775D01*
Y385846D01*
X375540Y393046D01*
Y397470D01*
X381539D01*
Y391891D01*
D02*
G37*
G36*
X391699Y349290D02*
X386120D01*
X381539Y344710D01*
Y339130D01*
X375540D01*
Y343554D01*
X368340Y350754D01*
Y352825D01*
X370384Y354869D01*
X391699D01*
Y349290D01*
D02*
G37*
G36*
X147695Y312122D02*
X147771Y311918D01*
X147898Y311738D01*
X148076Y311582D01*
X148305Y311450D01*
X148584Y311342D01*
X148914Y311258D01*
X149295Y311198D01*
X149727Y311162D01*
X150210Y311150D01*
Y308610D01*
X149727Y308598D01*
X149295Y308562D01*
X148914Y308502D01*
X148584Y308418D01*
X148305Y308310D01*
X148076Y308178D01*
X147898Y308022D01*
X147771Y307842D01*
X147695Y307638D01*
X147669Y307411D01*
Y312349D01*
X147695Y312122D01*
D02*
G37*
G36*
X131730Y307411D02*
X131705Y307638D01*
X131629Y307842D01*
X131502Y308022D01*
X131324Y308178D01*
X131096Y308310D01*
X130816Y308418D01*
X130486Y308502D01*
X130105Y308562D01*
X129673Y308598D01*
X129191Y308610D01*
Y311150D01*
X129673Y311162D01*
X130105Y311198D01*
X130486Y311258D01*
X130816Y311342D01*
X131096Y311450D01*
X131324Y311582D01*
X131502Y311738D01*
X131629Y311918D01*
X131705Y312122D01*
X131730Y312349D01*
Y307411D01*
D02*
G37*
G36*
X116717Y312179D02*
X116794Y311963D01*
X116923Y311772D01*
X117102Y311607D01*
X117334Y311467D01*
X117617Y311353D01*
X117951Y311264D01*
X118336Y311201D01*
X118773Y311163D01*
X119262Y311150D01*
Y308610D01*
X118773Y308597D01*
X118336Y308559D01*
X117951Y308496D01*
X117617Y308407D01*
X117334Y308293D01*
X117102Y308153D01*
X116923Y307988D01*
X116794Y307797D01*
X116717Y307581D01*
X116691Y307340D01*
Y312420D01*
X116717Y312179D01*
D02*
G37*
G36*
X91128Y305801D02*
X91048Y305580D01*
X91033Y305330D01*
X91083Y305051D01*
X91197Y304742D01*
X91376Y304403D01*
X91620Y304036D01*
X91928Y303639D01*
X92301Y303213D01*
X92739Y302757D01*
X90943Y300961D01*
X90487Y301399D01*
X89664Y302080D01*
X89297Y302324D01*
X88958Y302503D01*
X88650Y302617D01*
X88370Y302667D01*
X88120Y302652D01*
X87899Y302572D01*
X87707Y302427D01*
X91273Y305993D01*
X91128Y305801D01*
D02*
G37*
G36*
X147695Y299422D02*
X147771Y299218D01*
X147898Y299038D01*
X148076Y298882D01*
X148305Y298750D01*
X148584Y298642D01*
X148914Y298558D01*
X149295Y298498D01*
X149727Y298462D01*
X150210Y298450D01*
Y295910D01*
X149727Y295898D01*
X149295Y295862D01*
X148914Y295802D01*
X148584Y295718D01*
X148305Y295610D01*
X148076Y295478D01*
X147898Y295322D01*
X147771Y295142D01*
X147695Y294938D01*
X147669Y294711D01*
Y299650D01*
X147695Y299422D01*
D02*
G37*
G36*
X131730Y294711D02*
X131705Y294938D01*
X131629Y295142D01*
X131502Y295322D01*
X131324Y295478D01*
X131096Y295610D01*
X130816Y295718D01*
X130486Y295802D01*
X130105Y295862D01*
X129673Y295898D01*
X129191Y295910D01*
Y298450D01*
X129673Y298462D01*
X130105Y298498D01*
X130486Y298558D01*
X130816Y298642D01*
X131096Y298750D01*
X131324Y298882D01*
X131502Y299038D01*
X131629Y299218D01*
X131705Y299422D01*
X131730Y299650D01*
Y294711D01*
D02*
G37*
G36*
X147695Y286722D02*
X147771Y286518D01*
X147898Y286338D01*
X148076Y286182D01*
X148305Y286050D01*
X148584Y285942D01*
X148914Y285858D01*
X149295Y285798D01*
X149727Y285762D01*
X150210Y285750D01*
Y283210D01*
X149727Y283198D01*
X149295Y283162D01*
X148914Y283102D01*
X148584Y283018D01*
X148305Y282910D01*
X148076Y282778D01*
X147898Y282622D01*
X147771Y282442D01*
X147695Y282238D01*
X147669Y282010D01*
Y286950D01*
X147695Y286722D01*
D02*
G37*
G36*
X131730Y282010D02*
X131705Y282238D01*
X131629Y282442D01*
X131502Y282622D01*
X131324Y282778D01*
X131096Y282910D01*
X130816Y283018D01*
X130486Y283102D01*
X130105Y283162D01*
X129673Y283198D01*
X129191Y283210D01*
Y285750D01*
X129673Y285762D01*
X130105Y285798D01*
X130486Y285858D01*
X130816Y285942D01*
X131096Y286050D01*
X131324Y286182D01*
X131502Y286338D01*
X131629Y286518D01*
X131705Y286722D01*
X131730Y286950D01*
Y282010D01*
D02*
G37*
G36*
X116717Y286779D02*
X116794Y286563D01*
X116923Y286372D01*
X117102Y286207D01*
X117334Y286068D01*
X117617Y285953D01*
X117951Y285864D01*
X118336Y285801D01*
X118773Y285763D01*
X119262Y285750D01*
Y283210D01*
X118773Y283197D01*
X118336Y283159D01*
X117951Y283096D01*
X117617Y283007D01*
X117334Y282892D01*
X117102Y282753D01*
X116923Y282588D01*
X116794Y282397D01*
X116717Y282181D01*
X116691Y281940D01*
Y287020D01*
X116717Y286779D01*
D02*
G37*
G36*
X91128Y280401D02*
X91048Y280180D01*
X91033Y279930D01*
X91083Y279650D01*
X91197Y279342D01*
X91376Y279003D01*
X91620Y278636D01*
X91928Y278239D01*
X92301Y277813D01*
X92739Y277357D01*
X90943Y275561D01*
X90487Y275999D01*
X89664Y276680D01*
X89297Y276924D01*
X88958Y277103D01*
X88650Y277217D01*
X88370Y277267D01*
X88120Y277252D01*
X87899Y277172D01*
X87707Y277027D01*
X91273Y280593D01*
X91128Y280401D01*
D02*
G37*
G36*
X381539Y282671D02*
X386120Y278090D01*
X391699D01*
Y272511D01*
X370384D01*
X368340Y274555D01*
Y276626D01*
X375540Y283826D01*
Y288250D01*
X381539D01*
Y282671D01*
D02*
G37*
G36*
X147695Y274022D02*
X147771Y273818D01*
X147898Y273638D01*
X148076Y273482D01*
X148305Y273350D01*
X148584Y273242D01*
X148914Y273158D01*
X149295Y273098D01*
X149727Y273062D01*
X150210Y273050D01*
Y270510D01*
X149727Y270498D01*
X149295Y270462D01*
X148914Y270402D01*
X148584Y270318D01*
X148305Y270210D01*
X148076Y270078D01*
X147898Y269922D01*
X147771Y269742D01*
X147695Y269538D01*
X147669Y269310D01*
Y274249D01*
X147695Y274022D01*
D02*
G37*
G36*
X131730Y269310D02*
X131705Y269538D01*
X131629Y269742D01*
X131502Y269922D01*
X131324Y270078D01*
X131096Y270210D01*
X130816Y270318D01*
X130486Y270402D01*
X130105Y270462D01*
X129673Y270498D01*
X129191Y270510D01*
Y273050D01*
X129673Y273062D01*
X130105Y273098D01*
X130486Y273158D01*
X130816Y273242D01*
X131096Y273350D01*
X131324Y273482D01*
X131502Y273638D01*
X131629Y273818D01*
X131705Y274022D01*
X131730Y274249D01*
Y269310D01*
D02*
G37*
G36*
X300184Y263611D02*
X300108Y263488D01*
X300040Y263346D01*
X299982Y263186D01*
X299932Y263008D01*
X299892Y262811D01*
X299860Y262596D01*
X299825Y262110D01*
X299820Y261839D01*
X297280Y261721D01*
X297275Y261991D01*
X297234Y262474D01*
X297199Y262688D01*
X297153Y262883D01*
X297097Y263059D01*
X297031Y263216D01*
X296955Y263355D01*
X296869Y263475D01*
X296773Y263576D01*
X300270Y263716D01*
X300184Y263611D01*
D02*
G37*
G36*
X329921Y264336D02*
X329904Y264221D01*
X329889Y264059D01*
X329849Y262938D01*
X329840Y261602D01*
X327300Y261456D01*
X327294Y261727D01*
X327244Y262199D01*
X327201Y262401D01*
X327145Y262579D01*
X327077Y262735D01*
X326996Y262868D01*
X326903Y262979D01*
X326798Y263066D01*
X326680Y263130D01*
X329940Y264404D01*
X329921Y264336D01*
D02*
G37*
G36*
X290460Y263098D02*
X290342Y263038D01*
X290237Y262955D01*
X290144Y262848D01*
X290063Y262719D01*
X289995Y262565D01*
X289939Y262388D01*
X289896Y262188D01*
X289865Y261964D01*
X289846Y261716D01*
X289840Y261446D01*
X287300Y261634D01*
X287248Y264480D01*
X290460Y263098D01*
D02*
G37*
G36*
X319840Y261671D02*
X317300Y261438D01*
X317294Y261709D01*
X317244Y262179D01*
X317201Y262378D01*
X317146Y262553D01*
X317078Y262704D01*
X316997Y262831D01*
X316905Y262934D01*
X316800Y263013D01*
X316682Y263067D01*
X319833Y264531D01*
X319840Y261671D01*
D02*
G37*
G36*
X147695Y261322D02*
X147771Y261118D01*
X147898Y260938D01*
X148076Y260782D01*
X148305Y260650D01*
X148584Y260542D01*
X148914Y260458D01*
X149295Y260398D01*
X149727Y260362D01*
X150210Y260350D01*
Y257810D01*
X149727Y257798D01*
X149295Y257762D01*
X148914Y257702D01*
X148584Y257618D01*
X148305Y257510D01*
X148076Y257378D01*
X147898Y257222D01*
X147771Y257042D01*
X147695Y256838D01*
X147669Y256611D01*
Y261549D01*
X147695Y261322D01*
D02*
G37*
G36*
X131730Y256611D02*
X131705Y256838D01*
X131629Y257042D01*
X131502Y257222D01*
X131324Y257378D01*
X131096Y257510D01*
X130816Y257618D01*
X130486Y257702D01*
X130105Y257762D01*
X129673Y257798D01*
X129191Y257810D01*
Y260350D01*
X129673Y260362D01*
X130105Y260398D01*
X130486Y260458D01*
X130816Y260542D01*
X131096Y260650D01*
X131324Y260782D01*
X131502Y260938D01*
X131629Y261118D01*
X131705Y261322D01*
X131730Y261549D01*
Y256611D01*
D02*
G37*
G36*
X116717Y261379D02*
X116794Y261163D01*
X116923Y260972D01*
X117102Y260807D01*
X117334Y260667D01*
X117617Y260553D01*
X117951Y260464D01*
X118336Y260401D01*
X118773Y260363D01*
X119262Y260350D01*
Y257810D01*
X118773Y257797D01*
X118336Y257759D01*
X117951Y257696D01*
X117617Y257607D01*
X117334Y257493D01*
X117102Y257353D01*
X116923Y257188D01*
X116794Y256997D01*
X116717Y256781D01*
X116691Y256540D01*
Y261620D01*
X116717Y261379D01*
D02*
G37*
G36*
X91128Y255001D02*
X91048Y254780D01*
X91033Y254530D01*
X91083Y254251D01*
X91197Y253942D01*
X91376Y253603D01*
X91620Y253236D01*
X91928Y252839D01*
X92301Y252413D01*
X92739Y251957D01*
X90943Y250161D01*
X90487Y250599D01*
X89664Y251280D01*
X89297Y251524D01*
X88958Y251703D01*
X88650Y251817D01*
X88370Y251867D01*
X88120Y251852D01*
X87899Y251772D01*
X87707Y251627D01*
X91273Y255193D01*
X91128Y255001D01*
D02*
G37*
G36*
X324853Y249691D02*
X324891Y249254D01*
X324954Y248869D01*
X325043Y248534D01*
X325158Y248252D01*
X325297Y248020D01*
X325462Y247840D01*
X325653Y247712D01*
X325869Y247635D01*
X326110Y247609D01*
X321030D01*
X321271Y247635D01*
X321487Y247712D01*
X321678Y247840D01*
X321843Y248020D01*
X321982Y248252D01*
X322097Y248534D01*
X322186Y248869D01*
X322249Y249254D01*
X322287Y249691D01*
X322300Y250180D01*
X324840D01*
X324853Y249691D01*
D02*
G37*
G36*
X314853D02*
X314891Y249254D01*
X314954Y248869D01*
X315043Y248534D01*
X315158Y248252D01*
X315297Y248020D01*
X315462Y247840D01*
X315653Y247712D01*
X315869Y247635D01*
X316110Y247609D01*
X311030D01*
X311271Y247635D01*
X311487Y247712D01*
X311678Y247840D01*
X311843Y248020D01*
X311982Y248252D01*
X312097Y248534D01*
X312186Y248869D01*
X312249Y249254D01*
X312287Y249691D01*
X312300Y250180D01*
X314840D01*
X314853Y249691D01*
D02*
G37*
G36*
X147695Y248622D02*
X147771Y248418D01*
X147898Y248238D01*
X148076Y248082D01*
X148305Y247950D01*
X148584Y247842D01*
X148914Y247758D01*
X149295Y247698D01*
X149727Y247662D01*
X150210Y247650D01*
Y245110D01*
X149727Y245098D01*
X149295Y245062D01*
X148914Y245002D01*
X148584Y244918D01*
X148305Y244810D01*
X148076Y244678D01*
X147898Y244522D01*
X147771Y244342D01*
X147695Y244138D01*
X147669Y243911D01*
Y248850D01*
X147695Y248622D01*
D02*
G37*
G36*
X131730Y243911D02*
X131705Y244138D01*
X131629Y244342D01*
X131502Y244522D01*
X131324Y244678D01*
X131096Y244810D01*
X130816Y244918D01*
X130486Y245002D01*
X130105Y245062D01*
X129673Y245098D01*
X129191Y245110D01*
Y247650D01*
X129673Y247662D01*
X130105Y247698D01*
X130486Y247758D01*
X130816Y247842D01*
X131096Y247950D01*
X131324Y248082D01*
X131502Y248238D01*
X131629Y248418D01*
X131705Y248622D01*
X131730Y248850D01*
Y243911D01*
D02*
G37*
G36*
X275631Y242130D02*
X275605Y242371D01*
X275528Y242587D01*
X275400Y242778D01*
X275220Y242943D01*
X274988Y243083D01*
X274706Y243197D01*
X274371Y243286D01*
X273986Y243349D01*
X273549Y243387D01*
X273060Y243400D01*
Y245940D01*
X273549Y245953D01*
X273986Y245991D01*
X274371Y246054D01*
X274706Y246143D01*
X274988Y246257D01*
X275220Y246397D01*
X275400Y246562D01*
X275528Y246753D01*
X275605Y246969D01*
X275631Y247210D01*
Y242130D01*
D02*
G37*
G36*
X353591Y239585D02*
X354273Y238993D01*
X354417Y238890D01*
X354551Y238804D01*
X354674Y238737D01*
X354787Y238688D01*
X354890Y238657D01*
X351905Y236828D01*
X351927Y236967D01*
X351927Y237111D01*
X351903Y237262D01*
X351855Y237420D01*
X351785Y237583D01*
X351691Y237753D01*
X351574Y237929D01*
X351434Y238112D01*
X351271Y238300D01*
X351084Y238495D01*
X353394Y239778D01*
X353591Y239585D01*
D02*
G37*
G36*
X324846Y239930D02*
X324889Y239465D01*
X324927Y239273D01*
X324977Y239110D01*
X325037Y238974D01*
X325108Y238865D01*
X325190Y238784D01*
X325282Y238731D01*
X325386Y238706D01*
X322683Y236780D01*
X322300Y239681D01*
X324840Y240204D01*
X324846Y239930D01*
D02*
G37*
G36*
X327631Y236382D02*
X327684Y236290D01*
X327765Y236208D01*
X327874Y236137D01*
X328010Y236077D01*
X328173Y236027D01*
X328365Y235989D01*
X328583Y235962D01*
X328830Y235945D01*
X329104Y235940D01*
X328582Y233400D01*
X325680Y233783D01*
X327606Y236486D01*
X327631Y236382D01*
D02*
G37*
G36*
X366469Y255979D02*
X367309Y255417D01*
X368300Y255220D01*
X369918D01*
X374070Y250697D01*
X373847Y248526D01*
X370384Y247024D01*
X370384Y247024D01*
X370099Y246906D01*
X370099Y246906D01*
X369412Y246621D01*
X369412Y246621D01*
X368121Y245330D01*
X368100Y245309D01*
Y245309D01*
X368046Y245255D01*
Y245255D01*
X367368Y244577D01*
X367368Y244577D01*
Y244577D01*
X366965Y243605D01*
X366965Y243604D01*
X366965Y243360D01*
Y241534D01*
X367368Y240562D01*
X367368Y240562D01*
X367368D01*
X368252Y237994D01*
X365116Y233212D01*
X362663D01*
X358100Y235470D01*
X358100Y236970D01*
X357526Y238356D01*
X356879Y241300D01*
X357465Y243966D01*
X357608Y244442D01*
X358100Y245630D01*
X358100Y247130D01*
X358100Y247130D01*
X357526Y248516D01*
X357526Y248516D01*
X356465Y249576D01*
X355080Y250150D01*
X355080Y250150D01*
X355080Y250150D01*
X353580Y250150D01*
X353580Y250150D01*
X353060Y249935D01*
X349813Y251254D01*
X347980Y252546D01*
Y259080D01*
X351166Y262840D01*
X359607D01*
X366469Y255979D01*
D02*
G37*
G36*
X336565Y236969D02*
X336641Y236753D01*
X336768Y236562D01*
X336946Y236397D01*
X337174Y236257D01*
X337454Y236143D01*
X337784Y236054D01*
X338165Y235991D01*
X338597Y235953D01*
X339080Y235940D01*
Y233400D01*
X338597Y233387D01*
X338165Y233349D01*
X337784Y233286D01*
X337454Y233197D01*
X337174Y233083D01*
X336946Y232943D01*
X336768Y232778D01*
X336641Y232587D01*
X336565Y232371D01*
X336539Y232130D01*
Y237210D01*
X336565Y236969D01*
D02*
G37*
G36*
X147695Y235922D02*
X147771Y235718D01*
X147898Y235538D01*
X148076Y235382D01*
X148305Y235250D01*
X148584Y235142D01*
X148914Y235058D01*
X149295Y234998D01*
X149727Y234962D01*
X150210Y234950D01*
Y232410D01*
X149727Y232398D01*
X149295Y232362D01*
X148914Y232302D01*
X148584Y232218D01*
X148305Y232110D01*
X148076Y231978D01*
X147898Y231822D01*
X147771Y231642D01*
X147695Y231438D01*
X147669Y231210D01*
Y236150D01*
X147695Y235922D01*
D02*
G37*
G36*
X131730Y231210D02*
X131705Y231438D01*
X131629Y231642D01*
X131502Y231822D01*
X131324Y231978D01*
X131096Y232110D01*
X130816Y232218D01*
X130486Y232302D01*
X130105Y232362D01*
X129673Y232398D01*
X129191Y232410D01*
Y234950D01*
X129673Y234962D01*
X130105Y234998D01*
X130486Y235058D01*
X130816Y235142D01*
X131096Y235250D01*
X131324Y235382D01*
X131502Y235538D01*
X131629Y235718D01*
X131705Y235922D01*
X131730Y236150D01*
Y231210D01*
D02*
G37*
G36*
X116717Y235979D02*
X116794Y235763D01*
X116923Y235572D01*
X117102Y235407D01*
X117334Y235268D01*
X117617Y235153D01*
X117951Y235064D01*
X118336Y235001D01*
X118773Y234963D01*
X119262Y234950D01*
Y232410D01*
X118773Y232397D01*
X118336Y232359D01*
X117951Y232296D01*
X117617Y232207D01*
X117334Y232092D01*
X117102Y231953D01*
X116923Y231788D01*
X116794Y231597D01*
X116717Y231381D01*
X116691Y231140D01*
Y236220D01*
X116717Y235979D01*
D02*
G37*
G36*
X391699Y240070D02*
X386120D01*
X381539Y235490D01*
Y229910D01*
X375540D01*
Y234334D01*
X368340Y241534D01*
Y243605D01*
X370384Y245649D01*
X391699D01*
Y240070D01*
D02*
G37*
G36*
X314840Y238347D02*
X314772Y237066D01*
X313966Y236220D01*
X314772Y235374D01*
X314840Y234093D01*
X313417Y233045D01*
X314840Y231997D01*
X314772Y230716D01*
X313966Y229870D01*
X314772Y229024D01*
X314840Y227743D01*
X312300Y225873D01*
X312294Y226144D01*
X312276Y226391D01*
X312245Y226614D01*
X312202Y226811D01*
X312147Y226984D01*
X312080Y227132D01*
X312000Y227256D01*
X311908Y227355D01*
X311804Y227430D01*
X311687Y227480D01*
X313966Y229870D01*
X311687Y232260D01*
X311804Y232310D01*
X311908Y232385D01*
X312000Y232484D01*
X312080Y232607D01*
X312147Y232756D01*
X312202Y232929D01*
X312227Y233045D01*
X312202Y233161D01*
X312147Y233334D01*
X312080Y233482D01*
X312000Y233606D01*
X311908Y233705D01*
X311804Y233780D01*
X311687Y233830D01*
X313966Y236220D01*
X311687Y238610D01*
X311804Y238660D01*
X311908Y238735D01*
X312000Y238834D01*
X312080Y238958D01*
X312147Y239106D01*
X312202Y239279D01*
X312245Y239477D01*
X312276Y239699D01*
X312294Y239946D01*
X312300Y240217D01*
X314840Y238347D01*
D02*
G37*
G36*
X91128Y229601D02*
X91048Y229380D01*
X91033Y229130D01*
X91083Y228850D01*
X91197Y228542D01*
X91376Y228203D01*
X91620Y227836D01*
X91928Y227439D01*
X92301Y227013D01*
X92739Y226557D01*
X90943Y224761D01*
X90487Y225199D01*
X89664Y225880D01*
X89297Y226124D01*
X88958Y226303D01*
X88650Y226417D01*
X88370Y226467D01*
X88120Y226452D01*
X87899Y226372D01*
X87707Y226227D01*
X91273Y229793D01*
X91128Y229601D01*
D02*
G37*
G36*
X360000Y223654D02*
X357102Y223400D01*
X356683Y225940D01*
X356956Y225946D01*
X357422Y225992D01*
X357616Y226033D01*
X357783Y226085D01*
X357924Y226150D01*
X358038Y226225D01*
X358126Y226312D01*
X358188Y226411D01*
X358223Y226522D01*
X360000Y223654D01*
D02*
G37*
G36*
X147695Y223222D02*
X147771Y223018D01*
X147898Y222838D01*
X148076Y222682D01*
X148305Y222550D01*
X148584Y222442D01*
X148914Y222358D01*
X149295Y222298D01*
X149727Y222262D01*
X150210Y222250D01*
Y219710D01*
X149727Y219698D01*
X149295Y219662D01*
X148914Y219602D01*
X148584Y219518D01*
X148305Y219410D01*
X148076Y219278D01*
X147898Y219122D01*
X147771Y218942D01*
X147695Y218738D01*
X147669Y218510D01*
Y223449D01*
X147695Y223222D01*
D02*
G37*
G36*
X131730Y218510D02*
X131705Y218738D01*
X131629Y218942D01*
X131502Y219122D01*
X131324Y219278D01*
X131096Y219410D01*
X130816Y219518D01*
X130486Y219602D01*
X130105Y219662D01*
X129673Y219698D01*
X129191Y219710D01*
Y222250D01*
X129673Y222262D01*
X130105Y222298D01*
X130486Y222358D01*
X130816Y222442D01*
X131096Y222550D01*
X131324Y222682D01*
X131502Y222838D01*
X131629Y223018D01*
X131705Y223222D01*
X131730Y223449D01*
Y218510D01*
D02*
G37*
G36*
X259712Y221353D02*
X259834Y221271D01*
X259974Y221198D01*
X260133Y221135D01*
X260310Y221081D01*
X260506Y221038D01*
X260720Y221004D01*
X260953Y220979D01*
X261475Y220960D01*
X261451Y218420D01*
X261181Y218415D01*
X260696Y218377D01*
X260481Y218344D01*
X260285Y218301D01*
X260107Y218249D01*
X259948Y218188D01*
X259807Y218116D01*
X259685Y218036D01*
X259581Y217946D01*
X259609Y221446D01*
X259712Y221353D01*
D02*
G37*
G36*
X359887Y220811D02*
X358265Y217795D01*
X358220Y217910D01*
X358150Y218013D01*
X358054Y218104D01*
X357934Y218182D01*
X357788Y218249D01*
X357617Y218303D01*
X357421Y218346D01*
X357199Y218376D01*
X356952Y218394D01*
X356680Y218400D01*
X357004Y220940D01*
X359887Y220811D01*
D02*
G37*
G36*
X353593Y215749D02*
X351892Y212805D01*
X351852Y212918D01*
X351786Y213019D01*
X351695Y213109D01*
X351577Y213186D01*
X351434Y213251D01*
X351265Y213305D01*
X351070Y213347D01*
X350849Y213376D01*
X350603Y213394D01*
X350330Y213400D01*
X350701Y215940D01*
X353593Y215749D01*
D02*
G37*
G36*
X327560Y211436D02*
X327635Y211332D01*
X327734Y211240D01*
X327858Y211161D01*
X328006Y211093D01*
X328179Y211038D01*
X328377Y210995D01*
X328599Y210965D01*
X328846Y210946D01*
X329117Y210940D01*
X327247Y208400D01*
X325966Y208468D01*
X327510Y211553D01*
X327560Y211436D01*
D02*
G37*
G36*
X336565Y211969D02*
X336641Y211753D01*
X336768Y211562D01*
X336946Y211397D01*
X337174Y211257D01*
X337454Y211143D01*
X337784Y211054D01*
X338165Y210991D01*
X338597Y210953D01*
X339080Y210940D01*
Y208400D01*
X338597Y208387D01*
X338165Y208349D01*
X337784Y208286D01*
X337454Y208197D01*
X337174Y208083D01*
X336946Y207943D01*
X336768Y207778D01*
X336641Y207587D01*
X336565Y207371D01*
X336539Y207130D01*
Y212210D01*
X336565Y211969D01*
D02*
G37*
G36*
X131730Y205811D02*
X131705Y206038D01*
X131629Y206242D01*
X131502Y206422D01*
X131324Y206578D01*
X131096Y206710D01*
X130816Y206818D01*
X130486Y206902D01*
X130105Y206962D01*
X129673Y206998D01*
X129191Y207010D01*
Y209550D01*
X129673Y209562D01*
X130105Y209598D01*
X130486Y209658D01*
X130816Y209742D01*
X131096Y209850D01*
X131324Y209982D01*
X131502Y210138D01*
X131629Y210318D01*
X131705Y210522D01*
X131730Y210749D01*
Y205811D01*
D02*
G37*
G36*
X116717Y210579D02*
X116794Y210363D01*
X116923Y210172D01*
X117102Y210007D01*
X117334Y209867D01*
X117617Y209753D01*
X117951Y209664D01*
X118336Y209601D01*
X118773Y209563D01*
X119262Y209550D01*
Y207010D01*
X118773Y206997D01*
X118336Y206959D01*
X117951Y206896D01*
X117617Y206807D01*
X117334Y206693D01*
X117102Y206553D01*
X116923Y206388D01*
X116794Y206197D01*
X116717Y205981D01*
X116691Y205740D01*
Y210820D01*
X116717Y210579D01*
D02*
G37*
G36*
X299846Y208196D02*
X299895Y207726D01*
X299938Y207529D01*
X299993Y207356D01*
X300061Y207208D01*
X300140Y207084D01*
X300232Y206985D01*
X300336Y206910D01*
X300453Y206860D01*
X298174Y204470D01*
X297368Y205316D01*
X297300Y206597D01*
X299840Y208467D01*
X299846Y208196D01*
D02*
G37*
G36*
X91128Y204201D02*
X91048Y203980D01*
X91033Y203730D01*
X91083Y203451D01*
X91197Y203142D01*
X91376Y202803D01*
X91620Y202436D01*
X91928Y202039D01*
X92301Y201613D01*
X92739Y201157D01*
X90943Y199361D01*
X90487Y199799D01*
X89664Y200480D01*
X89297Y200724D01*
X88958Y200903D01*
X88650Y201017D01*
X88370Y201067D01*
X88120Y201052D01*
X87899Y200972D01*
X87707Y200827D01*
X91273Y204393D01*
X91128Y204201D01*
D02*
G37*
G36*
X300453Y202080D02*
X300336Y202030D01*
X300232Y201955D01*
X300140Y201856D01*
X300061Y201733D01*
X299993Y201584D01*
X299938Y201411D01*
X299913Y201295D01*
X299938Y201179D01*
X299993Y201006D01*
X300061Y200858D01*
X300140Y200734D01*
X300232Y200635D01*
X300336Y200560D01*
X300453Y200510D01*
X298174Y198120D01*
X297368Y198966D01*
X297300Y200247D01*
X298723Y201295D01*
X297300Y202343D01*
X297368Y203624D01*
X298174Y204470D01*
X300453Y202080D01*
D02*
G37*
G36*
X329104Y198400D02*
X328830Y198395D01*
X328365Y198351D01*
X328173Y198313D01*
X328010Y198263D01*
X327874Y198203D01*
X327765Y198132D01*
X327684Y198050D01*
X327631Y197958D01*
X327606Y197854D01*
X325680Y200557D01*
X328582Y200940D01*
X329104Y198400D01*
D02*
G37*
G36*
X336565Y201969D02*
X336641Y201753D01*
X336768Y201562D01*
X336946Y201397D01*
X337174Y201257D01*
X337454Y201143D01*
X337784Y201054D01*
X338165Y200991D01*
X338597Y200953D01*
X339080Y200940D01*
Y198400D01*
X338597Y198387D01*
X338165Y198349D01*
X337784Y198286D01*
X337454Y198197D01*
X337174Y198083D01*
X336946Y197943D01*
X336768Y197778D01*
X336641Y197587D01*
X336565Y197371D01*
X336539Y197130D01*
Y202210D01*
X336565Y201969D01*
D02*
G37*
G36*
X300453Y195730D02*
X300336Y195680D01*
X300232Y195605D01*
X300140Y195506D01*
X300061Y195382D01*
X299993Y195234D01*
X299938Y195061D01*
X299895Y194863D01*
X299846Y194394D01*
X299840Y194123D01*
X297300Y195993D01*
X297368Y197274D01*
X298174Y198120D01*
X300453Y195730D01*
D02*
G37*
G36*
X147695Y197822D02*
X147771Y197618D01*
X147898Y197438D01*
X148076Y197282D01*
X148305Y197150D01*
X148584Y197042D01*
X148914Y196958D01*
X149295Y196898D01*
X149727Y196862D01*
X150210Y196850D01*
Y194310D01*
X149727Y194298D01*
X149295Y194262D01*
X148914Y194202D01*
X148584Y194118D01*
X148305Y194010D01*
X148076Y193878D01*
X147898Y193722D01*
X147771Y193542D01*
X147695Y193338D01*
X147669Y193111D01*
Y198050D01*
X147695Y197822D01*
D02*
G37*
G36*
X131730Y193111D02*
X131705Y193338D01*
X131629Y193542D01*
X131502Y193722D01*
X131324Y193878D01*
X131096Y194010D01*
X130816Y194118D01*
X130486Y194202D01*
X130105Y194262D01*
X129673Y194298D01*
X129191Y194310D01*
Y196850D01*
X129673Y196862D01*
X130105Y196898D01*
X130486Y196958D01*
X130816Y197042D01*
X131096Y197150D01*
X131324Y197282D01*
X131502Y197438D01*
X131629Y197618D01*
X131705Y197822D01*
X131730Y198050D01*
Y193111D01*
D02*
G37*
G36*
X352323Y192819D02*
X352230Y192926D01*
X352117Y193021D01*
X351985Y193105D01*
X351833Y193178D01*
X351661Y193240D01*
X351470Y193290D01*
X351259Y193330D01*
X351029Y193358D01*
X350779Y193374D01*
X350509Y193380D01*
X350918Y195920D01*
X351190Y195924D01*
X351895Y195979D01*
X352092Y196012D01*
X352271Y196052D01*
X352431Y196100D01*
X352573Y196155D01*
X352695Y196217D01*
X352799Y196287D01*
X352323Y192819D01*
D02*
G37*
G36*
X259378Y191191D02*
X259499Y191134D01*
X259639Y191084D01*
X259798Y191041D01*
X259977Y191004D01*
X260390Y190950D01*
X260625Y190933D01*
X261152Y190920D01*
X261661Y188380D01*
X261392Y188374D01*
X260912Y188328D01*
X260702Y188288D01*
X260513Y188236D01*
X260343Y188173D01*
X260193Y188098D01*
X260064Y188012D01*
X259954Y187914D01*
X259864Y187805D01*
X259276Y191255D01*
X259378Y191191D01*
D02*
G37*
G36*
X336565Y191969D02*
X336641Y191753D01*
X336768Y191562D01*
X336946Y191397D01*
X337174Y191257D01*
X337454Y191143D01*
X337784Y191054D01*
X338165Y190991D01*
X338597Y190953D01*
X339080Y190940D01*
Y188400D01*
X338597Y188387D01*
X338165Y188349D01*
X337784Y188286D01*
X337454Y188197D01*
X337174Y188083D01*
X336946Y187943D01*
X336768Y187778D01*
X336641Y187587D01*
X336565Y187371D01*
X336539Y187130D01*
Y192210D01*
X336565Y191969D01*
D02*
G37*
G36*
X330869Y186705D02*
X330653Y186628D01*
X330462Y186500D01*
X330297Y186320D01*
X330158Y186088D01*
X330043Y185806D01*
X329954Y185471D01*
X329891Y185086D01*
X329853Y184649D01*
X329840Y184160D01*
X327300D01*
X327287Y184649D01*
X327249Y185086D01*
X327186Y185471D01*
X327097Y185806D01*
X326982Y186088D01*
X326843Y186320D01*
X326678Y186500D01*
X326487Y186628D01*
X326271Y186705D01*
X326030Y186731D01*
X331110D01*
X330869Y186705D01*
D02*
G37*
G36*
X300869D02*
X300653Y186628D01*
X300462Y186500D01*
X300297Y186320D01*
X300158Y186088D01*
X300043Y185806D01*
X299954Y185471D01*
X299891Y185086D01*
X299853Y184649D01*
X299840Y184160D01*
X297300D01*
X297287Y184649D01*
X297249Y185086D01*
X297186Y185471D01*
X297097Y185806D01*
X296982Y186088D01*
X296843Y186320D01*
X296678Y186500D01*
X296487Y186628D01*
X296271Y186705D01*
X296030Y186731D01*
X301110D01*
X300869Y186705D01*
D02*
G37*
G36*
X353152Y183215D02*
X353072Y183250D01*
X352969Y183282D01*
X352845Y183309D01*
X352699Y183333D01*
X352340Y183370D01*
X351892Y183393D01*
X351357Y183400D01*
X350385Y185940D01*
X350655Y185946D01*
X351129Y185995D01*
X351334Y186038D01*
X351516Y186094D01*
X351677Y186161D01*
X351816Y186241D01*
X351933Y186333D01*
X352029Y186437D01*
X352102Y186554D01*
X353152Y183215D01*
D02*
G37*
G36*
X147695Y185122D02*
X147771Y184918D01*
X147898Y184738D01*
X148076Y184582D01*
X148305Y184450D01*
X148584Y184342D01*
X148914Y184258D01*
X149295Y184198D01*
X149727Y184162D01*
X150210Y184150D01*
Y181610D01*
X149727Y181598D01*
X149295Y181562D01*
X148914Y181502D01*
X148584Y181418D01*
X148305Y181310D01*
X148076Y181178D01*
X147898Y181022D01*
X147771Y180842D01*
X147695Y180638D01*
X147669Y180410D01*
Y185350D01*
X147695Y185122D01*
D02*
G37*
G36*
X131730Y180410D02*
X131705Y180638D01*
X131629Y180842D01*
X131502Y181022D01*
X131324Y181178D01*
X131096Y181310D01*
X130816Y181418D01*
X130486Y181502D01*
X130105Y181562D01*
X129673Y181598D01*
X129191Y181610D01*
Y184150D01*
X129673Y184162D01*
X130105Y184198D01*
X130486Y184258D01*
X130816Y184342D01*
X131096Y184450D01*
X131324Y184582D01*
X131502Y184738D01*
X131629Y184918D01*
X131705Y185122D01*
X131730Y185350D01*
Y180410D01*
D02*
G37*
G36*
X116717Y185179D02*
X116794Y184963D01*
X116923Y184772D01*
X117102Y184607D01*
X117334Y184468D01*
X117617Y184353D01*
X117951Y184264D01*
X118336Y184201D01*
X118773Y184163D01*
X119262Y184150D01*
Y181610D01*
X118773Y181597D01*
X118336Y181559D01*
X117951Y181496D01*
X117617Y181407D01*
X117334Y181292D01*
X117102Y181153D01*
X116923Y180988D01*
X116794Y180797D01*
X116717Y180581D01*
X116691Y180340D01*
Y185420D01*
X116717Y185179D01*
D02*
G37*
G36*
X91128Y178801D02*
X91048Y178580D01*
X91033Y178330D01*
X91083Y178050D01*
X91197Y177742D01*
X91376Y177403D01*
X91620Y177036D01*
X91928Y176639D01*
X92301Y176213D01*
X92739Y175757D01*
X90943Y173961D01*
X90487Y174399D01*
X89664Y175080D01*
X89297Y175324D01*
X88958Y175503D01*
X88650Y175617D01*
X88370Y175667D01*
X88120Y175652D01*
X87899Y175572D01*
X87707Y175427D01*
X91273Y178993D01*
X91128Y178801D01*
D02*
G37*
G36*
X324840Y172706D02*
X324893Y169860D01*
X321680Y171242D01*
X321798Y171302D01*
X321903Y171385D01*
X321996Y171492D01*
X322077Y171621D01*
X322145Y171775D01*
X322201Y171952D01*
X322244Y172152D01*
X322275Y172376D01*
X322294Y172624D01*
X322300Y172894D01*
X324840Y172706D01*
D02*
G37*
G36*
X294846Y172631D02*
X294896Y172161D01*
X294939Y171962D01*
X294994Y171787D01*
X295062Y171636D01*
X295143Y171509D01*
X295235Y171406D01*
X295340Y171327D01*
X295457Y171273D01*
X292307Y169809D01*
X292300Y172669D01*
X294840Y172902D01*
X294846Y172631D01*
D02*
G37*
G36*
X304840Y172539D02*
X304649Y169647D01*
X301705Y171348D01*
X301818Y171388D01*
X301919Y171453D01*
X302008Y171545D01*
X302086Y171663D01*
X302151Y171806D01*
X302205Y171975D01*
X302246Y172170D01*
X302276Y172391D01*
X302294Y172637D01*
X302300Y172910D01*
X304840Y172539D01*
D02*
G37*
G36*
X147695Y172422D02*
X147771Y172218D01*
X147898Y172038D01*
X148076Y171882D01*
X148305Y171750D01*
X148584Y171642D01*
X148914Y171558D01*
X149295Y171498D01*
X149727Y171462D01*
X150210Y171450D01*
Y168910D01*
X149727Y168898D01*
X149295Y168862D01*
X148914Y168802D01*
X148584Y168718D01*
X148305Y168610D01*
X148076Y168478D01*
X147898Y168322D01*
X147771Y168142D01*
X147695Y167938D01*
X147669Y167710D01*
Y172649D01*
X147695Y172422D01*
D02*
G37*
G36*
X131730Y167710D02*
X131705Y167938D01*
X131629Y168142D01*
X131502Y168322D01*
X131324Y168478D01*
X131096Y168610D01*
X130816Y168718D01*
X130486Y168802D01*
X130105Y168862D01*
X129673Y168898D01*
X129191Y168910D01*
Y171450D01*
X129673Y171462D01*
X130105Y171498D01*
X130486Y171558D01*
X130816Y171642D01*
X131096Y171750D01*
X131324Y171882D01*
X131502Y172038D01*
X131629Y172218D01*
X131705Y172422D01*
X131730Y172649D01*
Y167710D01*
D02*
G37*
G36*
X284846Y167533D02*
X284896Y167061D01*
X284939Y166859D01*
X284995Y166681D01*
X285063Y166525D01*
X285144Y166392D01*
X285237Y166281D01*
X285342Y166194D01*
X285460Y166130D01*
X282200Y164856D01*
X282219Y164924D01*
X282236Y165039D01*
X282251Y165201D01*
X282291Y166322D01*
X282300Y167659D01*
X284840Y167804D01*
X284846Y167533D01*
D02*
G37*
G36*
X381539Y173451D02*
X386120Y168870D01*
X391699D01*
Y163291D01*
X370384D01*
X368340Y165335D01*
Y167406D01*
X375540Y174606D01*
Y179030D01*
X381539D01*
Y173451D01*
D02*
G37*
G36*
X292105Y163403D02*
X292143Y162918D01*
X292177Y162704D01*
X292220Y162508D01*
X292273Y162330D01*
X292335Y162171D01*
X292407Y162031D01*
X292489Y161909D01*
X292580Y161805D01*
X289080D01*
X289171Y161909D01*
X289253Y162031D01*
X289325Y162171D01*
X289387Y162330D01*
X289440Y162508D01*
X289483Y162704D01*
X289517Y162918D01*
X289541Y163151D01*
X289560Y163673D01*
X292100D01*
X292105Y163403D01*
D02*
G37*
G36*
X391699Y130850D02*
X386120D01*
X381539Y126270D01*
Y120690D01*
X375540D01*
Y125114D01*
X368340Y132314D01*
Y134385D01*
X370384Y136429D01*
X391699D01*
Y130850D01*
D02*
G37*
G36*
X381539Y64231D02*
X386120Y59650D01*
X391699D01*
Y54071D01*
X370384D01*
X368340Y56115D01*
Y58186D01*
X375540Y65386D01*
Y69810D01*
X381539D01*
Y64231D01*
D02*
G37*
G36*
X391699Y21630D02*
X386120D01*
X381539Y17049D01*
Y11470D01*
X375540D01*
Y15894D01*
X368340Y23094D01*
Y25165D01*
X370384Y27209D01*
X391699D01*
Y21630D01*
D02*
G37*
G36*
X207264Y363474D02*
X203200Y359410D01*
Y335280D01*
X200660Y332740D01*
X186690D01*
X184150Y335280D01*
Y356870D01*
X196850Y369570D01*
Y381000D01*
X207264D01*
Y363474D01*
D02*
G37*
D12*
X262327Y184356D02*
Y184670D01*
X267070D01*
X323570Y234670D02*
Y256170D01*
X313570Y224670D02*
Y256170D01*
X293570Y229670D02*
Y256170D01*
X323570Y234670D02*
X345070D01*
X325120Y209670D02*
X345070D01*
X323570Y199670D02*
X345070D01*
X318570Y178170D02*
Y204670D01*
X298570Y178170D02*
Y209670D01*
X271594Y184670D02*
X271634Y184710D01*
X273610D01*
X267070Y184670D02*
X271594D01*
X273610Y184710D02*
X276860Y187960D01*
X257830Y219690D02*
X267070D01*
X66040Y392350D02*
Y403240D01*
X255790Y249670D02*
X267070D01*
X210395Y271780D02*
X233680D01*
X255790Y249670D01*
X197136Y259080D02*
X229870D01*
X254280Y234670D01*
X267070D01*
X247850Y229670D02*
X267070D01*
X207274Y246380D02*
X231140D01*
X247850Y229670D01*
X232410Y233680D02*
X241300Y224790D01*
X259858D01*
X207679Y233680D02*
X232410D01*
X239990Y214670D02*
X267070D01*
X202656Y220980D02*
X233680D01*
X239990Y214670D01*
X144700Y220980D02*
X202656D01*
X335280Y246380D02*
X336550D01*
X339820Y249650D01*
X345050D02*
X345070Y249670D01*
X339820Y249650D02*
X345050D01*
X327660Y165100D02*
X328570Y166010D01*
Y178170D01*
X199770Y421260D02*
X205590Y415440D01*
X199390Y421640D02*
X203200D01*
X219928Y414020D02*
X227330D01*
X100330Y368300D02*
Y375000D01*
X101070D01*
X173140Y122338D02*
Y130442D01*
X171218Y132364D02*
X173140Y130442D01*
X169422Y118620D02*
X173140Y122338D01*
X165100Y116890D02*
X166830Y118620D01*
X171126Y132364D02*
X171218D01*
X167600Y135890D02*
X171126Y132364D01*
X166830Y118620D02*
X169422D01*
X165100Y135890D02*
X167600D01*
X172640Y419100D02*
X179880Y411860D01*
X180380D02*
X181610Y410630D01*
X179880Y411860D02*
X180380D01*
X175066Y407864D02*
Y411286D01*
Y407864D02*
X175260Y407670D01*
X158770Y412770D02*
X165100Y419100D01*
X172640D01*
X158770Y406950D02*
Y412770D01*
X158290Y406470D02*
X158770Y406950D01*
X181610Y410130D02*
Y410630D01*
X333240Y392350D02*
X343200D01*
X345440Y394590D01*
X212090Y351870D02*
Y360600D01*
X212010Y351790D02*
X212090Y351870D01*
Y360600D02*
X212170Y360680D01*
Y375630D01*
X212090Y364490D02*
Y376900D01*
X158710Y355640D02*
Y363180D01*
X158750Y363220D01*
X158670Y355600D02*
X158710Y355640D01*
X168750Y363220D02*
X173990D01*
X214630Y340360D02*
X220980D01*
X222170Y360680D02*
X228172D01*
X168250Y363220D02*
X168750D01*
X167020Y364450D02*
X168250Y363220D01*
X167020Y364450D02*
Y367650D01*
X164790Y369880D02*
X167020Y367650D01*
X164790Y369880D02*
Y376970D01*
X158290Y363680D02*
X158750Y363220D01*
X158290Y363680D02*
Y376970D01*
X154940Y422910D02*
X161290D01*
X171062Y415290D02*
X175066Y411286D01*
X166678Y415290D02*
X171062D01*
X164790Y413402D02*
X166678Y415290D01*
X164790Y406470D02*
Y413402D01*
X145290Y413260D02*
X152400Y420370D01*
Y416560D02*
Y420370D01*
X154940Y422910D01*
X151790Y415950D02*
X152400Y416560D01*
X151790Y406470D02*
Y415950D01*
X145290Y406470D02*
Y413260D01*
X168910Y425450D02*
Y431800D01*
X218440Y406550D02*
Y412532D01*
X219928Y414020D01*
X218440Y406550D02*
X218590Y406400D01*
X212090D02*
X212130Y406440D01*
Y420330D01*
X212170Y420370D01*
X205590Y406400D02*
Y415440D01*
X199090Y406400D02*
Y421340D01*
X388540Y213360D02*
X393700D01*
X388540D02*
X388540Y213360D01*
X295830Y33020D02*
X302260D01*
X295830Y24130D02*
X302260D01*
X278130Y50720D02*
Y55880D01*
Y-1350D02*
Y3890D01*
X278570Y126560D02*
X279400Y125730D01*
X278570Y126560D02*
Y178170D01*
X243840Y134620D02*
X260350D01*
X273570Y147840D01*
Y178170D01*
X420370Y20320D02*
Y25560D01*
X448310Y179070D02*
X454820D01*
X477520Y180180D02*
Y185420D01*
X449580Y24130D02*
X454820D01*
X477520Y13970D02*
Y19130D01*
X449580Y68580D02*
X454820D01*
X477520Y70960D02*
Y76200D01*
X464820Y68580D02*
Y73660D01*
X464610Y53180D02*
X464840Y53410D01*
X477520Y60460D02*
Y60960D01*
X470470Y53410D02*
X477520Y60460D01*
X464840Y53410D02*
X470470D01*
X466050Y67350D02*
X471630D01*
X464820Y68580D02*
X466050Y67350D01*
X471630D02*
X477520Y61460D01*
Y60960D02*
Y61460D01*
X477520Y124460D02*
Y129620D01*
X449580Y133350D02*
X454820D01*
X464820Y179070D02*
Y184150D01*
X464610Y162400D02*
X464840Y162630D01*
X477520Y169680D02*
Y170180D01*
X470470Y162630D02*
X477520Y169680D01*
X464840Y162630D02*
X470470D01*
X472480Y171910D02*
X476290D01*
X477520Y170680D01*
Y170180D02*
Y170680D01*
X464820Y179070D02*
X465320D01*
X472480Y171910D01*
X449580Y242570D02*
X454820D01*
X477520Y232410D02*
Y237650D01*
X449580Y285750D02*
X454820D01*
X477520Y288130D02*
Y293370D01*
X464820Y285750D02*
Y290830D01*
X474034Y273496D02*
Y274144D01*
X477520Y277630D02*
Y278130D01*
X474034Y274144D02*
X477520Y277630D01*
X472238Y271700D02*
X474034Y273496D01*
X464610Y271700D02*
X472238D01*
X471630Y284520D02*
X477520Y278630D01*
Y278130D02*
Y278630D01*
X464820Y285750D02*
X466050Y284520D01*
X471630D01*
X448310Y394970D02*
X454820D01*
X477520Y397350D02*
Y403860D01*
X464820Y394970D02*
Y402590D01*
X477520Y387350D02*
Y387850D01*
X464820Y394970D02*
X466050Y393740D01*
X471630D01*
X477520Y387850D01*
X464610Y380840D02*
X471510D01*
X477520Y386850D02*
Y387350D01*
X471510Y380840D02*
X477520Y386850D01*
X490220Y391080D02*
Y396240D01*
X419100Y347980D02*
Y353140D01*
X378460Y362070D02*
Y362370D01*
X379690Y363300D02*
X388620D01*
X378460Y362070D02*
X379690Y363300D01*
X378460Y361870D02*
Y362070D01*
X388620Y363300D02*
X388660Y363260D01*
X398740D02*
X398780Y363220D01*
X388660Y363260D02*
X398740D01*
X388620Y373300D02*
X388660Y373340D01*
X398740D01*
X398780Y373380D01*
X378460Y374230D02*
Y374530D01*
X379690Y373300D01*
X388620D01*
X378460Y374530D02*
Y374730D01*
X360680Y370840D02*
X374570D01*
X376730Y373000D01*
X303570Y313730D02*
X360680Y370840D01*
X377230Y373000D02*
X378460Y374230D01*
X376730Y373000D02*
X377230D01*
X361950Y365760D02*
X374570D01*
X376730Y363600D02*
X377230D01*
X308570Y312380D02*
X361950Y365760D01*
X377230Y363600D02*
X378460Y362370D01*
X374570Y365760D02*
X376730Y363600D01*
X308570Y256170D02*
Y312380D01*
X303570Y256170D02*
Y313730D01*
X477520Y377070D02*
Y377110D01*
X476290Y375840D02*
X477520Y377070D01*
X464610Y380840D02*
X464820Y381050D01*
X389930Y35600D02*
X401280D01*
X389890Y35640D02*
X389930Y35600D01*
X401280D02*
X401320Y35560D01*
X389850Y45680D02*
X401360D01*
X401400Y45720D01*
X389135Y46395D02*
X389850Y45680D01*
X378715Y46395D02*
X389135D01*
X378460Y46650D02*
X378715Y46395D01*
X378460Y34410D02*
Y34790D01*
Y34410D02*
X379690Y35640D01*
X378460Y34290D02*
Y34410D01*
X379690Y35640D02*
X389890D01*
X411400Y144780D02*
X421640D01*
X411400Y154940D02*
X421640D01*
X423840Y147400D02*
X433070D01*
X421640Y145200D02*
X423840Y147400D01*
X421640Y144780D02*
Y145200D01*
X423760Y152400D02*
X433070D01*
X421640Y154520D02*
Y154940D01*
Y154520D02*
X423760Y152400D01*
X422870Y163258D02*
Y163790D01*
X421640Y165020D02*
X422870Y163790D01*
X432840Y157630D02*
X433070Y157400D01*
X428498Y157630D02*
X432840D01*
X422870Y163258D02*
X428498Y157630D01*
X379690Y154860D02*
X389890D01*
X378460Y156090D02*
Y156290D01*
Y156090D02*
X379690Y154860D01*
X389930Y144820D02*
X401360D01*
X389890Y144860D02*
X389930Y144820D01*
X401360D02*
X401400Y144780D01*
X378460Y143630D02*
Y143930D01*
Y143630D02*
X379690Y144860D01*
X389890D01*
X378460Y143430D02*
Y143630D01*
X389890Y154860D02*
X389930Y154900D01*
X401360D01*
X401400Y154940D01*
X338570Y168160D02*
X354330Y152400D01*
X374570D01*
X376730Y154560D01*
X333570Y165540D02*
X351790Y147320D01*
X374570D02*
X376730Y145160D01*
X351790Y147320D02*
X374570D01*
X376730Y145160D02*
X377230D01*
X378460Y143930D01*
X333570Y165540D02*
Y178170D01*
X377230Y154560D02*
X378460Y155790D01*
Y156290D01*
X376730Y154560D02*
X377230D01*
X338570Y168160D02*
Y178170D01*
X308570Y114340D02*
X340360Y82550D01*
Y54610D02*
Y82550D01*
X308570Y114340D02*
Y178170D01*
X313570Y116960D02*
Y178170D01*
Y116960D02*
X345440Y85090D01*
Y56188D02*
Y85090D01*
Y56188D02*
X358448Y43180D01*
X340360Y54610D02*
X356870Y38100D01*
X374650D01*
X376730Y36020D01*
X377230D01*
X374990Y43180D02*
X377230Y45420D01*
X358448Y43180D02*
X374990D01*
X377230Y45420D02*
X377230D01*
X378460Y46650D01*
X377230Y36020D02*
X378460Y34790D01*
X420370Y254000D02*
Y254500D01*
X391878Y255810D02*
X392608Y256540D01*
X398360D02*
X400900Y254000D01*
X401400D01*
X389890Y254080D02*
Y254580D01*
X391120Y255810D01*
X391878D01*
X392608Y256540D02*
X398360D01*
X398360Y261620D02*
X400900Y264160D01*
X401400D01*
X389890Y263580D02*
Y264080D01*
Y263580D02*
X391120Y262350D01*
X392608Y261620D02*
X398360D01*
X391120Y262350D02*
X391878D01*
X392608Y261620D01*
X380190Y263780D02*
X381620Y262350D01*
X388660D01*
X381120Y255810D02*
X388660D01*
X378460Y253150D02*
X381120Y255810D01*
X362258Y269240D02*
X367718Y263780D01*
X337820Y269240D02*
X362258D01*
X367718Y263780D02*
X377230D01*
X378460Y265010D01*
Y265510D01*
X373800Y257810D02*
X378460Y253150D01*
X368300Y257810D02*
X373800D01*
X360680Y265430D02*
X368300Y257810D01*
X340058Y265430D02*
X360680D01*
X388660Y255810D02*
X389890Y254580D01*
Y254080D02*
Y254580D01*
X379690Y263780D02*
X380190D01*
X389890Y263580D02*
Y264080D01*
X378460Y265010D02*
X379690Y263780D01*
X388660Y262350D02*
X389890Y263580D01*
X338570Y263942D02*
X340058Y265430D01*
X338570Y256170D02*
Y263942D01*
X333570Y264990D02*
X337820Y269240D01*
X333570Y256170D02*
Y264990D01*
X331510Y394080D02*
X333240Y392350D01*
X320040Y401940D02*
X320540D01*
X328400Y394080D01*
X331510D01*
X304462Y391098D02*
X308698D01*
X319540Y401940D01*
X304404Y391040D02*
X304462Y391098D01*
X319540Y401940D02*
X320040D01*
X230371Y297180D02*
X246051D01*
X229646Y284480D02*
X250274D01*
X180617Y246380D02*
X207274D01*
X177428Y209670D02*
X216286D01*
X198876Y195580D02*
X229627D01*
X181966Y182880D02*
X208094D01*
X204153Y170180D02*
X229768D01*
X78740Y380920D02*
Y392350D01*
Y354980D02*
X80010Y353710D01*
X78740Y354980D02*
Y370920D01*
X283570Y165406D02*
X284480Y164496D01*
X283570Y165406D02*
Y178170D01*
X284480Y163830D02*
Y164496D01*
X327660Y264764D02*
X328570Y263854D01*
X327660Y264764D02*
Y265430D01*
X610870Y28640D02*
X620370D01*
X610870Y137860D02*
X620370D01*
X610870Y247080D02*
X620370D01*
X610870Y356300D02*
X620370D01*
X144700Y182880D02*
X181966D01*
X144700Y170180D02*
X204153D01*
X229768D02*
X229870D01*
X208094Y182880D02*
X229870D01*
X147918Y209670D02*
X177428D01*
X144700Y195580D02*
X198876D01*
X229627D02*
X229870D01*
X216286Y209670D02*
X267070D01*
X144700Y233680D02*
X207679D01*
X144700Y246380D02*
X180617D01*
X144700Y259080D02*
X197136D01*
X144700Y271780D02*
X210395D01*
X144700Y284480D02*
X229646D01*
X250274D02*
X251460D01*
X144700Y297180D02*
X230371D01*
X246051D02*
X246380D01*
X144700Y309880D02*
X241300D01*
X345070Y219670D02*
X358784D01*
X360014Y218440D01*
X360680D01*
X358624Y224670D02*
X360014Y226060D01*
X360680D01*
X345070Y224670D02*
X358624D01*
X147758Y209510D02*
X147918Y209670D01*
X145930Y209510D02*
X147758D01*
X254360Y194670D02*
X267070D01*
X229870Y182880D02*
X246660Y199670D01*
X267070D01*
X229870Y170180D02*
X254360Y194670D01*
X238960Y204670D02*
X267070D01*
X229870Y195580D02*
X238960Y204670D01*
X251460Y284480D02*
X273570Y262370D01*
X246380Y297180D02*
X278570Y264990D01*
X241300Y309880D02*
X283570Y267610D01*
X80630Y339090D02*
X88900D01*
X80010Y339710D02*
X80630Y339090D01*
X66040Y353710D02*
Y382350D01*
X79415Y392525D02*
X80550Y393660D01*
Y395133D02*
X80565Y395148D01*
X80550Y393660D02*
Y395133D01*
X80565Y395148D02*
Y403765D01*
X81930Y405130D01*
X285710Y358140D02*
X285830D01*
X284480Y359370D02*
X285710Y358140D01*
X284480Y359370D02*
Y365760D01*
X284678Y370982D02*
X284736Y371040D01*
X284480Y365760D02*
X284678Y365958D01*
X284736Y371040D02*
X284876D01*
X284678Y365958D02*
Y370982D01*
X288570Y167852D02*
X290830Y165592D01*
Y160020D02*
Y165592D01*
X288570Y167852D02*
Y178170D01*
X96520Y170180D02*
X134700D01*
X83820Y182880D02*
X96520Y170180D01*
X134700Y182880D02*
X134700Y182880D01*
X109220Y182880D02*
X134700D01*
X83820Y208280D02*
X96520Y195580D01*
X134700D01*
X134700Y208280D02*
X134700Y208280D01*
X109220Y208280D02*
X134700D01*
X83820Y233680D02*
X96520Y220980D01*
X134700D01*
X109220Y233680D02*
X109220Y233680D01*
X134700D01*
X144700Y208280D02*
X145930Y209510D01*
X323570Y170566D02*
Y178170D01*
X322580Y169576D02*
X323570Y170566D01*
X322580Y168910D02*
Y169576D01*
X273570Y256170D02*
Y262370D01*
X283570Y256170D02*
Y267610D01*
X278570Y256170D02*
Y264990D01*
X83820Y309880D02*
X96520Y297180D01*
X134700D01*
X259978Y224670D02*
X267070D01*
X259858Y224790D02*
X259978Y224670D01*
X257810Y219710D02*
X257830Y219690D01*
X109220Y309880D02*
X109220Y309880D01*
X134700D01*
X109220Y284480D02*
X109220Y284480D01*
X134700D01*
X96520Y271780D02*
X134700D01*
X83820Y284480D02*
X96520Y271780D01*
X134700Y259080D02*
X134700Y259080D01*
X109220Y259080D02*
X134700D01*
X96520Y246380D02*
X134700D01*
X83820Y259080D02*
X96520Y246380D01*
X353664Y246380D02*
X354330D01*
X345070Y244670D02*
X351954D01*
X353664Y246380D01*
X345070Y239670D02*
X351706D01*
X353859Y236691D02*
X354330Y236220D01*
X353859Y236691D02*
Y237516D01*
X351706Y239670D02*
X353859Y237516D01*
X353990Y194650D02*
X354330Y194310D01*
X345070Y194670D02*
X345090Y194650D01*
X353990D01*
X258230Y189650D02*
X267050D01*
X257810Y189230D02*
X258230Y189650D01*
X267050D02*
X267070Y189670D01*
X260086Y239690D02*
X267050D01*
X257810Y241300D02*
X258476D01*
X267050Y239690D02*
X267070Y239670D01*
X258476Y241300D02*
X260086Y239690D01*
X293570Y170646D02*
X294640Y169576D01*
X293570Y170646D02*
Y178170D01*
X294640Y168910D02*
Y169576D01*
X303570Y170886D02*
Y178170D01*
X302260Y169576D02*
X303570Y170886D01*
X302260Y168910D02*
Y169576D01*
X353664Y185420D02*
X354330D01*
X345070Y184670D02*
X352914D01*
X353664Y185420D01*
X345090Y204650D02*
X352214D01*
X353664Y203200D02*
X354330D01*
X345070Y204670D02*
X345090Y204650D01*
X352214D02*
X353664Y203200D01*
Y213360D02*
X354330D01*
X345070Y214670D02*
X352354D01*
X353664Y213360D01*
X328570Y256170D02*
Y263854D01*
X317500Y264764D02*
Y265430D01*
X318570Y256170D02*
Y263694D01*
X317500Y264764D02*
X318570Y263694D01*
X298550Y256190D02*
Y265330D01*
X298450Y265430D02*
X298550Y265330D01*
Y256190D02*
X298570Y256170D01*
X288570Y263774D02*
X289560Y264764D01*
X288570Y256170D02*
Y263774D01*
X289560Y264764D02*
Y265430D01*
X328570Y178170D02*
Y194670D01*
X333570Y189670D02*
X345070D01*
X267070Y244670D02*
X278570D01*
D14*
X93980Y377190D02*
X95774Y378984D01*
X101054D02*
X101070Y379000D01*
X95774Y378984D02*
X101054D01*
X105998Y356188D02*
X108570Y358760D01*
X105998Y356188D02*
X109808D01*
X112570Y358950D01*
X104140Y354330D02*
X105998Y356188D01*
X112570Y358950D02*
Y370750D01*
X108570Y358760D02*
Y370750D01*
X87630Y383540D02*
X88154Y383016D01*
X101054D01*
X101070Y383000D01*
X94750Y387000D02*
X101070D01*
X89320Y392430D02*
X94750Y387000D01*
X100330Y394970D02*
X108554D01*
Y391750D02*
Y394970D01*
X284480Y419020D02*
X284520Y419060D01*
X294600D01*
X294640Y419100D01*
X294680Y419060D02*
X304760D01*
X304800Y419020D01*
X294640Y419100D02*
X294680Y419060D01*
X268660Y386040D02*
X284876D01*
X266080Y388620D02*
X268660Y386040D01*
X88820Y392430D02*
X89320D01*
X112554Y391266D02*
X112570Y391250D01*
X112554Y391266D02*
Y404416D01*
X122320Y388750D02*
X123836D01*
X125570Y390484D02*
Y394000D01*
X123836Y388750D02*
X125570Y390484D01*
X108554Y391750D02*
X108570Y391734D01*
X119070Y390484D02*
Y394000D01*
X120804Y388750D02*
X122320D01*
X119070Y390484D02*
X120804Y388750D01*
D15*
X379040Y232410D02*
X386302Y225148D01*
Y223988D02*
Y225148D01*
Y223988D02*
X388040Y222250D01*
X378540Y232410D02*
X379040D01*
X388040Y222250D02*
X388540D01*
X378500Y212130D02*
Y220940D01*
X378040Y220980D02*
X378540D01*
X369150Y231140D02*
X378040Y222250D01*
X367880Y231140D02*
X369150D01*
X378040Y222250D02*
X378540D01*
X355400Y229670D02*
X356870Y231140D01*
X367880D01*
X378460Y212090D02*
X378500Y212130D01*
X345070Y229670D02*
X355400D01*
D21*
X168910Y394970D02*
D03*
Y388470D02*
D03*
X141170D02*
D03*
Y394970D02*
D03*
X194970Y394900D02*
D03*
Y388400D02*
D03*
X222710D02*
D03*
Y394900D02*
D03*
D22*
X155040Y391720D02*
D03*
X208840Y391650D02*
D03*
D23*
X145290Y406470D02*
D03*
X151790D02*
D03*
X158290D02*
D03*
X164790D02*
D03*
Y376970D02*
D03*
X158290D02*
D03*
X151790D02*
D03*
X145290D02*
D03*
X199090Y376900D02*
D03*
X205590D02*
D03*
X212090D02*
D03*
X218590D02*
D03*
Y406400D02*
D03*
X212090D02*
D03*
X205590D02*
D03*
X199090D02*
D03*
D24*
X119380Y354330D02*
D03*
X104140D02*
D03*
X148590Y344170D02*
D03*
X163830D02*
D03*
X199390Y421640D02*
D03*
X184150D02*
D03*
Y448310D02*
D03*
X199390D02*
D03*
X154940Y422910D02*
D03*
X139700D02*
D03*
X154940Y447040D02*
D03*
X139700D02*
D03*
X213360Y434340D02*
D03*
X228600D02*
D03*
X195580Y153670D02*
D03*
X180340D02*
D03*
X214630Y340360D02*
D03*
X199390D02*
D03*
D25*
X464820Y179070D02*
D03*
X454820D02*
D03*
X619680Y125730D02*
D03*
X609680D02*
D03*
X619680Y234950D02*
D03*
X609680D02*
D03*
X464820Y285750D02*
D03*
X454820D02*
D03*
X619680Y344170D02*
D03*
X609680D02*
D03*
X464820Y394970D02*
D03*
X454820D02*
D03*
X198120Y101600D02*
D03*
X188120Y101600D02*
D03*
X222170Y420370D02*
D03*
X212170D02*
D03*
X378540Y222250D02*
D03*
X388540D02*
D03*
X401320Y35560D02*
D03*
X411320D02*
D03*
X464820Y133350D02*
D03*
X454820D02*
D03*
X464820Y24130D02*
D03*
X454820D02*
D03*
X467360Y347980D02*
D03*
X457360D02*
D03*
X378540Y394970D02*
D03*
X388540D02*
D03*
X378540Y341630D02*
D03*
X388540D02*
D03*
X378540Y285750D02*
D03*
X388540D02*
D03*
X378540Y232410D02*
D03*
X388540D02*
D03*
X378540Y176530D02*
D03*
X388540D02*
D03*
X378540Y123190D02*
D03*
X388540D02*
D03*
X378540Y67310D02*
D03*
X388540D02*
D03*
X378540Y13970D02*
D03*
X388540D02*
D03*
X144700Y182880D02*
D03*
X134700D02*
D03*
X144700Y208280D02*
D03*
X134700D02*
D03*
X144700Y233680D02*
D03*
X134700D02*
D03*
X144700Y259080D02*
D03*
X134700D02*
D03*
X144700Y284480D02*
D03*
X134700D02*
D03*
X144700Y309880D02*
D03*
X134700D02*
D03*
X295830Y358140D02*
D03*
X285830D02*
D03*
X318690D02*
D03*
X308690D02*
D03*
X88820Y392430D02*
D03*
X78820D02*
D03*
X398780Y373380D02*
D03*
X408780D02*
D03*
X398780Y363220D02*
D03*
X408780D02*
D03*
X577770Y151130D02*
D03*
X567770D02*
D03*
X544750D02*
D03*
X534750D02*
D03*
X511730D02*
D03*
X501730D02*
D03*
X577770Y41910D02*
D03*
X567770D02*
D03*
X544750D02*
D03*
X534750D02*
D03*
X511730D02*
D03*
X501730D02*
D03*
X577770Y369570D02*
D03*
X567770D02*
D03*
X544750D02*
D03*
X534750D02*
D03*
X511730D02*
D03*
X501730D02*
D03*
X577770Y260350D02*
D03*
X567770D02*
D03*
X544750D02*
D03*
X534750D02*
D03*
X511730D02*
D03*
X501730D02*
D03*
X464820Y242570D02*
D03*
X454820D02*
D03*
X610950Y392430D02*
D03*
X620950D02*
D03*
X619680Y16510D02*
D03*
X609680D02*
D03*
X464820Y68580D02*
D03*
X454820D02*
D03*
X295830Y24130D02*
D03*
X285830D02*
D03*
X295830Y33020D02*
D03*
X285830D02*
D03*
X202010Y351790D02*
D03*
X212010D02*
D03*
X148670Y355600D02*
D03*
X158670D02*
D03*
X388540Y213360D02*
D03*
X378540D02*
D03*
X222170Y360680D02*
D03*
X212170D02*
D03*
X168750Y363220D02*
D03*
X158750D02*
D03*
X620950Y76200D02*
D03*
X610950D02*
D03*
X620950Y185420D02*
D03*
X610950D02*
D03*
X620950Y403860D02*
D03*
X610950D02*
D03*
X620950Y294640D02*
D03*
X610950D02*
D03*
X398700Y166370D02*
D03*
X388700D02*
D03*
X398700Y133350D02*
D03*
X388700D02*
D03*
X398700Y24130D02*
D03*
X388700D02*
D03*
X398700Y57150D02*
D03*
X388700D02*
D03*
X398700Y242570D02*
D03*
X388700D02*
D03*
X398700Y275590D02*
D03*
X388700D02*
D03*
X398700Y351790D02*
D03*
X388700D02*
D03*
X398700Y384810D02*
D03*
X388700D02*
D03*
X411400Y254000D02*
D03*
X401400D02*
D03*
X577770Y53340D02*
D03*
X567770D02*
D03*
X544750D02*
D03*
X534750D02*
D03*
X511730D02*
D03*
X501730D02*
D03*
X577770Y271780D02*
D03*
X567770D02*
D03*
X544750D02*
D03*
X534750D02*
D03*
X511730D02*
D03*
X501730D02*
D03*
X411400Y45720D02*
D03*
X401400D02*
D03*
X411400Y264160D02*
D03*
X401400D02*
D03*
X411400Y144780D02*
D03*
X401400D02*
D03*
X577770Y381000D02*
D03*
X567770D02*
D03*
X577770Y162560D02*
D03*
X567770D02*
D03*
X544750D02*
D03*
X534750D02*
D03*
X511730D02*
D03*
X501730D02*
D03*
X544750Y381000D02*
D03*
X534750D02*
D03*
X511730D02*
D03*
X501730D02*
D03*
X411400Y154940D02*
D03*
X401400D02*
D03*
X620950Y64770D02*
D03*
X610950D02*
D03*
X620950Y173990D02*
D03*
X610950D02*
D03*
X620950Y283210D02*
D03*
X610950D02*
D03*
X144700Y297180D02*
D03*
X134700D02*
D03*
X144700Y271780D02*
D03*
X134700D02*
D03*
X144700Y246380D02*
D03*
X134700D02*
D03*
X144700Y220980D02*
D03*
X134700D02*
D03*
X144700Y195580D02*
D03*
X134700D02*
D03*
X144700Y170180D02*
D03*
X134700D02*
D03*
D26*
X389890Y154860D02*
D03*
Y144860D02*
D03*
X589280Y141050D02*
D03*
Y151050D02*
D03*
X556260Y162640D02*
D03*
Y172640D02*
D03*
X523240Y151050D02*
D03*
Y141050D02*
D03*
X490220Y151050D02*
D03*
Y141050D02*
D03*
X589280Y162640D02*
D03*
Y172640D02*
D03*
X556260Y141050D02*
D03*
Y151050D02*
D03*
X523240Y172640D02*
D03*
Y162640D02*
D03*
X490220Y172640D02*
D03*
Y162640D02*
D03*
X389890Y45640D02*
D03*
Y35640D02*
D03*
X589280Y31830D02*
D03*
Y41830D02*
D03*
X556260Y41830D02*
D03*
Y31830D02*
D03*
X523240Y41830D02*
D03*
Y31830D02*
D03*
X490220Y41830D02*
D03*
Y31830D02*
D03*
X589280Y53420D02*
D03*
Y63420D02*
D03*
X556260Y63420D02*
D03*
Y53420D02*
D03*
X523240Y63420D02*
D03*
Y53420D02*
D03*
X318770Y388540D02*
D03*
Y378540D02*
D03*
X113030Y405210D02*
D03*
Y415210D02*
D03*
X600710Y292020D02*
D03*
Y282020D02*
D03*
X477520Y257890D02*
D03*
Y267890D02*
D03*
X600710Y401240D02*
D03*
Y391240D02*
D03*
X477520Y367110D02*
D03*
Y377110D02*
D03*
X600710Y73500D02*
D03*
Y63500D02*
D03*
X477520Y39450D02*
D03*
Y49450D02*
D03*
X600710Y182720D02*
D03*
Y172720D02*
D03*
X477520Y149940D02*
D03*
Y159940D02*
D03*
X181610Y400130D02*
D03*
Y410130D02*
D03*
X421640Y144700D02*
D03*
Y134700D02*
D03*
X419100Y363140D02*
D03*
Y353140D02*
D03*
X420370Y35560D02*
D03*
Y25560D02*
D03*
Y254000D02*
D03*
Y244000D02*
D03*
X421640Y155020D02*
D03*
Y165020D02*
D03*
X378460Y156290D02*
D03*
Y166290D02*
D03*
Y133430D02*
D03*
Y143430D02*
D03*
X420370Y45720D02*
D03*
Y55720D02*
D03*
X378460Y47150D02*
D03*
Y57150D02*
D03*
X490220Y63420D02*
D03*
Y53420D02*
D03*
X388620Y373300D02*
D03*
Y363300D02*
D03*
X589280Y391080D02*
D03*
Y381080D02*
D03*
X556260Y369490D02*
D03*
Y359490D02*
D03*
X523240Y369490D02*
D03*
Y359490D02*
D03*
X490220Y369490D02*
D03*
Y359490D02*
D03*
X589280Y369490D02*
D03*
Y359490D02*
D03*
X477520Y247650D02*
D03*
Y237650D02*
D03*
X632460Y125810D02*
D03*
Y135810D02*
D03*
X477520Y170180D02*
D03*
Y180180D02*
D03*
Y387350D02*
D03*
Y397350D02*
D03*
X632460Y344250D02*
D03*
Y354250D02*
D03*
Y16590D02*
D03*
Y26590D02*
D03*
X477520Y60960D02*
D03*
Y70960D02*
D03*
Y278130D02*
D03*
Y288130D02*
D03*
X632460Y235030D02*
D03*
Y245030D02*
D03*
X556260Y391080D02*
D03*
Y381080D02*
D03*
X523240Y391080D02*
D03*
Y381080D02*
D03*
X490220Y391080D02*
D03*
Y381080D02*
D03*
X389890Y264080D02*
D03*
Y254080D02*
D03*
X589280Y250270D02*
D03*
Y260270D02*
D03*
X556260Y260270D02*
D03*
Y250270D02*
D03*
X523240Y271860D02*
D03*
Y281860D02*
D03*
X490220Y271860D02*
D03*
Y281860D02*
D03*
X589280Y271860D02*
D03*
Y281860D02*
D03*
X556260Y281860D02*
D03*
Y271860D02*
D03*
X523240Y250270D02*
D03*
Y260270D02*
D03*
X490220Y250270D02*
D03*
Y260270D02*
D03*
X66040Y392350D02*
D03*
Y382350D02*
D03*
X332740Y358220D02*
D03*
Y368220D02*
D03*
X332740Y392350D02*
D03*
Y382350D02*
D03*
X304800Y419020D02*
D03*
Y409020D02*
D03*
X284480Y409020D02*
D03*
Y419020D02*
D03*
X78740Y370920D02*
D03*
Y380920D02*
D03*
X278130Y22940D02*
D03*
Y32940D02*
D03*
Y13890D02*
D03*
Y3890D02*
D03*
Y40720D02*
D03*
Y50720D02*
D03*
X378460Y24290D02*
D03*
Y34290D02*
D03*
X419100Y373460D02*
D03*
Y383460D02*
D03*
X378460Y384730D02*
D03*
Y374730D02*
D03*
Y351870D02*
D03*
Y361870D02*
D03*
X420370Y264160D02*
D03*
Y274160D02*
D03*
X378460Y265510D02*
D03*
Y275510D02*
D03*
Y242650D02*
D03*
Y252650D02*
D03*
X477520Y29130D02*
D03*
Y19130D02*
D03*
Y139620D02*
D03*
Y129620D02*
D03*
X477520Y358140D02*
D03*
Y348140D02*
D03*
D27*
X105380Y449580D02*
D03*
X119380D02*
D03*
X67930Y420370D02*
D03*
X81930D02*
D03*
X252080Y408940D02*
D03*
X266080D02*
D03*
X252080Y374650D02*
D03*
X266080D02*
D03*
X266080Y388620D02*
D03*
X252080D02*
D03*
X67930Y405130D02*
D03*
X81930D02*
D03*
X105380Y436880D02*
D03*
X119380D02*
D03*
X252080Y360680D02*
D03*
X266080D02*
D03*
D28*
X97790Y419750D02*
D03*
Y405750D02*
D03*
X127000Y405750D02*
D03*
Y419750D02*
D03*
X80010Y339710D02*
D03*
Y353710D02*
D03*
X320040Y415940D02*
D03*
Y401940D02*
D03*
X66040Y339710D02*
D03*
Y353710D02*
D03*
D29*
X345440Y394590D02*
D03*
Y410590D02*
D03*
X266700Y345820D02*
D03*
Y329820D02*
D03*
D30*
X103380Y341630D02*
D03*
X119380D02*
D03*
X658240Y271780D02*
D03*
X642240D02*
D03*
X165860Y153670D02*
D03*
X149860D02*
D03*
X200150Y434340D02*
D03*
X184150D02*
D03*
X154940Y435610D02*
D03*
X138940D02*
D03*
X658240Y53340D02*
D03*
X642240D02*
D03*
Y162560D02*
D03*
X658240D02*
D03*
X642240Y381000D02*
D03*
X658240D02*
D03*
D31*
X48260Y352170D02*
D03*
Y336170D02*
D03*
X12700Y352170D02*
D03*
Y336170D02*
D03*
X30480Y352170D02*
D03*
Y336170D02*
D03*
D32*
X620370Y161860D02*
D03*
X610870D02*
D03*
X601370D02*
D03*
X620370Y137860D02*
D03*
X610870D02*
D03*
X601370D02*
D03*
X620370Y52640D02*
D03*
X610870D02*
D03*
X601370D02*
D03*
X620370Y28640D02*
D03*
X610870D02*
D03*
X601370D02*
D03*
X620370Y271080D02*
D03*
X610870D02*
D03*
X601370D02*
D03*
X620370Y247080D02*
D03*
X610870D02*
D03*
X601370D02*
D03*
X601370Y356300D02*
D03*
X610870D02*
D03*
X620370D02*
D03*
X601370Y380300D02*
D03*
X610870D02*
D03*
X620370D02*
D03*
D33*
X210120Y40640D02*
D03*
Y28640D02*
D03*
D34*
X259130Y40640D02*
D03*
Y27940D02*
D03*
Y15240D02*
D03*
X227330D02*
D03*
Y40640D02*
D03*
D35*
X198120Y85090D02*
D03*
Y57150D02*
D03*
X177800D02*
D03*
Y85090D02*
D03*
D36*
X168910Y431800D02*
D03*
Y447040D02*
D03*
X345440Y424180D02*
D03*
Y439420D02*
D03*
X280670Y330200D02*
D03*
Y314960D02*
D03*
X149860Y120650D02*
D03*
Y135890D02*
D03*
X137160Y120650D02*
D03*
Y135890D02*
D03*
X208280Y151130D02*
D03*
Y135890D02*
D03*
D37*
X210120Y40640D02*
D03*
X198120D02*
D03*
D38*
X675640Y228600D02*
D03*
Y314960D02*
D03*
Y205740D02*
D03*
Y119380D02*
D03*
Y96520D02*
D03*
Y10160D02*
D03*
Y424180D02*
D03*
Y337820D02*
D03*
D39*
X689610Y271780D02*
D03*
Y162560D02*
D03*
Y53340D02*
D03*
Y381000D02*
D03*
D40*
X165100Y135890D02*
D03*
Y126390D02*
D03*
Y116890D02*
D03*
X189100D02*
D03*
Y135890D02*
D03*
D41*
X236220Y134620D02*
D03*
D42*
Y121620D02*
D03*
Y147620D02*
D03*
D43*
X243840Y134620D02*
D03*
D44*
X279400Y118110D02*
D03*
D45*
X292400D02*
D03*
X266400D02*
D03*
D46*
X279400Y125730D02*
D03*
D47*
X433070Y162400D02*
D03*
Y157400D02*
D03*
Y152400D02*
D03*
Y147400D02*
D03*
X464610D02*
D03*
Y152400D02*
D03*
Y157400D02*
D03*
Y162400D02*
D03*
X433070Y53180D02*
D03*
Y48180D02*
D03*
Y43180D02*
D03*
Y38180D02*
D03*
X464610D02*
D03*
Y43180D02*
D03*
Y48180D02*
D03*
Y53180D02*
D03*
X433070Y380840D02*
D03*
Y375840D02*
D03*
Y370840D02*
D03*
Y365840D02*
D03*
X464610D02*
D03*
Y370840D02*
D03*
Y375840D02*
D03*
Y380840D02*
D03*
X433070Y271700D02*
D03*
Y266700D02*
D03*
Y261700D02*
D03*
Y256700D02*
D03*
X464610D02*
D03*
Y261700D02*
D03*
Y266700D02*
D03*
Y271700D02*
D03*
D48*
X448840Y154900D02*
D03*
Y45680D02*
D03*
Y373340D02*
D03*
X448840Y264200D02*
D03*
D49*
X122320Y388750D02*
D03*
Y373250D02*
D03*
D50*
X101070Y375000D02*
D03*
Y379000D02*
D03*
Y383000D02*
D03*
Y387000D02*
D03*
D51*
X108570Y391250D02*
D03*
X112570D02*
D03*
Y370750D02*
D03*
X108570D02*
D03*
D52*
X119070Y394000D02*
D03*
X125570D02*
D03*
Y368000D02*
D03*
X119070D02*
D03*
D53*
X304404Y396040D02*
D03*
Y391040D02*
D03*
Y386040D02*
D03*
Y381040D02*
D03*
Y376040D02*
D03*
Y371040D02*
D03*
D54*
X284876D02*
D03*
Y376040D02*
D03*
Y381040D02*
D03*
Y386040D02*
D03*
Y391040D02*
D03*
Y396040D02*
D03*
D55*
X306070Y217170D02*
D03*
D56*
X267070Y184670D02*
D03*
Y189670D02*
D03*
Y194670D02*
D03*
Y199670D02*
D03*
Y204670D02*
D03*
Y209670D02*
D03*
Y214670D02*
D03*
Y219670D02*
D03*
Y224670D02*
D03*
Y229670D02*
D03*
Y234670D02*
D03*
Y239670D02*
D03*
Y244670D02*
D03*
Y249670D02*
D03*
X345070D02*
D03*
Y244670D02*
D03*
Y239670D02*
D03*
Y234670D02*
D03*
Y229670D02*
D03*
Y224670D02*
D03*
Y219670D02*
D03*
Y214670D02*
D03*
Y209670D02*
D03*
Y204670D02*
D03*
Y199670D02*
D03*
Y194670D02*
D03*
Y189670D02*
D03*
Y184670D02*
D03*
D57*
X273570Y256170D02*
D03*
X278570D02*
D03*
X283570D02*
D03*
X288570D02*
D03*
X293570D02*
D03*
X298570D02*
D03*
X303570D02*
D03*
X308570D02*
D03*
X313570D02*
D03*
X318570D02*
D03*
X323570D02*
D03*
X328570D02*
D03*
X333570D02*
D03*
X338570D02*
D03*
Y178170D02*
D03*
X333570D02*
D03*
X328570D02*
D03*
X323570D02*
D03*
X318570D02*
D03*
X313570D02*
D03*
X308570D02*
D03*
X303570D02*
D03*
X298570D02*
D03*
X293570D02*
D03*
X288570D02*
D03*
X283570D02*
D03*
X278570D02*
D03*
X273570D02*
D03*
D90*
X294640Y383540D02*
D03*
D100*
X619680Y16510D02*
G03*
X620370Y18176I-1666J1666D01*
G01*
X619680Y234950D02*
G03*
X620370Y236616I-1666J1666D01*
G01*
X619720Y344210D02*
G03*
X620370Y345836I-1705J1625D01*
G01*
X619719Y344210D02*
X619720Y344210D01*
X619680Y125730D02*
G03*
X620370Y127396I-1666J1666D01*
G01*
X113030Y404876D02*
X114046Y403860D01*
X97790Y405750D02*
X98330Y405210D01*
X113030Y404876D02*
Y405210D01*
X98330D02*
X113030D01*
X601370Y137860D02*
Y146050D01*
X601040Y247410D02*
X601370Y247080D01*
X601040Y247410D02*
Y255270D01*
X601010Y356660D02*
X601370Y356300D01*
X600710Y363220D02*
X601010Y362920D01*
Y356660D02*
Y362920D01*
X601370Y28640D02*
Y36830D01*
X337820Y424180D02*
X345440D01*
X388540Y176530D02*
X396240D01*
X388540Y176530D02*
X388540Y176530D01*
X406400Y166370D02*
X406400Y166370D01*
X398700Y166370D02*
X406400D01*
X421640Y129540D02*
Y134700D01*
X421640Y134700D01*
X398700Y133350D02*
X406400D01*
X398700Y133350D02*
X398700Y133350D01*
X396240Y123190D02*
X396240Y123190D01*
X388540Y123190D02*
X396240D01*
X182880Y101600D02*
X188120D01*
X188120Y101600D01*
X266400Y118110D02*
X266700D01*
X177800Y46990D02*
Y57150D01*
X227330Y15240D02*
X237490D01*
X215900D02*
X227330D01*
X199770Y422020D02*
Y433960D01*
X155575Y447675D02*
X183515D01*
X122530Y388540D02*
X129259D01*
X96520Y354330D02*
X104140D01*
X119380D02*
X120323Y355273D01*
X133350Y361950D02*
Y381000D01*
X126673Y355273D02*
X133350Y361950D01*
X120323Y355273D02*
X126673D01*
X129259Y388540D02*
X132235Y385564D01*
Y385492D02*
X133350Y384377D01*
Y381000D02*
Y384377D01*
X122320Y388750D02*
X122530Y388540D01*
X132235Y385492D02*
Y385564D01*
X119380Y341630D02*
X128270D01*
X149860Y135890D02*
X165100D01*
X137160D02*
X149860D01*
Y153670D01*
X129540Y120650D02*
X137160D01*
X137160Y120650D02*
X149860D01*
X137160Y120650D02*
X137160Y120650D01*
X164640Y125930D02*
X165100Y126390D01*
X155140Y125930D02*
X164640D01*
X149860Y120650D02*
X155140Y125930D01*
X195580Y147320D02*
Y153670D01*
X208280Y151130D02*
X214630D01*
X189100Y135890D02*
X208280D01*
X198580Y101640D02*
Y102060D01*
X208280Y111760D01*
X198120Y101600D02*
X198540D01*
X198580Y101640D01*
X208280Y111760D02*
Y135890D01*
X198120Y85090D02*
Y101600D01*
X199390Y448310D02*
X205740D01*
X154940Y447040D02*
Y453390D01*
X151130Y457200D02*
X154940Y453390D01*
X121920Y457200D02*
X151130D01*
X120840Y456120D02*
X121920Y457200D01*
X139700Y447040D02*
X147320D01*
X120840Y451040D02*
Y456120D01*
X119380Y449580D02*
X120840Y451040D01*
X128270Y440796D02*
Y446604D01*
X125294Y449580D02*
X128270Y446604D01*
X119380Y449580D02*
X125294D01*
X128270Y440796D02*
X131246Y437820D01*
X136730D01*
X138940Y435610D01*
X119380Y429260D02*
Y436880D01*
Y449580D01*
X181610Y394970D02*
Y400130D01*
X280670Y308610D02*
Y314960D01*
Y330200D02*
X287020D01*
X266700Y329820D02*
X266890Y330010D01*
X280480D01*
X280670Y330200D01*
X268120Y358140D02*
X285710D01*
X266390Y346130D02*
Y360370D01*
Y346130D02*
X266700Y345820D01*
X266080Y360680D02*
X266390Y360370D01*
X345440Y439420D02*
Y445770D01*
Y410590D02*
Y424180D01*
X163830Y344170D02*
X171450D01*
X127000Y426720D02*
X127000Y426720D01*
Y419750D02*
Y426720D01*
X139700Y416560D02*
Y422910D01*
X154940D02*
Y435610D01*
X184150Y434340D02*
Y448310D01*
X183515Y447675D02*
X184150Y448310D01*
X154940Y447040D02*
X155575Y447675D01*
X200150Y434340D02*
X213360D01*
X199770Y433960D02*
X200150Y434340D01*
X658240Y162560D02*
X658240Y162560D01*
X601370Y381050D02*
X601370D01*
X589310D02*
X601370D01*
Y390160D01*
Y380300D02*
Y381050D01*
X600710Y390820D02*
X601370Y390160D01*
X600710Y390820D02*
Y391240D01*
X601370Y53390D02*
X601370D01*
X589310D02*
X601370D01*
Y62420D01*
Y52640D02*
Y53390D01*
X600710Y63080D02*
X601370Y62420D01*
X600710Y63080D02*
Y63500D01*
X601370Y162610D02*
X601370D01*
X589310D02*
X601370D01*
Y171640D01*
Y161860D02*
Y162610D01*
X600710Y172300D02*
Y172720D01*
Y172300D02*
X601370Y171640D01*
X589310Y271830D02*
X601370D01*
Y272180D01*
X600710Y272840D02*
Y282020D01*
Y272840D02*
X601370Y272180D01*
X408780Y373380D02*
X419100D01*
X409240Y363180D02*
X409320D01*
X409360Y363140D01*
X419100D01*
X479480Y369490D02*
X490220D01*
X477520Y367530D02*
X479480Y369490D01*
X477520Y367110D02*
Y367530D01*
X478560Y260270D02*
X490220D01*
X477520Y259230D02*
X478560Y260270D01*
X477520Y151050D02*
X490220D01*
X477520Y39870D02*
X479480Y41830D01*
X490220D01*
X477520Y39450D02*
Y39870D01*
X411320Y35560D02*
X420370D01*
X411400Y45720D02*
X420370D01*
X411400Y254000D02*
X411400Y254000D01*
X420370D01*
X411400Y264160D02*
X420370D01*
X411400Y264160D02*
X411400Y264160D01*
X658240Y53340D02*
X689610D01*
X681863Y162560D02*
X689610D01*
X658240Y162560D02*
X681863D01*
X681863Y162560D01*
X658240Y271780D02*
X681863D01*
X658240Y381000D02*
X689610D01*
X619680Y16510D02*
X620100D01*
X620180Y16590D01*
X632460D01*
Y16550D02*
X632500Y16510D01*
X641350D01*
X632460Y16550D02*
Y16590D01*
X620370Y127396D02*
X621956Y125810D01*
X632460D01*
Y125770D02*
X632500Y125730D01*
X632460Y125770D02*
Y125810D01*
X632500Y125730D02*
X641350D01*
X619680Y234950D02*
X620100D01*
X620180Y235030D02*
X632460D01*
X620100Y234950D02*
X620180Y235030D01*
X632460Y234990D02*
X632500Y234950D01*
X641350D01*
X632460Y234990D02*
Y235030D01*
Y344210D02*
Y344250D01*
Y344210D02*
X632500Y344170D01*
X641350D01*
X619720Y344210D02*
X622220D01*
X619719D02*
X619720D01*
X619680Y344170D02*
X619720Y344210D01*
X622220D02*
X622260Y344250D01*
X632460D01*
X610870Y403900D02*
Y412750D01*
X610910Y403860D02*
X610950D01*
X610870Y403900D02*
X610910Y403860D01*
X610950Y392430D02*
X610950Y392430D01*
X610950Y392430D02*
Y403860D01*
X610870Y294680D02*
Y303530D01*
X610910Y294640D02*
X610950D01*
X610870Y294680D02*
X610910Y294640D01*
X610950Y283210D02*
Y294640D01*
X610870Y283130D02*
X610950Y283210D01*
X610870Y173910D02*
X610950Y173990D01*
Y185420D01*
X610870Y185460D02*
X610910Y185420D01*
X610950D01*
X610870Y185460D02*
Y194310D01*
Y85090D02*
X610950Y85010D01*
Y76200D02*
Y85010D01*
Y64770D02*
Y76200D01*
X266080Y388620D02*
X266700Y389240D01*
Y398780D01*
X589280Y53420D02*
X589310Y53390D01*
X589280Y162640D02*
X589310Y162610D01*
X589280Y381080D02*
X589310Y381050D01*
X589280Y271860D02*
X589310Y271830D01*
X620370Y236616D02*
Y246330D01*
X620370Y345836D02*
Y355550D01*
X620370Y127396D02*
Y137110D01*
Y18176D02*
Y27890D01*
X610870Y53390D02*
X610950Y53470D01*
Y64770D01*
X610870Y162610D02*
Y173910D01*
X610870Y381050D02*
X610950Y381130D01*
Y392430D01*
X610870Y271830D02*
Y283130D01*
D101*
X292140Y381040D02*
X294640Y383540D01*
X304602Y396104D02*
Y408822D01*
X266080Y408940D02*
X284400D01*
X284849Y391067D02*
X284876Y391040D01*
X278223Y391067D02*
X284849D01*
X278130Y391160D02*
X278223Y391067D01*
X284678Y396104D02*
Y408822D01*
X284742Y396040D02*
X284876D01*
X284678Y396104D02*
X284742Y396040D01*
X284480Y409020D02*
X284678Y408822D01*
X266080Y374650D02*
X267470Y376040D01*
X284876D01*
X304538Y396040D02*
X304602Y396104D01*
X304404Y396040D02*
X304538D01*
X304602Y408822D02*
X304800Y409020D01*
X304404Y371040D02*
X305665D01*
X308690Y368015D01*
Y358140D02*
Y368015D01*
X295830Y358140D02*
X308690D01*
X332740Y368220D02*
X332740Y368220D01*
Y382350D01*
X332740Y382350D01*
X325160Y368260D02*
X332700D01*
X325120Y368300D02*
X325160Y368260D01*
X332700D02*
X332740Y368220D01*
X313690Y368300D02*
Y370840D01*
X308517Y376013D02*
X313690Y370840D01*
X304404Y376040D02*
X304431Y376013D01*
X308517D01*
X284876Y381040D02*
X292140D01*
X304421Y381023D02*
X310343D01*
X312826Y378540D01*
X304404Y381040D02*
X304421Y381023D01*
X312826Y378540D02*
X318770D01*
X304431Y386067D02*
X310288D01*
X312841Y388620D02*
X318690D01*
X304404Y386040D02*
X304431Y386067D01*
X310288D02*
X312841Y388620D01*
X318690D02*
X318770Y388540D01*
D102*
X54610Y405130D02*
X67930D01*
X43180Y393700D02*
X54610Y405130D01*
X43180Y393327D02*
Y393700D01*
X165860Y153670D02*
X180340D01*
Y147320D02*
Y153670D01*
X43180Y393327D02*
X48260Y388247D01*
Y352170D02*
Y388247D01*
X30480Y352170D02*
X48260D01*
X12700D02*
X30480D01*
X81930Y405560D02*
Y420370D01*
Y405130D02*
Y405560D01*
X82120Y405750D01*
X97790D01*
X81930Y420370D02*
X81930Y420370D01*
D103*
X111782Y349682D02*
X114732D01*
X109218Y347218D02*
X109318D01*
X114732Y349682D02*
X119380Y354330D01*
X109318Y347218D02*
X111782Y349682D01*
X103630Y341630D02*
X109218Y347218D01*
X103380Y341630D02*
X103630D01*
D104*
X464820Y236220D02*
Y242570D01*
X467360Y342900D02*
Y347980D01*
X464820Y19050D02*
Y24130D01*
X476544Y27646D02*
Y30186D01*
X464820Y24130D02*
X473028D01*
X476544Y27646D01*
X464610Y38180D02*
X468550D01*
X476544Y30186D01*
X464820Y128270D02*
Y133350D01*
X477345Y140295D02*
X477520Y140120D01*
X476544Y141096D02*
X477345Y140295D01*
X476544Y139494D02*
X477095Y140045D01*
X464634Y147376D02*
X469764D01*
X476044Y141096D01*
X464610Y147400D02*
X464634Y147376D01*
X476044Y141096D02*
X476544D01*
X477520Y139620D02*
Y140120D01*
X471464Y139494D02*
X476544D01*
X464820Y133350D02*
X465320D01*
X471464Y139494D01*
X464820Y242570D02*
X472940D01*
X477520Y247150D01*
Y247650D01*
X468994Y256676D02*
X477520Y248150D01*
X464634Y256676D02*
X468994D01*
X464610Y256700D02*
X464634Y256676D01*
X477520Y247650D02*
Y248150D01*
X419100Y382960D02*
X426196Y375864D01*
X419100Y382960D02*
Y383460D01*
X426196Y375864D02*
X433046D01*
X433070Y375840D01*
X421220Y370840D02*
X433070D01*
X419100Y372960D02*
X421220Y370840D01*
X419100Y372960D02*
Y373460D01*
X419100Y363140D02*
Y363640D01*
X420076Y364616D01*
X420638D02*
X421861Y365840D01*
X420076Y364616D02*
X420638D01*
X421861Y365840D02*
X433070D01*
X473710Y358140D02*
X477520D01*
X467360Y347980D02*
Y351790D01*
X473710Y358140D01*
X471629Y360220D02*
X473710Y358140D01*
X469844Y365816D02*
X471629Y364030D01*
Y360220D02*
Y364030D01*
X464634Y365816D02*
X469844D01*
X464610Y365840D02*
X464634Y365816D01*
X464610Y375840D02*
X476290D01*
X477520Y267676D02*
Y267890D01*
X464610Y266700D02*
X476544D01*
X477520Y267676D01*
Y159440D02*
Y159940D01*
X464610Y157400D02*
X475480D01*
X477520Y159440D01*
Y49156D02*
Y49450D01*
X464610Y48180D02*
X476544D01*
X477520Y49156D01*
X427386Y48204D02*
X433046D01*
X420370Y55220D02*
X427386Y48204D01*
X433046D02*
X433070Y48180D01*
X422490Y38180D02*
X433070D01*
X420370Y36060D02*
X422490Y38180D01*
X420370Y35560D02*
Y36060D01*
X422910Y43180D02*
X433070D01*
X420370Y45220D02*
X421346Y44244D01*
X420370Y45220D02*
Y45720D01*
X421346Y44244D02*
X421846D01*
X422910Y43180D01*
X420370Y55220D02*
Y55720D01*
X421846Y272684D02*
X427806Y266724D01*
X421346Y272684D02*
X421846D01*
X420370Y273660D02*
X421346Y272684D01*
X433046Y266724D02*
X433070Y266700D01*
X427806Y266724D02*
X433046D01*
X420370Y273660D02*
Y274160D01*
Y263660D02*
X422370Y261660D01*
X420370Y263660D02*
Y264160D01*
X422370Y261660D02*
X431270D01*
X420370Y254500D02*
X422530Y256660D01*
X431270D01*
D105*
X620370Y161860D02*
X620720Y162210D01*
X641890D01*
X642240Y162560D01*
X641890Y52990D02*
X642240Y53340D01*
X620370Y52640D02*
X620720Y52990D01*
X641890D01*
X620720Y271430D02*
X642270D01*
X642620Y271780D01*
X620370Y271080D02*
X620720Y271430D01*
X620370Y380300D02*
X621070Y381000D01*
X642240D01*
D106*
X285235Y23535D02*
X285830Y24130D01*
X278130Y22940D02*
X278725Y23535D01*
X285235D01*
X278130Y32940D02*
X278170Y32980D01*
X285790D01*
X285830Y33020D01*
X278130Y15240D02*
Y22940D01*
X259130Y15240D02*
X278130D01*
Y32940D02*
Y40720D01*
X259130Y40640D02*
X259170Y40680D01*
X278090D01*
X278130Y40720D01*
X210120Y40640D02*
X227330D01*
X198120D02*
Y57150D01*
X210120Y27640D02*
Y28640D01*
X118110Y16510D02*
X198990D01*
X210120Y27640D01*
D107*
X109220Y81280D02*
D03*
X83820D02*
D03*
X109220Y132080D02*
D03*
X83820D02*
D03*
X109220Y233680D02*
D03*
Y284480D02*
D03*
Y309880D02*
D03*
Y259080D02*
D03*
X83820D02*
D03*
Y309880D02*
D03*
Y284480D02*
D03*
Y233680D02*
D03*
Y208280D02*
D03*
X109220D02*
D03*
Y182880D02*
D03*
X83820D02*
D03*
Y157480D02*
D03*
X109220D02*
D03*
X83820Y106680D02*
D03*
X109220D02*
D03*
D108*
X17780Y393700D02*
D03*
D109*
X43180D02*
D03*
D110*
X486410Y440690D02*
D03*
X387350D02*
D03*
X361950Y-8890D02*
D03*
X461010D02*
D03*
X402590Y311150D02*
D03*
X410210Y200660D02*
D03*
X405130Y93980D02*
D03*
X527050Y318770D02*
D03*
Y208280D02*
D03*
Y99060D02*
D03*
X577850D02*
D03*
Y208280D02*
D03*
Y318770D02*
D03*
D111*
X123190Y16510D02*
D03*
X98190Y-8490D02*
D03*
X148190D02*
D03*
Y41510D02*
D03*
X98190D02*
D03*
D112*
X572770Y1270D02*
D03*
Y434340D02*
D03*
X29210D02*
D03*
Y1270D02*
D03*
D113*
X114046Y403860D02*
D03*
X601370Y146050D02*
D03*
X601040Y255270D02*
D03*
X600710Y363220D02*
D03*
X601370Y36830D02*
D03*
X683260Y388620D02*
D03*
X689610D02*
D03*
X695960D02*
D03*
X683260Y373380D02*
D03*
X689610D02*
D03*
X695960D02*
D03*
X676910D02*
D03*
X670560D02*
D03*
X676910Y388620D02*
D03*
X670560D02*
D03*
X684530Y279400D02*
D03*
X690880D02*
D03*
X697230D02*
D03*
X684530Y264160D02*
D03*
X690880D02*
D03*
X697230D02*
D03*
X678180D02*
D03*
X671830D02*
D03*
X678180Y279400D02*
D03*
X671830D02*
D03*
X683260Y170180D02*
D03*
X689610D02*
D03*
X695960D02*
D03*
X683260Y154940D02*
D03*
X689610D02*
D03*
X695960D02*
D03*
X676910D02*
D03*
X670560D02*
D03*
X676910Y170180D02*
D03*
X670560D02*
D03*
X668020Y60960D02*
D03*
X674370D02*
D03*
X668020Y45720D02*
D03*
X674370D02*
D03*
X693420D02*
D03*
X687070D02*
D03*
X680720D02*
D03*
X693420Y60960D02*
D03*
X687070D02*
D03*
X680720D02*
D03*
X628650Y283210D02*
D03*
X370840Y275590D02*
D03*
X87630Y383540D02*
D03*
X500380Y24130D02*
D03*
Y133350D02*
D03*
Y242570D02*
D03*
Y351790D02*
D03*
X284480Y163830D02*
D03*
X327660Y265430D02*
D03*
X641350Y125730D02*
D03*
X610870Y412750D02*
D03*
X600710Y346710D02*
D03*
X360680Y218440D02*
D03*
Y226060D02*
D03*
X186690Y336550D02*
D03*
Y342900D02*
D03*
Y349250D02*
D03*
X138430Y336550D02*
D03*
Y342900D02*
D03*
Y349250D02*
D03*
X304800Y401320D02*
D03*
X100330Y394970D02*
D03*
X396240Y341630D02*
D03*
Y394970D02*
D03*
Y285750D02*
D03*
Y232410D02*
D03*
Y176530D02*
D03*
Y123190D02*
D03*
Y67310D02*
D03*
Y13970D02*
D03*
X406400Y24130D02*
D03*
Y57150D02*
D03*
Y133350D02*
D03*
Y166370D02*
D03*
Y242570D02*
D03*
Y275590D02*
D03*
Y351790D02*
D03*
Y384810D02*
D03*
X66040Y331470D02*
D03*
X48260Y326390D02*
D03*
X30480D02*
D03*
X12700D02*
D03*
X88900Y339090D02*
D03*
X111760Y424180D02*
D03*
X294640Y393700D02*
D03*
Y387350D02*
D03*
Y373380D02*
D03*
Y379730D02*
D03*
X242570Y388620D02*
D03*
Y374650D02*
D03*
Y360680D02*
D03*
X251460Y350520D02*
D03*
Y419100D02*
D03*
Y398780D02*
D03*
X320040Y425450D02*
D03*
X330200Y416560D02*
D03*
X326390Y358140D02*
D03*
X294640Y419100D02*
D03*
X266700Y398780D02*
D03*
X278130Y391160D02*
D03*
X313690Y368300D02*
D03*
X325120D02*
D03*
X290830Y160020D02*
D03*
X322580Y168910D02*
D03*
X257810Y219710D02*
D03*
X370840Y24130D02*
D03*
Y57150D02*
D03*
Y133350D02*
D03*
Y166370D02*
D03*
X370840Y351790D02*
D03*
Y384810D02*
D03*
X370840Y242570D02*
D03*
X435610Y16510D02*
D03*
X581660Y63500D02*
D03*
X563880D02*
D03*
X548640D02*
D03*
X530860D02*
D03*
X515620D02*
D03*
X497840D02*
D03*
Y31750D02*
D03*
X515620D02*
D03*
X523240Y24130D02*
D03*
X530860Y31750D02*
D03*
X548640D02*
D03*
X556260Y24130D02*
D03*
X563880Y31750D02*
D03*
X581660D02*
D03*
X589280Y24130D02*
D03*
X600710Y19050D02*
D03*
X628650Y64770D02*
D03*
X415290Y170180D02*
D03*
X435610Y125730D02*
D03*
X497840Y140970D02*
D03*
Y172720D02*
D03*
X515620D02*
D03*
X530860D02*
D03*
X548640D02*
D03*
X581660D02*
D03*
X563880D02*
D03*
X515620Y140970D02*
D03*
X523240Y133350D02*
D03*
X530860Y140970D02*
D03*
X548640D02*
D03*
X556260Y133350D02*
D03*
X563880Y140970D02*
D03*
X581660D02*
D03*
X589280Y133350D02*
D03*
X600710Y128270D02*
D03*
X628650Y173990D02*
D03*
X610870Y194310D02*
D03*
X641350Y16510D02*
D03*
X610870Y85090D02*
D03*
X435610Y344170D02*
D03*
X435610Y234950D02*
D03*
X581660Y391160D02*
D03*
X563880D02*
D03*
X548640D02*
D03*
X530860D02*
D03*
X515620D02*
D03*
X497840D02*
D03*
Y359410D02*
D03*
X515620D02*
D03*
X523240Y351790D02*
D03*
X530860Y359410D02*
D03*
X548640D02*
D03*
X556260Y351790D02*
D03*
X563880Y359410D02*
D03*
X581660D02*
D03*
X589280Y351790D02*
D03*
X628650Y392430D02*
D03*
X600710Y237490D02*
D03*
X589280Y242570D02*
D03*
X581660Y250190D02*
D03*
X556260Y242570D02*
D03*
X563880Y250190D02*
D03*
X548640D02*
D03*
X581660Y281940D02*
D03*
X563880D02*
D03*
X548640D02*
D03*
X515620D02*
D03*
X530860D02*
D03*
X523240Y242570D02*
D03*
X530860Y250190D02*
D03*
X515620D02*
D03*
X497840D02*
D03*
Y281940D02*
D03*
X641350Y344170D02*
D03*
Y234950D02*
D03*
X610870Y303530D02*
D03*
X100330Y368300D02*
D03*
X354330Y246380D02*
D03*
Y236220D02*
D03*
Y194310D02*
D03*
X325120Y198120D02*
D03*
X318770D02*
D03*
X312420D02*
D03*
X306070D02*
D03*
X299720D02*
D03*
X293370D02*
D03*
X287020D02*
D03*
X325120Y236220D02*
D03*
X318770D02*
D03*
X312420D02*
D03*
X306070D02*
D03*
X299720D02*
D03*
X293370D02*
D03*
X287020D02*
D03*
Y229870D02*
D03*
Y223520D02*
D03*
Y217170D02*
D03*
Y210820D02*
D03*
Y204470D02*
D03*
X293370D02*
D03*
X299720D02*
D03*
X293370Y210820D02*
D03*
Y217170D02*
D03*
Y223520D02*
D03*
Y229870D02*
D03*
X299720D02*
D03*
Y217170D02*
D03*
Y210820D02*
D03*
Y223520D02*
D03*
X306070Y229870D02*
D03*
X312420D02*
D03*
X318770D02*
D03*
X325120D02*
D03*
Y223520D02*
D03*
X312420D02*
D03*
X306070D02*
D03*
X318770D02*
D03*
Y210820D02*
D03*
X306070D02*
D03*
Y204470D02*
D03*
X312420D02*
D03*
Y210820D02*
D03*
X318770Y204470D02*
D03*
X325120D02*
D03*
Y210820D02*
D03*
Y217170D02*
D03*
X318770D02*
D03*
X312420D02*
D03*
X306070D02*
D03*
X257810Y241300D02*
D03*
X289560Y265430D02*
D03*
X298450D02*
D03*
X317500D02*
D03*
X354330Y213360D02*
D03*
Y203200D02*
D03*
Y185420D02*
D03*
X302260Y168910D02*
D03*
X294640D02*
D03*
X257810Y189230D02*
D03*
D114*
X59690Y279400D02*
D03*
X25400Y88900D02*
D03*
X54610Y115570D02*
D03*
X17780Y105410D02*
D03*
X25400Y179070D02*
D03*
Y205740D02*
D03*
X55880Y217170D02*
D03*
X34290Y218440D02*
D03*
X29210Y241300D02*
D03*
X243840Y-2540D02*
D03*
X228600D02*
D03*
X218440Y5080D02*
D03*
X203200D02*
D03*
X158750Y-22860D02*
D03*
X208280Y-17780D02*
D03*
X283210Y-11430D02*
D03*
X267970Y-8890D02*
D03*
X337820Y424180D02*
D03*
X645187Y63270D02*
D03*
X635041Y62730D02*
D03*
X628885Y46127D02*
D03*
X638675Y43411D02*
D03*
X453210Y51930D02*
D03*
X444320D02*
D03*
X448840Y45680D02*
D03*
X444500Y39370D02*
D03*
X453390D02*
D03*
X453210Y161150D02*
D03*
X444320D02*
D03*
X448840Y154900D02*
D03*
X444500Y148590D02*
D03*
X453390D02*
D03*
X453210Y270450D02*
D03*
X444320D02*
D03*
X448840Y264200D02*
D03*
X444500Y257890D02*
D03*
X453390D02*
D03*
X453390Y367030D02*
D03*
X444500D02*
D03*
X448840Y373340D02*
D03*
X444320Y379590D02*
D03*
X453210D02*
D03*
X208840Y391650D02*
D03*
X203660Y396170D02*
D03*
X215090D02*
D03*
Y387280D02*
D03*
X203660D02*
D03*
X149860Y387350D02*
D03*
X161290D02*
D03*
Y396240D02*
D03*
X149860D02*
D03*
X155040Y391720D02*
D03*
X675640Y10160D02*
D03*
X683260D02*
D03*
X690880D02*
D03*
X660400D02*
D03*
X668020D02*
D03*
X675640Y96520D02*
D03*
X683260D02*
D03*
X690880D02*
D03*
X660400D02*
D03*
X668020D02*
D03*
X675640Y119380D02*
D03*
X683260D02*
D03*
X690880D02*
D03*
X660400D02*
D03*
X668020D02*
D03*
X675640Y205740D02*
D03*
X683260D02*
D03*
X690880D02*
D03*
X660400D02*
D03*
X668020D02*
D03*
X675640Y228600D02*
D03*
X683260D02*
D03*
X690880D02*
D03*
X660400D02*
D03*
X668020D02*
D03*
X675640Y314960D02*
D03*
X683260D02*
D03*
X690880D02*
D03*
X660400D02*
D03*
X668020D02*
D03*
X675640Y337820D02*
D03*
X683260D02*
D03*
X690880D02*
D03*
X660400D02*
D03*
X668020D02*
D03*
Y424180D02*
D03*
X660400D02*
D03*
X690880D02*
D03*
X683260D02*
D03*
X675640D02*
D03*
X370128Y377394D02*
D03*
X359969Y377253D02*
D03*
X351793Y371222D02*
D03*
X344608Y364038D02*
D03*
X330240Y349669D02*
D03*
X323056Y342485D02*
D03*
X301503Y320932D02*
D03*
X297016Y311817D02*
D03*
Y301657D02*
D03*
Y291497D02*
D03*
Y281337D02*
D03*
X315124Y280578D02*
D03*
Y290738D02*
D03*
Y300898D02*
D03*
X316432Y310973D02*
D03*
X323616Y318157D02*
D03*
X345169Y339710D02*
D03*
X352353Y346894D02*
D03*
X359537Y354078D02*
D03*
X368309Y359206D02*
D03*
X353942Y275794D02*
D03*
X343782D02*
D03*
X333741Y274246D02*
D03*
X363047Y275637D02*
D03*
X361658Y255182D02*
D03*
X370780Y250709D02*
D03*
X351436Y140836D02*
D03*
X361595Y140766D02*
D03*
X302016Y153973D02*
D03*
Y133653D02*
D03*
Y123493D02*
D03*
X302216Y113335D02*
D03*
X308382Y105259D02*
D03*
X315566Y98075D02*
D03*
X347100Y38601D02*
D03*
X354802Y31976D02*
D03*
X364953Y31546D02*
D03*
X369807Y49734D02*
D03*
X359747Y51151D02*
D03*
X352562Y58335D02*
D03*
X351994Y68479D02*
D03*
Y78639D02*
D03*
X350745Y88722D02*
D03*
X343728Y96070D02*
D03*
X322176Y117623D02*
D03*
X320124Y158054D02*
D03*
X325778Y152167D02*
D03*
X321106Y143145D02*
D03*
Y132985D02*
D03*
Y122825D02*
D03*
Y92345D02*
D03*
Y82185D02*
D03*
Y72025D02*
D03*
Y61865D02*
D03*
X317753Y52274D02*
D03*
X307593D02*
D03*
X297433Y52238D02*
D03*
X289080Y46454D02*
D03*
X290017Y17400D02*
D03*
X300153Y16701D02*
D03*
X309309Y21105D02*
D03*
X315192Y34086D02*
D03*
X325352D02*
D03*
X334595Y38306D02*
D03*
X339294Y47313D02*
D03*
Y108273D02*
D03*
Y118433D02*
D03*
Y128593D02*
D03*
Y138753D02*
D03*
X372314Y207364D02*
D03*
X201814Y28922D02*
D03*
X193357Y23290D02*
D03*
X183197D02*
D03*
X173037D02*
D03*
X162877D02*
D03*
X152717D02*
D03*
X142557D02*
D03*
X134818Y29872D02*
D03*
X125548Y34032D02*
D03*
X115510Y32465D02*
D03*
X107995Y25628D02*
D03*
X105453Y15791D02*
D03*
X108814Y6203D02*
D03*
X116858Y-3D02*
D03*
X126985Y-822D02*
D03*
X135857Y4128D02*
D03*
X144333Y9730D02*
D03*
X154494D02*
D03*
X164653D02*
D03*
X174813D02*
D03*
X184974D02*
D03*
X195133D02*
D03*
X204830Y12762D02*
D03*
X218300Y27782D02*
D03*
X299720Y160020D02*
D03*
X297180Y147320D02*
D03*
X294640Y133350D02*
D03*
X284480Y139700D02*
D03*
X285750Y148590D02*
D03*
X267016Y177321D02*
D03*
X263818Y147358D02*
D03*
X255632Y141340D02*
D03*
X226946Y138578D02*
D03*
X267275Y132276D02*
D03*
X254000Y148590D02*
D03*
X246380Y170180D02*
D03*
X257810Y173990D02*
D03*
X254000Y181610D02*
D03*
X373380Y201930D02*
D03*
Y194310D02*
D03*
Y185420D02*
D03*
X359410Y160020D02*
D03*
X345440Y171450D02*
D03*
X327660Y162560D02*
D03*
X294640Y365760D02*
D03*
Y403860D02*
D03*
Y411480D02*
D03*
X421640Y129540D02*
D03*
X182880Y101600D02*
D03*
X236220Y121620D02*
D03*
Y147620D02*
D03*
X292400Y118110D02*
D03*
X266700D02*
D03*
X177800Y46990D02*
D03*
X237490Y15240D02*
D03*
X215900D02*
D03*
X203200Y421640D02*
D03*
X227330Y414020D02*
D03*
X96520Y354330D02*
D03*
X133350Y381000D02*
D03*
X128270Y341630D02*
D03*
X636270Y401320D02*
D03*
X506730Y405130D02*
D03*
X464820Y236220D02*
D03*
X455930Y330200D02*
D03*
X180340Y147320D02*
D03*
X129540Y120650D02*
D03*
X149860Y120650D02*
D03*
X195580Y147320D02*
D03*
X214630Y151130D02*
D03*
X205740Y448310D02*
D03*
X147320Y447040D02*
D03*
X119380Y429260D02*
D03*
X181610Y394970D02*
D03*
X175066Y407864D02*
D03*
X121920Y405130D02*
D03*
X280670Y308610D02*
D03*
X287020Y330200D02*
D03*
X345440Y445770D02*
D03*
X173990Y363220D02*
D03*
X220980Y340360D02*
D03*
X228172Y360680D02*
D03*
X171450Y344170D02*
D03*
X127000Y426720D02*
D03*
X139700Y416560D02*
D03*
X161290Y422910D02*
D03*
X168910Y425450D02*
D03*
X393700Y213360D02*
D03*
X302260Y33020D02*
D03*
X59690Y41910D02*
D03*
X76200D02*
D03*
X302260Y24130D02*
D03*
X278130Y55880D02*
D03*
Y-1350D02*
D03*
X467360Y342900D02*
D03*
X420370Y20320D02*
D03*
X448310Y179070D02*
D03*
X477520Y185420D02*
D03*
X449580Y24130D02*
D03*
X477520Y13970D02*
D03*
X464820Y19050D02*
D03*
X449580Y68580D02*
D03*
X477520Y76200D02*
D03*
X464820Y73660D02*
D03*
X477520Y124460D02*
D03*
X449580Y133350D02*
D03*
X464820Y128270D02*
D03*
Y184150D02*
D03*
X449580Y242570D02*
D03*
X477520Y232410D02*
D03*
X449580Y285750D02*
D03*
X477520Y293370D02*
D03*
X464820Y290830D02*
D03*
X448310Y394970D02*
D03*
X477520Y403860D02*
D03*
X464820Y402590D02*
D03*
X490220Y396240D02*
D03*
X419100Y347980D02*
D03*
D115*
X688340Y439420D02*
D03*
X673100Y-17780D02*
D03*
X657860Y439420D02*
D03*
X642620Y-17780D02*
D03*
X627380Y439420D02*
D03*
X612140Y-17780D02*
D03*
X581660Y347980D02*
D03*
X551180Y408940D02*
D03*
Y347980D02*
D03*
Y226060D02*
D03*
X566420Y134620D02*
D03*
X551180Y104140D02*
D03*
X566420Y73660D02*
D03*
X551180Y-17780D02*
D03*
X535940Y439420D02*
D03*
X520700Y408940D02*
D03*
Y226060D02*
D03*
X535940Y134620D02*
D03*
Y73660D02*
D03*
X520700Y-17780D02*
D03*
X505460Y439420D02*
D03*
Y73660D02*
D03*
X490220Y-17780D02*
D03*
X444500Y439420D02*
D03*
X429260Y408940D02*
D03*
Y-17780D02*
D03*
X414020Y439420D02*
D03*
X398780Y408940D02*
D03*
Y226060D02*
D03*
X414020Y134620D02*
D03*
Y73660D02*
D03*
Y12700D02*
D03*
X398780Y-17780D02*
D03*
X368300Y408940D02*
D03*
X353060Y439420D02*
D03*
Y378460D02*
D03*
Y12700D02*
D03*
X337820Y-17780D02*
D03*
X322580Y439420D02*
D03*
X307340Y347980D02*
D03*
X322580Y12700D02*
D03*
X307340Y-17780D02*
D03*
X276860Y347980D02*
D03*
Y104140D02*
D03*
X292100Y73660D02*
D03*
X246380Y104140D02*
D03*
X261620Y73660D02*
D03*
X246380Y43180D02*
D03*
X231140Y378460D02*
D03*
X215900Y104140D02*
D03*
X231140Y73660D02*
D03*
X200660D02*
D03*
X185420Y43180D02*
D03*
X170180Y378460D02*
D03*
X154940Y104140D02*
D03*
X170180Y73660D02*
D03*
X139700Y378460D02*
D03*
X124460Y165100D02*
D03*
Y43180D02*
D03*
Y-17780D02*
D03*
X78740Y439420D02*
D03*
X63500Y104140D02*
D03*
X78740Y12700D02*
D03*
X63500Y-17780D02*
D03*
X48260Y317500D02*
D03*
X33020Y287020D02*
D03*
X48260Y195580D02*
D03*
Y134620D02*
D03*
X33020Y43180D02*
D03*
M02*
