G04*
G04 #@! TF.GenerationSoftware,Altium Limited,Altium Designer,24.3.1 (35)*
G04*
G04 Layer_Color=8421504*
%FSLAX44Y44*%
%MOMM*%
G71*
G04*
G04 #@! TF.SameCoordinates,E54A5323-C3A8-4295-A2F1-912E9A9C0EE7*
G04*
G04*
G04 #@! TF.FilePolarity,Positive*
G04*
G01*
G75*
%ADD20R,0.5500X2.2000*%
%ADD21R,1.0250X0.2800*%
%ADD22R,1.7500X1.5000*%
%ADD23R,0.3500X0.8500*%
%ADD24R,0.7620X0.7620*%
%ADD25R,0.6000X0.5000*%
%ADD26R,0.5000X0.6000*%
%ADD27R,0.8000X0.9000*%
%ADD28R,0.9000X0.8000*%
%ADD29R,0.9500X1.0000*%
%ADD30R,1.0000X0.9500*%
%ADD31R,1.3000X1.0000*%
G04:AMPARAMS|DCode=32|XSize=0.8mm|YSize=0.58mm|CornerRadius=0.0725mm|HoleSize=0mm|Usage=FLASHONLY|Rotation=270.000|XOffset=0mm|YOffset=0mm|HoleType=Round|Shape=RoundedRectangle|*
%AMROUNDEDRECTD32*
21,1,0.8000,0.4350,0,0,270.0*
21,1,0.6550,0.5800,0,0,270.0*
1,1,0.1450,-0.2175,-0.3275*
1,1,0.1450,-0.2175,0.3275*
1,1,0.1450,0.2175,0.3275*
1,1,0.1450,0.2175,-0.3275*
%
%ADD32ROUNDEDRECTD32*%
%ADD33R,0.6000X0.8000*%
%ADD34R,1.6500X0.7600*%
%ADD35R,1.2000X1.5000*%
%ADD36R,0.7620X0.7620*%
%ADD37R,0.8000X0.6000*%
%ADD38R,4.9022X1.6002*%
%ADD39R,2.0574X0.5080*%
%ADD40R,1.1000X0.6000*%
%ADD41O,1.0000X0.8000*%
%ADD42R,1.9000X1.0000*%
%ADD43R,1.5000X0.8000*%
%ADD44O,0.8000X1.0000*%
%ADD45R,1.0000X1.9000*%
%ADD46R,0.8000X1.5000*%
%ADD47R,0.8500X0.3000*%
%ADD48R,1.5500X1.8400*%
%ADD49R,1.2000X0.5500*%
%ADD50R,0.7000X0.2000*%
%ADD51R,0.2000X1.0500*%
%ADD52R,0.2500X0.5000*%
G04:AMPARAMS|DCode=53|XSize=0.5021mm|YSize=0.2425mm|CornerRadius=0.1212mm|HoleSize=0mm|Usage=FLASHONLY|Rotation=0.000|XOffset=0mm|YOffset=0mm|HoleType=Round|Shape=RoundedRectangle|*
%AMROUNDEDRECTD53*
21,1,0.5021,0.0000,0,0,0.0*
21,1,0.2596,0.2425,0,0,0.0*
1,1,0.2425,0.1298,0.0000*
1,1,0.2425,-0.1298,0.0000*
1,1,0.2425,-0.1298,0.0000*
1,1,0.2425,0.1298,0.0000*
%
%ADD53ROUNDEDRECTD53*%
%ADD54O,0.5021X0.2425*%
%ADD55R,6.1000X6.1000*%
G04:AMPARAMS|DCode=56|XSize=0.25mm|YSize=0.8mm|CornerRadius=0.0625mm|HoleSize=0mm|Usage=FLASHONLY|Rotation=90.000|XOffset=0mm|YOffset=0mm|HoleType=Round|Shape=RoundedRectangle|*
%AMROUNDEDRECTD56*
21,1,0.2500,0.6750,0,0,90.0*
21,1,0.1250,0.8000,0,0,90.0*
1,1,0.1250,0.3375,0.0625*
1,1,0.1250,0.3375,-0.0625*
1,1,0.1250,-0.3375,-0.0625*
1,1,0.1250,-0.3375,0.0625*
%
%ADD56ROUNDEDRECTD56*%
G04:AMPARAMS|DCode=57|XSize=0.25mm|YSize=0.8mm|CornerRadius=0.0625mm|HoleSize=0mm|Usage=FLASHONLY|Rotation=180.000|XOffset=0mm|YOffset=0mm|HoleType=Round|Shape=RoundedRectangle|*
%AMROUNDEDRECTD57*
21,1,0.2500,0.6750,0,0,180.0*
21,1,0.1250,0.8000,0,0,180.0*
1,1,0.1250,-0.0625,0.3375*
1,1,0.1250,0.0625,0.3375*
1,1,0.1250,0.0625,-0.3375*
1,1,0.1250,-0.0625,-0.3375*
%
%ADD57ROUNDEDRECTD57*%
D20*
X294640Y383540D02*
D03*
D21*
X168910Y394970D02*
D03*
Y388470D02*
D03*
X141170D02*
D03*
Y394970D02*
D03*
X194970Y394900D02*
D03*
Y388400D02*
D03*
X222710D02*
D03*
Y394900D02*
D03*
D22*
X155040Y391720D02*
D03*
X208840Y391650D02*
D03*
D23*
X145290Y406470D02*
D03*
X151790D02*
D03*
X158290D02*
D03*
X164790D02*
D03*
Y376970D02*
D03*
X158290D02*
D03*
X151790D02*
D03*
X145290D02*
D03*
X199090Y376900D02*
D03*
X205590D02*
D03*
X212090D02*
D03*
X218590D02*
D03*
Y406400D02*
D03*
X212090D02*
D03*
X205590D02*
D03*
X199090D02*
D03*
D24*
X119380Y354330D02*
D03*
X104140D02*
D03*
X148590Y344170D02*
D03*
X163830D02*
D03*
X199390Y421640D02*
D03*
X184150D02*
D03*
Y448310D02*
D03*
X199390D02*
D03*
X154940Y422910D02*
D03*
X139700D02*
D03*
X154940Y447040D02*
D03*
X139700D02*
D03*
X213360Y434340D02*
D03*
X228600D02*
D03*
X195580Y153670D02*
D03*
X180340D02*
D03*
X214630Y340360D02*
D03*
X199390D02*
D03*
D25*
X464820Y179070D02*
D03*
X454820D02*
D03*
X619680Y125730D02*
D03*
X609680D02*
D03*
X619680Y234950D02*
D03*
X609680D02*
D03*
X464820Y285750D02*
D03*
X454820D02*
D03*
X619680Y344170D02*
D03*
X609680D02*
D03*
X464820Y394970D02*
D03*
X454820D02*
D03*
X198120Y101600D02*
D03*
X188120Y101600D02*
D03*
X222170Y420370D02*
D03*
X212170D02*
D03*
X378540Y222250D02*
D03*
X388540D02*
D03*
X401320Y35560D02*
D03*
X411320D02*
D03*
X464820Y133350D02*
D03*
X454820D02*
D03*
X464820Y24130D02*
D03*
X454820D02*
D03*
X467360Y347980D02*
D03*
X457360D02*
D03*
X378540Y394970D02*
D03*
X388540D02*
D03*
X378540Y341630D02*
D03*
X388540D02*
D03*
X378540Y285750D02*
D03*
X388540D02*
D03*
X378540Y232410D02*
D03*
X388540D02*
D03*
X378540Y176530D02*
D03*
X388540D02*
D03*
X378540Y123190D02*
D03*
X388540D02*
D03*
X378540Y67310D02*
D03*
X388540D02*
D03*
X378540Y13970D02*
D03*
X388540D02*
D03*
X144700Y182880D02*
D03*
X134700D02*
D03*
X144700Y208280D02*
D03*
X134700D02*
D03*
X144700Y233680D02*
D03*
X134700D02*
D03*
X144700Y259080D02*
D03*
X134700D02*
D03*
X144700Y284480D02*
D03*
X134700D02*
D03*
X144700Y309880D02*
D03*
X134700D02*
D03*
X295830Y358140D02*
D03*
X285830D02*
D03*
X318690D02*
D03*
X308690D02*
D03*
X88820Y392430D02*
D03*
X78820D02*
D03*
X398780Y373380D02*
D03*
X408780D02*
D03*
X398780Y363220D02*
D03*
X408780D02*
D03*
X577770Y151130D02*
D03*
X567770D02*
D03*
X544750D02*
D03*
X534750D02*
D03*
X511730D02*
D03*
X501730D02*
D03*
X577770Y41910D02*
D03*
X567770D02*
D03*
X544750D02*
D03*
X534750D02*
D03*
X511730D02*
D03*
X501730D02*
D03*
X577770Y369570D02*
D03*
X567770D02*
D03*
X544750D02*
D03*
X534750D02*
D03*
X511730D02*
D03*
X501730D02*
D03*
X577770Y260350D02*
D03*
X567770D02*
D03*
X544750D02*
D03*
X534750D02*
D03*
X511730D02*
D03*
X501730D02*
D03*
X464820Y242570D02*
D03*
X454820D02*
D03*
X610950Y392430D02*
D03*
X620950D02*
D03*
X619680Y16510D02*
D03*
X609680D02*
D03*
X464820Y68580D02*
D03*
X454820D02*
D03*
X295830Y24130D02*
D03*
X285830D02*
D03*
X295830Y33020D02*
D03*
X285830D02*
D03*
X202010Y351790D02*
D03*
X212010D02*
D03*
X148670Y355600D02*
D03*
X158670D02*
D03*
X388540Y213360D02*
D03*
X378540D02*
D03*
X222170Y360680D02*
D03*
X212170D02*
D03*
X168750Y363220D02*
D03*
X158750D02*
D03*
X620950Y76200D02*
D03*
X610950D02*
D03*
X620950Y185420D02*
D03*
X610950D02*
D03*
X620950Y403860D02*
D03*
X610950D02*
D03*
X620950Y294640D02*
D03*
X610950D02*
D03*
X398700Y166370D02*
D03*
X388700D02*
D03*
X398700Y133350D02*
D03*
X388700D02*
D03*
X398700Y24130D02*
D03*
X388700D02*
D03*
X398700Y57150D02*
D03*
X388700D02*
D03*
X398700Y242570D02*
D03*
X388700D02*
D03*
X398700Y275590D02*
D03*
X388700D02*
D03*
X398700Y351790D02*
D03*
X388700D02*
D03*
X398700Y384810D02*
D03*
X388700D02*
D03*
X411400Y254000D02*
D03*
X401400D02*
D03*
X577770Y53340D02*
D03*
X567770D02*
D03*
X544750D02*
D03*
X534750D02*
D03*
X511730D02*
D03*
X501730D02*
D03*
X577770Y271780D02*
D03*
X567770D02*
D03*
X544750D02*
D03*
X534750D02*
D03*
X511730D02*
D03*
X501730D02*
D03*
X411400Y45720D02*
D03*
X401400D02*
D03*
X411400Y264160D02*
D03*
X401400D02*
D03*
X411400Y144780D02*
D03*
X401400D02*
D03*
X577770Y381000D02*
D03*
X567770D02*
D03*
X577770Y162560D02*
D03*
X567770D02*
D03*
X544750D02*
D03*
X534750D02*
D03*
X511730D02*
D03*
X501730D02*
D03*
X544750Y381000D02*
D03*
X534750D02*
D03*
X511730D02*
D03*
X501730D02*
D03*
X411400Y154940D02*
D03*
X401400D02*
D03*
X620950Y64770D02*
D03*
X610950D02*
D03*
X620950Y173990D02*
D03*
X610950D02*
D03*
X620950Y283210D02*
D03*
X610950D02*
D03*
X144700Y297180D02*
D03*
X134700D02*
D03*
X144700Y271780D02*
D03*
X134700D02*
D03*
X144700Y246380D02*
D03*
X134700D02*
D03*
X144700Y220980D02*
D03*
X134700D02*
D03*
X144700Y195580D02*
D03*
X134700D02*
D03*
X144700Y170180D02*
D03*
X134700D02*
D03*
D26*
X389890Y154860D02*
D03*
Y144860D02*
D03*
X589280Y141050D02*
D03*
Y151050D02*
D03*
X556260Y162640D02*
D03*
Y172640D02*
D03*
X523240Y151050D02*
D03*
Y141050D02*
D03*
X490220Y151050D02*
D03*
Y141050D02*
D03*
X589280Y162640D02*
D03*
Y172640D02*
D03*
X556260Y141050D02*
D03*
Y151050D02*
D03*
X523240Y172640D02*
D03*
Y162640D02*
D03*
X490220Y172640D02*
D03*
Y162640D02*
D03*
X389890Y45640D02*
D03*
Y35640D02*
D03*
X589280Y31830D02*
D03*
Y41830D02*
D03*
X556260Y41830D02*
D03*
Y31830D02*
D03*
X523240Y41830D02*
D03*
Y31830D02*
D03*
X490220Y41830D02*
D03*
Y31830D02*
D03*
X589280Y53420D02*
D03*
Y63420D02*
D03*
X556260Y63420D02*
D03*
Y53420D02*
D03*
X523240Y63420D02*
D03*
Y53420D02*
D03*
X318770Y388540D02*
D03*
Y378540D02*
D03*
X113030Y405210D02*
D03*
Y415210D02*
D03*
X600710Y292020D02*
D03*
Y282020D02*
D03*
X477520Y257890D02*
D03*
Y267890D02*
D03*
X600710Y401240D02*
D03*
Y391240D02*
D03*
X477520Y367110D02*
D03*
Y377110D02*
D03*
X600710Y73500D02*
D03*
Y63500D02*
D03*
X477520Y39450D02*
D03*
Y49450D02*
D03*
X600710Y182720D02*
D03*
Y172720D02*
D03*
X477520Y149940D02*
D03*
Y159940D02*
D03*
X181610Y400130D02*
D03*
Y410130D02*
D03*
X421640Y144700D02*
D03*
Y134700D02*
D03*
X419100Y363140D02*
D03*
Y353140D02*
D03*
X420370Y35560D02*
D03*
Y25560D02*
D03*
Y254000D02*
D03*
Y244000D02*
D03*
X421640Y155020D02*
D03*
Y165020D02*
D03*
X378460Y156290D02*
D03*
Y166290D02*
D03*
Y133430D02*
D03*
Y143430D02*
D03*
X420370Y45720D02*
D03*
Y55720D02*
D03*
X378460Y47150D02*
D03*
Y57150D02*
D03*
X490220Y63420D02*
D03*
Y53420D02*
D03*
X388620Y373300D02*
D03*
Y363300D02*
D03*
X589280Y391080D02*
D03*
Y381080D02*
D03*
X556260Y369490D02*
D03*
Y359490D02*
D03*
X523240Y369490D02*
D03*
Y359490D02*
D03*
X490220Y369490D02*
D03*
Y359490D02*
D03*
X589280Y369490D02*
D03*
Y359490D02*
D03*
X477520Y247650D02*
D03*
Y237650D02*
D03*
X632460Y125810D02*
D03*
Y135810D02*
D03*
X477520Y170180D02*
D03*
Y180180D02*
D03*
Y387350D02*
D03*
Y397350D02*
D03*
X632460Y344250D02*
D03*
Y354250D02*
D03*
Y16590D02*
D03*
Y26590D02*
D03*
X477520Y60960D02*
D03*
Y70960D02*
D03*
Y278130D02*
D03*
Y288130D02*
D03*
X632460Y235030D02*
D03*
Y245030D02*
D03*
X556260Y391080D02*
D03*
Y381080D02*
D03*
X523240Y391080D02*
D03*
Y381080D02*
D03*
X490220Y391080D02*
D03*
Y381080D02*
D03*
X389890Y264080D02*
D03*
Y254080D02*
D03*
X589280Y250270D02*
D03*
Y260270D02*
D03*
X556260Y260270D02*
D03*
Y250270D02*
D03*
X523240Y271860D02*
D03*
Y281860D02*
D03*
X490220Y271860D02*
D03*
Y281860D02*
D03*
X589280Y271860D02*
D03*
Y281860D02*
D03*
X556260Y281860D02*
D03*
Y271860D02*
D03*
X523240Y250270D02*
D03*
Y260270D02*
D03*
X490220Y250270D02*
D03*
Y260270D02*
D03*
X66040Y392350D02*
D03*
Y382350D02*
D03*
X332740Y358220D02*
D03*
Y368220D02*
D03*
X332740Y392350D02*
D03*
Y382350D02*
D03*
X304800Y419020D02*
D03*
Y409020D02*
D03*
X284480Y409020D02*
D03*
Y419020D02*
D03*
X78740Y370920D02*
D03*
Y380920D02*
D03*
X278130Y22940D02*
D03*
Y32940D02*
D03*
Y13890D02*
D03*
Y3890D02*
D03*
Y40720D02*
D03*
Y50720D02*
D03*
X378460Y24290D02*
D03*
Y34290D02*
D03*
X419100Y373460D02*
D03*
Y383460D02*
D03*
X378460Y384730D02*
D03*
Y374730D02*
D03*
Y351870D02*
D03*
Y361870D02*
D03*
X420370Y264160D02*
D03*
Y274160D02*
D03*
X378460Y265510D02*
D03*
Y275510D02*
D03*
Y242650D02*
D03*
Y252650D02*
D03*
X477520Y29130D02*
D03*
Y19130D02*
D03*
Y139620D02*
D03*
Y129620D02*
D03*
X477520Y358140D02*
D03*
Y348140D02*
D03*
D27*
X105380Y449580D02*
D03*
X119380D02*
D03*
X67930Y420370D02*
D03*
X81930D02*
D03*
X252080Y408940D02*
D03*
X266080D02*
D03*
X252080Y374650D02*
D03*
X266080D02*
D03*
X266080Y388620D02*
D03*
X252080D02*
D03*
X67930Y405130D02*
D03*
X81930D02*
D03*
X105380Y436880D02*
D03*
X119380D02*
D03*
X252080Y360680D02*
D03*
X266080D02*
D03*
D28*
X97790Y419750D02*
D03*
Y405750D02*
D03*
X127000Y405750D02*
D03*
Y419750D02*
D03*
X80010Y339710D02*
D03*
Y353710D02*
D03*
X320040Y415940D02*
D03*
Y401940D02*
D03*
X66040Y339710D02*
D03*
Y353710D02*
D03*
D29*
X345440Y394590D02*
D03*
Y410590D02*
D03*
X266700Y345820D02*
D03*
Y329820D02*
D03*
D30*
X103380Y341630D02*
D03*
X119380D02*
D03*
X658240Y271780D02*
D03*
X642240D02*
D03*
X165860Y153670D02*
D03*
X149860D02*
D03*
X200150Y434340D02*
D03*
X184150D02*
D03*
X154940Y435610D02*
D03*
X138940D02*
D03*
X658240Y53340D02*
D03*
X642240D02*
D03*
Y162560D02*
D03*
X658240D02*
D03*
X642240Y381000D02*
D03*
X658240D02*
D03*
D31*
X48260Y352170D02*
D03*
Y336170D02*
D03*
X12700Y352170D02*
D03*
Y336170D02*
D03*
X30480Y352170D02*
D03*
Y336170D02*
D03*
D32*
X620370Y161860D02*
D03*
X610870D02*
D03*
X601370D02*
D03*
X620370Y137860D02*
D03*
X610870D02*
D03*
X601370D02*
D03*
X620370Y52640D02*
D03*
X610870D02*
D03*
X601370D02*
D03*
X620370Y28640D02*
D03*
X610870D02*
D03*
X601370D02*
D03*
X620370Y271080D02*
D03*
X610870D02*
D03*
X601370D02*
D03*
X620370Y247080D02*
D03*
X610870D02*
D03*
X601370D02*
D03*
X601370Y356300D02*
D03*
X610870D02*
D03*
X620370D02*
D03*
X601370Y380300D02*
D03*
X610870D02*
D03*
X620370D02*
D03*
D33*
X210120Y40640D02*
D03*
Y28640D02*
D03*
D34*
X259130Y40640D02*
D03*
Y27940D02*
D03*
Y15240D02*
D03*
X227330D02*
D03*
Y40640D02*
D03*
D35*
X198120Y85090D02*
D03*
Y57150D02*
D03*
X177800D02*
D03*
Y85090D02*
D03*
D36*
X168910Y431800D02*
D03*
Y447040D02*
D03*
X345440Y424180D02*
D03*
Y439420D02*
D03*
X280670Y330200D02*
D03*
Y314960D02*
D03*
X149860Y120650D02*
D03*
Y135890D02*
D03*
X137160Y120650D02*
D03*
Y135890D02*
D03*
X208280Y151130D02*
D03*
Y135890D02*
D03*
D37*
X210120Y40640D02*
D03*
X198120D02*
D03*
D38*
X675640Y228600D02*
D03*
Y314960D02*
D03*
Y205740D02*
D03*
Y119380D02*
D03*
Y96520D02*
D03*
Y10160D02*
D03*
Y424180D02*
D03*
Y337820D02*
D03*
D39*
X689610Y271780D02*
D03*
Y162560D02*
D03*
Y53340D02*
D03*
Y381000D02*
D03*
D40*
X165100Y135890D02*
D03*
Y126390D02*
D03*
Y116890D02*
D03*
X189100D02*
D03*
Y135890D02*
D03*
D41*
X236220Y134620D02*
D03*
D42*
Y121620D02*
D03*
Y147620D02*
D03*
D43*
X243840Y134620D02*
D03*
D44*
X279400Y118110D02*
D03*
D45*
X292400D02*
D03*
X266400D02*
D03*
D46*
X279400Y125730D02*
D03*
D47*
X433070Y162400D02*
D03*
Y157400D02*
D03*
Y152400D02*
D03*
Y147400D02*
D03*
X464610D02*
D03*
Y152400D02*
D03*
Y157400D02*
D03*
Y162400D02*
D03*
X433070Y53180D02*
D03*
Y48180D02*
D03*
Y43180D02*
D03*
Y38180D02*
D03*
X464610D02*
D03*
Y43180D02*
D03*
Y48180D02*
D03*
Y53180D02*
D03*
X433070Y380840D02*
D03*
Y375840D02*
D03*
Y370840D02*
D03*
Y365840D02*
D03*
X464610D02*
D03*
Y370840D02*
D03*
Y375840D02*
D03*
Y380840D02*
D03*
X433070Y271700D02*
D03*
Y266700D02*
D03*
Y261700D02*
D03*
Y256700D02*
D03*
X464610D02*
D03*
Y261700D02*
D03*
Y266700D02*
D03*
Y271700D02*
D03*
D48*
X448840Y154900D02*
D03*
Y45680D02*
D03*
Y373340D02*
D03*
X448840Y264200D02*
D03*
D49*
X122320Y388750D02*
D03*
Y373250D02*
D03*
D50*
X101070Y375000D02*
D03*
Y379000D02*
D03*
Y383000D02*
D03*
Y387000D02*
D03*
D51*
X108570Y391250D02*
D03*
X112570D02*
D03*
Y370750D02*
D03*
X108570D02*
D03*
D52*
X119070Y394000D02*
D03*
X125570D02*
D03*
Y368000D02*
D03*
X119070D02*
D03*
D53*
X304404Y396040D02*
D03*
Y391040D02*
D03*
Y386040D02*
D03*
Y381040D02*
D03*
Y376040D02*
D03*
Y371040D02*
D03*
D54*
X284876D02*
D03*
Y376040D02*
D03*
Y381040D02*
D03*
Y386040D02*
D03*
Y391040D02*
D03*
Y396040D02*
D03*
D55*
X306070Y217170D02*
D03*
D56*
X267070Y184670D02*
D03*
Y189670D02*
D03*
Y194670D02*
D03*
Y199670D02*
D03*
Y204670D02*
D03*
Y209670D02*
D03*
Y214670D02*
D03*
Y219670D02*
D03*
Y224670D02*
D03*
Y229670D02*
D03*
Y234670D02*
D03*
Y239670D02*
D03*
Y244670D02*
D03*
Y249670D02*
D03*
X345070D02*
D03*
Y244670D02*
D03*
Y239670D02*
D03*
Y234670D02*
D03*
Y229670D02*
D03*
Y224670D02*
D03*
Y219670D02*
D03*
Y214670D02*
D03*
Y209670D02*
D03*
Y204670D02*
D03*
Y199670D02*
D03*
Y194670D02*
D03*
Y189670D02*
D03*
Y184670D02*
D03*
D57*
X273570Y256170D02*
D03*
X278570D02*
D03*
X283570D02*
D03*
X288570D02*
D03*
X293570D02*
D03*
X298570D02*
D03*
X303570D02*
D03*
X308570D02*
D03*
X313570D02*
D03*
X318570D02*
D03*
X323570D02*
D03*
X328570D02*
D03*
X333570D02*
D03*
X338570D02*
D03*
Y178170D02*
D03*
X333570D02*
D03*
X328570D02*
D03*
X323570D02*
D03*
X318570D02*
D03*
X313570D02*
D03*
X308570D02*
D03*
X303570D02*
D03*
X298570D02*
D03*
X293570D02*
D03*
X288570D02*
D03*
X283570D02*
D03*
X278570D02*
D03*
X273570D02*
D03*
M02*
