M48
;Layer_Color=9474304
;FILE_FORMAT=4:4
METRIC,LZ
;TYPE=PLATED
T01F00S00C0.3048
T02F00S00C0.8890
T03F00S00C1.0000
T04F00S00C1.5000
T05F00S00C2.2000
T06F00S00C3.2000
%
T01
X000635Y-0001778
X0007874Y000127
X00105453Y00015791
X00107995Y00025628
X0011551Y00032465
X0012446Y0004318
X000762Y0004191
X0005969
X0003302Y0004318
X000254Y000889
X0001778Y0010541
X0005461Y0011557
X000635Y0010414
X0004826Y0013462
X0012446Y001651
X00116858Y-00000003
X00108814Y00006203
X0012446Y-0001778
X00126985Y-00000822
X00135857Y00004128
X00144333Y0000973
X00154494
X00164653
X00174813
X00184974
X00195133
X002032Y0000508
X0020483Y00012762
X002159Y0001524
X0021844Y0000508
X002286Y-0000254
X0024384
X0023749Y0001524
X002183Y00027782
X00201814Y00028922
X00193357Y0002329
X00183197
X00173037
X00162877
X00152717
X00142557
X00134818Y00029872
X00125548Y00034032
X001778Y0004699
X0018542Y0004318
X0020066Y0007366
X0023114
X0026162
X002921
X00297433Y00052238
X00307593Y00052274
X00317753
X00321106Y00061865
Y00072025
Y00082185
Y00092345
X00315566Y00098075
X00308382Y00105259
X00302216Y00113335
X00302016Y00123493
Y00133653
X0029464Y0013335
X0029718Y0014732
X00302016Y00153973
X0029972Y0016002
X0029083
X0028448Y0016383
X0028575Y0014859
X0028448Y001397
X00267275Y00132276
X002667Y0011811
X0027686Y0010414
X002924Y0011811
X00322176Y00117623
X00321106Y00122825
Y00132985
Y00143145
X00325778Y00152167
X00320124Y00158054
X0032766Y0016256
X0035941Y0016002
X00361595Y00140766
X00351436Y00140836
X00339294Y00138753
Y00128593
Y00118433
Y00108273
X00343728Y0009607
X00350745Y00088722
X00351994Y00078639
Y00068479
X00352562Y00058335
X00359747Y00051151
X00369807Y00049734
X0037084Y0005715
X00364953Y00031546
X00354802Y00031976
X003471Y00038601
X00334595Y00038306
X00325352Y00034086
X00315192
X0030226Y0003302
Y0002413
X00300153Y00016701
X00290017Y000174
X00309309Y00021105
X0032258Y000127
X0035306
X0037084Y0002413
X0039624Y0001397
X0041402Y000127
X0042037Y0002032
X004064Y0002413
Y0005715
X0039624Y0006731
X0041402Y0007366
X0044958Y0006858
X0045321Y0005193
X0044432
X0044884Y0004568
X004445Y0003937
X0045339
X0044958Y0002413
X0046482Y0001905
X0047752Y0001397
X0050038Y0002413
X0049784Y0003175
X0051562
Y000635
X0049784
X0050546Y0007366
X0047752Y000762
X0046482Y0007366
Y0012827
X0047752Y0012446
X0050038Y0013335
X0049784Y0014097
X0051562
X0045339Y0014859
X004445
X0044884Y001549
X0045321Y0016115
X0044432
X0044958Y0013335
X0043561Y0012573
X0042164Y0012954
X0041402Y0013462
X004064Y0013335
X0039624Y0012319
X0037084Y0013335
X00339294Y00047313
X0028908Y00046454
X0027813Y0005588
X0024638Y0004318
Y0010414
X0023622Y0012162
Y0014762
X00226946Y00138578
X0021463Y0015113
X0019558Y0014732
X0018034
X0018288Y001016
X0015494Y0010414
X0014986Y0012065
X0012954Y0012065
X0017018Y0007366
X002159Y0010414
X00255632Y0014134
X00254Y0014859
X00263818Y00147358
X0026797Y-0000889
X0027813Y-0000135
X0028321Y-0001143
X0030734Y-0001778
X0033782
X0039878
X0042926
X0043561Y0001651
X0049022Y-0001778
X005207
X0020828
X0015875Y-0002286
X0055118Y-0001778
X0055626Y0002413
X0054864Y0003175
X0056388
X0058166
X0058928Y0002413
X0060071Y0001905
X0060137Y0003683
X00628885Y00046127
X00638675Y00043411
X00635041Y0006273
X0062865Y0006477
X00645187Y0006327
X0066802Y0006096
X0067437
X0068072
X0068707
X0069342
Y0004572
X0068707
X0068072
X0067437
X0066802
Y0001016
X0067564
X0068326
X0069088
X006604
X0064135Y0001651
X0064262Y-0001778
X006731
X0061214
X0061087Y0008509
X0058166Y000635
X0056388
X0056642Y0007366
X0054864Y000635
X0053086
X0053594Y0007366
X0055118Y0010414
X0055626Y0013335
X0056642Y0013462
X0056388Y0014097
X0054864
X0053086
X0053594Y0013462
X0052324Y0013335
X0058166Y0014097
X0058928Y0013335
X0060071Y0012827
X0060137Y0014605
X0064135Y0012573
X006604Y0011938
X0066802
X0067564
X0068326
X0069088
Y0009652
X0068326
X0067564
X0066802
X006604
X0067056Y0015494
X0067691
X0068326
X0068961
X0069596
X0053086Y0003175
X0052324Y0002413
X0053086Y0017272
X0054864
X0056388
X0058166
X0062865Y0017399
X0061087Y0019431
X0060071Y0023749
X0058928Y0024257
X0058166Y0025019
X0056388
X0055626Y0024257
X0054864Y0025019
X0053086
X0052324Y0024257
X0055118Y0022606
X0054864Y0028194
X0056388
X0058166
X0060104Y0025527
X0062865Y0028321
X0061087Y0030353
X0060071Y0034671
X0058928Y0035179
X0058166Y0034798
X0058166Y0035941
X0056388
X0054864
X0055118Y0034798
X0055626Y0035179
X0052324
X0053086Y0035941
Y0039116
X0054864
X0056388
X0058166
X0060071Y0036322
X0062865Y0039243
X0063627Y0040132
X0061087Y0041275
X0062738Y0043942
X0065786
X006604Y0042418
X0066802
X0067564
X0068326
X0069088
X0068834Y0043942
X0068961Y0038862
X0068326
X0067691
X0067056
Y0037338
X0067691
X0068326
X0068961
X0069596
Y0038862
X0069088Y0033782
X0068326
X0067564
X0066802
X006604
Y0031496
X0066802
X0067564
X0068326
X0069088
Y002794
X0068453
X0067818
X0067183
Y0026416
X0067818
X0068453
X0069088
X0069723
Y002794
X0069088Y002286
X0068326
X0067564
X0066802
X006604
Y0020574
X0066802
X0067564
X0068326
X0069088
X0068961Y0017018
X0068326
X0067691
X0067056
X0069596
X0064135Y0023495
Y0034417
X0055118Y0040894
X0053594Y0043942
X0053086Y0028194
X0051562
X0049784
X0047752Y0029337
X0046482Y0029083
X0044958Y0028575
X0045321Y0027045
X0044432
X0044884Y002642
X004445Y0025789
X0045339
X0044958Y0024257
X0046482Y0023622
X0047752Y0023241
X0050038Y0024257
X0049784Y0025019
X0051562
X005207Y0022606
X0051562Y0017272
X0049784
X0047752Y0018542
X0046482Y0018415
X0044831Y0017907
X0041529Y0017018
X004064Y0016637
X0039624Y0017653
X0037338Y0018542
Y0019431
Y0020193
X00372314Y00207364
X0035433Y002032
Y0019431
Y0018542
X0034544Y0017145
X0032258Y0016891
X0030226
X0029464
X0029337Y0019812
X0029972
X0030607
X0031242
X0031877
X0032512
Y0020447
X0031877
Y0021082
X0031242
X0030607
X0029972
Y0020447
X0029337
X0028702
Y0019812
Y0021082
Y0021717
Y0022352
Y0022987
Y0023622
X0029337
X0029972
X0030607
X0031242
X0031877
X0032512
Y0022987
X0031877
X0031242
X0030607
X0029972
X0029337
Y0022352
Y0021717
Y0021082
X0029972Y0021717
Y0022352
X0030607
X0031242
X0031877
X0032512
Y0021717
Y0021082
X0031877Y0021717
X0031242
X0030607
Y0020447
X0031242
X0035433Y0021336
X0036068Y0021844
Y0022606
X0035433Y0023622
Y0024638
X00361658Y00255182
X0037078Y00250709
X0037084Y0024257
Y0027559
X00363047Y00275637
X00353942Y00275794
X00343782
X00333741Y00274246
X0032766Y0026543
X003175
X00315124Y00280578
Y00290738
Y00300898
X00316432Y00310973
X00323616Y00318157
X00323056Y00342485
X0033024Y00349669
X0032639Y0035814
X0032512Y003683
X0031369
X0029464Y0036576
Y0037338
Y0037973
Y0038735
Y003937
Y0040386
Y0041148
Y004191
X003048Y0040132
X0027813Y0039116
X002667Y0039878
X0025146
X0024257Y0038862
Y0037465
Y0036068
X00228172
X0023114Y0037846
X0021509Y0038728
Y0039617
X0020884Y0039165
X0020366Y0038728
Y0039617
X0018161Y0039497
X00175066Y00407864
X0016891Y0042545
X0016129Y0042291
Y0039624
Y0038735
X0015504Y0039172
X0014986Y0038735
Y0039624
X001397Y0037846
X0013335Y00381
X0013843Y0034925
Y003429
Y0033655
X0012827Y0034163
X0017145Y0034417
X0018669Y003429
Y0033655
Y0034925
X0017399Y0036322
X0017018Y0037846
X001397Y0041656
X00127Y0042672
X0014732Y0044704
X0020574Y0044831
X002032Y0042164
X0022733Y0041402
X0025146Y004191
Y0035052
X0027686Y0034798
X0028702Y003302
X00301503Y00320932
X00297016Y00311817
Y00301657
Y00291497
Y00281337
X0029845Y0026543
X0028956
X0028067Y0030861
X0030734Y0034798
X00345169Y0033971
X00352353Y00346894
X00359537Y00354078
X0037084Y0035179
X00368309Y00359206
X00370128Y00377394
X0037084Y0038481
X00359969Y00377253
X0035306Y0037846
X00351793Y00371222
X00344608Y00364038
X0033782Y0042418
X003302Y0041656
X0032004Y0042545
X0032258Y0043942
X0034544Y0044577
X0035306Y0043942
X003683Y0040894
X0039878
X0039624Y0039497
X004064Y0038481
Y0035179
X004191Y0034798
X0043561Y0034417
X004445Y0036703
X0045339
X0044884Y0037334
X0045321Y0037959
X0044432
X0044831Y0039497
X0046482Y0040259
X0047752Y0040386
X0049022Y0039624
X0049784Y0039116
X0051562
X005207Y0040894
X0050673Y0040513
X0050546Y0043942
X004445
X0041402
X0042926Y0040894
X0039624Y0034163
Y0028575
X004064Y0027559
Y0024257
X0039624Y0023241
X0039878Y0022606
X003937Y0021336
X0043561Y0023495
X0045593Y003302
X0046736Y003429
X0050038Y0035179
X0049784Y0035941
X0051562
X0022098Y0034036
X0025781Y002413
Y0021971
Y0018923
X00254Y0018161
X0025781Y0017399
X00267016Y00177321
X0024638Y0017018
X0037084Y0016637
X0004826Y0019558
X0005588Y0021717
X0003429Y0021844
X000254Y0020574
Y0017907
X0002921Y002413
X0003302Y0028702
X0005969Y002794
X0004826Y003175
Y0032639
X0003048
X000127
X0006604Y0033147
X000889Y0033909
X0009652Y0035433
X0010033Y003683
Y0039497
X00114046Y0040386
X0012192Y0040513
X0011938Y0042926
X0011176Y0042418
X0007874Y0043942
X0008763Y0038354
T02
X0001778Y003937
X0004318
T03
X0008382Y0008128
X0010922
Y0010668
Y0013208
X0008382
Y0015748
X0010922
X0008382Y0010668
Y0018288
Y0020828
Y0023368
X0010922
Y0025908
Y0028448
Y0030988
X0008382
Y0028448
Y0025908
X0010922Y0020828
Y0018288
T04
X0009819Y-0000849
X0012319Y0001651
X0009819Y0004151
X0014819
Y-0000849
T05
X0036195Y-0000889
X0046101
X0040513Y0009398
X0052705Y0009906
X0057785
Y0020828
X0052705
Y0031877
X0057785
X0040259Y0031115
X0041021Y0020066
X0038735Y0044069
X0048641
T06
X0002921Y0000127
X0057277
Y0043434
X0002921
M30
