G04*
G04 #@! TF.GenerationSoftware,Altium Limited,Altium Designer,24.3.1 (35)*
G04*
G04 Layer_Color=128*
%FSLAX44Y44*%
%MOMM*%
G71*
G04*
G04 #@! TF.SameCoordinates,E54A5323-C3A8-4295-A2F1-912E9A9C0EE7*
G04*
G04*
G04 #@! TF.FilePolarity,Positive*
G04*
G01*
G75*
%ADD18C,0.1270*%
D18*
X104220Y81280D02*
X114220D01*
X109220Y76280D02*
Y86280D01*
X78820Y81280D02*
X88820D01*
X83820Y76280D02*
Y86280D01*
X104220Y132080D02*
X114220D01*
X109220Y127080D02*
Y137080D01*
X78820Y132080D02*
X88820D01*
X83820Y127080D02*
Y137080D01*
X104220Y233680D02*
X114220D01*
X109220Y228680D02*
Y238680D01*
X104220Y284480D02*
X114220D01*
X109220Y279480D02*
Y289480D01*
X104220Y309880D02*
X114220D01*
X109220Y304880D02*
Y314880D01*
X104220Y259080D02*
X114220D01*
X109220Y254080D02*
Y264080D01*
X78820Y259080D02*
X88820D01*
X83820Y254080D02*
Y264080D01*
X78820Y309880D02*
X88820D01*
X83820Y304880D02*
Y314880D01*
X78820Y284480D02*
X88820D01*
X83820Y279480D02*
Y289480D01*
X78820Y233680D02*
X88820D01*
X83820Y228680D02*
Y238680D01*
X78820Y208280D02*
X88820D01*
X83820Y203280D02*
Y213280D01*
X104220Y208280D02*
X114220D01*
X109220Y203280D02*
Y213280D01*
X104220Y182880D02*
X114220D01*
X109220Y177880D02*
Y187880D01*
X78820Y182880D02*
X88820D01*
X83820Y177880D02*
Y187880D01*
X78820Y157480D02*
X88820D01*
X83820Y152480D02*
Y162480D01*
X104220Y157480D02*
X114220D01*
X109220Y152480D02*
Y162480D01*
X78820Y106680D02*
X88820D01*
X83820Y101680D02*
Y111680D01*
X104220Y106680D02*
X114220D01*
X109220Y101680D02*
Y111680D01*
X13335Y393700D02*
X22225D01*
X17780Y389255D02*
Y398145D01*
X38735Y393700D02*
X47625D01*
X43180Y389255D02*
Y398145D01*
X475410Y440690D02*
X497410D01*
X486410Y429690D02*
Y451690D01*
X376350Y440690D02*
X398350D01*
X387350Y429690D02*
Y451690D01*
X350950Y-8890D02*
X372950D01*
X361950Y-19890D02*
Y2110D01*
X450010Y-8890D02*
X472010D01*
X461010Y-19890D02*
Y2110D01*
X391590Y311150D02*
X413590D01*
X402590Y300150D02*
Y322150D01*
X399210Y200660D02*
X421210D01*
X410210Y189660D02*
Y211660D01*
X394130Y93980D02*
X416130D01*
X405130Y82980D02*
Y104980D01*
X516050Y318770D02*
X538050D01*
X527050Y307770D02*
Y329770D01*
X516050Y208280D02*
X538050D01*
X527050Y197280D02*
Y219280D01*
X516050Y99060D02*
X538050D01*
X527050Y88060D02*
Y110060D01*
X566850Y99060D02*
X588850D01*
X577850Y88060D02*
Y110060D01*
X566850Y208280D02*
X588850D01*
X577850Y197280D02*
Y219280D01*
X566850Y318770D02*
X588850D01*
X577850Y307770D02*
Y329770D01*
X115690Y16510D02*
X130690D01*
X123190Y9010D02*
Y24010D01*
X90690Y-8490D02*
X105690D01*
X98190Y-15990D02*
Y-990D01*
X140690Y-8490D02*
X155690D01*
X148190Y-15990D02*
Y-990D01*
X140690Y41510D02*
X155690D01*
X148190Y34010D02*
Y49010D01*
X90690Y41510D02*
X105690D01*
X98190Y34010D02*
Y49010D01*
X556770Y1270D02*
X588770D01*
X572770Y-14730D02*
Y17270D01*
X556770Y434340D02*
X588770D01*
X572770Y418340D02*
Y450340D01*
X13210Y434340D02*
X45210D01*
X29210Y418340D02*
Y450340D01*
X13210Y1270D02*
X45210D01*
X29210Y-14730D02*
Y17270D01*
X112522Y403860D02*
X115570D01*
X114046Y402336D02*
Y405384D01*
X58166Y279400D02*
X61214D01*
X59690Y277876D02*
Y280924D01*
X23876Y88900D02*
X26924D01*
X25400Y87376D02*
Y90424D01*
X53086Y115570D02*
X56134D01*
X54610Y114046D02*
Y117094D01*
X16256Y105410D02*
X19304D01*
X17780Y103886D02*
Y106934D01*
X23876Y179070D02*
X26924D01*
X25400Y177546D02*
Y180594D01*
X23876Y205740D02*
X26924D01*
X25400Y204216D02*
Y207264D01*
X54356Y217170D02*
X57404D01*
X55880Y215646D02*
Y218694D01*
X32766Y218440D02*
X35814D01*
X34290Y216916D02*
Y219964D01*
X27686Y241300D02*
X30734D01*
X29210Y239776D02*
Y242824D01*
X242316Y-2540D02*
X245364D01*
X243840Y-4064D02*
Y-1016D01*
X227076Y-2540D02*
X230124D01*
X228600Y-4064D02*
Y-1016D01*
X216916Y5080D02*
X219964D01*
X218440Y3556D02*
Y6604D01*
X201676Y5080D02*
X204724D01*
X203200Y3556D02*
Y6604D01*
X157226Y-22860D02*
X160274D01*
X158750Y-24384D02*
Y-21336D01*
X206756Y-17780D02*
X209804D01*
X208280Y-19304D02*
Y-16256D01*
X281686Y-11430D02*
X284734D01*
X283210Y-12954D02*
Y-9906D01*
X266446Y-8890D02*
X269494D01*
X267970Y-10414D02*
Y-7366D01*
X599846Y146050D02*
X602894D01*
X601370Y144526D02*
Y147574D01*
X599516Y255270D02*
X602564D01*
X601040Y253746D02*
Y256794D01*
X599186Y363220D02*
X602234D01*
X600710Y361696D02*
Y364744D01*
X599846Y36830D02*
X602894D01*
X601370Y35306D02*
Y38354D01*
X686816Y439420D02*
X689864D01*
X688340Y437896D02*
Y440944D01*
X671576Y-17780D02*
X674624D01*
X673100Y-19304D02*
Y-16256D01*
X656336Y439420D02*
X659384D01*
X657860Y437896D02*
Y440944D01*
X641096Y-17780D02*
X644144D01*
X642620Y-19304D02*
Y-16256D01*
X625856Y439420D02*
X628904D01*
X627380Y437896D02*
Y440944D01*
X610616Y-17780D02*
X613664D01*
X612140Y-19304D02*
Y-16256D01*
X580136Y347980D02*
X583184D01*
X581660Y346456D02*
Y349504D01*
X549656Y408940D02*
X552704D01*
X551180Y407416D02*
Y410464D01*
X549656Y347980D02*
X552704D01*
X551180Y346456D02*
Y349504D01*
X549656Y226060D02*
X552704D01*
X551180Y224536D02*
Y227584D01*
X564896Y134620D02*
X567944D01*
X566420Y133096D02*
Y136144D01*
X549656Y104140D02*
X552704D01*
X551180Y102616D02*
Y105664D01*
X564896Y73660D02*
X567944D01*
X566420Y72136D02*
Y75184D01*
X549656Y-17780D02*
X552704D01*
X551180Y-19304D02*
Y-16256D01*
X534416Y439420D02*
X537464D01*
X535940Y437896D02*
Y440944D01*
X519176Y408940D02*
X522224D01*
X520700Y407416D02*
Y410464D01*
X519176Y226060D02*
X522224D01*
X520700Y224536D02*
Y227584D01*
X534416Y134620D02*
X537464D01*
X535940Y133096D02*
Y136144D01*
X534416Y73660D02*
X537464D01*
X535940Y72136D02*
Y75184D01*
X519176Y-17780D02*
X522224D01*
X520700Y-19304D02*
Y-16256D01*
X503936Y439420D02*
X506984D01*
X505460Y437896D02*
Y440944D01*
X503936Y73660D02*
X506984D01*
X505460Y72136D02*
Y75184D01*
X488696Y-17780D02*
X491744D01*
X490220Y-19304D02*
Y-16256D01*
X442976Y439420D02*
X446024D01*
X444500Y437896D02*
Y440944D01*
X427736Y408940D02*
X430784D01*
X429260Y407416D02*
Y410464D01*
X427736Y-17780D02*
X430784D01*
X429260Y-19304D02*
Y-16256D01*
X412496Y439420D02*
X415544D01*
X414020Y437896D02*
Y440944D01*
X397256Y408940D02*
X400304D01*
X398780Y407416D02*
Y410464D01*
X397256Y226060D02*
X400304D01*
X398780Y224536D02*
Y227584D01*
X412496Y134620D02*
X415544D01*
X414020Y133096D02*
Y136144D01*
X412496Y73660D02*
X415544D01*
X414020Y72136D02*
Y75184D01*
X412496Y12700D02*
X415544D01*
X414020Y11176D02*
Y14224D01*
X397256Y-17780D02*
X400304D01*
X398780Y-19304D02*
Y-16256D01*
X366776Y408940D02*
X369824D01*
X368300Y407416D02*
Y410464D01*
X351536Y439420D02*
X354584D01*
X353060Y437896D02*
Y440944D01*
X351536Y378460D02*
X354584D01*
X353060Y376936D02*
Y379984D01*
X351536Y12700D02*
X354584D01*
X353060Y11176D02*
Y14224D01*
X336296Y-17780D02*
X339344D01*
X337820Y-19304D02*
Y-16256D01*
X321056Y439420D02*
X324104D01*
X322580Y437896D02*
Y440944D01*
X305816Y347980D02*
X308864D01*
X307340Y346456D02*
Y349504D01*
X321056Y12700D02*
X324104D01*
X322580Y11176D02*
Y14224D01*
X305816Y-17780D02*
X308864D01*
X307340Y-19304D02*
Y-16256D01*
X275336Y347980D02*
X278384D01*
X276860Y346456D02*
Y349504D01*
X275336Y104140D02*
X278384D01*
X276860Y102616D02*
Y105664D01*
X290576Y73660D02*
X293624D01*
X292100Y72136D02*
Y75184D01*
X244856Y104140D02*
X247904D01*
X246380Y102616D02*
Y105664D01*
X260096Y73660D02*
X263144D01*
X261620Y72136D02*
Y75184D01*
X244856Y43180D02*
X247904D01*
X246380Y41656D02*
Y44704D01*
X229616Y378460D02*
X232664D01*
X231140Y376936D02*
Y379984D01*
X214376Y104140D02*
X217424D01*
X215900Y102616D02*
Y105664D01*
X229616Y73660D02*
X232664D01*
X231140Y72136D02*
Y75184D01*
X199136Y73660D02*
X202184D01*
X200660Y72136D02*
Y75184D01*
X183896Y43180D02*
X186944D01*
X185420Y41656D02*
Y44704D01*
X168656Y378460D02*
X171704D01*
X170180Y376936D02*
Y379984D01*
X153416Y104140D02*
X156464D01*
X154940Y102616D02*
Y105664D01*
X168656Y73660D02*
X171704D01*
X170180Y72136D02*
Y75184D01*
X138176Y378460D02*
X141224D01*
X139700Y376936D02*
Y379984D01*
X122936Y165100D02*
X125984D01*
X124460Y163576D02*
Y166624D01*
X122936Y43180D02*
X125984D01*
X124460Y41656D02*
Y44704D01*
X122936Y-17780D02*
X125984D01*
X124460Y-19304D02*
Y-16256D01*
X77216Y439420D02*
X80264D01*
X78740Y437896D02*
Y440944D01*
X61976Y104140D02*
X65024D01*
X63500Y102616D02*
Y105664D01*
X77216Y12700D02*
X80264D01*
X78740Y11176D02*
Y14224D01*
X61976Y-17780D02*
X65024D01*
X63500Y-19304D02*
Y-16256D01*
X46736Y317500D02*
X49784D01*
X48260Y315976D02*
Y319024D01*
X31496Y287020D02*
X34544D01*
X33020Y285496D02*
Y288544D01*
X46736Y195580D02*
X49784D01*
X48260Y194056D02*
Y197104D01*
X46736Y134620D02*
X49784D01*
X48260Y133096D02*
Y136144D01*
X31496Y43180D02*
X34544D01*
X33020Y41656D02*
Y44704D01*
X336296Y424180D02*
X339344D01*
X337820Y422656D02*
Y425704D01*
X681736Y388620D02*
X684784D01*
X683260Y387096D02*
Y390144D01*
X688086Y388620D02*
X691134D01*
X689610Y387096D02*
Y390144D01*
X694436Y388620D02*
X697484D01*
X695960Y387096D02*
Y390144D01*
X681736Y373380D02*
X684784D01*
X683260Y371856D02*
Y374904D01*
X688086Y373380D02*
X691134D01*
X689610Y371856D02*
Y374904D01*
X694436Y373380D02*
X697484D01*
X695960Y371856D02*
Y374904D01*
X675386Y373380D02*
X678434D01*
X676910Y371856D02*
Y374904D01*
X669036Y373380D02*
X672084D01*
X670560Y371856D02*
Y374904D01*
X675386Y388620D02*
X678434D01*
X676910Y387096D02*
Y390144D01*
X669036Y388620D02*
X672084D01*
X670560Y387096D02*
Y390144D01*
X683006Y279400D02*
X686054D01*
X684530Y277876D02*
Y280924D01*
X689356Y279400D02*
X692404D01*
X690880Y277876D02*
Y280924D01*
X695706Y279400D02*
X698754D01*
X697230Y277876D02*
Y280924D01*
X683006Y264160D02*
X686054D01*
X684530Y262636D02*
Y265684D01*
X689356Y264160D02*
X692404D01*
X690880Y262636D02*
Y265684D01*
X695706Y264160D02*
X698754D01*
X697230Y262636D02*
Y265684D01*
X676656Y264160D02*
X679704D01*
X678180Y262636D02*
Y265684D01*
X670306Y264160D02*
X673354D01*
X671830Y262636D02*
Y265684D01*
X676656Y279400D02*
X679704D01*
X678180Y277876D02*
Y280924D01*
X670306Y279400D02*
X673354D01*
X671830Y277876D02*
Y280924D01*
X681736Y170180D02*
X684784D01*
X683260Y168656D02*
Y171704D01*
X688086Y170180D02*
X691134D01*
X689610Y168656D02*
Y171704D01*
X694436Y170180D02*
X697484D01*
X695960Y168656D02*
Y171704D01*
X681736Y154940D02*
X684784D01*
X683260Y153416D02*
Y156464D01*
X688086Y154940D02*
X691134D01*
X689610Y153416D02*
Y156464D01*
X694436Y154940D02*
X697484D01*
X695960Y153416D02*
Y156464D01*
X675386Y154940D02*
X678434D01*
X676910Y153416D02*
Y156464D01*
X669036Y154940D02*
X672084D01*
X670560Y153416D02*
Y156464D01*
X675386Y170180D02*
X678434D01*
X676910Y168656D02*
Y171704D01*
X669036Y170180D02*
X672084D01*
X670560Y168656D02*
Y171704D01*
X666496Y60960D02*
X669544D01*
X668020Y59436D02*
Y62484D01*
X672846Y60960D02*
X675894D01*
X674370Y59436D02*
Y62484D01*
X666496Y45720D02*
X669544D01*
X668020Y44196D02*
Y47244D01*
X672846Y45720D02*
X675894D01*
X674370Y44196D02*
Y47244D01*
X691896Y45720D02*
X694944D01*
X693420Y44196D02*
Y47244D01*
X685546Y45720D02*
X688594D01*
X687070Y44196D02*
Y47244D01*
X679196Y45720D02*
X682244D01*
X680720Y44196D02*
Y47244D01*
X691896Y60960D02*
X694944D01*
X693420Y59436D02*
Y62484D01*
X685546Y60960D02*
X688594D01*
X687070Y59436D02*
Y62484D01*
X679196Y60960D02*
X682244D01*
X680720Y59436D02*
Y62484D01*
X643663Y63270D02*
X646711D01*
X645187Y61746D02*
Y64794D01*
X633517Y62730D02*
X636565D01*
X635041Y61206D02*
Y64254D01*
X627361Y46127D02*
X630409D01*
X628885Y44603D02*
Y47651D01*
X637151Y43411D02*
X640199D01*
X638675Y41887D02*
Y44935D01*
X451686Y51930D02*
X454734D01*
X453210Y50406D02*
Y53454D01*
X442796Y51930D02*
X445844D01*
X444320Y50406D02*
Y53454D01*
X447316Y45680D02*
X450364D01*
X448840Y44156D02*
Y47204D01*
X442976Y39370D02*
X446024D01*
X444500Y37846D02*
Y40894D01*
X451866Y39370D02*
X454914D01*
X453390Y37846D02*
Y40894D01*
X451686Y161150D02*
X454734D01*
X453210Y159626D02*
Y162674D01*
X442796Y161150D02*
X445844D01*
X444320Y159626D02*
Y162674D01*
X447316Y154900D02*
X450364D01*
X448840Y153376D02*
Y156424D01*
X442976Y148590D02*
X446024D01*
X444500Y147066D02*
Y150114D01*
X451866Y148590D02*
X454914D01*
X453390Y147066D02*
Y150114D01*
X451686Y270450D02*
X454734D01*
X453210Y268926D02*
Y271974D01*
X442796Y270450D02*
X445844D01*
X444320Y268926D02*
Y271974D01*
X447316Y264200D02*
X450364D01*
X448840Y262676D02*
Y265724D01*
X442976Y257890D02*
X446024D01*
X444500Y256366D02*
Y259414D01*
X451866Y257890D02*
X454914D01*
X453390Y256366D02*
Y259414D01*
X451866Y367030D02*
X454914D01*
X453390Y365506D02*
Y368554D01*
X442976Y367030D02*
X446024D01*
X444500Y365506D02*
Y368554D01*
X447316Y373340D02*
X450364D01*
X448840Y371816D02*
Y374864D01*
X442796Y379590D02*
X445844D01*
X444320Y378066D02*
Y381114D01*
X451686Y379590D02*
X454734D01*
X453210Y378066D02*
Y381114D01*
X207316Y391650D02*
X210364D01*
X208840Y390126D02*
Y393174D01*
X202136Y396170D02*
X205184D01*
X203660Y394646D02*
Y397694D01*
X213566Y396170D02*
X216614D01*
X215090Y394646D02*
Y397694D01*
X213566Y387280D02*
X216614D01*
X215090Y385756D02*
Y388804D01*
X202136Y387280D02*
X205184D01*
X203660Y385756D02*
Y388804D01*
X148336Y387350D02*
X151384D01*
X149860Y385826D02*
Y388874D01*
X159766Y387350D02*
X162814D01*
X161290Y385826D02*
Y388874D01*
X159766Y396240D02*
X162814D01*
X161290Y394716D02*
Y397764D01*
X148336Y396240D02*
X151384D01*
X149860Y394716D02*
Y397764D01*
X153516Y391720D02*
X156564D01*
X155040Y390196D02*
Y393244D01*
X674116Y10160D02*
X677164D01*
X675640Y8636D02*
Y11684D01*
X681736Y10160D02*
X684784D01*
X683260Y8636D02*
Y11684D01*
X689356Y10160D02*
X692404D01*
X690880Y8636D02*
Y11684D01*
X658876Y10160D02*
X661924D01*
X660400Y8636D02*
Y11684D01*
X666496Y10160D02*
X669544D01*
X668020Y8636D02*
Y11684D01*
X674116Y96520D02*
X677164D01*
X675640Y94996D02*
Y98044D01*
X681736Y96520D02*
X684784D01*
X683260Y94996D02*
Y98044D01*
X689356Y96520D02*
X692404D01*
X690880Y94996D02*
Y98044D01*
X658876Y96520D02*
X661924D01*
X660400Y94996D02*
Y98044D01*
X666496Y96520D02*
X669544D01*
X668020Y94996D02*
Y98044D01*
X674116Y119380D02*
X677164D01*
X675640Y117856D02*
Y120904D01*
X681736Y119380D02*
X684784D01*
X683260Y117856D02*
Y120904D01*
X689356Y119380D02*
X692404D01*
X690880Y117856D02*
Y120904D01*
X658876Y119380D02*
X661924D01*
X660400Y117856D02*
Y120904D01*
X666496Y119380D02*
X669544D01*
X668020Y117856D02*
Y120904D01*
X674116Y205740D02*
X677164D01*
X675640Y204216D02*
Y207264D01*
X681736Y205740D02*
X684784D01*
X683260Y204216D02*
Y207264D01*
X689356Y205740D02*
X692404D01*
X690880Y204216D02*
Y207264D01*
X658876Y205740D02*
X661924D01*
X660400Y204216D02*
Y207264D01*
X666496Y205740D02*
X669544D01*
X668020Y204216D02*
Y207264D01*
X674116Y228600D02*
X677164D01*
X675640Y227076D02*
Y230124D01*
X681736Y228600D02*
X684784D01*
X683260Y227076D02*
Y230124D01*
X689356Y228600D02*
X692404D01*
X690880Y227076D02*
Y230124D01*
X658876Y228600D02*
X661924D01*
X660400Y227076D02*
Y230124D01*
X666496Y228600D02*
X669544D01*
X668020Y227076D02*
Y230124D01*
X674116Y314960D02*
X677164D01*
X675640Y313436D02*
Y316484D01*
X681736Y314960D02*
X684784D01*
X683260Y313436D02*
Y316484D01*
X689356Y314960D02*
X692404D01*
X690880Y313436D02*
Y316484D01*
X658876Y314960D02*
X661924D01*
X660400Y313436D02*
Y316484D01*
X666496Y314960D02*
X669544D01*
X668020Y313436D02*
Y316484D01*
X674116Y337820D02*
X677164D01*
X675640Y336296D02*
Y339344D01*
X681736Y337820D02*
X684784D01*
X683260Y336296D02*
Y339344D01*
X689356Y337820D02*
X692404D01*
X690880Y336296D02*
Y339344D01*
X658876Y337820D02*
X661924D01*
X660400Y336296D02*
Y339344D01*
X666496Y337820D02*
X669544D01*
X668020Y336296D02*
Y339344D01*
X666496Y424180D02*
X669544D01*
X668020Y422656D02*
Y425704D01*
X658876Y424180D02*
X661924D01*
X660400Y422656D02*
Y425704D01*
X689356Y424180D02*
X692404D01*
X690880Y422656D02*
Y425704D01*
X681736Y424180D02*
X684784D01*
X683260Y422656D02*
Y425704D01*
X674116Y424180D02*
X677164D01*
X675640Y422656D02*
Y425704D01*
X368604Y377394D02*
X371652D01*
X370128Y375870D02*
Y378918D01*
X358445Y377253D02*
X361493D01*
X359969Y375729D02*
Y378777D01*
X350269Y371222D02*
X353317D01*
X351793Y369698D02*
Y372746D01*
X343084Y364038D02*
X346133D01*
X344608Y362514D02*
Y365561D01*
X328716Y349669D02*
X331764D01*
X330240Y348145D02*
Y351193D01*
X321532Y342485D02*
X324580D01*
X323056Y340961D02*
Y344009D01*
X299979Y320932D02*
X303027D01*
X301503Y319408D02*
Y322456D01*
X295492Y311817D02*
X298540D01*
X297016Y310293D02*
Y313341D01*
X295492Y301657D02*
X298540D01*
X297016Y300133D02*
Y303181D01*
X295492Y291497D02*
X298540D01*
X297016Y289973D02*
Y293021D01*
X295492Y281337D02*
X298540D01*
X297016Y279813D02*
Y282861D01*
X313600Y280578D02*
X316648D01*
X315124Y279054D02*
Y282102D01*
X313600Y290738D02*
X316648D01*
X315124Y289214D02*
Y292262D01*
X313600Y300898D02*
X316648D01*
X315124Y299374D02*
Y302422D01*
X314908Y310973D02*
X317956D01*
X316432Y309449D02*
Y312497D01*
X322092Y318157D02*
X325140D01*
X323616Y316633D02*
Y319681D01*
X343645Y339710D02*
X346693D01*
X345169Y338186D02*
Y341234D01*
X350829Y346894D02*
X353877D01*
X352353Y345370D02*
Y348418D01*
X358013Y354078D02*
X361061D01*
X359537Y352554D02*
Y355602D01*
X366785Y359206D02*
X369833D01*
X368309Y357682D02*
Y360730D01*
X352418Y275794D02*
X355466D01*
X353942Y274270D02*
Y277318D01*
X342258Y275794D02*
X345306D01*
X343782Y274270D02*
Y277318D01*
X332217Y274246D02*
X335265D01*
X333741Y272722D02*
Y275770D01*
X361523Y275637D02*
X364571D01*
X363047Y274113D02*
Y277161D01*
X360134Y255182D02*
X363182D01*
X361658Y253659D02*
Y256707D01*
X369257Y250709D02*
X372304D01*
X370780Y249185D02*
Y252233D01*
X349912Y140836D02*
X352960D01*
X351436Y139312D02*
Y142360D01*
X360071Y140766D02*
X363119D01*
X361595Y139242D02*
Y142290D01*
X300492Y153973D02*
X303540D01*
X302016Y152449D02*
Y155497D01*
X300492Y133653D02*
X303540D01*
X302016Y132129D02*
Y135177D01*
X300492Y123493D02*
X303540D01*
X302016Y121969D02*
Y125017D01*
X300692Y113335D02*
X303740D01*
X302216Y111811D02*
Y114859D01*
X306858Y105259D02*
X309906D01*
X308382Y103735D02*
Y106783D01*
X314042Y98075D02*
X317090D01*
X315566Y96551D02*
Y99599D01*
X345576Y38601D02*
X348624D01*
X347100Y37077D02*
Y40125D01*
X353278Y31976D02*
X356326D01*
X354802Y30452D02*
Y33500D01*
X363429Y31546D02*
X366477D01*
X364953Y30022D02*
Y33070D01*
X368283Y49734D02*
X371331D01*
X369807Y48210D02*
Y51258D01*
X358223Y51151D02*
X361270D01*
X359747Y49627D02*
Y52675D01*
X351038Y58335D02*
X354086D01*
X352562Y56811D02*
Y59859D01*
X350470Y68479D02*
X353518D01*
X351994Y66955D02*
Y70003D01*
X350470Y78639D02*
X353518D01*
X351994Y77115D02*
Y80163D01*
X349221Y88722D02*
X352268D01*
X350745Y87198D02*
Y90246D01*
X342205Y96070D02*
X345252D01*
X343728Y94546D02*
Y97594D01*
X320652Y117623D02*
X323700D01*
X322176Y116099D02*
Y119147D01*
X318600Y158054D02*
X321648D01*
X320124Y156530D02*
Y159578D01*
X324254Y152167D02*
X327302D01*
X325778Y150643D02*
Y153691D01*
X319582Y143145D02*
X322630D01*
X321106Y141621D02*
Y144669D01*
X319582Y132985D02*
X322630D01*
X321106Y131461D02*
Y134509D01*
X319582Y122825D02*
X322630D01*
X321106Y121301D02*
Y124349D01*
X319582Y92345D02*
X322630D01*
X321106Y90821D02*
Y93869D01*
X319582Y82185D02*
X322630D01*
X321106Y80661D02*
Y83709D01*
X319582Y72025D02*
X322630D01*
X321106Y70501D02*
Y73549D01*
X319582Y61865D02*
X322630D01*
X321106Y60341D02*
Y63389D01*
X316229Y52274D02*
X319277D01*
X317753Y50750D02*
Y53798D01*
X306069Y52274D02*
X309117D01*
X307593Y50750D02*
Y53798D01*
X295909Y52238D02*
X298957D01*
X297433Y50714D02*
Y53762D01*
X287556Y46454D02*
X290604D01*
X289080Y44930D02*
Y47978D01*
X288493Y17400D02*
X291541D01*
X290017Y15876D02*
Y18924D01*
X298629Y16701D02*
X301677D01*
X300153Y15177D02*
Y18225D01*
X307785Y21105D02*
X310833D01*
X309309Y19581D02*
Y22629D01*
X313668Y34086D02*
X316716D01*
X315192Y32562D02*
Y35610D01*
X323828Y34086D02*
X326876D01*
X325352Y32562D02*
Y35610D01*
X333071Y38306D02*
X336119D01*
X334595Y36782D02*
Y39830D01*
X337770Y47313D02*
X340818D01*
X339294Y45789D02*
Y48837D01*
X337770Y108273D02*
X340818D01*
X339294Y106749D02*
Y109797D01*
X337770Y118433D02*
X340818D01*
X339294Y116909D02*
Y119957D01*
X337770Y128593D02*
X340818D01*
X339294Y127069D02*
Y130117D01*
X337770Y138753D02*
X340818D01*
X339294Y137229D02*
Y140277D01*
X370790Y207364D02*
X373838D01*
X372314Y205840D02*
Y208888D01*
X200290Y28922D02*
X203338D01*
X201814Y27398D02*
Y30446D01*
X191833Y23290D02*
X194881D01*
X193357Y21766D02*
Y24814D01*
X181673Y23290D02*
X184721D01*
X183197Y21766D02*
Y24814D01*
X171513Y23290D02*
X174561D01*
X173037Y21766D02*
Y24814D01*
X161353Y23290D02*
X164401D01*
X162877Y21766D02*
Y24814D01*
X151193Y23290D02*
X154241D01*
X152717Y21766D02*
Y24814D01*
X141033Y23290D02*
X144081D01*
X142557Y21766D02*
Y24814D01*
X133294Y29872D02*
X136342D01*
X134818Y28348D02*
Y31396D01*
X124024Y34032D02*
X127072D01*
X125548Y32508D02*
Y35556D01*
X113986Y32465D02*
X117034D01*
X115510Y30941D02*
Y33989D01*
X106471Y25628D02*
X109519D01*
X107995Y24104D02*
Y27152D01*
X103929Y15791D02*
X106977D01*
X105453Y14267D02*
Y17315D01*
X107290Y6203D02*
X110338D01*
X108814Y4679D02*
Y7727D01*
X115334Y-3D02*
X118382D01*
X116858Y-1528D02*
Y1521D01*
X125461Y-822D02*
X128509D01*
X126985Y-2347D02*
Y702D01*
X134333Y4128D02*
X137381D01*
X135857Y2605D02*
Y5652D01*
X142809Y9730D02*
X145857D01*
X144333Y8206D02*
Y11254D01*
X152970Y9730D02*
X156018D01*
X154494Y8206D02*
Y11254D01*
X163130Y9730D02*
X166178D01*
X164653Y8206D02*
Y11254D01*
X173290Y9730D02*
X176338D01*
X174813Y8206D02*
Y11254D01*
X183449Y9730D02*
X186497D01*
X184974Y8206D02*
Y11254D01*
X193610Y9730D02*
X196658D01*
X195133Y8206D02*
Y11254D01*
X203307Y12762D02*
X206355D01*
X204830Y11238D02*
Y14286D01*
X216775Y27782D02*
X219823D01*
X218300Y26258D02*
Y29306D01*
X298196Y160020D02*
X301244D01*
X299720Y158496D02*
Y161544D01*
X295656Y147320D02*
X298704D01*
X297180Y145796D02*
Y148844D01*
X293116Y133350D02*
X296164D01*
X294640Y131826D02*
Y134874D01*
X282956Y139700D02*
X286004D01*
X284480Y138176D02*
Y141224D01*
X284226Y148590D02*
X287274D01*
X285750Y147066D02*
Y150114D01*
X265492Y177321D02*
X268540D01*
X267016Y175797D02*
Y178845D01*
X262295Y147358D02*
X265343D01*
X263818Y145834D02*
Y148882D01*
X254108Y141340D02*
X257156D01*
X255632Y139816D02*
Y142864D01*
X225422Y138578D02*
X228470D01*
X226946Y137054D02*
Y140102D01*
X265751Y132276D02*
X268799D01*
X267275Y130752D02*
Y133800D01*
X252476Y148590D02*
X255524D01*
X254000Y147066D02*
Y150114D01*
X244856Y170180D02*
X247904D01*
X246380Y168656D02*
Y171704D01*
X256286Y173990D02*
X259334D01*
X257810Y172466D02*
Y175514D01*
X252476Y181610D02*
X255524D01*
X254000Y180086D02*
Y183134D01*
X371856Y201930D02*
X374904D01*
X373380Y200406D02*
Y203454D01*
X371856Y194310D02*
X374904D01*
X373380Y192786D02*
Y195834D01*
X371856Y185420D02*
X374904D01*
X373380Y183896D02*
Y186944D01*
X357886Y160020D02*
X360934D01*
X359410Y158496D02*
Y161544D01*
X343916Y171450D02*
X346964D01*
X345440Y169926D02*
Y172974D01*
X326136Y162560D02*
X329184D01*
X327660Y161036D02*
Y164084D01*
X293116Y365760D02*
X296164D01*
X294640Y364236D02*
Y367284D01*
X293116Y403860D02*
X296164D01*
X294640Y402336D02*
Y405384D01*
X293116Y411480D02*
X296164D01*
X294640Y409956D02*
Y413004D01*
X420116Y129540D02*
X423164D01*
X421640Y128016D02*
Y131064D01*
X181356Y101600D02*
X184404D01*
X182880Y100076D02*
Y103124D01*
X234696Y121620D02*
X237744D01*
X236220Y120096D02*
Y123144D01*
X234696Y147620D02*
X237744D01*
X236220Y146096D02*
Y149144D01*
X290876Y118110D02*
X293924D01*
X292400Y116586D02*
Y119634D01*
X265176Y118110D02*
X268224D01*
X266700Y116586D02*
Y119634D01*
X176276Y46990D02*
X179324D01*
X177800Y45466D02*
Y48514D01*
X235966Y15240D02*
X239014D01*
X237490Y13716D02*
Y16764D01*
X214376Y15240D02*
X217424D01*
X215900Y13716D02*
Y16764D01*
X201676Y421640D02*
X204724D01*
X203200Y420116D02*
Y423164D01*
X225806Y414020D02*
X228854D01*
X227330Y412496D02*
Y415544D01*
X94996Y354330D02*
X98044D01*
X96520Y352806D02*
Y355854D01*
X131826Y381000D02*
X134874D01*
X133350Y379476D02*
Y382524D01*
X126746Y341630D02*
X129794D01*
X128270Y340106D02*
Y343154D01*
X634746Y401320D02*
X637794D01*
X636270Y399796D02*
Y402844D01*
X505206Y405130D02*
X508254D01*
X506730Y403606D02*
Y406654D01*
X463296Y236220D02*
X466344D01*
X464820Y234696D02*
Y237744D01*
X454406Y330200D02*
X457454D01*
X455930Y328676D02*
Y331724D01*
X178816Y147320D02*
X181864D01*
X180340Y145796D02*
Y148844D01*
X128016Y120650D02*
X131064D01*
X129540Y119126D02*
Y122174D01*
X148336Y120650D02*
X151384D01*
X149860Y119126D02*
Y122174D01*
X194056Y147320D02*
X197104D01*
X195580Y145796D02*
Y148844D01*
X213106Y151130D02*
X216154D01*
X214630Y149606D02*
Y152654D01*
X204216Y448310D02*
X207264D01*
X205740Y446786D02*
Y449834D01*
X145796Y447040D02*
X148844D01*
X147320Y445516D02*
Y448564D01*
X117856Y429260D02*
X120904D01*
X119380Y427736D02*
Y430784D01*
X180086Y394970D02*
X183134D01*
X181610Y393446D02*
Y396494D01*
X173542Y407864D02*
X176590D01*
X175066Y406340D02*
Y409388D01*
X120396Y405130D02*
X123444D01*
X121920Y403606D02*
Y406654D01*
X279146Y308610D02*
X282194D01*
X280670Y307086D02*
Y310134D01*
X285496Y330200D02*
X288544D01*
X287020Y328676D02*
Y331724D01*
X343916Y445770D02*
X346964D01*
X345440Y444246D02*
Y447294D01*
X172466Y363220D02*
X175514D01*
X173990Y361696D02*
Y364744D01*
X219456Y340360D02*
X222504D01*
X220980Y338836D02*
Y341884D01*
X226648Y360680D02*
X229696D01*
X228172Y359156D02*
Y362204D01*
X169926Y344170D02*
X172974D01*
X171450Y342646D02*
Y345694D01*
X125476Y426720D02*
X128524D01*
X127000Y425196D02*
Y428244D01*
X138176Y416560D02*
X141224D01*
X139700Y415036D02*
Y418084D01*
X159766Y422910D02*
X162814D01*
X161290Y421386D02*
Y424434D01*
X167386Y425450D02*
X170434D01*
X168910Y423926D02*
Y426974D01*
X627126Y283210D02*
X630174D01*
X628650Y281686D02*
Y284734D01*
X392176Y213360D02*
X395224D01*
X393700Y211836D02*
Y214884D01*
X300736Y33020D02*
X303784D01*
X302260Y31496D02*
Y34544D01*
X58166Y41910D02*
X61214D01*
X59690Y40386D02*
Y43434D01*
X74676Y41910D02*
X77724D01*
X76200Y40386D02*
Y43434D01*
X300736Y24130D02*
X303784D01*
X302260Y22606D02*
Y25654D01*
X276606Y55880D02*
X279654D01*
X278130Y54356D02*
Y57404D01*
X276606Y-1350D02*
X279654D01*
X278130Y-2874D02*
Y174D01*
X465836Y342900D02*
X468884D01*
X467360Y341376D02*
Y344424D01*
X418846Y20320D02*
X421894D01*
X420370Y18796D02*
Y21844D01*
X446786Y179070D02*
X449834D01*
X448310Y177546D02*
Y180594D01*
X475996Y185420D02*
X479044D01*
X477520Y183896D02*
Y186944D01*
X448056Y24130D02*
X451104D01*
X449580Y22606D02*
Y25654D01*
X475996Y13970D02*
X479044D01*
X477520Y12446D02*
Y15494D01*
X463296Y19050D02*
X466344D01*
X464820Y17526D02*
Y20574D01*
X448056Y68580D02*
X451104D01*
X449580Y67056D02*
Y70104D01*
X475996Y76200D02*
X479044D01*
X477520Y74676D02*
Y77724D01*
X463296Y73660D02*
X466344D01*
X464820Y72136D02*
Y75184D01*
X475996Y124460D02*
X479044D01*
X477520Y122936D02*
Y125984D01*
X448056Y133350D02*
X451104D01*
X449580Y131826D02*
Y134874D01*
X463296Y128270D02*
X466344D01*
X464820Y126746D02*
Y129794D01*
X463296Y184150D02*
X466344D01*
X464820Y182626D02*
Y185674D01*
X448056Y242570D02*
X451104D01*
X449580Y241046D02*
Y244094D01*
X475996Y232410D02*
X479044D01*
X477520Y230886D02*
Y233934D01*
X448056Y285750D02*
X451104D01*
X449580Y284226D02*
Y287274D01*
X475996Y293370D02*
X479044D01*
X477520Y291846D02*
Y294894D01*
X463296Y290830D02*
X466344D01*
X464820Y289306D02*
Y292354D01*
X446786Y394970D02*
X449834D01*
X448310Y393446D02*
Y396494D01*
X475996Y403860D02*
X479044D01*
X477520Y402336D02*
Y405384D01*
X463296Y402590D02*
X466344D01*
X464820Y401066D02*
Y404114D01*
X488696Y396240D02*
X491744D01*
X490220Y394716D02*
Y397764D01*
X417576Y347980D02*
X420624D01*
X419100Y346456D02*
Y349504D01*
X369316Y275590D02*
X372364D01*
X370840Y274066D02*
Y277114D01*
X86106Y383540D02*
X89154D01*
X87630Y382016D02*
Y385064D01*
X498856Y24130D02*
X501904D01*
X500380Y22606D02*
Y25654D01*
X498856Y133350D02*
X501904D01*
X500380Y131826D02*
Y134874D01*
X498856Y242570D02*
X501904D01*
X500380Y241046D02*
Y244094D01*
X498856Y351790D02*
X501904D01*
X500380Y350266D02*
Y353314D01*
X282956Y163830D02*
X286004D01*
X284480Y162306D02*
Y165354D01*
X326136Y265430D02*
X329184D01*
X327660Y263906D02*
Y266954D01*
X639826Y125730D02*
X642874D01*
X641350Y124206D02*
Y127254D01*
X609346Y412750D02*
X612394D01*
X610870Y411226D02*
Y414274D01*
X599186Y346710D02*
X602234D01*
X600710Y345186D02*
Y348234D01*
X359156Y218440D02*
X362204D01*
X360680Y216916D02*
Y219964D01*
X359156Y226060D02*
X362204D01*
X360680Y224536D02*
Y227584D01*
X185166Y336550D02*
X188214D01*
X186690Y335026D02*
Y338074D01*
X185166Y342900D02*
X188214D01*
X186690Y341376D02*
Y344424D01*
X185166Y349250D02*
X188214D01*
X186690Y347726D02*
Y350774D01*
X136906Y336550D02*
X139954D01*
X138430Y335026D02*
Y338074D01*
X136906Y342900D02*
X139954D01*
X138430Y341376D02*
Y344424D01*
X136906Y349250D02*
X139954D01*
X138430Y347726D02*
Y350774D01*
X303276Y401320D02*
X306324D01*
X304800Y399796D02*
Y402844D01*
X98806Y394970D02*
X101854D01*
X100330Y393446D02*
Y396494D01*
X394716Y341630D02*
X397764D01*
X396240Y340106D02*
Y343154D01*
X394716Y394970D02*
X397764D01*
X396240Y393446D02*
Y396494D01*
X394716Y285750D02*
X397764D01*
X396240Y284226D02*
Y287274D01*
X394716Y232410D02*
X397764D01*
X396240Y230886D02*
Y233934D01*
X394716Y176530D02*
X397764D01*
X396240Y175006D02*
Y178054D01*
X394716Y123190D02*
X397764D01*
X396240Y121666D02*
Y124714D01*
X394716Y67310D02*
X397764D01*
X396240Y65786D02*
Y68834D01*
X394716Y13970D02*
X397764D01*
X396240Y12446D02*
Y15494D01*
X404876Y24130D02*
X407924D01*
X406400Y22606D02*
Y25654D01*
X404876Y57150D02*
X407924D01*
X406400Y55626D02*
Y58674D01*
X404876Y133350D02*
X407924D01*
X406400Y131826D02*
Y134874D01*
X404876Y166370D02*
X407924D01*
X406400Y164846D02*
Y167894D01*
X404876Y242570D02*
X407924D01*
X406400Y241046D02*
Y244094D01*
X404876Y275590D02*
X407924D01*
X406400Y274066D02*
Y277114D01*
X404876Y351790D02*
X407924D01*
X406400Y350266D02*
Y353314D01*
X404876Y384810D02*
X407924D01*
X406400Y383286D02*
Y386334D01*
X64516Y331470D02*
X67564D01*
X66040Y329946D02*
Y332994D01*
X46736Y326390D02*
X49784D01*
X48260Y324866D02*
Y327914D01*
X28956Y326390D02*
X32004D01*
X30480Y324866D02*
Y327914D01*
X11176Y326390D02*
X14224D01*
X12700Y324866D02*
Y327914D01*
X87376Y339090D02*
X90424D01*
X88900Y337566D02*
Y340614D01*
X110236Y424180D02*
X113284D01*
X111760Y422656D02*
Y425704D01*
X293116Y393700D02*
X296164D01*
X294640Y392176D02*
Y395224D01*
X293116Y387350D02*
X296164D01*
X294640Y385826D02*
Y388874D01*
X293116Y373380D02*
X296164D01*
X294640Y371856D02*
Y374904D01*
X293116Y379730D02*
X296164D01*
X294640Y378206D02*
Y381254D01*
X241046Y388620D02*
X244094D01*
X242570Y387096D02*
Y390144D01*
X241046Y374650D02*
X244094D01*
X242570Y373126D02*
Y376174D01*
X241046Y360680D02*
X244094D01*
X242570Y359156D02*
Y362204D01*
X249936Y350520D02*
X252984D01*
X251460Y348996D02*
Y352044D01*
X249936Y419100D02*
X252984D01*
X251460Y417576D02*
Y420624D01*
X249936Y398780D02*
X252984D01*
X251460Y397256D02*
Y400304D01*
X318516Y425450D02*
X321564D01*
X320040Y423926D02*
Y426974D01*
X328676Y416560D02*
X331724D01*
X330200Y415036D02*
Y418084D01*
X324866Y358140D02*
X327914D01*
X326390Y356616D02*
Y359664D01*
X293116Y419100D02*
X296164D01*
X294640Y417576D02*
Y420624D01*
X265176Y398780D02*
X268224D01*
X266700Y397256D02*
Y400304D01*
X276606Y391160D02*
X279654D01*
X278130Y389636D02*
Y392684D01*
X312166Y368300D02*
X315214D01*
X313690Y366776D02*
Y369824D01*
X323596Y368300D02*
X326644D01*
X325120Y366776D02*
Y369824D01*
X289306Y160020D02*
X292354D01*
X290830Y158496D02*
Y161544D01*
X321056Y168910D02*
X324104D01*
X322580Y167386D02*
Y170434D01*
X256286Y219710D02*
X259334D01*
X257810Y218186D02*
Y221234D01*
X369316Y24130D02*
X372364D01*
X370840Y22606D02*
Y25654D01*
X369316Y57150D02*
X372364D01*
X370840Y55626D02*
Y58674D01*
X369316Y133350D02*
X372364D01*
X370840Y131826D02*
Y134874D01*
X369316Y166370D02*
X372364D01*
X370840Y164846D02*
Y167894D01*
X369316Y351790D02*
X372364D01*
X370840Y350266D02*
Y353314D01*
X369316Y384810D02*
X372364D01*
X370840Y383286D02*
Y386334D01*
X369316Y242570D02*
X372364D01*
X370840Y241046D02*
Y244094D01*
X434086Y16510D02*
X437134D01*
X435610Y14986D02*
Y18034D01*
X580136Y63500D02*
X583184D01*
X581660Y61976D02*
Y65024D01*
X562356Y63500D02*
X565404D01*
X563880Y61976D02*
Y65024D01*
X547116Y63500D02*
X550164D01*
X548640Y61976D02*
Y65024D01*
X529336Y63500D02*
X532384D01*
X530860Y61976D02*
Y65024D01*
X514096Y63500D02*
X517144D01*
X515620Y61976D02*
Y65024D01*
X496316Y63500D02*
X499364D01*
X497840Y61976D02*
Y65024D01*
X496316Y31750D02*
X499364D01*
X497840Y30226D02*
Y33274D01*
X514096Y31750D02*
X517144D01*
X515620Y30226D02*
Y33274D01*
X521716Y24130D02*
X524764D01*
X523240Y22606D02*
Y25654D01*
X529336Y31750D02*
X532384D01*
X530860Y30226D02*
Y33274D01*
X547116Y31750D02*
X550164D01*
X548640Y30226D02*
Y33274D01*
X554736Y24130D02*
X557784D01*
X556260Y22606D02*
Y25654D01*
X562356Y31750D02*
X565404D01*
X563880Y30226D02*
Y33274D01*
X580136Y31750D02*
X583184D01*
X581660Y30226D02*
Y33274D01*
X587756Y24130D02*
X590804D01*
X589280Y22606D02*
Y25654D01*
X599186Y19050D02*
X602234D01*
X600710Y17526D02*
Y20574D01*
X627126Y64770D02*
X630174D01*
X628650Y63246D02*
Y66294D01*
X413766Y170180D02*
X416814D01*
X415290Y168656D02*
Y171704D01*
X434086Y125730D02*
X437134D01*
X435610Y124206D02*
Y127254D01*
X496316Y140970D02*
X499364D01*
X497840Y139446D02*
Y142494D01*
X496316Y172720D02*
X499364D01*
X497840Y171196D02*
Y174244D01*
X514096Y172720D02*
X517144D01*
X515620Y171196D02*
Y174244D01*
X529336Y172720D02*
X532384D01*
X530860Y171196D02*
Y174244D01*
X547116Y172720D02*
X550164D01*
X548640Y171196D02*
Y174244D01*
X580136Y172720D02*
X583184D01*
X581660Y171196D02*
Y174244D01*
X562356Y172720D02*
X565404D01*
X563880Y171196D02*
Y174244D01*
X514096Y140970D02*
X517144D01*
X515620Y139446D02*
Y142494D01*
X521716Y133350D02*
X524764D01*
X523240Y131826D02*
Y134874D01*
X529336Y140970D02*
X532384D01*
X530860Y139446D02*
Y142494D01*
X547116Y140970D02*
X550164D01*
X548640Y139446D02*
Y142494D01*
X554736Y133350D02*
X557784D01*
X556260Y131826D02*
Y134874D01*
X562356Y140970D02*
X565404D01*
X563880Y139446D02*
Y142494D01*
X580136Y140970D02*
X583184D01*
X581660Y139446D02*
Y142494D01*
X587756Y133350D02*
X590804D01*
X589280Y131826D02*
Y134874D01*
X599186Y128270D02*
X602234D01*
X600710Y126746D02*
Y129794D01*
X627126Y173990D02*
X630174D01*
X628650Y172466D02*
Y175514D01*
X609346Y194310D02*
X612394D01*
X610870Y192786D02*
Y195834D01*
X639826Y16510D02*
X642874D01*
X641350Y14986D02*
Y18034D01*
X609346Y85090D02*
X612394D01*
X610870Y83566D02*
Y86614D01*
X434086Y344170D02*
X437134D01*
X435610Y342646D02*
Y345694D01*
X434086Y234950D02*
X437134D01*
X435610Y233426D02*
Y236474D01*
X580136Y391160D02*
X583184D01*
X581660Y389636D02*
Y392684D01*
X562356Y391160D02*
X565404D01*
X563880Y389636D02*
Y392684D01*
X547116Y391160D02*
X550164D01*
X548640Y389636D02*
Y392684D01*
X529336Y391160D02*
X532384D01*
X530860Y389636D02*
Y392684D01*
X514096Y391160D02*
X517144D01*
X515620Y389636D02*
Y392684D01*
X496316Y391160D02*
X499364D01*
X497840Y389636D02*
Y392684D01*
X496316Y359410D02*
X499364D01*
X497840Y357886D02*
Y360934D01*
X514096Y359410D02*
X517144D01*
X515620Y357886D02*
Y360934D01*
X521716Y351790D02*
X524764D01*
X523240Y350266D02*
Y353314D01*
X529336Y359410D02*
X532384D01*
X530860Y357886D02*
Y360934D01*
X547116Y359410D02*
X550164D01*
X548640Y357886D02*
Y360934D01*
X554736Y351790D02*
X557784D01*
X556260Y350266D02*
Y353314D01*
X562356Y359410D02*
X565404D01*
X563880Y357886D02*
Y360934D01*
X580136Y359410D02*
X583184D01*
X581660Y357886D02*
Y360934D01*
X587756Y351790D02*
X590804D01*
X589280Y350266D02*
Y353314D01*
X627126Y392430D02*
X630174D01*
X628650Y390906D02*
Y393954D01*
X599186Y237490D02*
X602234D01*
X600710Y235966D02*
Y239014D01*
X587756Y242570D02*
X590804D01*
X589280Y241046D02*
Y244094D01*
X580136Y250190D02*
X583184D01*
X581660Y248666D02*
Y251714D01*
X554736Y242570D02*
X557784D01*
X556260Y241046D02*
Y244094D01*
X562356Y250190D02*
X565404D01*
X563880Y248666D02*
Y251714D01*
X547116Y250190D02*
X550164D01*
X548640Y248666D02*
Y251714D01*
X580136Y281940D02*
X583184D01*
X581660Y280416D02*
Y283464D01*
X562356Y281940D02*
X565404D01*
X563880Y280416D02*
Y283464D01*
X547116Y281940D02*
X550164D01*
X548640Y280416D02*
Y283464D01*
X514096Y281940D02*
X517144D01*
X515620Y280416D02*
Y283464D01*
X529336Y281940D02*
X532384D01*
X530860Y280416D02*
Y283464D01*
X521716Y242570D02*
X524764D01*
X523240Y241046D02*
Y244094D01*
X529336Y250190D02*
X532384D01*
X530860Y248666D02*
Y251714D01*
X514096Y250190D02*
X517144D01*
X515620Y248666D02*
Y251714D01*
X496316Y250190D02*
X499364D01*
X497840Y248666D02*
Y251714D01*
X496316Y281940D02*
X499364D01*
X497840Y280416D02*
Y283464D01*
X639826Y344170D02*
X642874D01*
X641350Y342646D02*
Y345694D01*
X639826Y234950D02*
X642874D01*
X641350Y233426D02*
Y236474D01*
X609346Y303530D02*
X612394D01*
X610870Y302006D02*
Y305054D01*
X98806Y368300D02*
X101854D01*
X100330Y366776D02*
Y369824D01*
X352806Y246380D02*
X355854D01*
X354330Y244856D02*
Y247904D01*
X352806Y236220D02*
X355854D01*
X354330Y234696D02*
Y237744D01*
X352806Y194310D02*
X355854D01*
X354330Y192786D02*
Y195834D01*
X323596Y198120D02*
X326644D01*
X325120Y196596D02*
Y199644D01*
X317246Y198120D02*
X320294D01*
X318770Y196596D02*
Y199644D01*
X310896Y198120D02*
X313944D01*
X312420Y196596D02*
Y199644D01*
X304546Y198120D02*
X307594D01*
X306070Y196596D02*
Y199644D01*
X298196Y198120D02*
X301244D01*
X299720Y196596D02*
Y199644D01*
X291846Y198120D02*
X294894D01*
X293370Y196596D02*
Y199644D01*
X285496Y198120D02*
X288544D01*
X287020Y196596D02*
Y199644D01*
X323596Y236220D02*
X326644D01*
X325120Y234696D02*
Y237744D01*
X317246Y236220D02*
X320294D01*
X318770Y234696D02*
Y237744D01*
X310896Y236220D02*
X313944D01*
X312420Y234696D02*
Y237744D01*
X304546Y236220D02*
X307594D01*
X306070Y234696D02*
Y237744D01*
X298196Y236220D02*
X301244D01*
X299720Y234696D02*
Y237744D01*
X291846Y236220D02*
X294894D01*
X293370Y234696D02*
Y237744D01*
X285496Y236220D02*
X288544D01*
X287020Y234696D02*
Y237744D01*
X285496Y229870D02*
X288544D01*
X287020Y228346D02*
Y231394D01*
X285496Y223520D02*
X288544D01*
X287020Y221996D02*
Y225044D01*
X285496Y217170D02*
X288544D01*
X287020Y215646D02*
Y218694D01*
X285496Y210820D02*
X288544D01*
X287020Y209296D02*
Y212344D01*
X285496Y204470D02*
X288544D01*
X287020Y202946D02*
Y205994D01*
X291846Y204470D02*
X294894D01*
X293370Y202946D02*
Y205994D01*
X298196Y204470D02*
X301244D01*
X299720Y202946D02*
Y205994D01*
X291846Y210820D02*
X294894D01*
X293370Y209296D02*
Y212344D01*
X291846Y217170D02*
X294894D01*
X293370Y215646D02*
Y218694D01*
X291846Y223520D02*
X294894D01*
X293370Y221996D02*
Y225044D01*
X291846Y229870D02*
X294894D01*
X293370Y228346D02*
Y231394D01*
X298196Y229870D02*
X301244D01*
X299720Y228346D02*
Y231394D01*
X298196Y217170D02*
X301244D01*
X299720Y215646D02*
Y218694D01*
X298196Y210820D02*
X301244D01*
X299720Y209296D02*
Y212344D01*
X298196Y223520D02*
X301244D01*
X299720Y221996D02*
Y225044D01*
X304546Y229870D02*
X307594D01*
X306070Y228346D02*
Y231394D01*
X310896Y229870D02*
X313944D01*
X312420Y228346D02*
Y231394D01*
X317246Y229870D02*
X320294D01*
X318770Y228346D02*
Y231394D01*
X323596Y229870D02*
X326644D01*
X325120Y228346D02*
Y231394D01*
X323596Y223520D02*
X326644D01*
X325120Y221996D02*
Y225044D01*
X310896Y223520D02*
X313944D01*
X312420Y221996D02*
Y225044D01*
X304546Y223520D02*
X307594D01*
X306070Y221996D02*
Y225044D01*
X317246Y223520D02*
X320294D01*
X318770Y221996D02*
Y225044D01*
X317246Y210820D02*
X320294D01*
X318770Y209296D02*
Y212344D01*
X304546Y210820D02*
X307594D01*
X306070Y209296D02*
Y212344D01*
X304546Y204470D02*
X307594D01*
X306070Y202946D02*
Y205994D01*
X310896Y204470D02*
X313944D01*
X312420Y202946D02*
Y205994D01*
X310896Y210820D02*
X313944D01*
X312420Y209296D02*
Y212344D01*
X317246Y204470D02*
X320294D01*
X318770Y202946D02*
Y205994D01*
X323596Y204470D02*
X326644D01*
X325120Y202946D02*
Y205994D01*
X323596Y210820D02*
X326644D01*
X325120Y209296D02*
Y212344D01*
X323596Y217170D02*
X326644D01*
X325120Y215646D02*
Y218694D01*
X317246Y217170D02*
X320294D01*
X318770Y215646D02*
Y218694D01*
X310896Y217170D02*
X313944D01*
X312420Y215646D02*
Y218694D01*
X304546Y217170D02*
X307594D01*
X306070Y215646D02*
Y218694D01*
X256286Y241300D02*
X259334D01*
X257810Y239776D02*
Y242824D01*
X288036Y265430D02*
X291084D01*
X289560Y263906D02*
Y266954D01*
X296926Y265430D02*
X299974D01*
X298450Y263906D02*
Y266954D01*
X315976Y265430D02*
X319024D01*
X317500Y263906D02*
Y266954D01*
X352806Y213360D02*
X355854D01*
X354330Y211836D02*
Y214884D01*
X352806Y203200D02*
X355854D01*
X354330Y201676D02*
Y204724D01*
X352806Y185420D02*
X355854D01*
X354330Y183896D02*
Y186944D01*
X300736Y168910D02*
X303784D01*
X302260Y167386D02*
Y170434D01*
X293116Y168910D02*
X296164D01*
X294640Y167386D02*
Y170434D01*
X256286Y189230D02*
X259334D01*
X257810Y187706D02*
Y190754D01*
M02*
