G04*
G04 #@! TF.GenerationSoftware,Altium Limited,Altium Designer,24.3.1 (35)*
G04*
G04 Layer_Physical_Order=4*
G04 Layer_Color=16711680*
%FSLAX44Y44*%
%MOMM*%
G71*
G04*
G04 #@! TF.SameCoordinates,E54A5323-C3A8-4295-A2F1-912E9A9C0EE7*
G04*
G04*
G04 #@! TF.FilePolarity,Positive*
G04*
G01*
G75*
%ADD12C,0.2540*%
%ADD24R,0.7620X0.7620*%
%ADD25R,0.6000X0.5000*%
%ADD26R,0.5000X0.6000*%
%ADD31R,1.3000X1.0000*%
%ADD36R,0.7620X0.7620*%
%ADD100C,0.5080*%
%ADD101C,0.2286*%
G04:AMPARAMS|DCode=107|XSize=1.5mm|YSize=1.5mm|CornerRadius=0.375mm|HoleSize=0mm|Usage=FLASHONLY|Rotation=270.000|XOffset=0mm|YOffset=0mm|HoleType=Round|Shape=RoundedRectangle|*
%AMROUNDEDRECTD107*
21,1,1.5000,0.7500,0,0,270.0*
21,1,0.7500,1.5000,0,0,270.0*
1,1,0.7500,-0.3750,-0.3750*
1,1,0.7500,-0.3750,0.3750*
1,1,0.7500,0.3750,0.3750*
1,1,0.7500,0.3750,-0.3750*
%
%ADD107ROUNDEDRECTD107*%
G04:AMPARAMS|DCode=108|XSize=1.5748mm|YSize=1.5748mm|CornerRadius=0mm|HoleSize=0mm|Usage=FLASHONLY|Rotation=0.000|XOffset=0mm|YOffset=0mm|HoleType=Round|Shape=Octagon|*
%AMOCTAGOND108*
4,1,8,0.7874,-0.3937,0.7874,0.3937,0.3937,0.7874,-0.3937,0.7874,-0.7874,0.3937,-0.7874,-0.3937,-0.3937,-0.7874,0.3937,-0.7874,0.7874,-0.3937,0.0*
%
%ADD108OCTAGOND108*%

%ADD109C,1.5748*%
%ADD110C,3.0000*%
%ADD111C,2.5000*%
%ADD112C,5.0000*%
%ADD113C,0.5000*%
%ADD114C,0.5080*%
%ADD115C,0.4572*%
%ADD116R,4.9022X10.2870*%
G36*
X700238Y-25868D02*
X2072D01*
Y292772D01*
X3162Y461478D01*
X700238D01*
X700238Y-25868D01*
D02*
G37*
%LPC*%
G36*
X119380Y433145D02*
X119005Y433070D01*
X118622Y433070D01*
X118622Y433070D01*
X118269Y432924D01*
X117894Y432849D01*
X117893Y432849D01*
X117575Y432636D01*
X117222Y432490D01*
X116951Y432219D01*
X116633Y432007D01*
X116633Y432007D01*
X116420Y431689D01*
X116150Y431418D01*
X116004Y431065D01*
X115791Y430747D01*
X115791Y430747D01*
X115791Y430747D01*
X115716Y430371D01*
X115570Y430018D01*
X115570Y430018D01*
X115570Y429635D01*
X115495Y429260D01*
X115495Y429260D01*
X115495Y428815D01*
Y407670D01*
X115791Y406183D01*
X116633Y404923D01*
X118035Y403521D01*
Y391080D01*
X118150Y390504D01*
X118150Y389345D01*
X116035Y386120D01*
X113675Y385350D01*
X107990D01*
Y383832D01*
X107960Y383820D01*
X107772Y383770D01*
X107504Y383726D01*
X107162Y383696D01*
X106715Y383684D01*
X106592Y383630D01*
X91520D01*
X91400Y383762D01*
Y384290D01*
X90826Y385676D01*
X89766Y386736D01*
X88380Y387310D01*
X86880D01*
X85494Y386736D01*
X84434Y385676D01*
X83860Y384290D01*
Y382790D01*
X84434Y381404D01*
X85494Y380344D01*
X86880Y379770D01*
X87815D01*
X88316Y379330D01*
X88483Y379165D01*
X88516Y379151D01*
X88531Y379120D01*
X88784Y379030D01*
X89357Y378647D01*
X90348Y378450D01*
X103385D01*
X104334Y377265D01*
X101893Y372185D01*
X100330D01*
X99754Y372070D01*
X99580D01*
X99420Y372004D01*
X98843Y371889D01*
X98355Y371562D01*
X98195Y371496D01*
X98072Y371373D01*
X97583Y371047D01*
X97257Y370558D01*
X97134Y370436D01*
Y370435D01*
X97067Y370275D01*
X96741Y369787D01*
X96626Y369210D01*
X96560Y369050D01*
Y368876D01*
X96445Y368300D01*
X96560Y367724D01*
Y367550D01*
X96626Y367390D01*
X96741Y366813D01*
X97067Y366325D01*
X97134Y366165D01*
Y366164D01*
X97257Y366042D01*
X97583Y365553D01*
X98072Y365227D01*
X98195Y365104D01*
X98355Y365037D01*
X98843Y364711D01*
X99420Y364596D01*
X99580Y364530D01*
X99754D01*
X100330Y364415D01*
X123190D01*
X124677Y364711D01*
X125937Y365553D01*
X130774Y370390D01*
X131616Y371650D01*
X131912Y373137D01*
Y374068D01*
X136097Y378253D01*
X136309Y378571D01*
X136580Y378842D01*
Y378842D01*
X136726Y379195D01*
X136939Y379513D01*
X137014Y379889D01*
X137160Y380242D01*
X137160Y380242D01*
Y380625D01*
X137235Y381000D01*
X137160Y381375D01*
Y381758D01*
X137014Y382111D01*
X136939Y382487D01*
X136726Y382805D01*
X136580Y383158D01*
X136309Y383429D01*
X136097Y383747D01*
X136097D01*
X135779Y383959D01*
X135508Y384230D01*
X135508Y384230D01*
X135155Y384376D01*
X134837Y384589D01*
X134461Y384664D01*
X134108Y384810D01*
X133725D01*
X133350Y384885D01*
X132975Y384810D01*
X132592D01*
X132592Y384810D01*
X132592Y384810D01*
X132239Y384664D01*
X131863Y384589D01*
X131863Y384589D01*
X131545Y384376D01*
X131192Y384230D01*
X131192D01*
X130921Y383960D01*
X130770Y383858D01*
X127994Y384396D01*
X125690Y385350D01*
X125690Y390504D01*
X125805Y391080D01*
Y405130D01*
X125730Y405505D01*
Y405888D01*
X125584Y406241D01*
X125509Y406617D01*
X125296Y406935D01*
X125150Y407288D01*
X124880Y407559D01*
X124667Y407877D01*
X123265Y409279D01*
Y428807D01*
X123265Y429260D01*
X123265Y429260D01*
X123190Y429635D01*
X123190Y430018D01*
X123190Y430018D01*
X123044Y430371D01*
X122969Y430747D01*
X122969Y430747D01*
X122756Y431065D01*
X122610Y431418D01*
X122339Y431689D01*
X122127Y432007D01*
X122127Y432007D01*
X121809Y432219D01*
X121538Y432490D01*
X121185Y432636D01*
X120867Y432849D01*
X120866Y432849D01*
X120491Y432924D01*
X120138Y433070D01*
X120138Y433070D01*
X119755D01*
X119380Y433145D01*
D02*
G37*
G36*
X295390Y422870D02*
X293890D01*
X292505Y422296D01*
X291444Y421236D01*
X290870Y419850D01*
Y418350D01*
X291444Y416964D01*
X292505Y415904D01*
X293890Y415330D01*
X295390D01*
X296775Y415904D01*
X297836Y416964D01*
X298410Y418350D01*
Y419850D01*
X297836Y421236D01*
X296775Y422296D01*
X295390Y422870D01*
D02*
G37*
G36*
X203958Y425450D02*
X202442D01*
X201042Y424870D01*
X199970Y423798D01*
X199390Y422398D01*
Y420882D01*
X199970Y419482D01*
X201042Y418410D01*
X202442Y417830D01*
X203347D01*
X208989Y412189D01*
X209829Y411627D01*
X210820Y411430D01*
X224532D01*
X225172Y410790D01*
X226572Y410210D01*
X228088D01*
X229488Y410790D01*
X230560Y411862D01*
X231140Y413262D01*
Y414778D01*
X230560Y416178D01*
X229488Y417250D01*
X228088Y417830D01*
X226572D01*
X225172Y417250D01*
X224532Y416610D01*
X211893D01*
X207010Y421493D01*
Y422398D01*
X206430Y423798D01*
X205358Y424870D01*
X203958Y425450D01*
D02*
G37*
G36*
X166370Y436880D02*
X156210D01*
Y426720D01*
X156210Y426720D01*
X157480Y423668D01*
Y422152D01*
X158060Y420752D01*
X159132Y419680D01*
X160532Y419100D01*
X161437D01*
X171449Y409088D01*
X171256Y408622D01*
X171256Y408622D01*
Y407106D01*
X171836Y405706D01*
X172908Y404634D01*
X172908Y404634D01*
X174308Y404054D01*
X175824D01*
X177224Y404634D01*
X177224D01*
X178296Y405706D01*
X178876Y407106D01*
Y408622D01*
X178876Y408622D01*
X178296Y410022D01*
X177224Y411094D01*
X176430Y411423D01*
X176411Y411451D01*
X166222Y421640D01*
X166370Y426720D01*
X166370Y426720D01*
Y436880D01*
D02*
G37*
G36*
X107430Y408900D02*
X105930D01*
X104544Y408326D01*
X104544Y408326D01*
X103484Y407266D01*
X102910Y405880D01*
X102910Y404380D01*
X102910Y404380D01*
X103360Y403294D01*
X101993Y400511D01*
X100622Y398824D01*
X100141Y398740D01*
X100140Y398740D01*
X99581Y398740D01*
X99580Y398740D01*
X98195Y398166D01*
X97134Y397105D01*
X96560Y395720D01*
X96560Y395720D01*
X96560Y395073D01*
Y394220D01*
X97134Y392835D01*
X98195Y391774D01*
X99580Y391200D01*
X101080D01*
X102466Y391774D01*
X102466Y391774D01*
X103526Y392835D01*
X104100Y394220D01*
X104100Y395720D01*
X104100Y395720D01*
X103650Y396806D01*
X105017Y399589D01*
X106388Y401276D01*
X106869Y401360D01*
X106870Y401360D01*
X107429Y401360D01*
X107430Y401360D01*
X108815Y401934D01*
X109876Y402994D01*
X110450Y404380D01*
X110450Y404380D01*
X110450Y405027D01*
Y405880D01*
X109876Y407266D01*
X108815Y408326D01*
X107430Y408900D01*
D02*
G37*
G36*
X337820Y428065D02*
X337820Y428065D01*
X337445Y427990D01*
X337062D01*
X336709Y427844D01*
X336333Y427769D01*
X336015Y427556D01*
X335662Y427410D01*
X335662Y427410D01*
X335391Y427140D01*
X335073Y426927D01*
X335073Y426927D01*
X334861Y426609D01*
X334590Y426338D01*
X334590Y426338D01*
X334444Y425985D01*
X334231Y425667D01*
X334231Y425667D01*
X334156Y425291D01*
X334010Y424938D01*
Y424555D01*
X333935Y424180D01*
X334010Y423805D01*
Y423422D01*
X334010Y423422D01*
X334010Y423422D01*
X334156Y423069D01*
X334231Y422694D01*
X334231Y422693D01*
X334444Y422375D01*
X334590Y422022D01*
Y422022D01*
X334860Y421751D01*
X335073Y421433D01*
X335073Y421433D01*
X335388Y421118D01*
X341423Y415083D01*
X342683Y414241D01*
X344170Y413945D01*
X447971D01*
X462073Y399843D01*
X462391Y399631D01*
X462662Y399360D01*
X463015Y399214D01*
X463333Y399001D01*
X463709Y398926D01*
X464062Y398780D01*
X464445D01*
X464820Y398705D01*
X465195Y398780D01*
X465578D01*
X465931Y398926D01*
X466307Y399001D01*
X466625Y399214D01*
X466978Y399360D01*
X467249Y399631D01*
X467567Y399843D01*
X474049Y406325D01*
X500041D01*
X507793Y398573D01*
X509053Y397731D01*
X510540Y397435D01*
X635817D01*
X636270Y397435D01*
X636270Y397435D01*
X636645Y397510D01*
X637028Y397510D01*
X637028Y397510D01*
X637381Y397656D01*
X637757Y397731D01*
X637757Y397731D01*
X638075Y397944D01*
X638428Y398090D01*
X638428Y398090D01*
X638699Y398360D01*
X639017Y398573D01*
X639017Y398573D01*
X639229Y398891D01*
X639500Y399162D01*
X639646Y399515D01*
X639859Y399833D01*
X639859Y399834D01*
X639934Y400209D01*
X640080Y400562D01*
X640080Y400562D01*
X640080Y400945D01*
X640155Y401320D01*
X640155Y401320D01*
X640080Y401695D01*
X640080Y402078D01*
X639934Y402431D01*
X639859Y402806D01*
X639859Y402807D01*
X639646Y403125D01*
X639500Y403478D01*
X639229Y403749D01*
X639017Y404067D01*
X639017Y404067D01*
X638699Y404280D01*
X638428Y404550D01*
X638428Y404550D01*
X638075Y404696D01*
X637757Y404909D01*
X637381Y404984D01*
X637028Y405130D01*
X637028Y405130D01*
X636645Y405130D01*
X636270Y405205D01*
X636270Y405205D01*
X635825Y405205D01*
X615294D01*
X614439Y406829D01*
X613736Y410285D01*
X614066Y410615D01*
X614640Y412000D01*
Y413500D01*
X614066Y414885D01*
X613005Y415946D01*
X611620Y416520D01*
X610120D01*
X608735Y415946D01*
X607674Y414885D01*
X607100Y413500D01*
Y412000D01*
X607674Y410615D01*
X608004Y410285D01*
X607301Y406829D01*
X606446Y405205D01*
X512149D01*
X504397Y412957D01*
X503137Y413799D01*
X501650Y414095D01*
X472440D01*
X470953Y413799D01*
X469693Y412957D01*
X464820Y408084D01*
X452327Y420577D01*
X451067Y421419D01*
X449580Y421715D01*
X345779D01*
X340567Y426927D01*
X340249Y427140D01*
X339978Y427410D01*
X339978D01*
X339625Y427556D01*
X339307Y427769D01*
X339306Y427769D01*
X338931Y427844D01*
X338578Y427990D01*
X338577Y427990D01*
X338195Y427990D01*
X337837Y428061D01*
X337820Y428065D01*
D02*
G37*
G36*
X267450Y402550D02*
X265950D01*
X264564Y401976D01*
X263504Y400915D01*
X262930Y399530D01*
Y398030D01*
X263504Y396645D01*
X264564Y395584D01*
X265950Y395010D01*
X267450D01*
X268836Y395584D01*
X269896Y396645D01*
X270470Y398030D01*
Y399530D01*
X269896Y400915D01*
X268836Y401976D01*
X267450Y402550D01*
D02*
G37*
G36*
X44384Y402844D02*
X41976D01*
X39650Y402221D01*
X37566Y401017D01*
X35863Y399314D01*
X34659Y397229D01*
X34036Y394904D01*
Y392496D01*
X34659Y390171D01*
X35863Y388086D01*
X37566Y386383D01*
X39650Y385179D01*
X41976Y384556D01*
X44384D01*
X46709Y385179D01*
X48794Y386383D01*
X50497Y388086D01*
X51701Y390171D01*
X52324Y392496D01*
Y394904D01*
X51701Y397229D01*
X50497Y399314D01*
X48794Y401017D01*
X46709Y402221D01*
X44384Y402844D01*
D02*
G37*
G36*
X371590Y388580D02*
X370090D01*
X368704Y388006D01*
X367644Y386945D01*
X367070Y385560D01*
Y384060D01*
X367644Y382674D01*
X368704Y381614D01*
X370090Y381040D01*
X371590D01*
X372976Y381614D01*
X374036Y382674D01*
X374610Y384060D01*
Y385560D01*
X374036Y386945D01*
X372976Y388006D01*
X371590Y388580D01*
D02*
G37*
G36*
X305550Y405090D02*
X304050D01*
X302665Y404516D01*
X302665D01*
X302257Y404109D01*
X301604Y403456D01*
Y403456D01*
X301030Y402070D01*
Y400570D01*
X301576Y399252D01*
X301604Y399184D01*
X301604Y399184D01*
X302665Y398124D01*
X304050Y397550D01*
X304497D01*
X305675Y396885D01*
X305675Y396885D01*
X305807Y396834D01*
X311230Y391411D01*
X311230Y376882D01*
X311188Y373524D01*
X311188D01*
X311168Y371831D01*
X311167Y371829D01*
X310758Y370983D01*
X310494Y370435D01*
X309920Y369051D01*
X309920Y369050D01*
Y367819D01*
X309768Y367329D01*
X307137Y363512D01*
X306868Y363300D01*
X306667Y363140D01*
X290579Y363140D01*
X280590Y373129D01*
X280590Y382578D01*
X280650Y387414D01*
X280788Y387911D01*
X281326Y389025D01*
X281900Y390409D01*
X281900Y390410D01*
X281900Y390410D01*
X281900Y391910D01*
X281900Y391910D01*
X281900Y391910D01*
X281872Y391977D01*
X281326Y393296D01*
X280266Y394356D01*
X280266Y394356D01*
X278880Y394930D01*
X278880Y394930D01*
X278304Y394930D01*
X277380Y394930D01*
X277380Y394930D01*
X275994Y394356D01*
X274934Y393296D01*
X274388Y391977D01*
X274360Y391910D01*
X274360Y391910D01*
Y390410D01*
X274934Y389025D01*
X275481Y387878D01*
X275613Y387405D01*
X275613D01*
X275670Y387276D01*
Y382243D01*
Y372819D01*
X275670Y372110D01*
X275857Y371169D01*
X276390Y370370D01*
X276839Y369922D01*
X287372Y359389D01*
X287669Y359092D01*
X287820Y358940D01*
X287820Y358940D01*
X288619Y358407D01*
X289560Y358220D01*
X290194Y358220D01*
X305440D01*
X312132Y358220D01*
X315092D01*
X316866Y358220D01*
X316866D01*
X317500Y358220D01*
X318442Y358407D01*
X319240Y358940D01*
X319688Y359389D01*
Y359389D01*
X320942Y360643D01*
X324829Y364530D01*
X324989Y364530D01*
X325870D01*
X327256Y365104D01*
X328316Y366165D01*
X328890Y367550D01*
Y369050D01*
X328316Y370435D01*
X327256Y371496D01*
X325870Y372070D01*
X324370D01*
X322985Y371496D01*
X322153Y370665D01*
X320777Y370605D01*
X320669Y370634D01*
X320434Y370709D01*
X316276Y374104D01*
X316150Y374206D01*
Y377217D01*
Y391796D01*
X316150Y392430D01*
X315963Y393372D01*
X315430Y394170D01*
X314981Y394618D01*
X309286Y400313D01*
X309235Y400445D01*
X309235Y400445D01*
X308570Y401623D01*
Y402070D01*
X307996Y403456D01*
X306936Y404516D01*
X306936Y404516D01*
X306868Y404544D01*
X305550Y405090D01*
D02*
G37*
G36*
X371590Y355560D02*
X370090D01*
X368704Y354986D01*
X367644Y353926D01*
X367070Y352540D01*
Y351040D01*
X367644Y349654D01*
X368704Y348594D01*
X370090Y348020D01*
X371590D01*
X372976Y348594D01*
X374036Y349654D01*
X374610Y351040D01*
Y352540D01*
X374036Y353926D01*
X372976Y354986D01*
X371590Y355560D01*
D02*
G37*
G36*
X139180Y353020D02*
X137680D01*
X136294Y352446D01*
X135234Y351385D01*
X134660Y350000D01*
Y348831D01*
X132744Y346779D01*
X130736Y344975D01*
X130075Y345006D01*
X129757Y345219D01*
X129381Y345294D01*
X129028Y345440D01*
X128645D01*
X128270Y345515D01*
X124460D01*
Y346710D01*
X114300D01*
Y336550D01*
X124460D01*
Y337745D01*
X128270D01*
X128645Y337820D01*
X129028D01*
X129381Y337966D01*
X129757Y338041D01*
X134177Y336208D01*
X134660Y335800D01*
X135234Y334414D01*
X136294Y333354D01*
X137680Y332780D01*
X139180D01*
X140566Y333354D01*
X141626Y334414D01*
X142200Y335800D01*
Y337300D01*
X141626Y338685D01*
X140587Y339725D01*
X141626Y340765D01*
X142200Y342150D01*
Y343650D01*
X141626Y345036D01*
X140587Y346075D01*
X141626Y347114D01*
X142200Y348500D01*
Y350000D01*
X141626Y351385D01*
X140566Y352446D01*
X139180Y353020D01*
D02*
G37*
G36*
X642100Y347940D02*
X640600D01*
X639215Y347366D01*
X638154Y346306D01*
X637580Y344920D01*
Y343420D01*
X638154Y342034D01*
X639215Y340974D01*
X640600Y340400D01*
X642100D01*
X643485Y340974D01*
X644546Y342034D01*
X645120Y343420D01*
Y344920D01*
X644546Y346306D01*
X643485Y347366D01*
X642100Y347940D01*
D02*
G37*
G36*
X468118Y346710D02*
X466602D01*
X465202Y346130D01*
X464130Y345058D01*
X463550Y343658D01*
Y342142D01*
X464130Y340742D01*
X465202Y339670D01*
X466602Y339090D01*
X468118D01*
X469518Y339670D01*
X470590Y340742D01*
X471170Y342142D01*
Y343658D01*
X470590Y345058D01*
X469518Y346130D01*
X468118Y346710D01*
D02*
G37*
G36*
X89650Y342860D02*
X88150D01*
X86764Y342286D01*
X85704Y341226D01*
X85130Y339840D01*
Y338340D01*
X85704Y336954D01*
X86764Y335894D01*
X88150Y335320D01*
X89650D01*
X91035Y335894D01*
X92096Y336954D01*
X92670Y338340D01*
Y339840D01*
X92096Y341226D01*
X91035Y342286D01*
X89650Y342860D01*
D02*
G37*
G36*
X455930Y334085D02*
X455485Y334085D01*
X287020D01*
X286645Y334010D01*
X286262Y334010D01*
X286262Y334010D01*
X285909Y333864D01*
X285533Y333789D01*
X285533Y333789D01*
X285215Y333576D01*
X284862Y333430D01*
X284862Y333430D01*
X284591Y333159D01*
X284273Y332947D01*
X284061Y332629D01*
X283790Y332358D01*
X283644Y332005D01*
X283431Y331687D01*
X283356Y331311D01*
X283210Y330958D01*
X283210Y330958D01*
X283210Y330575D01*
X283135Y330200D01*
X283210Y329825D01*
X283210Y329442D01*
X283210Y329442D01*
X283356Y329089D01*
X283431Y328713D01*
X283644Y328395D01*
X283790Y328042D01*
X284061Y327771D01*
X284273Y327453D01*
X284591Y327241D01*
X284862Y326970D01*
X284862Y326970D01*
X284862Y326970D01*
X285215Y326824D01*
X285533Y326611D01*
X285533Y326611D01*
X285909Y326536D01*
X286262Y326390D01*
X286262Y326390D01*
X286645Y326390D01*
X287020Y326315D01*
X455477D01*
X455930Y326315D01*
X455930Y326315D01*
X456305Y326390D01*
X456688Y326390D01*
X456688Y326390D01*
X457041Y326536D01*
X457417Y326611D01*
X457417Y326611D01*
X457735Y326824D01*
X458088Y326970D01*
X458088Y326970D01*
X458359Y327240D01*
X458677Y327453D01*
X458677Y327453D01*
X458889Y327771D01*
X459160Y328042D01*
X459306Y328395D01*
X459519Y328713D01*
X459519Y328714D01*
X459594Y329089D01*
X459740Y329442D01*
X459740Y329442D01*
X459740Y329825D01*
X459815Y330200D01*
X459740Y330575D01*
X459740Y330958D01*
X459740Y330958D01*
X459594Y331311D01*
X459519Y331686D01*
X459519Y331687D01*
X459306Y332005D01*
X459160Y332358D01*
X458889Y332629D01*
X458677Y332947D01*
X458677Y332947D01*
X458359Y333159D01*
X458088Y333430D01*
X458088Y333430D01*
X458088Y333430D01*
X457735Y333576D01*
X457417Y333789D01*
X457417Y333789D01*
X457041Y333864D01*
X456688Y334010D01*
X456688Y334010D01*
X456305Y334010D01*
X455930Y334085D01*
X455930Y334085D01*
D02*
G37*
G36*
X187440Y353020D02*
X185940D01*
X184555Y352446D01*
X183494Y351385D01*
X182920Y350000D01*
Y348500D01*
X183494Y347114D01*
X184533Y346075D01*
X183494Y345036D01*
X182920Y343650D01*
Y342150D01*
X183494Y340765D01*
X184533Y339725D01*
X183494Y338685D01*
X182920Y337300D01*
Y335800D01*
X183494Y334414D01*
X184555Y333354D01*
X185940Y332780D01*
X187440D01*
X188825Y333354D01*
X189886Y334414D01*
X190460Y335800D01*
Y337300D01*
X189886Y338685D01*
X188847Y339725D01*
X189886Y340765D01*
X190460Y342150D01*
Y343650D01*
X189886Y345036D01*
X188847Y346075D01*
X189886Y347114D01*
X190460Y348500D01*
Y350000D01*
X189886Y351385D01*
X188825Y352446D01*
X187440Y353020D01*
D02*
G37*
G36*
X112970Y318748D02*
X105470D01*
X103511Y318359D01*
X101851Y317249D01*
X100741Y315589D01*
X100352Y313630D01*
Y306130D01*
X100741Y304171D01*
X101851Y302511D01*
X103511Y301401D01*
X105470Y301012D01*
X112970D01*
X114929Y301401D01*
X116589Y302511D01*
X117699Y304171D01*
X118088Y306130D01*
Y313630D01*
X117699Y315589D01*
X116589Y317249D01*
X114929Y318359D01*
X112970Y318748D01*
D02*
G37*
G36*
X87570D02*
X80070D01*
X78111Y318359D01*
X76451Y317249D01*
X75341Y315589D01*
X74952Y313630D01*
Y306130D01*
X75341Y304171D01*
X76451Y302511D01*
X78111Y301401D01*
X80070Y301012D01*
X87570D01*
X89529Y301401D01*
X91189Y302511D01*
X92299Y304171D01*
X92688Y306130D01*
Y313630D01*
X92299Y315589D01*
X91189Y317249D01*
X89529Y318359D01*
X87570Y318748D01*
D02*
G37*
G36*
X611620Y307300D02*
X610120D01*
X608735Y306726D01*
X607674Y305665D01*
X607100Y304280D01*
Y302780D01*
X607674Y301395D01*
X608735Y300334D01*
X610120Y299760D01*
X611620D01*
X613005Y300334D01*
X614066Y301395D01*
X614640Y302780D01*
Y304280D01*
X614066Y305665D01*
X613005Y306726D01*
X611620Y307300D01*
D02*
G37*
G36*
X465578Y294640D02*
X464062D01*
X462662Y294060D01*
X461590Y292988D01*
X461010Y291588D01*
Y290072D01*
X461590Y288672D01*
X462662Y287600D01*
X464062Y287020D01*
X465578D01*
X466978Y287600D01*
X468050Y288672D01*
X468630Y290072D01*
Y291588D01*
X468050Y292988D01*
X466978Y294060D01*
X465578Y294640D01*
D02*
G37*
G36*
X112970Y293348D02*
X105470D01*
X103511Y292959D01*
X101851Y291849D01*
X100741Y290189D01*
X100352Y288230D01*
Y280730D01*
X100741Y278771D01*
X101851Y277111D01*
X103511Y276001D01*
X105470Y275612D01*
X112970D01*
X114929Y276001D01*
X116589Y277111D01*
X117699Y278771D01*
X118088Y280730D01*
Y288230D01*
X117699Y290189D01*
X116589Y291849D01*
X114929Y292959D01*
X112970Y293348D01*
D02*
G37*
G36*
X87570D02*
X80070D01*
X78111Y292959D01*
X76451Y291849D01*
X75341Y290189D01*
X74952Y288230D01*
Y280730D01*
X75341Y278771D01*
X76451Y277111D01*
X78111Y276001D01*
X80070Y275612D01*
X87570D01*
X89529Y276001D01*
X91189Y277111D01*
X92299Y278771D01*
X92688Y280730D01*
Y288230D01*
X92299Y290189D01*
X91189Y291849D01*
X89529Y292959D01*
X87570Y293348D01*
D02*
G37*
G36*
X371590Y279360D02*
X370090D01*
X368704Y278786D01*
X367644Y277726D01*
X367070Y276340D01*
Y274840D01*
X367644Y273454D01*
X368704Y272394D01*
X370090Y271820D01*
X371590D01*
X372976Y272394D01*
X374036Y273454D01*
X374610Y274840D01*
Y276340D01*
X374036Y277726D01*
X372976Y278786D01*
X371590Y279360D01*
D02*
G37*
G36*
X298450Y269315D02*
X297873Y269200D01*
X297700D01*
X297700Y269200D01*
X297540Y269134D01*
X297271Y269080D01*
X296851Y269004D01*
X294829Y268729D01*
X294005Y268668D01*
X293181Y268729D01*
X291159Y269004D01*
X290739Y269080D01*
X290470Y269133D01*
X290310Y269200D01*
X290310Y269200D01*
X290136Y269200D01*
X289560Y269315D01*
X288984Y269200D01*
X288810D01*
X288810Y269200D01*
X288650Y269134D01*
X288073Y269019D01*
X287585Y268692D01*
X287425Y268626D01*
X287302Y268503D01*
X286813Y268177D01*
X284313Y265677D01*
X283471Y264417D01*
X283175Y262930D01*
Y257239D01*
X283175Y256661D01*
X283135Y256460D01*
X283250Y252190D01*
X285726D01*
X285726Y252190D01*
X292100Y252190D01*
X295870Y252190D01*
X300950D01*
Y255884D01*
X301065Y256460D01*
Y262551D01*
X301197Y262683D01*
X301197Y262683D01*
X301523Y263172D01*
X301646Y263294D01*
X301646Y263295D01*
X301712Y263455D01*
X302039Y263943D01*
Y263944D01*
X302154Y264520D01*
X302220Y264680D01*
X302220Y264680D01*
Y264854D01*
X302335Y265430D01*
X302220Y266006D01*
Y266180D01*
X302154Y266340D01*
X302039Y266917D01*
X302039Y266917D01*
X301712Y267405D01*
X301646Y267565D01*
X301523Y267688D01*
X301197Y268177D01*
X301197Y268177D01*
X300708Y268503D01*
X300586Y268626D01*
X300586Y268626D01*
X300425Y268692D01*
X299937Y269019D01*
X299360Y269134D01*
X299200Y269200D01*
X299026D01*
X298450Y269315D01*
X298450Y269315D01*
X298450Y269315D01*
D02*
G37*
G36*
X317500D02*
X317500Y269315D01*
X316924Y269200D01*
X316750D01*
X316590Y269134D01*
X316014Y269019D01*
X316013Y269019D01*
X315525Y268692D01*
X315364Y268626D01*
X315242Y268503D01*
X314753Y268177D01*
X313483Y266907D01*
X313483Y266907D01*
X313477Y266897D01*
X312641Y265647D01*
X312345Y264160D01*
Y256460D01*
X312460Y255884D01*
Y252190D01*
X321310Y252190D01*
X325080Y252190D01*
X330160Y252190D01*
X335240Y252190D01*
X338465D01*
X340825Y251420D01*
X342940Y248195D01*
X342940Y247110D01*
X342940Y243034D01*
X341090Y238720D01*
X341090Y237876D01*
Y231180D01*
X344784D01*
X345360Y231065D01*
X353060D01*
X353640Y231181D01*
X354535Y230486D01*
X356012Y228813D01*
X357016Y227067D01*
X356910Y226810D01*
X356910Y226810D01*
X356910Y226356D01*
Y225310D01*
X357484Y223925D01*
Y220576D01*
X357484Y220575D01*
X356813Y219117D01*
X354350Y217259D01*
X353580Y217130D01*
X353580Y217130D01*
X353420Y217064D01*
X352843Y216949D01*
X352355Y216623D01*
X352195Y216556D01*
X352072Y216433D01*
X351583Y216107D01*
X351451Y215975D01*
X345360D01*
X344784Y215860D01*
X341090D01*
Y208320D01*
X341090D01*
X341090Y205700D01*
X341090Y205700D01*
Y198160D01*
X341090D01*
X341090Y195540D01*
X341090Y195540D01*
Y188000D01*
X341090Y188000D01*
Y185380D01*
X341090D01*
X341090Y182920D01*
Y177840D01*
X344784D01*
X345360Y177725D01*
X349759D01*
X351097Y175916D01*
X352072Y172855D01*
X325829Y146611D01*
X325267Y145771D01*
X325070Y144780D01*
Y48897D01*
X324483Y48310D01*
X297616D01*
X296625Y48113D01*
X295784Y47551D01*
X290269Y42035D01*
X289707Y41195D01*
X289510Y40204D01*
Y29210D01*
X289707Y28219D01*
X290269Y27379D01*
X295349Y22299D01*
X296189Y21737D01*
X297180Y21540D01*
X299462D01*
X300102Y20900D01*
X301502Y20320D01*
X303018D01*
X304418Y20900D01*
X305490Y21972D01*
X306070Y23372D01*
Y24888D01*
X305490Y26288D01*
X304790Y28575D01*
X305490Y30862D01*
X306070Y32262D01*
Y33778D01*
X309102Y37845D01*
X309380Y38050D01*
X327660D01*
X328651Y38247D01*
X329491Y38809D01*
X334571Y43889D01*
X335133Y44729D01*
X335330Y45720D01*
Y141167D01*
X362377Y168214D01*
X362908Y168090D01*
X367070Y165723D01*
Y165620D01*
X367644Y164235D01*
X368704Y163174D01*
X370090Y162600D01*
X371590D01*
X372976Y163174D01*
X374036Y164235D01*
X374610Y165620D01*
Y167120D01*
X374036Y168505D01*
X372976Y169566D01*
X371590Y170140D01*
X371309D01*
X370783Y170606D01*
X370050Y171626D01*
X368755Y173574D01*
X368265Y174833D01*
X368350Y175260D01*
Y220980D01*
X368153Y221971D01*
X367591Y222811D01*
X365214Y225189D01*
X365168Y225310D01*
X364844Y225660D01*
X364747Y225778D01*
X364666Y225891D01*
X364607Y225982D01*
X364570Y226050D01*
X364554Y226087D01*
X364552Y226121D01*
X364541Y226142D01*
X364537Y226164D01*
X364513Y226201D01*
X364450Y226329D01*
Y226810D01*
X363876Y228195D01*
X362816Y229256D01*
X361430Y229830D01*
X360618Y229830D01*
X359046Y231447D01*
X357800Y233845D01*
X357699Y234405D01*
X357919Y234733D01*
Y234734D01*
X358034Y235310D01*
X358100Y235470D01*
X358100Y235470D01*
Y235644D01*
X358215Y236220D01*
X358100Y236796D01*
Y236970D01*
X358034Y237130D01*
X357919Y237706D01*
Y237707D01*
X357919Y237707D01*
X357593Y238195D01*
X357526Y238356D01*
X357224Y239377D01*
X357108Y239961D01*
X357201Y242944D01*
X357236Y243112D01*
X357523Y244233D01*
X357548Y244297D01*
X358100Y245630D01*
Y247130D01*
X357526Y248515D01*
X356465Y249576D01*
X355080Y250150D01*
X354715D01*
X352957Y250997D01*
X350480Y254364D01*
X350480Y255810D01*
Y260730D01*
X342940D01*
Y260730D01*
X340320Y260730D01*
X340320Y260730D01*
X335211D01*
X333527Y262096D01*
X333372Y262270D01*
X331516Y265287D01*
X331545Y265430D01*
X331545Y265430D01*
X331430Y266006D01*
Y266180D01*
X331364Y266340D01*
X331249Y266917D01*
X331249Y266917D01*
X330923Y267405D01*
X330856Y267565D01*
X330733Y267688D01*
X330407Y268177D01*
X330407Y268177D01*
X329918Y268503D01*
X329796Y268626D01*
X329796Y268626D01*
X329795Y268626D01*
X329635Y268692D01*
X329147Y269019D01*
X329147Y269019D01*
X328570Y269134D01*
X328410Y269200D01*
X328236D01*
X327660Y269315D01*
X327660Y269315D01*
X327084Y269200D01*
X326910D01*
X326910Y269200D01*
X326750Y269134D01*
X326174Y269019D01*
X326173D01*
X325685Y268692D01*
X325577Y268648D01*
X325577D01*
X325512Y268623D01*
X324138Y268251D01*
X323764Y268177D01*
X322044D01*
X320995Y268327D01*
X320058Y268533D01*
X318987Y269019D01*
X318410Y269134D01*
X318250Y269200D01*
X318076D01*
X317500Y269315D01*
X317500Y269315D01*
D02*
G37*
G36*
X112970Y267948D02*
X105470D01*
X103511Y267559D01*
X101851Y266449D01*
X100741Y264789D01*
X100352Y262830D01*
Y255330D01*
X100741Y253371D01*
X101851Y251711D01*
X103511Y250601D01*
X105470Y250212D01*
X112970D01*
X114929Y250601D01*
X116589Y251711D01*
X117699Y253371D01*
X118088Y255330D01*
Y262830D01*
X117699Y264789D01*
X116589Y266449D01*
X114929Y267559D01*
X112970Y267948D01*
D02*
G37*
G36*
X87570D02*
X80070D01*
X78111Y267559D01*
X76451Y266449D01*
X75341Y264789D01*
X74952Y262830D01*
Y255330D01*
X75341Y253371D01*
X76451Y251711D01*
X78111Y250601D01*
X80070Y250212D01*
X87570D01*
X89529Y250601D01*
X91189Y251711D01*
X92299Y253371D01*
X92688Y255330D01*
Y262830D01*
X92299Y264789D01*
X91189Y266449D01*
X89529Y267559D01*
X87570Y267948D01*
D02*
G37*
G36*
X371590Y246340D02*
X370090D01*
X368704Y245766D01*
X367644Y244706D01*
X367070Y243320D01*
Y241820D01*
X367644Y240434D01*
X368704Y239374D01*
X370090Y238800D01*
X371590D01*
X372976Y239374D01*
X374036Y240434D01*
X374610Y241820D01*
Y243320D01*
X374036Y244706D01*
X372976Y245766D01*
X371590Y246340D01*
D02*
G37*
G36*
X266780Y246455D02*
X266579Y246415D01*
X266001Y246415D01*
X259040D01*
X257553Y246119D01*
X256293Y245277D01*
X255384Y244367D01*
X255063Y244047D01*
X255063Y244047D01*
X254737Y243558D01*
X254614Y243436D01*
X254614Y243435D01*
X254548Y243275D01*
X254221Y242787D01*
Y242786D01*
X254106Y242210D01*
X254040Y242050D01*
Y241876D01*
X253925Y241300D01*
X254040Y240724D01*
Y240550D01*
X254106Y240390D01*
X254221Y239813D01*
X254221Y239813D01*
X254548Y239325D01*
X254614Y239165D01*
X254737Y239042D01*
X255063Y238553D01*
X255063Y238553D01*
X255552Y238227D01*
X255674Y238104D01*
X255835Y238037D01*
X256323Y237711D01*
X256900Y237596D01*
X257060Y237530D01*
X257234D01*
X257810Y237415D01*
X257810Y237415D01*
X257810Y237415D01*
X258386Y237530D01*
X258560D01*
X258560Y237530D01*
X258720Y237596D01*
X259296Y237711D01*
X259297Y237711D01*
X259785Y238037D01*
X259946Y238104D01*
X260068Y238227D01*
X260557Y238553D01*
X260649Y238645D01*
X266740D01*
X267518Y238800D01*
X271012D01*
Y238800D01*
X271050D01*
X271050Y243864D01*
X271050Y246340D01*
X266780Y246455D01*
D02*
G37*
G36*
X465578Y240030D02*
X464062D01*
X462662Y239450D01*
X461590Y238378D01*
X461010Y236978D01*
Y235462D01*
X461590Y234062D01*
X462662Y232990D01*
X464062Y232410D01*
X465578D01*
X466978Y232990D01*
X468050Y234062D01*
X468630Y235462D01*
Y236978D01*
X468050Y238378D01*
X466978Y239450D01*
X465578Y240030D01*
D02*
G37*
G36*
X642100Y238720D02*
X640600D01*
X639215Y238146D01*
X638154Y237085D01*
X637580Y235700D01*
Y234200D01*
X638154Y232815D01*
X639215Y231754D01*
X640600Y231180D01*
X642100D01*
X643485Y231754D01*
X644546Y232815D01*
X645120Y234200D01*
Y235700D01*
X644546Y237085D01*
X643485Y238146D01*
X642100Y238720D01*
D02*
G37*
G36*
X112970Y242548D02*
X105470D01*
X103511Y242159D01*
X101851Y241049D01*
X100741Y239389D01*
X100352Y237430D01*
Y229930D01*
X99560Y228668D01*
X99473Y228603D01*
X97219D01*
X92688Y233319D01*
Y237430D01*
X92299Y239389D01*
X91189Y241049D01*
X89529Y242159D01*
X87570Y242548D01*
X80070D01*
X78111Y242159D01*
X76451Y241049D01*
X75341Y239389D01*
X74952Y237430D01*
Y229930D01*
X75341Y227971D01*
X74789Y224181D01*
X73410Y222414D01*
X67103Y216107D01*
X66261Y214847D01*
X65965Y213360D01*
Y95250D01*
X66261Y93763D01*
X67103Y92503D01*
X74952Y84655D01*
Y77530D01*
X75156Y76500D01*
X73365Y73112D01*
X72998Y72656D01*
X68430Y71420D01*
X67460D01*
Y71420D01*
X51920D01*
Y58880D01*
X67460D01*
Y58880D01*
X68430D01*
Y58880D01*
X83970D01*
Y61295D01*
X85307Y61561D01*
X86567Y62403D01*
X87409Y63663D01*
X87705Y65150D01*
Y72439D01*
X89529Y72801D01*
X91189Y73911D01*
X92299Y75571D01*
X92688Y77530D01*
Y85030D01*
X92299Y86989D01*
X91189Y88649D01*
X89529Y89759D01*
X87570Y90148D01*
X80445D01*
X73735Y96859D01*
Y120416D01*
X76958Y122761D01*
X78815Y123461D01*
X80070Y123212D01*
X87570D01*
X89529Y123601D01*
X91189Y124711D01*
X92299Y126371D01*
X92688Y128330D01*
Y135552D01*
X92688Y135830D01*
X92688Y135830D01*
X92444Y137060D01*
X93495Y138569D01*
X97524Y141199D01*
X97681Y141180D01*
X100551Y136834D01*
X100352Y135830D01*
Y128330D01*
X100741Y126371D01*
X101851Y124711D01*
X103511Y123601D01*
X105470Y123212D01*
X112970D01*
X114929Y123601D01*
X116589Y124711D01*
X117699Y126371D01*
X118088Y128330D01*
Y135830D01*
X117834Y137110D01*
X118434Y138810D01*
X120867Y142190D01*
X129034D01*
X129156Y142136D01*
X129599Y142125D01*
X129941Y142096D01*
X130209Y142054D01*
X130398Y142006D01*
X130430Y141994D01*
Y141010D01*
X131730Y140936D01*
X131764Y140950D01*
X131883Y140944D01*
X132002Y141010D01*
X138970Y141010D01*
X144050Y141010D01*
X148970Y141010D01*
X149014Y143657D01*
X148970Y143763D01*
X148970Y144526D01*
X149032Y144634D01*
X149252Y144947D01*
X149979Y145802D01*
X150454Y146294D01*
X150505Y146422D01*
X157703Y153620D01*
X174068D01*
X175324Y151910D01*
X176721Y148540D01*
X176530Y148078D01*
Y146562D01*
X177110Y145162D01*
X178182Y144090D01*
X179582Y143510D01*
X181098D01*
X182498Y144090D01*
X183570Y145162D01*
X184150Y146562D01*
Y148078D01*
X183958Y148540D01*
X185356Y151910D01*
X186612Y153620D01*
X287020D01*
X288011Y153817D01*
X288851Y154379D01*
X289959Y155486D01*
X290080Y155532D01*
X290430Y155856D01*
X290548Y155953D01*
X290660Y156034D01*
X290752Y156093D01*
X290820Y156130D01*
X290858Y156146D01*
X290891Y156148D01*
X290912Y156159D01*
X290935Y156163D01*
X290971Y156187D01*
X291099Y156250D01*
X291580D01*
X292966Y156824D01*
X294026Y157885D01*
X294600Y159270D01*
Y160232D01*
X294601Y160321D01*
X294670Y160861D01*
X294709Y161095D01*
X295436Y163263D01*
X295585Y163563D01*
X300773Y165321D01*
X300773Y165321D01*
X300774Y165321D01*
X301350Y165206D01*
X301510Y165140D01*
X301510Y165140D01*
X301684D01*
X301684Y165140D01*
X301684Y165140D01*
X302260Y165025D01*
X302260Y165025D01*
X302836Y165140D01*
X303010D01*
X303170Y165206D01*
X303747Y165321D01*
X303747Y165321D01*
X304235Y165648D01*
X304396Y165714D01*
X304518Y165837D01*
X305007Y166163D01*
X305007Y166163D01*
X305333Y166652D01*
X305456Y166774D01*
X305456Y166774D01*
X305522Y166935D01*
X305849Y167423D01*
X305849Y167423D01*
X305964Y168000D01*
X306030Y168160D01*
Y168334D01*
X306145Y168910D01*
X306145Y168910D01*
X306030Y169487D01*
Y169660D01*
X305964Y169820D01*
X305849Y170396D01*
X305849Y170397D01*
X305522Y170885D01*
X305456Y171045D01*
X305456Y171046D01*
X305333Y171168D01*
X305007Y171657D01*
X305007Y171657D01*
X304875Y171789D01*
Y177880D01*
X304760Y178456D01*
Y182150D01*
X297220D01*
X297220Y182150D01*
X294600Y182150D01*
Y182150D01*
X289537D01*
Y182150D01*
X287060Y182150D01*
X286945Y177880D01*
X286985Y177679D01*
X286985Y177101D01*
Y172680D01*
X287062Y172293D01*
X286624Y171171D01*
X284881Y168765D01*
X283730Y167600D01*
X282344Y167026D01*
X282004Y166686D01*
X281870Y166640D01*
X281827Y166631D01*
X281808Y166618D01*
X281785Y166611D01*
X281760Y166589D01*
X281722Y166574D01*
X281648Y166552D01*
X281542Y166528D01*
X281421Y166509D01*
X281030Y166479D01*
X280802Y166474D01*
X280677Y166420D01*
X151550D01*
X150559Y166223D01*
X149719Y165661D01*
X146855Y162798D01*
X146734Y162753D01*
X145765Y161853D01*
X145392Y161555D01*
X145066Y161328D01*
X144930Y161250D01*
X144256D01*
X144077Y161324D01*
X140430Y161250D01*
X135510Y161250D01*
X135350Y161250D01*
X132002D01*
X131883Y161316D01*
X131764Y161310D01*
X131730Y161324D01*
X130430Y161250D01*
X125431Y160070D01*
X119420D01*
X119297Y160124D01*
X118851Y160136D01*
X118508Y160166D01*
X118240Y160210D01*
X118088Y160250D01*
Y161230D01*
X117699Y163189D01*
X116589Y164849D01*
X114929Y165959D01*
X112970Y166348D01*
X105470D01*
X103511Y165959D01*
X101851Y164849D01*
X100741Y163189D01*
X100352Y161230D01*
Y153730D01*
X97282Y151041D01*
X95526Y151174D01*
X92688Y154331D01*
Y161230D01*
X92299Y163189D01*
X91189Y164849D01*
X89529Y165959D01*
X87570Y166348D01*
X80070D01*
X76642Y170180D01*
X77327Y170946D01*
X81359Y174012D01*
X87570D01*
X89529Y174401D01*
X91189Y175511D01*
X92299Y177171D01*
X92688Y179130D01*
Y186630D01*
X92299Y188589D01*
X91189Y190249D01*
X89529Y191359D01*
X87570Y191748D01*
X80070D01*
X76642Y195580D01*
X77327Y196346D01*
X81359Y199412D01*
X87570D01*
X89529Y199801D01*
X91189Y200911D01*
X92299Y202571D01*
X92688Y204530D01*
Y212030D01*
X93480Y213292D01*
X93567Y213357D01*
X95821D01*
X100352Y208641D01*
Y204530D01*
X100741Y202571D01*
X101851Y200911D01*
X103511Y199801D01*
X105470Y199412D01*
X112970D01*
X114929Y199801D01*
X116589Y200911D01*
X117699Y202571D01*
X118088Y204530D01*
Y212030D01*
X120832Y216402D01*
X121733Y217095D01*
X254931D01*
X255063Y216963D01*
X255552Y216637D01*
X255674Y216514D01*
X255835Y216448D01*
X256323Y216121D01*
X256900Y216006D01*
X257060Y215940D01*
X257234D01*
X257810Y215825D01*
X266017D01*
X266780Y215825D01*
X266780Y215825D01*
X271050Y215940D01*
Y217781D01*
X271050Y217781D01*
Y223480D01*
X267356D01*
X266780Y223595D01*
X259419D01*
X259287Y223727D01*
X258027Y224569D01*
X256540Y224865D01*
X121733D01*
X120832Y225558D01*
X118088Y229930D01*
Y237430D01*
X117699Y239389D01*
X116589Y241049D01*
X114929Y242159D01*
X112970Y242548D01*
D02*
G37*
G36*
X611620Y198080D02*
X610120D01*
X608735Y197506D01*
X607674Y196446D01*
X607100Y195060D01*
Y193560D01*
X607674Y192174D01*
X608735Y191114D01*
X610120Y190540D01*
X611620D01*
X613005Y191114D01*
X614066Y192174D01*
X614640Y193560D01*
Y195060D01*
X614066Y196446D01*
X613005Y197506D01*
X611620Y198080D01*
D02*
G37*
G36*
X257810Y193115D02*
X257810Y193115D01*
X257234Y193000D01*
X257060D01*
X256900Y192934D01*
X256323Y192819D01*
X256323Y192819D01*
X255835Y192493D01*
X255674Y192426D01*
X255674Y192426D01*
X255552Y192303D01*
X255063Y191977D01*
X255063Y191977D01*
X254737Y191488D01*
X254614Y191366D01*
X254614Y191366D01*
X254548Y191205D01*
X254221Y190717D01*
X254221Y190717D01*
X254106Y190140D01*
X254040Y189980D01*
Y189806D01*
X253925Y189230D01*
X253925Y189230D01*
X254040Y188654D01*
Y188480D01*
X254040Y188480D01*
X254040Y188480D01*
X254106Y188320D01*
X254221Y187744D01*
X254221Y187743D01*
X254548Y187255D01*
X254614Y187095D01*
X254614Y187094D01*
X254737Y186972D01*
X255063Y186483D01*
X255063Y186483D01*
X256293Y185253D01*
X256293Y185253D01*
X256357Y185210D01*
X257553Y184411D01*
X259040Y184115D01*
X266001D01*
X266579Y184115D01*
X266780Y184075D01*
X271050Y184190D01*
Y186666D01*
X271050Y186666D01*
Y191730D01*
X267518D01*
X266740Y191885D01*
X260649D01*
X260557Y191977D01*
X260557Y191977D01*
X260068Y192303D01*
X259946Y192426D01*
X259945D01*
X259785Y192493D01*
X259297Y192819D01*
X259296D01*
X258720Y192934D01*
X258560Y193000D01*
X258559Y193000D01*
X258386Y193000D01*
X257832Y193110D01*
X257810Y193115D01*
D02*
G37*
G36*
X320016Y182150D02*
X317540Y182150D01*
X317425Y177880D01*
X317465Y177679D01*
X317465Y177101D01*
Y170140D01*
X317761Y168653D01*
X318603Y167393D01*
X319513Y166484D01*
X319833Y166163D01*
X319833Y166163D01*
X320322Y165837D01*
X320444Y165714D01*
X320445D01*
X320605Y165648D01*
X321093Y165321D01*
X321094D01*
X321670Y165206D01*
X321830Y165140D01*
X321830Y165140D01*
X322004D01*
X322580Y165025D01*
X323156Y165140D01*
X323330D01*
X323490Y165206D01*
X324067Y165321D01*
X324067Y165321D01*
X324555Y165648D01*
X324716Y165714D01*
X324716Y165714D01*
X324838Y165837D01*
X325327Y166163D01*
X325653Y166652D01*
X325776Y166774D01*
X325776Y166774D01*
X325843Y166935D01*
X326169Y167423D01*
X326284Y168000D01*
X326350Y168160D01*
Y168334D01*
X326465Y168910D01*
X326465Y168910D01*
X326350Y169487D01*
Y169660D01*
X326350Y169660D01*
X326350Y169660D01*
X326284Y169820D01*
X326169Y170396D01*
X326169Y170397D01*
X325843Y170885D01*
X325776Y171045D01*
Y171046D01*
X325653Y171168D01*
X325327Y171657D01*
X325235Y171749D01*
Y177840D01*
X325080Y178617D01*
Y182112D01*
X325080D01*
Y182150D01*
X320016Y182150D01*
D02*
G37*
G36*
X465578Y187960D02*
X464062D01*
X462662Y187380D01*
X461590Y186308D01*
X461010Y184908D01*
Y183392D01*
X461590Y181992D01*
X462662Y180920D01*
X464062Y180340D01*
X465578D01*
X466978Y180920D01*
X468050Y181992D01*
X468630Y183392D01*
Y184908D01*
X468050Y186308D01*
X466978Y187380D01*
X465578Y187960D01*
D02*
G37*
G36*
X112970Y191748D02*
X105470D01*
X103511Y191359D01*
X101851Y190249D01*
X100741Y188589D01*
X100352Y186630D01*
Y179130D01*
X100741Y177171D01*
X101851Y175511D01*
X103511Y174401D01*
X105470Y174012D01*
X112970D01*
X114929Y174401D01*
X116589Y175511D01*
X117699Y177171D01*
X118088Y179130D01*
Y186630D01*
X117699Y188589D01*
X116589Y190249D01*
X114929Y191359D01*
X112970Y191748D01*
D02*
G37*
G36*
X371590Y137120D02*
X370090D01*
X368704Y136546D01*
X367644Y135485D01*
X367070Y134100D01*
Y132600D01*
X367644Y131215D01*
X368704Y130154D01*
X370090Y129580D01*
X371590D01*
X372976Y130154D01*
X374036Y131215D01*
X374610Y132600D01*
Y134100D01*
X374036Y135485D01*
X372976Y136546D01*
X371590Y137120D01*
D02*
G37*
G36*
X465578Y132080D02*
X464062D01*
X462662Y131500D01*
X461590Y130428D01*
X461010Y129028D01*
Y127512D01*
X461590Y126112D01*
X462662Y125040D01*
X464062Y124460D01*
X465578D01*
X466978Y125040D01*
X468050Y126112D01*
X468630Y127512D01*
Y129028D01*
X468050Y130428D01*
X466978Y131500D01*
X465578Y132080D01*
D02*
G37*
G36*
X642100Y129500D02*
X640600D01*
X639215Y128926D01*
X638154Y127865D01*
X637580Y126480D01*
Y124980D01*
X638154Y123595D01*
X639215Y122534D01*
X640600Y121960D01*
X642100D01*
X643485Y122534D01*
X644546Y123595D01*
X645120Y124980D01*
Y126480D01*
X644546Y127865D01*
X643485Y128926D01*
X642100Y129500D01*
D02*
G37*
G36*
X611620Y88860D02*
X610120D01*
X608735Y88286D01*
X607674Y87226D01*
X607100Y85840D01*
Y84340D01*
X607674Y82955D01*
X608735Y81894D01*
X610120Y81320D01*
X611620D01*
X613005Y81894D01*
X614066Y82955D01*
X614640Y84340D01*
Y85840D01*
X614066Y87226D01*
X613005Y88286D01*
X611620Y88860D01*
D02*
G37*
G36*
X112970Y90148D02*
X105470D01*
X103511Y89759D01*
X101851Y88649D01*
X100741Y86989D01*
X100352Y85030D01*
Y77530D01*
X100741Y75571D01*
X101851Y73911D01*
X103511Y72801D01*
X105470Y72412D01*
X112970D01*
X114929Y72801D01*
X116589Y73911D01*
X117699Y75571D01*
X118088Y77530D01*
Y85030D01*
X117699Y86989D01*
X116589Y88649D01*
X114929Y89759D01*
X112970Y90148D01*
D02*
G37*
G36*
X465578Y77470D02*
X464062D01*
X462662Y76890D01*
X461590Y75818D01*
X461010Y74418D01*
Y72902D01*
X461590Y71502D01*
X462662Y70430D01*
X464062Y69850D01*
X465578D01*
X466978Y70430D01*
X468050Y71502D01*
X468630Y72902D01*
Y74418D01*
X468050Y75818D01*
X466978Y76890D01*
X465578Y77470D01*
D02*
G37*
G36*
X371590Y60920D02*
X370090D01*
X368704Y60346D01*
X367644Y59285D01*
X367070Y57900D01*
Y56400D01*
X367644Y55015D01*
X368704Y53954D01*
X370090Y53380D01*
X371590D01*
X372976Y53954D01*
X374036Y55015D01*
X374610Y56400D01*
Y57900D01*
X374036Y59285D01*
X372976Y60346D01*
X371590Y60920D01*
D02*
G37*
G36*
Y27900D02*
X370090D01*
X368704Y27326D01*
X367644Y26265D01*
X367070Y24880D01*
Y23380D01*
X367644Y21995D01*
X368704Y20934D01*
X370090Y20360D01*
X371590D01*
X372976Y20934D01*
X374036Y21995D01*
X374610Y23380D01*
Y24880D01*
X374036Y26265D01*
X372976Y27326D01*
X371590Y27900D01*
D02*
G37*
G36*
X465578Y22860D02*
X464062D01*
X462662Y22280D01*
X461590Y21208D01*
X461010Y19808D01*
Y18292D01*
X461590Y16892D01*
X462662Y15820D01*
X464062Y15240D01*
X465578D01*
X466978Y15820D01*
X468050Y16892D01*
X468630Y18292D01*
Y19808D01*
X468050Y21208D01*
X466978Y22280D01*
X465578Y22860D01*
D02*
G37*
G36*
X642100Y20280D02*
X640600D01*
X639215Y19706D01*
X638154Y18645D01*
X637580Y17260D01*
Y15760D01*
X638154Y14375D01*
X639215Y13314D01*
X640600Y12740D01*
X642100D01*
X643485Y13314D01*
X644546Y14375D01*
X645120Y15760D01*
Y17260D01*
X644546Y18645D01*
X643485Y19706D01*
X642100Y20280D01*
D02*
G37*
G36*
X125003Y30280D02*
X121377D01*
X117875Y29342D01*
X114735Y27529D01*
X112171Y24965D01*
X110358Y21825D01*
X109420Y18323D01*
Y14697D01*
X110358Y11195D01*
X112171Y8055D01*
X114735Y5491D01*
X117875Y3678D01*
X121377Y2740D01*
X125003D01*
X128505Y3678D01*
X131645Y5491D01*
X134209Y8055D01*
X136022Y11195D01*
X136960Y14697D01*
Y18323D01*
X136022Y21825D01*
X134209Y24965D01*
X131645Y27529D01*
X128505Y29342D01*
X125003Y30280D01*
D02*
G37*
%LPD*%
G36*
X90116Y383177D02*
X90145Y383125D01*
X90195Y383054D01*
X90267Y382965D01*
X90612Y382584D01*
X91151Y382033D01*
X89450Y380142D01*
X89254Y380336D01*
X88439Y381051D01*
X88363Y381096D01*
X88304Y381119D01*
X88263Y381121D01*
X90108Y383210D01*
X90116Y383177D01*
D02*
G37*
G36*
X119481Y378540D02*
X119455Y378781D01*
X119378Y378997D01*
X119250Y379188D01*
X119070Y379353D01*
X118838Y379492D01*
X118556Y379607D01*
X118222Y379696D01*
X117836Y379759D01*
X117399Y379797D01*
X116910Y379810D01*
Y382350D01*
X117399Y382363D01*
X117836Y382401D01*
X118222Y382464D01*
X118556Y382553D01*
X118838Y382668D01*
X119070Y382807D01*
X119250Y382972D01*
X119378Y383163D01*
X119455Y383379D01*
X119481Y383620D01*
Y378540D01*
D02*
G37*
G36*
X114225Y383379D02*
X114302Y383163D01*
X114430Y382972D01*
X114610Y382807D01*
X114842Y382668D01*
X115124Y382553D01*
X115458Y382464D01*
X115844Y382401D01*
X116281Y382363D01*
X116770Y382350D01*
Y379810D01*
X116281Y379797D01*
X115844Y379759D01*
X115458Y379696D01*
X115124Y379607D01*
X114842Y379492D01*
X114610Y379353D01*
X114430Y379188D01*
X114302Y378997D01*
X114225Y378781D01*
X114199Y378540D01*
Y383620D01*
X114225Y383379D01*
D02*
G37*
G36*
X109321Y378500D02*
X109295Y378741D01*
X109218Y378957D01*
X109090Y379148D01*
X108910Y379313D01*
X108678Y379453D01*
X108396Y379567D01*
X108061Y379656D01*
X107676Y379719D01*
X107239Y379757D01*
X106750Y379770D01*
Y382310D01*
X107239Y382323D01*
X107676Y382361D01*
X108061Y382424D01*
X108396Y382513D01*
X108678Y382627D01*
X108910Y382767D01*
X109090Y382932D01*
X109218Y383123D01*
X109295Y383339D01*
X109321Y383580D01*
Y378500D01*
D02*
G37*
G36*
X307308Y401124D02*
X307335Y400951D01*
X307381Y400776D01*
X307446Y400599D01*
X307531Y400420D01*
X307635Y400239D01*
X307757Y400056D01*
X307899Y399871D01*
X308061Y399684D01*
X308241Y399495D01*
X306625Y397879D01*
X306436Y398059D01*
X306064Y398363D01*
X305881Y398485D01*
X305700Y398589D01*
X305521Y398674D01*
X305344Y398739D01*
X305169Y398785D01*
X304996Y398812D01*
X304825Y398820D01*
X307300Y401295D01*
X307308Y401124D01*
D02*
G37*
G36*
X279765Y389248D02*
X279662Y389107D01*
X279570Y388950D01*
X279492Y388779D01*
X279425Y388593D01*
X279370Y388391D01*
X279328Y388175D01*
X279297Y387944D01*
X279279Y387698D01*
X279273Y387437D01*
X276987D01*
X276981Y387698D01*
X276932Y388175D01*
X276890Y388391D01*
X276835Y388593D01*
X276768Y388779D01*
X276690Y388950D01*
X276598Y389107D01*
X276495Y389248D01*
X276380Y389375D01*
X279880D01*
X279765Y389248D01*
D02*
G37*
G36*
X314839Y371762D02*
X314888Y371285D01*
X314930Y371069D01*
X314985Y370867D01*
X315051Y370681D01*
X315130Y370510D01*
X315222Y370353D01*
X315325Y370212D01*
X315440Y370085D01*
X311940D01*
X312055Y370212D01*
X312159Y370353D01*
X312250Y370510D01*
X312328Y370681D01*
X312395Y370867D01*
X312450Y371069D01*
X312492Y371285D01*
X312523Y371516D01*
X312541Y371762D01*
X312547Y372023D01*
X314833D01*
X314839Y371762D01*
D02*
G37*
G36*
X344271Y253920D02*
X344245Y254161D01*
X344168Y254377D01*
X344040Y254568D01*
X343860Y254733D01*
X343628Y254872D01*
X343346Y254987D01*
X343012Y255076D01*
X342626Y255139D01*
X342189Y255177D01*
X341701Y255190D01*
Y257730D01*
X342189Y257743D01*
X342626Y257781D01*
X343012Y257844D01*
X343346Y257933D01*
X343628Y258048D01*
X343860Y258187D01*
X344040Y258352D01*
X344168Y258543D01*
X344245Y258759D01*
X344271Y259000D01*
Y253920D01*
D02*
G37*
G36*
X339015Y258759D02*
X339092Y258543D01*
X339220Y258352D01*
X339400Y258187D01*
X339632Y258048D01*
X339914Y257933D01*
X340249Y257844D01*
X340634Y257781D01*
X341071Y257743D01*
X341559Y257730D01*
Y255190D01*
X341071Y255177D01*
X340634Y255139D01*
X340249Y255076D01*
X339914Y254987D01*
X339632Y254872D01*
X339400Y254733D01*
X339220Y254568D01*
X339092Y254377D01*
X339015Y254161D01*
X338989Y253920D01*
Y259000D01*
X339015Y258759D01*
D02*
G37*
G36*
X349175Y248719D02*
X349252Y248503D01*
X349380Y248312D01*
X349560Y248147D01*
X349792Y248008D01*
X350074Y247893D01*
X350409Y247804D01*
X350794Y247741D01*
X351158Y247709D01*
X351456Y247732D01*
X351671Y247765D01*
X351868Y247807D01*
X352046Y247859D01*
X352205Y247920D01*
X352346Y247990D01*
X352469Y248069D01*
X352573Y248158D01*
X352517Y244659D01*
X352414Y244752D01*
X352293Y244836D01*
X352153Y244909D01*
X351995Y244973D01*
X351818Y245027D01*
X351622Y245071D01*
X351408Y245106D01*
X351175Y245130D01*
X351158Y245131D01*
X350794Y245099D01*
X350409Y245036D01*
X350074Y244947D01*
X349792Y244832D01*
X349560Y244693D01*
X349380Y244528D01*
X349252Y244337D01*
X349175Y244121D01*
X349149Y243880D01*
Y248960D01*
X349175Y248719D01*
D02*
G37*
G36*
X363189Y225897D02*
X363217Y225753D01*
X363265Y225603D01*
X363334Y225447D01*
X363422Y225284D01*
X363530Y225115D01*
X363658Y224939D01*
X363806Y224757D01*
X364161Y224375D01*
X362365Y222579D01*
X362171Y222766D01*
X361801Y223082D01*
X361625Y223210D01*
X361456Y223318D01*
X361293Y223406D01*
X361137Y223475D01*
X360987Y223523D01*
X360843Y223552D01*
X360705Y223560D01*
X363180Y226035D01*
X363189Y225897D01*
D02*
G37*
G36*
X362339Y216551D02*
X362257Y216429D01*
X362185Y216289D01*
X362123Y216130D01*
X362070Y215952D01*
X362027Y215756D01*
X361993Y215542D01*
X361969Y215309D01*
X361950Y214787D01*
X359410D01*
X359405Y215057D01*
X359367Y215542D01*
X359333Y215756D01*
X359290Y215952D01*
X359237Y216130D01*
X359175Y216289D01*
X359103Y216429D01*
X359021Y216551D01*
X358930Y216655D01*
X362430D01*
X362339Y216551D01*
D02*
G37*
G36*
X353835Y191859D02*
X353694Y191876D01*
X353548Y191870D01*
X353396Y191841D01*
X353237Y191790D01*
X353073Y191716D01*
X352902Y191620D01*
X352726Y191501D01*
X352543Y191360D01*
X352354Y191196D01*
X352160Y191009D01*
X350770Y193211D01*
X350961Y193407D01*
X351427Y193939D01*
X351546Y194099D01*
X351730Y194389D01*
X351795Y194521D01*
X351841Y194643D01*
X351870Y194756D01*
X353835Y191859D01*
D02*
G37*
G36*
X348355Y194012D02*
X348431Y193808D01*
X348558Y193628D01*
X348736Y193472D01*
X348965Y193340D01*
X349244Y193232D01*
X349574Y193148D01*
X349955Y193088D01*
X350387Y193052D01*
X350869Y193040D01*
Y190500D01*
X350387Y190488D01*
X349955Y190452D01*
X349574Y190392D01*
X349244Y190308D01*
X348965Y190200D01*
X348736Y190068D01*
X348558Y189912D01*
X348431Y189732D01*
X348355Y189528D01*
X348330Y189300D01*
Y194240D01*
X348355Y194012D01*
D02*
G37*
G36*
X282695Y162080D02*
X282591Y162171D01*
X282469Y162253D01*
X282329Y162325D01*
X282170Y162387D01*
X281992Y162440D01*
X281796Y162483D01*
X281582Y162517D01*
X281349Y162541D01*
X280827Y162560D01*
Y165100D01*
X281097Y165105D01*
X281582Y165143D01*
X281796Y165177D01*
X281992Y165220D01*
X282170Y165273D01*
X282329Y165335D01*
X282469Y165407D01*
X282591Y165489D01*
X282695Y165580D01*
Y162080D01*
D02*
G37*
G36*
X149466Y159950D02*
X148963Y159429D01*
X148172Y158495D01*
X147885Y158082D01*
X147669Y157704D01*
X147526Y157363D01*
X147454Y157058D01*
Y156789D01*
X147526Y156555D01*
X147669Y156357D01*
X144077Y159950D01*
X144275Y159806D01*
X144508Y159734D01*
X144778D01*
X145083Y159806D01*
X145424Y159950D01*
X145802Y160165D01*
X146215Y160452D01*
X146664Y160812D01*
X147669Y161746D01*
X149466Y159950D01*
D02*
G37*
G36*
X290805Y157520D02*
X290667Y157512D01*
X290523Y157483D01*
X290373Y157435D01*
X290217Y157366D01*
X290054Y157278D01*
X289885Y157170D01*
X289709Y157042D01*
X289527Y156894D01*
X289145Y156539D01*
X287349Y158335D01*
X287536Y158529D01*
X287852Y158899D01*
X287980Y159075D01*
X288088Y159244D01*
X288176Y159407D01*
X288245Y159563D01*
X288293Y159713D01*
X288321Y159857D01*
X288330Y159995D01*
X290805Y157520D01*
D02*
G37*
G36*
X131730Y155010D02*
X131705Y155238D01*
X131629Y155442D01*
X131502Y155622D01*
X131324Y155778D01*
X131095Y155910D01*
X130816Y156018D01*
X130486Y156102D01*
X130105Y156162D01*
X129673Y156198D01*
X129190Y156210D01*
Y158750D01*
X129673Y158762D01*
X130105Y158798D01*
X130486Y158858D01*
X130816Y158942D01*
X131095Y159050D01*
X131324Y159182D01*
X131502Y159338D01*
X131629Y159518D01*
X131705Y159722D01*
X131730Y159950D01*
Y155010D01*
D02*
G37*
G36*
X116717Y159779D02*
X116794Y159563D01*
X116923Y159372D01*
X117102Y159207D01*
X117334Y159067D01*
X117617Y158953D01*
X117951Y158864D01*
X118336Y158801D01*
X118773Y158763D01*
X119262Y158750D01*
Y156210D01*
X118773Y156197D01*
X118336Y156159D01*
X117951Y156096D01*
X117617Y156007D01*
X117334Y155892D01*
X117102Y155753D01*
X116923Y155588D01*
X116794Y155397D01*
X116717Y155181D01*
X116691Y154940D01*
Y160020D01*
X116717Y159779D01*
D02*
G37*
G36*
X91128Y153401D02*
X91048Y153180D01*
X91033Y152930D01*
X91083Y152650D01*
X91197Y152342D01*
X91376Y152003D01*
X91620Y151636D01*
X91928Y151239D01*
X92301Y150813D01*
X92739Y150357D01*
X90943Y148561D01*
X90487Y148999D01*
X89664Y149680D01*
X89297Y149924D01*
X88958Y150103D01*
X88650Y150217D01*
X88370Y150267D01*
X88120Y150252D01*
X87899Y150172D01*
X87707Y150027D01*
X91273Y153593D01*
X91128Y153401D01*
D02*
G37*
G36*
X149466Y147249D02*
X148960Y146726D01*
X148163Y145788D01*
X147873Y145374D01*
X147654Y144997D01*
X147508Y144656D01*
X147433Y144352D01*
X147430Y144084D01*
X147498Y143852D01*
X147639Y143657D01*
X144077Y147219D01*
X144272Y147078D01*
X144504Y147010D01*
X144771Y147013D01*
X145076Y147087D01*
X145417Y147234D01*
X145794Y147453D01*
X146208Y147743D01*
X146659Y148105D01*
X147669Y149045D01*
X149466Y147249D01*
D02*
G37*
G36*
X131730Y142310D02*
X131705Y142538D01*
X131629Y142742D01*
X131502Y142922D01*
X131324Y143078D01*
X131096Y143210D01*
X130816Y143318D01*
X130486Y143402D01*
X130105Y143462D01*
X129673Y143498D01*
X129191Y143510D01*
Y146050D01*
X129673Y146062D01*
X130105Y146098D01*
X130486Y146158D01*
X130816Y146242D01*
X131096Y146350D01*
X131324Y146482D01*
X131502Y146638D01*
X131629Y146818D01*
X131705Y147022D01*
X131730Y147249D01*
Y142310D01*
D02*
G37*
D12*
X210820Y414020D02*
X227330D01*
X203200Y421640D02*
X210820Y414020D01*
X161290Y422910D02*
Y431800D01*
X174580Y408350D02*
Y409620D01*
Y408350D02*
X175066Y407864D01*
X161290Y422910D02*
X174580Y409620D01*
X292100Y29210D02*
Y40204D01*
Y29210D02*
X297180Y24130D01*
X302260D01*
X299720Y33020D02*
X302260D01*
X297180Y35560D02*
X299720Y33020D01*
X297180Y35560D02*
Y38100D01*
X292100Y40204D02*
X297616Y45720D01*
X297180Y38100D02*
X299720Y40640D01*
X297616Y45720D02*
X325556D01*
X299720Y40640D02*
X327660D01*
X325556Y45720D02*
X327660Y47824D01*
Y40640D02*
X332740Y45720D01*
Y142240D01*
X59690Y41910D02*
Y49150D01*
X76200Y41910D02*
Y49150D01*
X87848Y383540D02*
X90348Y381040D01*
X111720D01*
X87630Y383540D02*
X87848D01*
X327660Y144780D02*
X360680Y177800D01*
X327660Y47824D02*
Y144780D01*
X360680Y226060D02*
X365760Y220980D01*
Y175260D02*
Y220980D01*
X332740Y142240D02*
X365760Y175260D01*
X360680Y177800D02*
Y218440D01*
X145200Y144780D02*
X156630Y156210D01*
X287020D02*
X290830Y160020D01*
X156630Y156210D02*
X287020D01*
X144700Y144780D02*
X145200D01*
X151550Y163830D02*
X284480D01*
X145200Y157480D02*
X151550Y163830D01*
X83820Y157480D02*
X96520Y144780D01*
X134700D01*
X109220Y157480D02*
X109220Y157480D01*
X134700D01*
X111760Y381080D02*
X121920D01*
X111720Y381040D02*
X111760Y381080D01*
X336550Y256460D02*
X346710D01*
X346750Y246420D02*
X354290D01*
X354330Y246380D01*
X346710Y246460D02*
X346750Y246420D01*
X345360Y191770D02*
X351124D01*
X353664Y194310D01*
X354330D01*
D24*
X104140Y341630D02*
D03*
X119380D02*
D03*
D25*
X345360Y201930D02*
D03*
X335360D02*
D03*
X345360Y181610D02*
D03*
X335360D02*
D03*
X345360Y212090D02*
D03*
X335360D02*
D03*
X345360Y234950D02*
D03*
X335360D02*
D03*
X134700Y157480D02*
D03*
X144700D02*
D03*
X345360Y191770D02*
D03*
X335360D02*
D03*
X134700Y144780D02*
D03*
X144700D02*
D03*
X276780Y219710D02*
D03*
X266780D02*
D03*
X276780Y187960D02*
D03*
X266780D02*
D03*
X276780Y242570D02*
D03*
X266780D02*
D03*
D26*
X316230Y256460D02*
D03*
Y246460D02*
D03*
X300990Y177880D02*
D03*
Y187880D02*
D03*
X326390Y256460D02*
D03*
Y246460D02*
D03*
X321310Y177880D02*
D03*
Y187880D02*
D03*
X297180Y256460D02*
D03*
Y246460D02*
D03*
X287020Y256460D02*
D03*
Y246460D02*
D03*
X336550Y246460D02*
D03*
Y256460D02*
D03*
X290830Y177880D02*
D03*
Y187880D02*
D03*
X346710Y246460D02*
D03*
Y256460D02*
D03*
X111760Y381080D02*
D03*
Y391080D02*
D03*
X121920Y391080D02*
D03*
Y381080D02*
D03*
D31*
X59690Y65150D02*
D03*
Y49150D02*
D03*
X76200D02*
D03*
Y65150D02*
D03*
D36*
X161290Y431800D02*
D03*
Y447040D02*
D03*
D100*
X83820Y65150D02*
Y81280D01*
X76200Y65150D02*
X83820D01*
X59690D02*
X76200D01*
X344170Y417830D02*
X449580D01*
X337820Y424180D02*
X344170Y417830D01*
X119380Y341630D02*
X128270D01*
X97790D02*
X104140D01*
X128027Y373137D02*
Y375677D01*
X123190Y368300D02*
X128027Y373137D01*
Y375677D02*
X133350Y381000D01*
X472440Y410210D02*
X501650D01*
X506730Y405130D01*
X464820Y402590D02*
X472440Y410210D01*
X510540Y401320D02*
X636270D01*
X506730Y405130D02*
X510540Y401320D01*
X287020Y330200D02*
X455930D01*
X119380Y407670D02*
Y429260D01*
Y407670D02*
X121920Y405130D01*
X121920Y405130D01*
Y391080D02*
Y405130D01*
X449580Y417830D02*
X464820Y402590D01*
X77470Y220980D02*
X256540D01*
X69850Y95250D02*
Y213360D01*
X77470Y220980D01*
X326390Y264160D02*
X327660Y265430D01*
X326390Y256460D02*
Y264160D01*
X69850Y95250D02*
X83820Y81280D01*
X256540Y220980D02*
X257810Y219710D01*
X321350Y170140D02*
X322580Y168910D01*
X321350Y170140D02*
Y177840D01*
X321310Y177880D02*
X321350Y177840D01*
X266780Y219710D02*
X266780Y219710D01*
X257810Y219710D02*
X266780D01*
X100330Y368300D02*
X123190D01*
X345360Y234950D02*
X353060D01*
X354330Y236220D01*
X350520Y181610D02*
X354330Y185420D01*
X345360Y181610D02*
X350520D01*
X259040Y188000D02*
X266740D01*
X257810Y189230D02*
X259040Y188000D01*
X266740D02*
X266780Y187960D01*
X259040Y242530D02*
X266740D01*
X257810Y241300D02*
X259040Y242530D01*
X266740D02*
X266780Y242570D01*
X297180Y256460D02*
Y264160D01*
X298450Y265430D01*
X287060Y256500D02*
Y262930D01*
X289560Y265430D01*
X287020Y256460D02*
X287060Y256500D01*
X316230Y256460D02*
Y264160D01*
X317500Y265430D01*
X345360Y212090D02*
X353060D01*
X354330Y213360D01*
X353060Y201930D02*
X354330Y203200D01*
X345360Y201930D02*
X353060D01*
X300990Y170180D02*
Y177880D01*
Y170180D02*
X302260Y168910D01*
X290830Y177880D02*
X290870Y177840D01*
Y172680D02*
Y177840D01*
Y172680D02*
X294640Y168910D01*
D101*
X317500Y360680D02*
X325120Y368300D01*
X278130Y372110D02*
X289560Y360680D01*
X317500D01*
X278130Y372110D02*
Y391160D01*
X304800Y401320D02*
X313690Y392430D01*
Y368300D02*
Y392430D01*
D107*
X109220Y81280D02*
D03*
X83820D02*
D03*
X109220Y132080D02*
D03*
X83820D02*
D03*
X109220Y233680D02*
D03*
Y284480D02*
D03*
Y309880D02*
D03*
Y259080D02*
D03*
X83820D02*
D03*
Y309880D02*
D03*
Y284480D02*
D03*
Y233680D02*
D03*
Y208280D02*
D03*
X109220D02*
D03*
Y182880D02*
D03*
X83820D02*
D03*
Y157480D02*
D03*
X109220D02*
D03*
X83820Y106680D02*
D03*
X109220D02*
D03*
D108*
X17780Y393700D02*
D03*
D109*
X43180D02*
D03*
D110*
X486410Y440690D02*
D03*
X387350D02*
D03*
X361950Y-8890D02*
D03*
X461010D02*
D03*
X402590Y311150D02*
D03*
X410210Y200660D02*
D03*
X405130Y93980D02*
D03*
X527050Y318770D02*
D03*
Y208280D02*
D03*
Y99060D02*
D03*
X577850D02*
D03*
Y208280D02*
D03*
Y318770D02*
D03*
D111*
X123190Y16510D02*
D03*
X98190Y-8490D02*
D03*
X148190D02*
D03*
Y41510D02*
D03*
X98190D02*
D03*
D112*
X572770Y1270D02*
D03*
Y434340D02*
D03*
X29210D02*
D03*
Y1270D02*
D03*
D113*
X114046Y403860D02*
D03*
X601370Y146050D02*
D03*
X601040Y255270D02*
D03*
X600710Y363220D02*
D03*
X601370Y36830D02*
D03*
X683260Y388620D02*
D03*
X689610D02*
D03*
X695960D02*
D03*
X683260Y373380D02*
D03*
X689610D02*
D03*
X695960D02*
D03*
X676910D02*
D03*
X670560D02*
D03*
X676910Y388620D02*
D03*
X670560D02*
D03*
X684530Y279400D02*
D03*
X690880D02*
D03*
X697230D02*
D03*
X684530Y264160D02*
D03*
X690880D02*
D03*
X697230D02*
D03*
X678180D02*
D03*
X671830D02*
D03*
X678180Y279400D02*
D03*
X671830D02*
D03*
X683260Y170180D02*
D03*
X689610D02*
D03*
X695960D02*
D03*
X683260Y154940D02*
D03*
X689610D02*
D03*
X695960D02*
D03*
X676910D02*
D03*
X670560D02*
D03*
X676910Y170180D02*
D03*
X670560D02*
D03*
X668020Y60960D02*
D03*
X674370D02*
D03*
X668020Y45720D02*
D03*
X674370D02*
D03*
X693420D02*
D03*
X687070D02*
D03*
X680720D02*
D03*
X693420Y60960D02*
D03*
X687070D02*
D03*
X680720D02*
D03*
X628650Y283210D02*
D03*
X370840Y275590D02*
D03*
X87630Y383540D02*
D03*
X500380Y24130D02*
D03*
Y133350D02*
D03*
Y242570D02*
D03*
Y351790D02*
D03*
X284480Y163830D02*
D03*
X327660Y265430D02*
D03*
X641350Y125730D02*
D03*
X610870Y412750D02*
D03*
X600710Y346710D02*
D03*
X360680Y218440D02*
D03*
Y226060D02*
D03*
X186690Y336550D02*
D03*
Y342900D02*
D03*
Y349250D02*
D03*
X138430Y336550D02*
D03*
Y342900D02*
D03*
Y349250D02*
D03*
X304800Y401320D02*
D03*
X100330Y394970D02*
D03*
X396240Y341630D02*
D03*
Y394970D02*
D03*
Y285750D02*
D03*
Y232410D02*
D03*
Y176530D02*
D03*
Y123190D02*
D03*
Y67310D02*
D03*
Y13970D02*
D03*
X406400Y24130D02*
D03*
Y57150D02*
D03*
Y133350D02*
D03*
Y166370D02*
D03*
Y242570D02*
D03*
Y275590D02*
D03*
Y351790D02*
D03*
Y384810D02*
D03*
X66040Y331470D02*
D03*
X48260Y326390D02*
D03*
X30480D02*
D03*
X12700D02*
D03*
X88900Y339090D02*
D03*
X111760Y424180D02*
D03*
X294640Y393700D02*
D03*
Y387350D02*
D03*
Y373380D02*
D03*
Y379730D02*
D03*
X242570Y388620D02*
D03*
Y374650D02*
D03*
Y360680D02*
D03*
X251460Y350520D02*
D03*
Y419100D02*
D03*
Y398780D02*
D03*
X320040Y425450D02*
D03*
X330200Y416560D02*
D03*
X326390Y358140D02*
D03*
X294640Y419100D02*
D03*
X266700Y398780D02*
D03*
X278130Y391160D02*
D03*
X313690Y368300D02*
D03*
X325120D02*
D03*
X290830Y160020D02*
D03*
X322580Y168910D02*
D03*
X257810Y219710D02*
D03*
X370840Y24130D02*
D03*
Y57150D02*
D03*
Y133350D02*
D03*
Y166370D02*
D03*
X370840Y351790D02*
D03*
Y384810D02*
D03*
X370840Y242570D02*
D03*
X435610Y16510D02*
D03*
X581660Y63500D02*
D03*
X563880D02*
D03*
X548640D02*
D03*
X530860D02*
D03*
X515620D02*
D03*
X497840D02*
D03*
Y31750D02*
D03*
X515620D02*
D03*
X523240Y24130D02*
D03*
X530860Y31750D02*
D03*
X548640D02*
D03*
X556260Y24130D02*
D03*
X563880Y31750D02*
D03*
X581660D02*
D03*
X589280Y24130D02*
D03*
X600710Y19050D02*
D03*
X628650Y64770D02*
D03*
X415290Y170180D02*
D03*
X435610Y125730D02*
D03*
X497840Y140970D02*
D03*
Y172720D02*
D03*
X515620D02*
D03*
X530860D02*
D03*
X548640D02*
D03*
X581660D02*
D03*
X563880D02*
D03*
X515620Y140970D02*
D03*
X523240Y133350D02*
D03*
X530860Y140970D02*
D03*
X548640D02*
D03*
X556260Y133350D02*
D03*
X563880Y140970D02*
D03*
X581660D02*
D03*
X589280Y133350D02*
D03*
X600710Y128270D02*
D03*
X628650Y173990D02*
D03*
X610870Y194310D02*
D03*
X641350Y16510D02*
D03*
X610870Y85090D02*
D03*
X435610Y344170D02*
D03*
X435610Y234950D02*
D03*
X581660Y391160D02*
D03*
X563880D02*
D03*
X548640D02*
D03*
X530860D02*
D03*
X515620D02*
D03*
X497840D02*
D03*
Y359410D02*
D03*
X515620D02*
D03*
X523240Y351790D02*
D03*
X530860Y359410D02*
D03*
X548640D02*
D03*
X556260Y351790D02*
D03*
X563880Y359410D02*
D03*
X581660D02*
D03*
X589280Y351790D02*
D03*
X628650Y392430D02*
D03*
X600710Y237490D02*
D03*
X589280Y242570D02*
D03*
X581660Y250190D02*
D03*
X556260Y242570D02*
D03*
X563880Y250190D02*
D03*
X548640D02*
D03*
X581660Y281940D02*
D03*
X563880D02*
D03*
X548640D02*
D03*
X515620D02*
D03*
X530860D02*
D03*
X523240Y242570D02*
D03*
X530860Y250190D02*
D03*
X515620D02*
D03*
X497840D02*
D03*
Y281940D02*
D03*
X641350Y344170D02*
D03*
Y234950D02*
D03*
X610870Y303530D02*
D03*
X100330Y368300D02*
D03*
X354330Y246380D02*
D03*
Y236220D02*
D03*
Y194310D02*
D03*
X325120Y198120D02*
D03*
X318770D02*
D03*
X312420D02*
D03*
X306070D02*
D03*
X299720D02*
D03*
X293370D02*
D03*
X287020D02*
D03*
X325120Y236220D02*
D03*
X318770D02*
D03*
X312420D02*
D03*
X306070D02*
D03*
X299720D02*
D03*
X293370D02*
D03*
X287020D02*
D03*
Y229870D02*
D03*
Y223520D02*
D03*
Y217170D02*
D03*
Y210820D02*
D03*
Y204470D02*
D03*
X293370D02*
D03*
X299720D02*
D03*
X293370Y210820D02*
D03*
Y217170D02*
D03*
Y223520D02*
D03*
Y229870D02*
D03*
X299720D02*
D03*
Y217170D02*
D03*
Y210820D02*
D03*
Y223520D02*
D03*
X306070Y229870D02*
D03*
X312420D02*
D03*
X318770D02*
D03*
X325120D02*
D03*
Y223520D02*
D03*
X312420D02*
D03*
X306070D02*
D03*
X318770D02*
D03*
Y210820D02*
D03*
X306070D02*
D03*
Y204470D02*
D03*
X312420D02*
D03*
Y210820D02*
D03*
X318770Y204470D02*
D03*
X325120D02*
D03*
Y210820D02*
D03*
Y217170D02*
D03*
X318770D02*
D03*
X312420D02*
D03*
X306070D02*
D03*
X257810Y241300D02*
D03*
X289560Y265430D02*
D03*
X298450D02*
D03*
X317500D02*
D03*
X354330Y213360D02*
D03*
Y203200D02*
D03*
Y185420D02*
D03*
X302260Y168910D02*
D03*
X294640D02*
D03*
X257810Y189230D02*
D03*
D114*
X59690Y279400D02*
D03*
X25400Y88900D02*
D03*
X54610Y115570D02*
D03*
X17780Y105410D02*
D03*
X25400Y179070D02*
D03*
Y205740D02*
D03*
X55880Y217170D02*
D03*
X34290Y218440D02*
D03*
X29210Y241300D02*
D03*
X243840Y-2540D02*
D03*
X228600D02*
D03*
X218440Y5080D02*
D03*
X203200D02*
D03*
X158750Y-22860D02*
D03*
X208280Y-17780D02*
D03*
X283210Y-11430D02*
D03*
X267970Y-8890D02*
D03*
X337820Y424180D02*
D03*
X645187Y63270D02*
D03*
X635041Y62730D02*
D03*
X628885Y46127D02*
D03*
X638675Y43411D02*
D03*
X453210Y51930D02*
D03*
X444320D02*
D03*
X448840Y45680D02*
D03*
X444500Y39370D02*
D03*
X453390D02*
D03*
X453210Y161150D02*
D03*
X444320D02*
D03*
X448840Y154900D02*
D03*
X444500Y148590D02*
D03*
X453390D02*
D03*
X453210Y270450D02*
D03*
X444320D02*
D03*
X448840Y264200D02*
D03*
X444500Y257890D02*
D03*
X453390D02*
D03*
X453390Y367030D02*
D03*
X444500D02*
D03*
X448840Y373340D02*
D03*
X444320Y379590D02*
D03*
X453210D02*
D03*
X208840Y391650D02*
D03*
X203660Y396170D02*
D03*
X215090D02*
D03*
Y387280D02*
D03*
X203660D02*
D03*
X149860Y387350D02*
D03*
X161290D02*
D03*
Y396240D02*
D03*
X149860D02*
D03*
X155040Y391720D02*
D03*
X675640Y10160D02*
D03*
X683260D02*
D03*
X690880D02*
D03*
X660400D02*
D03*
X668020D02*
D03*
X675640Y96520D02*
D03*
X683260D02*
D03*
X690880D02*
D03*
X660400D02*
D03*
X668020D02*
D03*
X675640Y119380D02*
D03*
X683260D02*
D03*
X690880D02*
D03*
X660400D02*
D03*
X668020D02*
D03*
X675640Y205740D02*
D03*
X683260D02*
D03*
X690880D02*
D03*
X660400D02*
D03*
X668020D02*
D03*
X675640Y228600D02*
D03*
X683260D02*
D03*
X690880D02*
D03*
X660400D02*
D03*
X668020D02*
D03*
X675640Y314960D02*
D03*
X683260D02*
D03*
X690880D02*
D03*
X660400D02*
D03*
X668020D02*
D03*
X675640Y337820D02*
D03*
X683260D02*
D03*
X690880D02*
D03*
X660400D02*
D03*
X668020D02*
D03*
Y424180D02*
D03*
X660400D02*
D03*
X690880D02*
D03*
X683260D02*
D03*
X675640D02*
D03*
X370128Y377394D02*
D03*
X359969Y377253D02*
D03*
X351793Y371222D02*
D03*
X344608Y364038D02*
D03*
X330240Y349669D02*
D03*
X323056Y342485D02*
D03*
X301503Y320932D02*
D03*
X297016Y311817D02*
D03*
Y301657D02*
D03*
Y291497D02*
D03*
Y281337D02*
D03*
X315124Y280578D02*
D03*
Y290738D02*
D03*
Y300898D02*
D03*
X316432Y310973D02*
D03*
X323616Y318157D02*
D03*
X345169Y339710D02*
D03*
X352353Y346894D02*
D03*
X359537Y354078D02*
D03*
X368309Y359206D02*
D03*
X353942Y275794D02*
D03*
X343782D02*
D03*
X333741Y274246D02*
D03*
X363047Y275637D02*
D03*
X361658Y255182D02*
D03*
X370780Y250709D02*
D03*
X351436Y140836D02*
D03*
X361595Y140766D02*
D03*
X302016Y153973D02*
D03*
Y133653D02*
D03*
Y123493D02*
D03*
X302216Y113335D02*
D03*
X308382Y105259D02*
D03*
X315566Y98075D02*
D03*
X347100Y38601D02*
D03*
X354802Y31976D02*
D03*
X364953Y31546D02*
D03*
X369807Y49734D02*
D03*
X359747Y51151D02*
D03*
X352562Y58335D02*
D03*
X351994Y68479D02*
D03*
Y78639D02*
D03*
X350745Y88722D02*
D03*
X343728Y96070D02*
D03*
X322176Y117623D02*
D03*
X320124Y158054D02*
D03*
X325778Y152167D02*
D03*
X321106Y143145D02*
D03*
Y132985D02*
D03*
Y122825D02*
D03*
Y92345D02*
D03*
Y82185D02*
D03*
Y72025D02*
D03*
Y61865D02*
D03*
X317753Y52274D02*
D03*
X307593D02*
D03*
X297433Y52238D02*
D03*
X289080Y46454D02*
D03*
X290017Y17400D02*
D03*
X300153Y16701D02*
D03*
X309309Y21105D02*
D03*
X315192Y34086D02*
D03*
X325352D02*
D03*
X334595Y38306D02*
D03*
X339294Y47313D02*
D03*
Y108273D02*
D03*
Y118433D02*
D03*
Y128593D02*
D03*
Y138753D02*
D03*
X372314Y207364D02*
D03*
X201814Y28922D02*
D03*
X193357Y23290D02*
D03*
X183197D02*
D03*
X173037D02*
D03*
X162877D02*
D03*
X152717D02*
D03*
X142557D02*
D03*
X134818Y29872D02*
D03*
X125548Y34032D02*
D03*
X115510Y32465D02*
D03*
X107995Y25628D02*
D03*
X105453Y15791D02*
D03*
X108814Y6203D02*
D03*
X116858Y-3D02*
D03*
X126985Y-822D02*
D03*
X135857Y4128D02*
D03*
X144333Y9730D02*
D03*
X154494D02*
D03*
X164653D02*
D03*
X174813D02*
D03*
X184974D02*
D03*
X195133D02*
D03*
X204830Y12762D02*
D03*
X218300Y27782D02*
D03*
X299720Y160020D02*
D03*
X297180Y147320D02*
D03*
X294640Y133350D02*
D03*
X284480Y139700D02*
D03*
X285750Y148590D02*
D03*
X267016Y177321D02*
D03*
X263818Y147358D02*
D03*
X255632Y141340D02*
D03*
X226946Y138578D02*
D03*
X267275Y132276D02*
D03*
X254000Y148590D02*
D03*
X246380Y170180D02*
D03*
X257810Y173990D02*
D03*
X254000Y181610D02*
D03*
X373380Y201930D02*
D03*
Y194310D02*
D03*
Y185420D02*
D03*
X359410Y160020D02*
D03*
X345440Y171450D02*
D03*
X327660Y162560D02*
D03*
X294640Y365760D02*
D03*
Y403860D02*
D03*
Y411480D02*
D03*
X421640Y129540D02*
D03*
X182880Y101600D02*
D03*
X236220Y121620D02*
D03*
Y147620D02*
D03*
X292400Y118110D02*
D03*
X266700D02*
D03*
X177800Y46990D02*
D03*
X237490Y15240D02*
D03*
X215900D02*
D03*
X203200Y421640D02*
D03*
X227330Y414020D02*
D03*
X96520Y354330D02*
D03*
X133350Y381000D02*
D03*
X128270Y341630D02*
D03*
X636270Y401320D02*
D03*
X506730Y405130D02*
D03*
X464820Y236220D02*
D03*
X455930Y330200D02*
D03*
X180340Y147320D02*
D03*
X129540Y120650D02*
D03*
X149860Y120650D02*
D03*
X195580Y147320D02*
D03*
X214630Y151130D02*
D03*
X205740Y448310D02*
D03*
X147320Y447040D02*
D03*
X119380Y429260D02*
D03*
X181610Y394970D02*
D03*
X175066Y407864D02*
D03*
X121920Y405130D02*
D03*
X280670Y308610D02*
D03*
X287020Y330200D02*
D03*
X345440Y445770D02*
D03*
X173990Y363220D02*
D03*
X220980Y340360D02*
D03*
X228172Y360680D02*
D03*
X171450Y344170D02*
D03*
X127000Y426720D02*
D03*
X139700Y416560D02*
D03*
X161290Y422910D02*
D03*
X168910Y425450D02*
D03*
X393700Y213360D02*
D03*
X302260Y33020D02*
D03*
X59690Y41910D02*
D03*
X76200D02*
D03*
X302260Y24130D02*
D03*
X278130Y55880D02*
D03*
Y-1350D02*
D03*
X467360Y342900D02*
D03*
X420370Y20320D02*
D03*
X448310Y179070D02*
D03*
X477520Y185420D02*
D03*
X449580Y24130D02*
D03*
X477520Y13970D02*
D03*
X464820Y19050D02*
D03*
X449580Y68580D02*
D03*
X477520Y76200D02*
D03*
X464820Y73660D02*
D03*
X477520Y124460D02*
D03*
X449580Y133350D02*
D03*
X464820Y128270D02*
D03*
Y184150D02*
D03*
X449580Y242570D02*
D03*
X477520Y232410D02*
D03*
X449580Y285750D02*
D03*
X477520Y293370D02*
D03*
X464820Y290830D02*
D03*
X448310Y394970D02*
D03*
X477520Y403860D02*
D03*
X464820Y402590D02*
D03*
X490220Y396240D02*
D03*
X419100Y347980D02*
D03*
D115*
X688340Y439420D02*
D03*
X673100Y-17780D02*
D03*
X657860Y439420D02*
D03*
X642620Y-17780D02*
D03*
X627380Y439420D02*
D03*
X612140Y-17780D02*
D03*
X581660Y347980D02*
D03*
X551180Y408940D02*
D03*
Y347980D02*
D03*
Y226060D02*
D03*
X566420Y134620D02*
D03*
X551180Y104140D02*
D03*
X566420Y73660D02*
D03*
X551180Y-17780D02*
D03*
X535940Y439420D02*
D03*
X520700Y408940D02*
D03*
Y226060D02*
D03*
X535940Y134620D02*
D03*
Y73660D02*
D03*
X520700Y-17780D02*
D03*
X505460Y439420D02*
D03*
Y73660D02*
D03*
X490220Y-17780D02*
D03*
X444500Y439420D02*
D03*
X429260Y408940D02*
D03*
Y-17780D02*
D03*
X414020Y439420D02*
D03*
X398780Y408940D02*
D03*
Y226060D02*
D03*
X414020Y134620D02*
D03*
Y73660D02*
D03*
Y12700D02*
D03*
X398780Y-17780D02*
D03*
X368300Y408940D02*
D03*
X353060Y439420D02*
D03*
Y378460D02*
D03*
Y12700D02*
D03*
X337820Y-17780D02*
D03*
X322580Y439420D02*
D03*
X307340Y347980D02*
D03*
X322580Y12700D02*
D03*
X307340Y-17780D02*
D03*
X276860Y347980D02*
D03*
Y104140D02*
D03*
X292100Y73660D02*
D03*
X246380Y104140D02*
D03*
X261620Y73660D02*
D03*
X246380Y43180D02*
D03*
X231140Y378460D02*
D03*
X215900Y104140D02*
D03*
X231140Y73660D02*
D03*
X200660D02*
D03*
X185420Y43180D02*
D03*
X170180Y378460D02*
D03*
X154940Y104140D02*
D03*
X170180Y73660D02*
D03*
X139700Y378460D02*
D03*
X124460Y165100D02*
D03*
Y43180D02*
D03*
Y-17780D02*
D03*
X78740Y439420D02*
D03*
X63500Y104140D02*
D03*
X78740Y12700D02*
D03*
X63500Y-17780D02*
D03*
X48260Y317500D02*
D03*
X33020Y287020D02*
D03*
X48260Y195580D02*
D03*
Y134620D02*
D03*
X33020Y43180D02*
D03*
D116*
X675640Y271780D02*
D03*
Y162560D02*
D03*
Y53340D02*
D03*
Y381000D02*
D03*
M02*
